<?xml version="1.0" encoding="utf-8" standalone="no"?>
<!DOCTYPE svg PUBLIC "-//W3C//DTD SVG 1.1//EN"
  "http://www.w3.org/Graphics/SVG/1.1/DTD/svg11.dtd">
<svg xmlns:xlink="http://www.w3.org/1999/xlink" width="293.4pt" height="221.4pt" viewBox="0 0 293.4 221.4" xmlns="http://www.w3.org/2000/svg" version="1.1">
 <metadata>
  <rdf:RDF xmlns:dc="http://purl.org/dc/elements/1.1/" xmlns:cc="http://creativecommons.org/ns#" xmlns:rdf="http://www.w3.org/1999/02/22-rdf-syntax-ns#">
   <cc:Work>
    <dc:type rdf:resource="http://purl.org/dc/dcmitype/StillImage"/>
    <dc:date>2026-06-23T10:11:30.786564</dc:date>
    <dc:format>image/svg+xml</dc:format>
    <dc:creator>
     <cc:Agent>
      <dc:title>Matplotlib v3.10.0, https://matplotlib.org/</dc:title>
     </cc:Agent>
    </dc:creator>
   </cc:Work>
  </rdf:RDF>
 </metadata>
 <defs>
  <style type="text/css">*{stroke-linejoin: round; stroke-linecap: butt}</style>
 </defs>
 <g id="figure_1">
  <g id="patch_1">
   <path d="M 0 221.4 
L 293.4 221.4 
L 293.4 0 
L 0 0 
z
" style="fill: #ffffff"/>
  </g>
  <g id="axes_1">
   <g id="patch_2">
    <path d="M 53.357018 185.82112 
L 126.249133 98.95168 
Q 127.40615 97.5728 126.02727 96.415782 
L 124.64839 95.258765 
Q 123.26951 94.101747 122.112493 95.480627 
L 49.220378 182.350067 
Q 48.06336 183.728947 49.44224 184.885965 
L 50.82112 186.042982 
Q 52.2 187.2 53.357018 185.82112 
z
" clip-path="url(#pdafa83b3f9)" style="fill: #ffffff; stroke: #000000; stroke-linejoin: miter"/>
   </g>
   <g id="patch_3">
    <path d="M 121.418885 113.109053 
L 137.327879 94.149453 
L 122.849639 82.000767 
L 106.940645 100.960367 
z
" clip-path="url(#pdafa83b3f9)" style="fill: #ffffff; stroke: #000000; stroke-width: 1.2; stroke-linejoin: miter"/>
   </g>
   <g id="patch_4">
    <path d="M 153.45 72.45 
Q 178.2 25.2 236.7 29.7 
Q 252.45 58.95 234.45 90.45 
" clip-path="url(#pdafa83b3f9)" style="fill: none; stroke: #000000; stroke-width: 1.8; stroke-linecap: round"/>
   </g>
   <g id="patch_5">
    <path d="M 224.1 103.95 
L 243 103.95 
L 243 90.45 
L 224.1 90.45 
z
" clip-path="url(#pdafa83b3f9)" style="fill: #ffffff; stroke: #000000; stroke-linejoin: miter"/>
   </g>
   <g id="patch_6">
    <path d="M 203.85 189.45 
L 256.05 189.45 
Q 265.95 189.45 265.95 179.55 
L 265.95 100.35 
Q 265.95 90.45 256.05 90.45 
L 203.85 90.45 
Q 193.95 90.45 193.95 100.35 
L 193.95 179.55 
Q 193.95 189.45 203.85 189.45 
z
" clip-path="url(#pdafa83b3f9)" style="fill: #ffffff; stroke: #000000; stroke-width: 1.5; stroke-linejoin: miter"/>
   </g>
   <g id="patch_7">
    <path d="M 209.25 129.6 
L 250.65 129.6 
Q 253.35 129.6 253.35 126.9 
L 253.35 108 
Q 253.35 105.3 250.65 105.3 
L 209.25 105.3 
Q 206.55 105.3 206.55 108 
L 206.55 126.9 
Q 206.55 129.6 209.25 129.6 
z
" clip-path="url(#pdafa83b3f9)" style="fill: #ffffff; stroke: #000000; stroke-linejoin: miter"/>
   </g>
   <g id="patch_8">
    <path d="M 211.95 153.45 
L 224.55 153.45 
L 224.55 148.05 
L 211.95 148.05 
z
" clip-path="url(#pdafa83b3f9)" style="stroke: #000000; stroke-linejoin: miter"/>
   </g>
   <g id="patch_9">
    <path d="M 234.45 153.45 
L 247.05 153.45 
L 247.05 148.05 
L 234.45 148.05 
z
" clip-path="url(#pdafa83b3f9)" style="stroke: #000000; stroke-linejoin: miter"/>
   </g>
   <g id="patch_10">
    <path d="M 234.45 173.7 
L 247.05 173.7 
L 247.05 168.3 
L 234.45 168.3 
z
" clip-path="url(#pdafa83b3f9)" style="stroke: #000000; stroke-linejoin: miter"/>
   </g>
   <g id="text_1">
    <!-- 18.23 -->
    <g transform="translate(214.899219 120.235937) scale(0.1 -0.1)">
     <defs>
      <path id="DejaVuSansMono-31" d="M 844 531 
L 1825 531 
L 1825 4097 
L 769 3859 
L 769 4434 
L 1819 4666 
L 2450 4666 
L 2450 531 
L 3419 531 
L 3419 0 
L 844 0 
L 844 531 
z
" transform="scale(0.015625)"/>
      <path id="DejaVuSansMono-38" d="M 1925 2216 
Q 1503 2216 1273 1980 
Q 1044 1744 1044 1313 
Q 1044 881 1276 642 
Q 1509 403 1925 403 
Q 2350 403 2579 639 
Q 2809 875 2809 1313 
Q 2809 1741 2576 1978 
Q 2344 2216 1925 2216 
z
M 1375 2478 
Q 972 2581 745 2862 
Q 519 3144 519 3541 
Q 519 4097 897 4423 
Q 1275 4750 1925 4750 
Q 2578 4750 2956 4423 
Q 3334 4097 3334 3541 
Q 3334 3144 3107 2862 
Q 2881 2581 2478 2478 
Q 2947 2375 3195 2062 
Q 3444 1750 3444 1253 
Q 3444 622 3041 265 
Q 2638 -91 1925 -91 
Q 1213 -91 811 264 
Q 409 619 409 1247 
Q 409 1747 657 2061 
Q 906 2375 1375 2478 
z
M 1147 3481 
Q 1147 3106 1347 2909 
Q 1547 2713 1925 2713 
Q 2306 2713 2506 2909 
Q 2706 3106 2706 3481 
Q 2706 3863 2507 4063 
Q 2309 4263 1925 4263 
Q 1547 4263 1347 4061 
Q 1147 3859 1147 3481 
z
" transform="scale(0.015625)"/>
      <path id="DejaVuSansMono-2e" d="M 1528 953 
L 2316 953 
L 2316 0 
L 1528 0 
L 1528 953 
z
" transform="scale(0.015625)"/>
      <path id="DejaVuSansMono-32" d="M 1166 531 
L 3309 531 
L 3309 0 
L 475 0 
L 475 531 
Q 1059 1147 1496 1619 
Q 1934 2091 2100 2284 
Q 2413 2666 2522 2902 
Q 2631 3138 2631 3384 
Q 2631 3775 2401 3997 
Q 2172 4219 1772 4219 
Q 1488 4219 1175 4116 
Q 863 4013 513 3803 
L 513 4441 
Q 834 4594 1145 4672 
Q 1456 4750 1759 4750 
Q 2444 4750 2861 4386 
Q 3278 4022 3278 3431 
Q 3278 3131 3139 2831 
Q 3000 2531 2688 2169 
Q 2513 1966 2180 1606 
Q 1847 1247 1166 531 
z
" transform="scale(0.015625)"/>
      <path id="DejaVuSansMono-33" d="M 2425 2497 
Q 2884 2375 3128 2064 
Q 3372 1753 3372 1288 
Q 3372 644 2939 276 
Q 2506 -91 1741 -91 
Q 1419 -91 1084 -31 
Q 750 28 428 141 
L 428 769 
Q 747 603 1056 522 
Q 1366 441 1672 441 
Q 2191 441 2469 675 
Q 2747 909 2747 1350 
Q 2747 1756 2469 1995 
Q 2191 2234 1716 2234 
L 1234 2234 
L 1234 2753 
L 1716 2753 
Q 2150 2753 2394 2943 
Q 2638 3134 2638 3475 
Q 2638 3834 2411 4026 
Q 2184 4219 1766 4219 
Q 1488 4219 1191 4156 
Q 894 4094 569 3969 
L 569 4550 
Q 947 4650 1242 4700 
Q 1538 4750 1766 4750 
Q 2447 4750 2855 4408 
Q 3263 4066 3263 3500 
Q 3263 3116 3048 2859 
Q 2834 2603 2425 2497 
z
" transform="scale(0.015625)"/>
     </defs>
     <use xlink:href="#DejaVuSansMono-31"/>
     <use xlink:href="#DejaVuSansMono-38" transform="translate(60.205078 0)"/>
     <use xlink:href="#DejaVuSansMono-2e" transform="translate(120.410156 0)"/>
     <use xlink:href="#DejaVuSansMono-32" transform="translate(180.615234 0)"/>
     <use xlink:href="#DejaVuSansMono-33" transform="translate(240.820312 0)"/>
    </g>
   </g>
  </g>
 </g>
 <defs>
  <clipPath id="pdafa83b3f9">
   <rect x="7.2" y="7.2" width="279" height="207"/>
  </clipPath>
 </defs>
</svg>
