<?xml version="1.0" encoding="utf-8" standalone="no"?>
<!DOCTYPE svg PUBLIC "-//W3C//DTD SVG 1.1//EN"
  "http://www.w3.org/Graphics/SVG/1.1/DTD/svg11.dtd">
<svg xmlns:xlink="http://www.w3.org/1999/xlink" width="247.248pt" height="236.16pt" viewBox="0 0 247.248 236.16" xmlns="http://www.w3.org/2000/svg" version="1.1">
 <metadata>
  <rdf:RDF xmlns:dc="http://purl.org/dc/elements/1.1/" xmlns:cc="http://creativecommons.org/ns#" xmlns:rdf="http://www.w3.org/1999/02/22-rdf-syntax-ns#">
   <cc:Work>
    <dc:type rdf:resource="http://purl.org/dc/dcmitype/StillImage"/>
    <dc:date>2026-06-24T00:47:30.345320</dc:date>
    <dc:format>image/svg+xml</dc:format>
    <dc:creator>
     <cc:Agent>
      <dc:title>Matplotlib v3.10.0, https://matplotlib.org/</dc:title>
     </cc:Agent>
    </dc:creator>
   </cc:Work>
  </rdf:RDF>
 </metadata>
 <defs>
  <style type="text/css">*{stroke-linejoin: round; stroke-linecap: butt}</style>
 </defs>
 <g id="figure_1">
  <g id="patch_1">
   <path d="M 0 236.16 
L 247.248 236.16 
L 247.248 0 
L 0 0 
z
" style="fill: #ffffff"/>
  </g>
  <g id="axes_1">
   <g id="patch_2">
    <path d="M 123.624 145.8 
C 140.532289 145.8 156.750334 139.082266 168.7063 127.1263 
C 180.662266 115.170334 187.38 98.952289 187.38 82.044 
C 187.38 65.135711 180.662266 48.917666 168.7063 36.9617 
C 156.750334 25.005734 140.532289 18.288 123.624 18.288 
C 106.715711 18.288 90.497666 25.005734 78.5417 36.9617 
C 66.585734 48.917666 59.868 65.135711 59.868 82.044 
C 59.868 98.952289 66.585734 115.170334 78.5417 127.1263 
C 90.497666 139.082266 106.715711 145.8 123.624 145.8 
z
" clip-path="url(#p71e0c09dab)" style="fill: #ffffff; stroke: #000000; stroke-width: 1.5; stroke-linejoin: miter"/>
   </g>
   <g id="patch_3">
    <path d="M 73.728 217.872 
C 90.636289 217.872 106.854334 211.154266 118.8103 199.1983 
C 130.766266 187.242334 137.484 171.024289 137.484 154.116 
C 137.484 137.207711 130.766266 120.989666 118.8103 109.0337 
C 106.854334 97.077734 90.636289 90.36 73.728 90.36 
C 56.819711 90.36 40.601666 97.077734 28.6457 109.0337 
C 16.689734 120.989666 9.972 137.207711 9.972 154.116 
C 9.972 171.024289 16.689734 187.242334 28.6457 199.1983 
C 40.601666 211.154266 56.819711 217.872 73.728 217.872 
z
" clip-path="url(#p71e0c09dab)" style="fill: #ffffff; stroke: #000000; stroke-width: 1.5; stroke-linejoin: miter"/>
   </g>
   <g id="patch_4">
    <path d="M 173.52 217.872 
C 190.428289 217.872 206.646334 211.154266 218.6023 199.1983 
C 230.558266 187.242334 237.276 171.024289 237.276 154.116 
C 237.276 137.207711 230.558266 120.989666 218.6023 109.0337 
C 206.646334 97.077734 190.428289 90.36 173.52 90.36 
C 156.611711 90.36 140.393666 97.077734 128.4377 109.0337 
C 116.481734 120.989666 109.764 137.207711 109.764 154.116 
C 109.764 171.024289 116.481734 187.242334 128.4377 199.1983 
C 140.393666 211.154266 156.611711 217.872 173.52 217.872 
z
" clip-path="url(#p71e0c09dab)" style="fill: #ffffff; stroke: #000000; stroke-width: 1.5; stroke-linejoin: miter"/>
   </g>
   <g id="text_1">
    <!-- 機械 -->
    <g transform="translate(105.624 70.443562) scale(0.18 -0.18)">
     <defs>
      <path id="IPAPGothic-6a5f" d="M 3916 2125 
Q 3806 2984 3806 4238 
L 3806 5313 
L 4216 5313 
L 4216 4300 
Q 4216 3088 4300 2278 
L 4313 2150 
L 5178 2150 
Q 4984 2350 4825 2469 
L 5144 2669 
Q 5328 2541 5547 2309 
L 5313 2150 
L 6009 2150 
L 6009 1797 
L 4363 1797 
Q 4450 1278 4691 869 
Q 4931 1150 5197 1631 
L 5556 1431 
Q 5284 953 4913 531 
Q 4941 491 4959 475 
Q 5278 78 5441 78 
Q 5584 78 5669 844 
L 6066 628 
Q 5884 -422 5563 -422 
Q 5163 -422 4631 244 
Q 4069 -275 3384 -519 
L 3116 -191 
Q 3881 88 4409 569 
Q 4072 1116 3966 1772 
L 3084 1772 
Q 3078 1747 3078 1675 
Q 3078 1650 3066 1431 
Q 3534 1153 3934 781 
L 3684 441 
Q 3328 816 3031 1056 
Q 2909 91 2241 -494 
L 1953 -172 
Q 2481 241 2606 891 
Q 2663 1197 2681 1772 
L 2119 1772 
L 2119 2125 
L 3916 2125 
z
M 1113 2534 
Q 813 1522 384 794 
L 153 1250 
Q 763 2228 1063 3547 
L 294 3547 
L 294 3956 
L 1113 3956 
L 1113 5306 
L 1522 5306 
L 1522 3956 
L 2138 3956 
L 2138 3547 
L 1522 3547 
L 1522 2881 
Q 1878 2588 2150 2228 
L 1888 1884 
Q 1753 2144 1522 2434 
L 1522 -447 
L 1113 -447 
L 1113 2534 
z
M 2750 3334 
Q 2441 3850 2131 4159 
L 2347 4469 
Q 2384 4425 2509 4275 
Q 2734 4703 2913 5228 
L 3263 5025 
Q 3028 4447 2719 3988 
Q 2766 3919 2838 3803 
Q 2913 3684 2938 3647 
Q 3175 4066 3347 4434 
L 3666 4244 
Q 3263 3431 2809 2841 
Q 3097 2872 3347 2900 
Q 3347 2913 3334 2950 
Q 3313 3063 3231 3303 
L 3519 3372 
Q 3716 2891 3781 2413 
L 3456 2297 
Q 3453 2316 3428 2484 
Q 3416 2575 3403 2631 
Q 2906 2506 2175 2438 
L 2072 2797 
Q 2109 2800 2194 2803 
Q 2263 2806 2297 2809 
Q 2369 2809 2413 2816 
L 2438 2853 
Q 2538 2994 2750 3334 
z
M 4875 3413 
Q 4559 3916 4263 4206 
L 4478 4506 
Q 4494 4488 4559 4406 
Q 4609 4350 4641 4306 
Q 4891 4769 5038 5216 
L 5394 5013 
Q 5147 4466 4838 4025 
Q 4963 3844 5050 3700 
Q 5241 4019 5466 4469 
L 5784 4256 
Q 5497 3725 4991 3009 
Q 5356 3031 5547 3053 
Q 5466 3281 5381 3450 
L 5681 3553 
Q 5872 3181 6022 2669 
L 5709 2503 
Q 5697 2550 5663 2678 
Q 5641 2759 5631 2797 
Q 5019 2669 4434 2619 
L 4338 2975 
Q 4513 2975 4594 2981 
Q 4778 3256 4875 3413 
z
" transform="scale(0.015625)"/>
      <path id="IPAPGothic-68b0" d="M 4678 1275 
Q 4447 2122 4331 3547 
L 2341 3547 
L 2341 3956 
L 4300 3956 
Q 4247 4656 4228 5306 
L 4659 5306 
Q 4669 4741 4716 3981 
L 6041 3981 
L 6041 3572 
L 4747 3572 
L 4778 3284 
Q 4872 2322 4984 1806 
Q 5300 2409 5497 3100 
L 5894 2938 
Q 5569 1963 5131 1231 
Q 5244 834 5394 547 
Q 5509 322 5553 322 
Q 5653 322 5759 1225 
L 6131 941 
Q 5959 -350 5638 -350 
Q 5472 -350 5222 9 
Q 5003 319 4831 781 
Q 4275 38 3434 -478 
L 3147 -134 
Q 4069 381 4678 1275 
z
M 2775 2344 
L 2775 3213 
L 3166 3213 
L 3166 2344 
L 3569 2344 
L 3569 3213 
L 3959 3213 
L 3959 2344 
L 4381 2344 
L 4381 1966 
L 3959 1966 
L 3959 647 
L 3569 647 
L 3569 1966 
L 3166 1966 
Q 3156 1372 3094 1044 
Q 2988 463 2603 0 
L 2297 309 
Q 2775 856 2775 1966 
L 2341 1966 
L 2122 1634 
Q 1809 2106 1619 2338 
L 1619 -447 
L 1197 -447 
L 1197 2594 
Q 925 1566 447 794 
L 184 1256 
Q 850 2238 1147 3547 
L 319 3547 
L 319 3956 
L 1197 3956 
L 1197 5306 
L 1619 5306 
L 1619 3956 
L 2219 3956 
L 2219 3547 
L 1619 3547 
L 1619 2828 
Q 2053 2450 2341 2063 
L 2341 2344 
L 2775 2344 
z
M 5491 4141 
Q 5253 4613 4953 4991 
L 5316 5172 
Q 5603 4850 5869 4359 
L 5491 4141 
z
" transform="scale(0.015625)"/>
     </defs>
     <use xlink:href="#IPAPGothic-6a5f"/>
     <use xlink:href="#IPAPGothic-68b0" transform="translate(100 0)"/>
    </g>
   </g>
   <g id="text_2">
    <!-- 電気 -->
    <g transform="translate(47.412 159.147562) scale(0.18 -0.18)">
     <defs>
      <path id="IPAPGothic-96fb" d="M 2956 4378 
L 2956 4741 
L 1053 4741 
L 1053 5106 
L 5338 5106 
L 5338 4741 
L 3397 4741 
L 3397 4378 
L 5797 4378 
L 5797 3084 
L 5344 3084 
L 5344 4031 
L 3397 4031 
L 3397 2638 
L 2956 2638 
L 2956 4031 
L 1047 4031 
L 1047 3072 
L 594 3072 
L 594 4378 
L 2956 4378 
z
M 3366 544 
L 3366 238 
Q 3366 59 3500 31 
Q 3603 6 4491 6 
Q 5219 6 5347 31 
Q 5556 78 5584 281 
Q 5609 500 5616 684 
L 6038 556 
Q 6028 -109 5797 -256 
Q 5619 -378 4422 -378 
Q 3256 -378 3128 -313 
Q 2963 -225 2963 91 
L 2963 544 
L 1456 544 
L 1456 166 
L 1034 166 
L 1034 2400 
L 5316 2400 
L 5316 544 
L 3366 544 
z
M 2963 2059 
L 1456 2059 
L 1456 1666 
L 2963 1666 
L 2963 2059 
z
M 3366 2059 
L 3366 1666 
L 4900 1666 
L 4900 2059 
L 3366 2059 
z
M 2963 1325 
L 1456 1325 
L 1456 897 
L 2963 897 
L 2963 1325 
z
M 3366 1325 
L 3366 897 
L 4900 897 
L 4900 1325 
L 3366 1325 
z
M 1338 3688 
L 2663 3688 
L 2663 3375 
L 1338 3375 
L 1338 3688 
z
M 1338 3072 
L 2663 3072 
L 2663 2753 
L 1338 2753 
L 1338 3072 
z
M 3691 3688 
L 5053 3688 
L 5053 3375 
L 3691 3375 
L 3691 3688 
z
M 3691 3072 
L 5053 3072 
L 5053 2753 
L 3691 2753 
L 3691 3072 
z
" transform="scale(0.015625)"/>
      <path id="IPAPGothic-6c17" d="M 1863 4659 
L 5594 4659 
L 5594 4263 
L 1672 4263 
Q 1306 3572 831 3059 
L 531 3397 
Q 1266 4181 1600 5288 
L 2069 5203 
Q 1981 4941 1863 4659 
z
M 4997 2950 
L 5003 2400 
Q 5025 1044 5222 466 
Q 5328 184 5394 184 
Q 5513 184 5638 1191 
L 6047 916 
Q 5847 -450 5422 -450 
Q 5125 -450 4856 147 
Q 4550 819 4550 2381 
L 4550 2553 
L 672 2553 
L 672 2950 
L 4997 2950 
z
M 2388 1106 
Q 1741 1553 1069 1875 
L 1350 2188 
Q 1991 1878 2606 1478 
L 2669 1441 
Q 3034 1894 3250 2431 
L 3681 2241 
Q 3403 1634 3047 1184 
Q 3672 744 4269 231 
L 3944 -128 
Q 3384 391 2759 844 
Q 2031 50 928 -372 
L 653 31 
Q 1728 403 2356 1069 
L 2388 1106 
z
M 1516 3822 
L 4991 3822 
L 4991 3425 
L 1516 3425 
L 1516 3822 
z
" transform="scale(0.015625)"/>
     </defs>
     <use xlink:href="#IPAPGothic-96fb"/>
     <use xlink:href="#IPAPGothic-6c17" transform="translate(100 0)"/>
    </g>
   </g>
   <g id="text_3">
    <!-- 電子 -->
    <g transform="translate(158.292 149.347687) scale(0.18 -0.18)">
     <defs>
      <path id="IPAPGothic-5b50" d="M 3481 3263 
L 3481 2566 
L 5938 2566 
L 5938 2125 
L 3519 2125 
L 3519 206 
Q 3519 -56 3425 -172 
Q 3306 -325 2897 -325 
Q 2569 -325 1944 -269 
L 1847 263 
Q 2409 181 2763 181 
Q 3025 181 3025 416 
L 3025 2125 
L 453 2125 
L 453 2566 
L 2988 2566 
L 2988 3488 
Q 3784 3844 4509 4366 
L 1113 4366 
L 1113 4794 
L 5150 4794 
L 5431 4500 
Q 4466 3784 3481 3263 
z
" transform="scale(0.015625)"/>
     </defs>
     <use xlink:href="#IPAPGothic-96fb"/>
     <use xlink:href="#IPAPGothic-5b50" transform="translate(100 0)"/>
    </g>
    <!-- 情報 -->
    <g transform="translate(158.292 168.947437) scale(0.18 -0.18)">
     <defs>
      <path id="IPAPGothic-60c5" d="M 3791 4672 
L 3791 5313 
L 4219 5313 
L 4219 4672 
L 5844 4672 
L 5844 4325 
L 4219 4325 
L 4219 3944 
L 5659 3944 
L 5659 3603 
L 4219 3603 
L 4219 3200 
L 6050 3200 
L 6050 2841 
L 2034 2841 
L 2034 3200 
L 3791 3200 
L 3791 3603 
L 2447 3603 
L 2447 3944 
L 3791 3944 
L 3791 4325 
L 2228 4325 
L 2228 4672 
L 3791 4672 
z
M 5491 2478 
L 5491 38 
Q 5491 -403 4966 -403 
Q 4744 -403 4134 -372 
L 4066 84 
Q 4484 19 4866 19 
Q 5063 19 5063 206 
L 5063 634 
L 3066 634 
L 3066 -447 
L 2638 -447 
L 2638 2478 
L 5491 2478 
z
M 3066 2131 
L 3066 1725 
L 5063 1725 
L 5063 2131 
L 3066 2131 
z
M 3066 1394 
L 3066 975 
L 5063 975 
L 5063 1394 
L 3066 1394 
z
M 244 2291 
Q 438 2947 488 4013 
L 878 3928 
Q 838 2825 641 2081 
L 244 2291 
z
M 1941 3213 
Q 1797 3725 1613 4103 
L 1953 4263 
Q 2172 3891 2319 3425 
L 1941 3213 
z
M 1106 5313 
L 1547 5313 
L 1547 -447 
L 1106 -447 
L 1106 5313 
z
" transform="scale(0.015625)"/>
      <path id="IPAPGothic-5831" d="M 2738 3084 
Q 2597 2591 2425 2203 
L 3175 2203 
L 3175 1819 
L 2009 1819 
L 2009 1134 
L 3097 1134 
L 3097 750 
L 2009 750 
L 2009 -447 
L 1569 -447 
L 1569 750 
L 519 750 
L 519 1134 
L 1569 1134 
L 1569 1819 
L 434 1819 
L 434 2203 
L 1125 2203 
Q 994 2800 881 3084 
L 294 3084 
L 294 3469 
L 1569 3469 
L 1569 4134 
L 575 4134 
L 575 4519 
L 1569 4519 
L 1569 5313 
L 2009 5313 
L 2009 4519 
L 3025 4519 
L 3025 4134 
L 2009 4134 
L 2009 3469 
L 3169 3469 
L 3169 3084 
L 2738 3084 
z
M 2297 3084 
L 1306 3084 
Q 1466 2609 1544 2203 
L 2009 2203 
Q 2191 2606 2297 3084 
z
M 5681 4991 
L 5681 3591 
Q 5681 3319 5572 3222 
Q 5463 3131 5156 3131 
Q 4831 3131 4441 3169 
L 4388 3597 
Q 4763 3541 5016 3541 
Q 5253 3541 5253 3769 
L 5253 4594 
L 3800 4594 
L 3800 2741 
L 5591 2741 
L 5828 2550 
Q 5656 1600 5203 806 
Q 5541 334 6128 -6 
L 5853 -416 
Q 5316 -19 4959 425 
Q 4584 -94 4113 -497 
L 3825 -147 
Q 4319 231 4697 775 
Q 4169 1516 3966 2350 
L 3800 2350 
L 3800 -447 
L 3372 -447 
L 3372 4991 
L 5681 4991 
z
M 4350 2350 
Q 4503 1794 4919 1153 
Q 5225 1716 5350 2350 
L 4350 2350 
z
" transform="scale(0.015625)"/>
     </defs>
     <use xlink:href="#IPAPGothic-60c5"/>
     <use xlink:href="#IPAPGothic-5831" transform="translate(100 0)"/>
    </g>
   </g>
  </g>
 </g>
 <defs>
  <clipPath id="p71e0c09dab">
   <rect x="7.2" y="7.2" width="232.848" height="221.76"/>
  </clipPath>
 </defs>
</svg>
