<?xml version="1.0" encoding="utf-8" standalone="no"?>
<!DOCTYPE svg PUBLIC "-//W3C//DTD SVG 1.1//EN"
  "http://www.w3.org/Graphics/SVG/1.1/DTD/svg11.dtd">
<svg xmlns:xlink="http://www.w3.org/1999/xlink" width="784.415981pt" height="252pt" viewBox="0 0 784.415981 252" xmlns="http://www.w3.org/2000/svg" version="1.1">
 <metadata>
  <rdf:RDF xmlns:dc="http://purl.org/dc/elements/1.1/" xmlns:cc="http://creativecommons.org/ns#" xmlns:rdf="http://www.w3.org/1999/02/22-rdf-syntax-ns#">
   <cc:Work>
    <dc:type rdf:resource="http://purl.org/dc/dcmitype/StillImage"/>
    <dc:date>2026-06-24T00:37:16.920018</dc:date>
    <dc:format>image/svg+xml</dc:format>
    <dc:creator>
     <cc:Agent>
      <dc:title>Matplotlib v3.10.0, https://matplotlib.org/</dc:title>
     </cc:Agent>
    </dc:creator>
   </cc:Work>
  </rdf:RDF>
 </metadata>
 <defs>
  <style type="text/css">*{stroke-linejoin: round; stroke-linecap: butt}</style>
 </defs>
 <g id="figure_1">
  <g id="patch_1">
   <path d="M 0 252 
L 784.415981 252 
L 784.415981 0 
L 0 0 
z
" style="fill: #ffffff"/>
  </g>
  <g id="axes_1">
   <g id="patch_2">
    <path d="M 58.726581 47.421965 
C 61.801208 47.421965 64.75032 46.200402 66.924409 44.026313 
C 69.098499 41.852223 70.320061 38.903111 70.320061 35.828484 
C 70.320061 32.753857 69.098499 29.804745 66.924409 27.630655 
C 64.75032 25.456566 61.801208 24.235003 58.726581 24.235003 
C 55.651954 24.235003 52.702841 25.456566 50.528752 27.630655 
C 48.354662 29.804745 47.1331 32.753857 47.1331 35.828484 
C 47.1331 38.903111 48.354662 41.852223 50.528752 44.026313 
C 52.702841 46.200402 55.651954 47.421965 58.726581 47.421965 
L 58.726581 47.421965 
z
" clip-path="url(#p167489d723)" style="fill: none; stroke: #000000; stroke-width: 1.2; stroke-linejoin: miter"/>
   </g>
   <g id="patch_3">
    <path d="M 87.872116 103.295287 
C 89.965367 105.388538 92.450588 107.04911 95.185552 108.181969 
C 97.920516 109.314828 100.852035 109.897944 103.812339 109.897944 
" clip-path="url(#p167489d723)" style="fill: none; stroke: #000000; stroke-linejoin: miter"/>
   </g>
   <g id="line2d_1">
    <path d="M 26.522468 203.289871 
L 239.069613 203.289871 
" clip-path="url(#p167489d723)" style="fill: none; stroke: #000000; stroke-width: 1.2; stroke-linecap: square"/>
   </g>
   <g id="line2d_2">
    <path d="M 103.812339 203.289871 
L 103.812339 87.355065 
" clip-path="url(#p167489d723)" style="fill: none; stroke: #000000; stroke-width: 2; stroke-linecap: square"/>
   </g>
   <g id="line2d_3">
    <path d="M 103.812339 203.289871 
L 168.220564 203.289871 
" clip-path="url(#p167489d723)" style="fill: none; stroke: #000000; stroke-width: 2; stroke-linecap: square"/>
   </g>
   <g id="line2d_4">
    <path d="M 65.167403 48.710129 
L 103.812339 87.355065 
" clip-path="url(#p167489d723)" style="fill: none; stroke: #000000; stroke-linecap: square"/>
   </g>
   <g id="line2d_5">
    <path d="M 84.489871 48.710129 
L 168.220564 203.289871 
" clip-path="url(#p167489d723)" style="fill: none; stroke-dasharray: 3.7,1.6; stroke-dashoffset: 0; stroke: #000000"/>
   </g>
   <g id="text_1">
    <!-- ① -->
    <g transform="translate(20.081645 26.16725) scale(0.18 -0.18)">
     <defs>
      <path id="DejaVuSans-2460" d="M 5263 2331 
Q 5263 1334 4561 635 
Q 3859 -63 2866 -63 
Q 1878 -63 1176 635 
Q 475 1334 475 2331 
Q 475 2950 797 3528 
Q 1119 4106 1695 4415 
Q 2272 4725 2866 4725 
Q 3469 4725 4045 4415 
Q 4622 4106 4942 3531 
Q 5263 2956 5263 2331 
z
M 734 2331 
Q 734 1444 1357 819 
Q 1981 194 2869 194 
Q 3756 194 4379 819 
Q 5003 1444 5003 2331 
Q 5003 2891 4718 3402 
Q 4434 3913 3921 4189 
Q 3409 4466 2869 4466 
Q 2328 4466 1815 4189 
Q 1303 3913 1018 3402 
Q 734 2891 734 2331 
z
M 1922 1288 
L 2600 1288 
L 2600 3281 
L 1863 3147 
L 1863 3622 
L 2666 3769 
L 3169 3769 
L 3169 1288 
L 3850 1288 
L 3850 844 
L 1922 844 
L 1922 1288 
z
" transform="scale(0.015625)"/>
     </defs>
     <use xlink:href="#DejaVuSans-2460"/>
    </g>
   </g>
  </g>
  <g id="axes_2">
   <g id="patch_4">
    <path d="M 350.659459 212.691892 
L 373.135135 212.691892 
L 373.135135 84.259459 
L 350.659459 84.259459 
L 350.659459 212.691892 
z
" clip-path="url(#p3c4ac8a0f8)" style="fill: none; stroke: #000000; stroke-width: 1.2; stroke-linejoin: miter"/>
   </g>
   <g id="patch_5">
    <path d="M 408.454054 212.691892 
L 430.92973 212.691892 
L 430.92973 84.259459 
L 408.454054 84.259459 
L 408.454054 212.691892 
z
" clip-path="url(#p3c4ac8a0f8)" style="fill: none; stroke: #000000; stroke-width: 1.2; stroke-linejoin: miter"/>
   </g>
   <g id="patch_6">
    <path d="M 392.4 41.234595 
C 395.465461 41.234595 398.405782 40.016674 400.57339 37.849066 
C 402.740998 35.681457 403.958919 32.741137 403.958919 29.675676 
C 403.958919 26.610215 402.740998 23.669894 400.57339 21.502286 
C 398.405782 19.334677 395.465461 18.116757 392.4 18.116757 
C 389.334539 18.116757 386.394218 19.334677 384.22661 21.502286 
C 382.059002 23.669894 380.841081 26.610215 380.841081 29.675676 
C 380.841081 32.741137 382.059002 35.681457 384.22661 37.849066 
C 386.394218 40.016674 389.334539 41.234595 392.4 41.234595 
L 392.4 41.234595 
z
" clip-path="url(#p3c4ac8a0f8)" style="fill: none; stroke: #000000; stroke-width: 1.2; stroke-linejoin: miter"/>
   </g>
   <g id="patch_7">
    <path d="M 392.4 177.372973 
L 389.831351 169.667027 
L 392.367892 169.667027 
L 392.367892 154.897297 
L 392.432108 154.897297 
L 392.432108 169.667027 
L 394.968649 169.667027 
z
" clip-path="url(#p3c4ac8a0f8)" style="stroke: #000000; stroke-linejoin: miter"/>
   </g>
   <g id="line2d_6">
    <path d="M 350.659459 212.691892 
L 430.92973 212.691892 
" clip-path="url(#p3c4ac8a0f8)" style="fill: none; stroke: #000000; stroke-width: 1.2; stroke-linecap: square"/>
   </g>
   <g id="line2d_7">
    <path d="M 373.135135 190.216216 
L 408.454054 190.216216 
" clip-path="url(#p3c4ac8a0f8)" style="fill: none; stroke: #000000; stroke-width: 1.2; stroke-linecap: square"/>
   </g>
   <g id="line2d_8">
    <path d="M 392.4 42.518919 
L 392.4 190.216216 
" clip-path="url(#p3c4ac8a0f8)" style="fill: none; stroke: #000000; stroke-linecap: square"/>
   </g>
   <g id="text_2">
    <!-- ② -->
    <g transform="translate(318.551351 29.675676) scale(0.18 -0.18)">
     <defs>
      <path id="DejaVuSans-2461" d="M 5263 2331 
Q 5263 1334 4561 635 
Q 3859 -63 2866 -63 
Q 1878 -63 1176 635 
Q 475 1334 475 2331 
Q 475 2950 797 3528 
Q 1119 4106 1695 4415 
Q 2272 4725 2866 4725 
Q 3469 4725 4045 4415 
Q 4622 4106 4942 3531 
Q 5263 2956 5263 2331 
z
M 734 2331 
Q 734 1444 1357 819 
Q 1981 194 2869 194 
Q 3756 194 4379 819 
Q 5003 1444 5003 2331 
Q 5003 2891 4718 3402 
Q 4434 3913 3921 4189 
Q 3409 4466 2869 4466 
Q 2328 4466 1815 4189 
Q 1303 3913 1018 3402 
Q 734 2891 734 2331 
z
M 2581 1288 
L 3944 1288 
L 3944 844 
L 1831 844 
L 1831 1247 
Q 2088 1488 2497 1864 
Q 2906 2241 3009 2347 
Q 3203 2544 3276 2676 
Q 3350 2809 3350 2934 
Q 3350 3131 3201 3253 
Q 3053 3375 2809 3375 
Q 2625 3375 2419 3315 
Q 2213 3256 1853 3075 
L 1853 3609 
Q 2156 3722 2382 3770 
Q 2609 3819 2800 3819 
Q 3309 3819 3617 3583 
Q 3925 3347 3925 2956 
Q 3925 2775 3850 2611 
Q 3775 2447 3581 2228 
Q 3528 2172 3250 1911 
Q 2972 1650 2581 1288 
z
" transform="scale(0.015625)"/>
     </defs>
     <use xlink:href="#DejaVuSans-2461"/>
    </g>
   </g>
  </g>
  <g id="axes_3">
   <g id="patch_8">
    <path d="M 648.783548 212.691892 
C 667.516922 212.691892 685.485547 205.249044 698.732043 192.002548 
C 711.978538 178.756053 719.421386 160.787428 719.421386 142.054054 
C 719.421386 123.32068 711.978538 105.352055 698.732043 92.10556 
C 685.485547 78.859064 667.516922 71.416216 648.783548 71.416216 
C 630.050175 71.416216 612.08155 78.859064 598.835054 92.10556 
C 585.588559 105.352055 578.145711 123.32068 578.145711 142.054054 
C 578.145711 160.787428 585.588559 178.756053 598.835054 192.002548 
C 612.08155 205.249044 630.050175 212.691892 648.783548 212.691892 
L 648.783548 212.691892 
z
" clip-path="url(#paefb8987c3)" style="fill: none; stroke: #000000; stroke-width: 1.4; stroke-linejoin: miter"/>
   </g>
   <g id="patch_9">
    <path d="M 644.880688 119.919834 
C 643.592155 120.147038 642.325919 120.486325 641.096415 120.933827 
C 639.86691 121.38133 638.678828 121.935342 637.545711 122.589548 
" clip-path="url(#paefb8987c3)" style="fill: none; stroke: #000000; stroke-linejoin: miter"/>
   </g>
   <g id="line2d_9">
    <defs>
     <path id="md951650327" d="M 0 2 
C 0.530406 2 1.03916 1.789267 1.414214 1.414214 
C 1.789267 1.03916 2 0.530406 2 0 
C 2 -0.530406 1.789267 -1.03916 1.414214 -1.414214 
C 1.03916 -1.789267 0.530406 -2 0 -2 
C -0.530406 -2 -1.03916 -1.789267 -1.414214 -1.414214 
C -1.789267 -1.03916 -2 -0.530406 -2 0 
C -2 0.530406 -1.789267 1.03916 -1.414214 1.414214 
C -1.03916 1.789267 -0.530406 2 0 2 
z
" style="stroke: #000000"/>
    </defs>
    <g clip-path="url(#paefb8987c3)">
     <use xlink:href="#md951650327" x="613.46463" y="80.879892" style="stroke: #000000"/>
    </g>
   </g>
   <g id="line2d_10">
    <g clip-path="url(#paefb8987c3)">
     <use xlink:href="#md951650327" x="636.517417" y="72.489364" style="stroke: #000000"/>
    </g>
   </g>
   <g id="line2d_11">
    <path d="M 648.783548 142.054054 
L 613.46463 80.879892 
" clip-path="url(#paefb8987c3)" style="fill: none; stroke: #000000; stroke-linecap: square"/>
   </g>
   <g id="line2d_12">
    <path d="M 648.783548 142.054054 
L 636.517417 72.489364 
" clip-path="url(#paefb8987c3)" style="fill: none; stroke: #000000; stroke-linecap: square"/>
   </g>
   <g id="line2d_13">
    <path d="M 533.194359 39.308108 
L 613.46463 80.879892 
" clip-path="url(#paefb8987c3)" style="fill: none; stroke: #000000; stroke-linecap: square"/>
   </g>
   <g id="line2d_14">
    <path d="M 533.194359 71.416216 
L 636.517417 72.489364 
" clip-path="url(#paefb8987c3)" style="fill: none; stroke: #000000; stroke-linecap: square"/>
   </g>
   <g id="text_3">
    <!-- ③ -->
    <g transform="translate(533.194359 29.675676) scale(0.18 -0.18)">
     <defs>
      <path id="DejaVuSans-2462" d="M 5263 2331 
Q 5263 1334 4561 635 
Q 3859 -63 2866 -63 
Q 1878 -63 1176 635 
Q 475 1334 475 2331 
Q 475 2950 797 3528 
Q 1119 4106 1695 4415 
Q 2272 4725 2866 4725 
Q 3469 4725 4045 4415 
Q 4622 4106 4942 3531 
Q 5263 2956 5263 2331 
z
M 734 2331 
Q 734 1444 1357 819 
Q 1981 194 2869 194 
Q 3756 194 4379 819 
Q 5003 1444 5003 2331 
Q 5003 2891 4718 3402 
Q 4434 3913 3921 4189 
Q 3409 4466 2869 4466 
Q 2328 4466 1815 4189 
Q 1303 3913 1018 3402 
Q 734 2891 734 2331 
z
M 3713 2422 
Q 3753 2413 3937 2211 
Q 4122 2009 4122 1719 
Q 4122 1278 3784 1034 
Q 3447 791 2838 791 
Q 2638 791 2425 827 
Q 2213 863 1938 947 
L 1938 1472 
Q 2222 1322 2417 1278 
Q 2613 1234 2825 1234 
Q 3191 1234 3370 1357 
Q 3550 1481 3550 1719 
Q 3550 1941 3383 2062 
Q 3216 2184 2906 2184 
L 2469 2184 
L 2469 2622 
L 2922 2622 
Q 3203 2622 3340 2715 
Q 3478 2809 3478 2991 
Q 3478 3178 3334 3276 
Q 3191 3375 2906 3375 
Q 2744 3375 2555 3342 
Q 2366 3309 2031 3209 
L 2031 3681 
Q 2328 3756 2540 3787 
Q 2753 3819 2944 3819 
Q 3447 3819 3748 3605 
Q 4050 3391 4050 3031 
Q 4050 2778 3887 2600 
Q 3725 2422 3713 2422 
z
" transform="scale(0.015625)"/>
     </defs>
     <use xlink:href="#DejaVuSans-2462"/>
    </g>
   </g>
  </g>
 </g>
 <defs>
  <clipPath id="p167489d723">
   <rect x="7.2" y="10.065194" width="257.632903" height="231.869613"/>
  </clipPath>
  <clipPath id="p3c4ac8a0f8">
   <rect x="299.286486" y="7.2" width="186.227027" height="237.6"/>
  </clipPath>
  <clipPath id="paefb8987c3">
   <rect x="520.351116" y="7.2" width="256.864865" height="237.6"/>
  </clipPath>
 </defs>
</svg>
