<?xml version="1.0" encoding="utf-8" standalone="no"?>
<!DOCTYPE svg PUBLIC "-//W3C//DTD SVG 1.1//EN"
  "http://www.w3.org/Graphics/SVG/1.1/DTD/svg11.dtd">
<svg xmlns:xlink="http://www.w3.org/1999/xlink" width="769.974304pt" height="251.038125pt" viewBox="0 0 769.974304 251.038125" xmlns="http://www.w3.org/2000/svg" version="1.1">
 <metadata>
  <rdf:RDF xmlns:dc="http://purl.org/dc/elements/1.1/" xmlns:cc="http://creativecommons.org/ns#" xmlns:rdf="http://www.w3.org/1999/02/22-rdf-syntax-ns#">
   <cc:Work>
    <dc:type rdf:resource="http://purl.org/dc/dcmitype/StillImage"/>
    <dc:date>2026-06-24T00:35:28.655196</dc:date>
    <dc:format>image/svg+xml</dc:format>
    <dc:creator>
     <cc:Agent>
      <dc:title>Matplotlib v3.10.0, https://matplotlib.org/</dc:title>
     </cc:Agent>
    </dc:creator>
   </cc:Work>
  </rdf:RDF>
 </metadata>
 <defs>
  <style type="text/css">*{stroke-linejoin: round; stroke-linecap: butt}</style>
 </defs>
 <g id="figure_1">
  <g id="patch_1">
   <path d="M 0 251.038125 
L 769.974304 251.038125 
L 769.974304 0 
L 0 0 
z
" style="fill: #ffffff"/>
  </g>
  <g id="axes_1">
   <g id="patch_2">
    <path d="M 56.426667 58.007458 
C 59.364056 58.007458 62.181533 56.840421 64.258581 54.763373 
C 66.335629 52.686325 67.502667 49.868848 67.502667 46.931458 
C 67.502667 43.994069 66.335629 41.176592 64.258581 39.099544 
C 62.181533 37.022496 59.364056 35.855458 56.426667 35.855458 
C 53.489277 35.855458 50.6718 37.022496 48.594752 39.099544 
C 46.517704 41.176592 45.350667 43.994069 45.350667 46.931458 
C 45.350667 49.868848 46.517704 52.686325 48.594752 54.763373 
C 50.6718 56.840421 53.489277 58.007458 56.426667 58.007458 
L 56.426667 58.007458 
z
" clip-path="url(#p02e1c6c9fd)" style="fill: none; stroke: #000000; stroke-width: 1.2; stroke-linejoin: miter"/>
   </g>
   <g id="patch_3">
    <path d="M 84.271277 111.386848 
C 86.271095 113.386666 88.645387 114.973117 91.258274 116.055411 
C 93.871162 117.137704 96.671831 117.694792 99.5 117.694792 
" clip-path="url(#p02e1c6c9fd)" style="fill: none; stroke: #000000; stroke-linejoin: miter"/>
   </g>
   <g id="line2d_1">
    <path d="M 25.66 206.918125 
L 228.72 206.918125 
" clip-path="url(#p02e1c6c9fd)" style="fill: none; stroke: #000000; stroke-width: 1.2; stroke-linecap: square"/>
   </g>
   <g id="line2d_2">
    <path d="M 99.5 206.918125 
L 99.5 96.158125 
" clip-path="url(#p02e1c6c9fd)" style="fill: none; stroke: #000000; stroke-width: 2; stroke-linecap: square"/>
   </g>
   <g id="line2d_3">
    <path d="M 99.5 206.918125 
L 161.033333 206.918125 
" clip-path="url(#p02e1c6c9fd)" style="fill: none; stroke: #000000; stroke-width: 2; stroke-linecap: square"/>
   </g>
   <g id="line2d_4">
    <path d="M 62.58 59.238125 
L 99.5 96.158125 
" clip-path="url(#p02e1c6c9fd)" style="fill: none; stroke: #000000; stroke-linecap: square"/>
   </g>
   <g id="line2d_5">
    <path d="M 81.04 59.238125 
L 161.033333 206.918125 
" clip-path="url(#p02e1c6c9fd)" style="fill: none; stroke-dasharray: 3.7,1.6; stroke-dashoffset: 0; stroke: #000000"/>
   </g>
   <g id="text_1">
    <!-- 7.2° -->
    <g transform="translate(121.036667 117.694792) scale(0.1 -0.1)">
     <defs>
      <path id="DejaVuSans-37" d="M 525 4666 
L 3525 4666 
L 3525 4397 
L 1831 0 
L 1172 0 
L 2766 4134 
L 525 4134 
L 525 4666 
z
" transform="scale(0.015625)"/>
      <path id="DejaVuSans-2e" d="M 684 794 
L 1344 794 
L 1344 0 
L 684 0 
L 684 794 
z
" transform="scale(0.015625)"/>
      <path id="DejaVuSans-32" d="M 1228 531 
L 3431 531 
L 3431 0 
L 469 0 
L 469 531 
Q 828 903 1448 1529 
Q 2069 2156 2228 2338 
Q 2531 2678 2651 2914 
Q 2772 3150 2772 3378 
Q 2772 3750 2511 3984 
Q 2250 4219 1831 4219 
Q 1534 4219 1204 4116 
Q 875 4013 500 3803 
L 500 4441 
Q 881 4594 1212 4672 
Q 1544 4750 1819 4750 
Q 2544 4750 2975 4387 
Q 3406 4025 3406 3419 
Q 3406 3131 3298 2873 
Q 3191 2616 2906 2266 
Q 2828 2175 2409 1742 
Q 1991 1309 1228 531 
z
" transform="scale(0.015625)"/>
      <path id="DejaVuSans-b0" d="M 1600 4347 
Q 1350 4347 1178 4173 
Q 1006 4000 1006 3750 
Q 1006 3503 1178 3333 
Q 1350 3163 1600 3163 
Q 1850 3163 2022 3333 
Q 2194 3503 2194 3750 
Q 2194 3997 2020 4172 
Q 1847 4347 1600 4347 
z
M 1600 4750 
Q 1800 4750 1984 4673 
Q 2169 4597 2303 4453 
Q 2447 4313 2519 4134 
Q 2591 3956 2591 3750 
Q 2591 3338 2302 3052 
Q 2013 2766 1594 2766 
Q 1172 2766 890 3047 
Q 609 3328 609 3750 
Q 609 4169 896 4459 
Q 1184 4750 1600 4750 
z
" transform="scale(0.015625)"/>
     </defs>
     <use xlink:href="#DejaVuSans-37"/>
     <use xlink:href="#DejaVuSans-2e" transform="translate(63.623047 0)"/>
     <use xlink:href="#DejaVuSans-32" transform="translate(95.410156 0)"/>
     <use xlink:href="#DejaVuSans-b0" transform="translate(159.033203 0)"/>
    </g>
   </g>
   <g id="text_2">
    <!-- 柱 -->
    <g transform="translate(96.499219 228.454792) scale(0.1 -0.1)">
     <defs>
      <path id="DejaVuSans-67f1" d="M 319 -1131 
L 319 4513 
L 3519 4513 
L 3519 -1131 
L 319 -1131 
z
M 678 -775 
L 3163 -775 
L 3163 4153 
L 678 4153 
L 678 -775 
z
" transform="scale(0.015625)"/>
     </defs>
     <use xlink:href="#DejaVuSans-67f1"/>
    </g>
   </g>
   <g id="text_3">
    <!-- 影 -->
    <g transform="translate(142.649219 228.454792) scale(0.1 -0.1)">
     <defs>
      <path id="DejaVuSans-5f71" d="M 319 -1131 
L 319 4513 
L 3519 4513 
L 3519 -1131 
L 319 -1131 
z
M 678 -775 
L 3163 -775 
L 3163 4153 
L 678 4153 
L 678 -775 
z
" transform="scale(0.015625)"/>
     </defs>
     <use xlink:href="#DejaVuSans-5f71"/>
    </g>
   </g>
   <g id="text_4">
    <!-- (a) アレキサンドリア -->
    <g transform="translate(91.193542 16.318125) scale(0.12 -0.12)">
     <defs>
      <path id="DejaVuSans-28" d="M 1984 4856 
Q 1566 4138 1362 3434 
Q 1159 2731 1159 2009 
Q 1159 1288 1364 580 
Q 1569 -128 1984 -844 
L 1484 -844 
Q 1016 -109 783 600 
Q 550 1309 550 2009 
Q 550 2706 781 3412 
Q 1013 4119 1484 4856 
L 1984 4856 
z
" transform="scale(0.015625)"/>
      <path id="DejaVuSans-61" d="M 2194 1759 
Q 1497 1759 1228 1600 
Q 959 1441 959 1056 
Q 959 750 1161 570 
Q 1363 391 1709 391 
Q 2188 391 2477 730 
Q 2766 1069 2766 1631 
L 2766 1759 
L 2194 1759 
z
M 3341 1997 
L 3341 0 
L 2766 0 
L 2766 531 
Q 2569 213 2275 61 
Q 1981 -91 1556 -91 
Q 1019 -91 701 211 
Q 384 513 384 1019 
Q 384 1609 779 1909 
Q 1175 2209 1959 2209 
L 2766 2209 
L 2766 2266 
Q 2766 2663 2505 2880 
Q 2244 3097 1772 3097 
Q 1472 3097 1187 3025 
Q 903 2953 641 2809 
L 641 3341 
Q 956 3463 1253 3523 
Q 1550 3584 1831 3584 
Q 2591 3584 2966 3190 
Q 3341 2797 3341 1997 
z
" transform="scale(0.015625)"/>
      <path id="DejaVuSans-29" d="M 513 4856 
L 1013 4856 
Q 1481 4119 1714 3412 
Q 1947 2706 1947 2009 
Q 1947 1309 1714 600 
Q 1481 -109 1013 -844 
L 513 -844 
Q 928 -128 1133 580 
Q 1338 1288 1338 2009 
Q 1338 2731 1133 3434 
Q 928 4138 513 4856 
z
" transform="scale(0.015625)"/>
      <path id="DejaVuSans-20" transform="scale(0.015625)"/>
      <path id="DejaVuSans-30a2" d="M 319 -1131 
L 319 4513 
L 3519 4513 
L 3519 -1131 
L 319 -1131 
z
M 678 -775 
L 3163 -775 
L 3163 4153 
L 678 4153 
L 678 -775 
z
" transform="scale(0.015625)"/>
      <path id="DejaVuSans-30ec" d="M 319 -1131 
L 319 4513 
L 3519 4513 
L 3519 -1131 
L 319 -1131 
z
M 678 -775 
L 3163 -775 
L 3163 4153 
L 678 4153 
L 678 -775 
z
" transform="scale(0.015625)"/>
      <path id="DejaVuSans-30ad" d="M 319 -1131 
L 319 4513 
L 3519 4513 
L 3519 -1131 
L 319 -1131 
z
M 678 -775 
L 3163 -775 
L 3163 4153 
L 678 4153 
L 678 -775 
z
" transform="scale(0.015625)"/>
      <path id="DejaVuSans-30b5" d="M 319 -1131 
L 319 4513 
L 3519 4513 
L 3519 -1131 
L 319 -1131 
z
M 678 -775 
L 3163 -775 
L 3163 4153 
L 678 4153 
L 678 -775 
z
" transform="scale(0.015625)"/>
      <path id="DejaVuSans-30f3" d="M 319 -1131 
L 319 4513 
L 3519 4513 
L 3519 -1131 
L 319 -1131 
z
M 678 -775 
L 3163 -775 
L 3163 4153 
L 678 4153 
L 678 -775 
z
" transform="scale(0.015625)"/>
      <path id="DejaVuSans-30c9" d="M 319 -1131 
L 319 4513 
L 3519 4513 
L 3519 -1131 
L 319 -1131 
z
M 678 -775 
L 3163 -775 
L 3163 4153 
L 678 4153 
L 678 -775 
z
" transform="scale(0.015625)"/>
      <path id="DejaVuSans-30ea" d="M 319 -1131 
L 319 4513 
L 3519 4513 
L 3519 -1131 
L 319 -1131 
z
M 678 -775 
L 3163 -775 
L 3163 4153 
L 678 4153 
L 678 -775 
z
" transform="scale(0.015625)"/>
     </defs>
     <use xlink:href="#DejaVuSans-28"/>
     <use xlink:href="#DejaVuSans-61" transform="translate(39.013672 0)"/>
     <use xlink:href="#DejaVuSans-29" transform="translate(100.292969 0)"/>
     <use xlink:href="#DejaVuSans-20" transform="translate(139.306641 0)"/>
     <use xlink:href="#DejaVuSans-30a2" transform="translate(171.09375 0)"/>
     <use xlink:href="#DejaVuSans-30ec" transform="translate(231.103516 0)"/>
     <use xlink:href="#DejaVuSans-30ad" transform="translate(291.113281 0)"/>
     <use xlink:href="#DejaVuSans-30b5" transform="translate(351.123047 0)"/>
     <use xlink:href="#DejaVuSans-30f3" transform="translate(411.132812 0)"/>
     <use xlink:href="#DejaVuSans-30c9" transform="translate(471.142578 0)"/>
     <use xlink:href="#DejaVuSans-30ea" transform="translate(531.152344 0)"/>
     <use xlink:href="#DejaVuSans-30a2" transform="translate(591.162109 0)"/>
    </g>
   </g>
  </g>
  <g id="axes_2">
   <g id="patch_4">
    <path d="M 347.734539 213.90299 
L 368.689134 213.90299 
L 368.689134 94.162449 
L 347.734539 94.162449 
L 347.734539 213.90299 
z
" clip-path="url(#p0e6a1290a0)" style="fill: none; stroke: #000000; stroke-width: 1.2; stroke-linejoin: miter"/>
   </g>
   <g id="patch_5">
    <path d="M 401.617783 213.90299 
L 422.572377 213.90299 
L 422.572377 94.162449 
L 401.617783 94.162449 
L 401.617783 213.90299 
z
" clip-path="url(#p0e6a1290a0)" style="fill: none; stroke: #000000; stroke-width: 1.2; stroke-linejoin: miter"/>
   </g>
   <g id="patch_6">
    <path d="M 386.650215 54.049368 
C 389.508216 54.049368 392.249545 52.913873 394.270456 50.892961 
C 396.291368 48.872049 397.426864 46.13072 397.426864 43.27272 
C 397.426864 40.414719 396.291368 37.67339 394.270456 35.652478 
C 392.249545 33.631567 389.508216 32.496071 386.650215 32.496071 
C 383.792215 32.496071 381.050885 33.631567 379.029974 35.652478 
C 377.009062 37.67339 375.873567 40.414719 375.873567 43.27272 
C 375.873567 46.13072 377.009062 48.872049 379.029974 50.892961 
C 381.050885 52.913873 383.792215 54.049368 386.650215 54.049368 
L 386.650215 54.049368 
z
" clip-path="url(#p0e6a1290a0)" style="fill: none; stroke: #000000; stroke-width: 1.2; stroke-linejoin: miter"/>
   </g>
   <g id="patch_7">
    <path d="M 386.650215 180.974341 
L 384.255404 173.789909 
L 386.62028 173.789909 
L 386.62028 160.019747 
L 386.68015 160.019747 
L 386.68015 173.789909 
L 389.045026 173.789909 
z
" clip-path="url(#p0e6a1290a0)" style="stroke: #000000; stroke-linejoin: miter"/>
   </g>
   <g id="line2d_6">
    <path d="M 347.734539 213.90299 
L 422.572377 213.90299 
" clip-path="url(#p0e6a1290a0)" style="fill: none; stroke: #000000; stroke-width: 1.2; stroke-linecap: square"/>
   </g>
   <g id="line2d_7">
    <path d="M 368.689134 192.948395 
L 401.617783 192.948395 
" clip-path="url(#p0e6a1290a0)" style="fill: none; stroke: #000000; stroke-width: 1.2; stroke-linecap: square"/>
   </g>
   <g id="line2d_8">
    <path d="M 386.650215 55.246774 
L 386.650215 192.948395 
" clip-path="url(#p0e6a1290a0)" style="fill: none; stroke: #000000; stroke-linecap: square"/>
   </g>
   <g id="text_5">
    <!-- 井戸の底に光が届く -->
    <g transform="translate(359.643184 228.870557) scale(0.1 -0.1)">
     <defs>
      <path id="DejaVuSans-4e95" d="M 319 -1131 
L 319 4513 
L 3519 4513 
L 3519 -1131 
L 319 -1131 
z
M 678 -775 
L 3163 -775 
L 3163 4153 
L 678 4153 
L 678 -775 
z
" transform="scale(0.015625)"/>
      <path id="DejaVuSans-6238" d="M 319 -1131 
L 319 4513 
L 3519 4513 
L 3519 -1131 
L 319 -1131 
z
M 678 -775 
L 3163 -775 
L 3163 4153 
L 678 4153 
L 678 -775 
z
" transform="scale(0.015625)"/>
      <path id="DejaVuSans-306e" d="M 319 -1131 
L 319 4513 
L 3519 4513 
L 3519 -1131 
L 319 -1131 
z
M 678 -775 
L 3163 -775 
L 3163 4153 
L 678 4153 
L 678 -775 
z
" transform="scale(0.015625)"/>
      <path id="DejaVuSans-5e95" d="M 319 -1131 
L 319 4513 
L 3519 4513 
L 3519 -1131 
L 319 -1131 
z
M 678 -775 
L 3163 -775 
L 3163 4153 
L 678 4153 
L 678 -775 
z
" transform="scale(0.015625)"/>
      <path id="DejaVuSans-306b" d="M 319 -1131 
L 319 4513 
L 3519 4513 
L 3519 -1131 
L 319 -1131 
z
M 678 -775 
L 3163 -775 
L 3163 4153 
L 678 4153 
L 678 -775 
z
" transform="scale(0.015625)"/>
      <path id="DejaVuSans-5149" d="M 319 -1131 
L 319 4513 
L 3519 4513 
L 3519 -1131 
L 319 -1131 
z
M 678 -775 
L 3163 -775 
L 3163 4153 
L 678 4153 
L 678 -775 
z
" transform="scale(0.015625)"/>
      <path id="DejaVuSans-304c" d="M 319 -1131 
L 319 4513 
L 3519 4513 
L 3519 -1131 
L 319 -1131 
z
M 678 -775 
L 3163 -775 
L 3163 4153 
L 678 4153 
L 678 -775 
z
" transform="scale(0.015625)"/>
      <path id="DejaVuSans-5c4a" d="M 319 -1131 
L 319 4513 
L 3519 4513 
L 3519 -1131 
L 319 -1131 
z
M 678 -775 
L 3163 -775 
L 3163 4153 
L 678 4153 
L 678 -775 
z
" transform="scale(0.015625)"/>
      <path id="DejaVuSans-304f" d="M 319 -1131 
L 319 4513 
L 3519 4513 
L 3519 -1131 
L 319 -1131 
z
M 678 -775 
L 3163 -775 
L 3163 4153 
L 678 4153 
L 678 -775 
z
" transform="scale(0.015625)"/>
     </defs>
     <use xlink:href="#DejaVuSans-4e95"/>
     <use xlink:href="#DejaVuSans-6238" transform="translate(60.009766 0)"/>
     <use xlink:href="#DejaVuSans-306e" transform="translate(120.019531 0)"/>
     <use xlink:href="#DejaVuSans-5e95" transform="translate(180.029297 0)"/>
     <use xlink:href="#DejaVuSans-306b" transform="translate(240.039062 0)"/>
     <use xlink:href="#DejaVuSans-5149" transform="translate(300.048828 0)"/>
     <use xlink:href="#DejaVuSans-304c" transform="translate(360.058594 0)"/>
     <use xlink:href="#DejaVuSans-5c4a" transform="translate(420.068359 0)"/>
     <use xlink:href="#DejaVuSans-304f" transform="translate(480.078125 0)"/>
    </g>
   </g>
   <g id="text_6">
    <!-- (b) シエネ -->
    <g transform="translate(365.44959 16.318125) scale(0.12 -0.12)">
     <defs>
      <path id="DejaVuSans-62" d="M 3116 1747 
Q 3116 2381 2855 2742 
Q 2594 3103 2138 3103 
Q 1681 3103 1420 2742 
Q 1159 2381 1159 1747 
Q 1159 1113 1420 752 
Q 1681 391 2138 391 
Q 2594 391 2855 752 
Q 3116 1113 3116 1747 
z
M 1159 2969 
Q 1341 3281 1617 3432 
Q 1894 3584 2278 3584 
Q 2916 3584 3314 3078 
Q 3713 2572 3713 1747 
Q 3713 922 3314 415 
Q 2916 -91 2278 -91 
Q 1894 -91 1617 61 
Q 1341 213 1159 525 
L 1159 0 
L 581 0 
L 581 4863 
L 1159 4863 
L 1159 2969 
z
" transform="scale(0.015625)"/>
      <path id="DejaVuSans-30b7" d="M 319 -1131 
L 319 4513 
L 3519 4513 
L 3519 -1131 
L 319 -1131 
z
M 678 -775 
L 3163 -775 
L 3163 4153 
L 678 4153 
L 678 -775 
z
" transform="scale(0.015625)"/>
      <path id="DejaVuSans-30a8" d="M 319 -1131 
L 319 4513 
L 3519 4513 
L 3519 -1131 
L 319 -1131 
z
M 678 -775 
L 3163 -775 
L 3163 4153 
L 678 4153 
L 678 -775 
z
" transform="scale(0.015625)"/>
      <path id="DejaVuSans-30cd" d="M 319 -1131 
L 319 4513 
L 3519 4513 
L 3519 -1131 
L 319 -1131 
z
M 678 -775 
L 3163 -775 
L 3163 4153 
L 678 4153 
L 678 -775 
z
" transform="scale(0.015625)"/>
     </defs>
     <use xlink:href="#DejaVuSans-28"/>
     <use xlink:href="#DejaVuSans-62" transform="translate(39.013672 0)"/>
     <use xlink:href="#DejaVuSans-29" transform="translate(102.490234 0)"/>
     <use xlink:href="#DejaVuSans-20" transform="translate(141.503906 0)"/>
     <use xlink:href="#DejaVuSans-30b7" transform="translate(173.291016 0)"/>
     <use xlink:href="#DejaVuSans-30a8" transform="translate(233.300781 0)"/>
     <use xlink:href="#DejaVuSans-30cd" transform="translate(293.310547 0)"/>
    </g>
   </g>
  </g>
  <g id="axes_3">
   <g id="patch_8">
    <path d="M 643.033764 213.90299 
C 660.499323 213.90299 677.25189 206.96385 689.601905 194.613834 
C 701.951921 182.263819 708.891061 165.511252 708.891061 148.045693 
C 708.891061 130.580133 701.951921 113.827567 689.601905 101.477551 
C 677.25189 89.127536 660.499323 82.188395 643.033764 82.188395 
C 625.568204 82.188395 608.815638 89.127536 596.465622 101.477551 
C 584.115607 113.827567 577.176466 130.580133 577.176466 148.045693 
C 577.176466 165.511252 584.115607 182.263819 596.465622 194.613834 
C 608.815638 206.96385 625.568204 213.90299 643.033764 213.90299 
L 643.033764 213.90299 
z
" clip-path="url(#p50fd89652f)" style="fill: none; stroke: #000000; stroke-width: 1.4; stroke-linejoin: miter"/>
   </g>
   <g id="patch_9">
    <path d="M 639.395036 127.409445 
C 638.193707 127.621272 637.013166 127.937597 635.86687 128.354815 
C 634.720575 128.772032 633.612898 129.28855 632.556466 129.898481 
" clip-path="url(#p50fd89652f)" style="fill: none; stroke: #000000; stroke-linejoin: miter"/>
   </g>
   <g id="line2d_9">
    <defs>
     <path id="m222130d685" d="M 0 2 
C 0.530406 2 1.03916 1.789267 1.414214 1.414214 
C 1.789267 1.03916 2 0.530406 2 0 
C 2 -0.530406 1.789267 -1.03916 1.414214 -1.414214 
C 1.03916 -1.789267 0.530406 -2 0 -2 
C -0.530406 -2 -1.03916 -1.789267 -1.414214 -1.414214 
C -1.789267 -1.03916 -2 -0.530406 -2 0 
C -2 0.530406 -1.789267 1.03916 -1.414214 1.414214 
C -1.03916 1.789267 -0.530406 2 0 2 
z
" style="stroke: #000000"/>
    </defs>
    <g clip-path="url(#p50fd89652f)">
     <use xlink:href="#m222130d685" x="610.105115" y="91.0116" style="stroke: #000000"/>
    </g>
   </g>
   <g id="line2d_10">
    <g clip-path="url(#p50fd89652f)">
     <use xlink:href="#m222130d685" x="631.597764" y="83.188916" style="stroke: #000000"/>
    </g>
   </g>
   <g id="line2d_11">
    <path d="M 643.033764 148.045693 
L 610.105115 91.0116 
" clip-path="url(#p50fd89652f)" style="fill: none; stroke: #000000; stroke-linecap: square"/>
   </g>
   <g id="line2d_12">
    <path d="M 643.033764 148.045693 
L 631.597764 83.188916 
" clip-path="url(#p50fd89652f)" style="fill: none; stroke: #000000; stroke-linecap: square"/>
   </g>
   <g id="line2d_13">
    <path d="M 535.267277 52.25326 
L 610.105115 91.0116 
" clip-path="url(#p50fd89652f)" style="fill: none; stroke: #000000; stroke-linecap: square"/>
   </g>
   <g id="line2d_14">
    <path d="M 535.267277 82.188395 
L 631.597764 83.188916 
" clip-path="url(#p50fd89652f)" style="fill: none; stroke: #000000; stroke-linecap: square"/>
   </g>
   <g id="text_7">
    <!-- アレキ -->
    <g transform="translate(569.074357 71.953028) scale(0.09 -0.09)">
     <use xlink:href="#DejaVuSans-30a2"/>
     <use xlink:href="#DejaVuSans-30ec" transform="translate(60.009766 0)"/>
     <use xlink:href="#DejaVuSans-30ad" transform="translate(120.019531 0)"/>
    </g>
    <!-- サンドリア -->
    <g transform="translate(563.672951 82.03106) scale(0.09 -0.09)">
     <use xlink:href="#DejaVuSans-30b5"/>
     <use xlink:href="#DejaVuSans-30f3" transform="translate(60.009766 0)"/>
     <use xlink:href="#DejaVuSans-30c9" transform="translate(120.019531 0)"/>
     <use xlink:href="#DejaVuSans-30ea" transform="translate(180.029297 0)"/>
     <use xlink:href="#DejaVuSans-30a2" transform="translate(240.039062 0)"/>
    </g>
   </g>
   <g id="text_8">
    <!-- シエネ -->
    <g transform="translate(656.424303 71.214862) scale(0.09 -0.09)">
     <use xlink:href="#DejaVuSans-30b7"/>
     <use xlink:href="#DejaVuSans-30a8" transform="translate(60.009766 0)"/>
     <use xlink:href="#DejaVuSans-30cd" transform="translate(120.019531 0)"/>
    </g>
   </g>
   <g id="text_9">
    <!-- 7.2° -->
    <g transform="translate(623.875277 121.104071) scale(0.1 -0.1)">
     <use xlink:href="#DejaVuSans-37"/>
     <use xlink:href="#DejaVuSans-2e" transform="translate(63.623047 0)"/>
     <use xlink:href="#DejaVuSans-32" transform="translate(95.410156 0)"/>
     <use xlink:href="#DejaVuSans-b0" transform="translate(159.033203 0)"/>
    </g>
   </g>
   <g id="text_10">
    <!-- 地球 -->
    <g transform="translate(637.032201 222.88353) scale(0.1 -0.1)">
     <defs>
      <path id="DejaVuSans-5730" d="M 319 -1131 
L 319 4513 
L 3519 4513 
L 3519 -1131 
L 319 -1131 
z
M 678 -775 
L 3163 -775 
L 3163 4153 
L 678 4153 
L 678 -775 
z
" transform="scale(0.015625)"/>
      <path id="DejaVuSans-7403" d="M 319 -1131 
L 319 4513 
L 3519 4513 
L 3519 -1131 
L 319 -1131 
z
M 678 -775 
L 3163 -775 
L 3163 4153 
L 678 4153 
L 678 -775 
z
" transform="scale(0.015625)"/>
     </defs>
     <use xlink:href="#DejaVuSans-5730"/>
     <use xlink:href="#DejaVuSans-7403" transform="translate(60.009766 0)"/>
    </g>
   </g>
   <g id="text_11">
    <!-- (c) 地球モデル -->
    <g transform="translate(615.141264 16.318125) scale(0.12 -0.12)">
     <defs>
      <path id="DejaVuSans-63" d="M 3122 3366 
L 3122 2828 
Q 2878 2963 2633 3030 
Q 2388 3097 2138 3097 
Q 1578 3097 1268 2742 
Q 959 2388 959 1747 
Q 959 1106 1268 751 
Q 1578 397 2138 397 
Q 2388 397 2633 464 
Q 2878 531 3122 666 
L 3122 134 
Q 2881 22 2623 -34 
Q 2366 -91 2075 -91 
Q 1284 -91 818 406 
Q 353 903 353 1747 
Q 353 2603 823 3093 
Q 1294 3584 2113 3584 
Q 2378 3584 2631 3529 
Q 2884 3475 3122 3366 
z
" transform="scale(0.015625)"/>
      <path id="DejaVuSans-30e2" d="M 319 -1131 
L 319 4513 
L 3519 4513 
L 3519 -1131 
L 319 -1131 
z
M 678 -775 
L 3163 -775 
L 3163 4153 
L 678 4153 
L 678 -775 
z
" transform="scale(0.015625)"/>
      <path id="DejaVuSans-30c7" d="M 319 -1131 
L 319 4513 
L 3519 4513 
L 3519 -1131 
L 319 -1131 
z
M 678 -775 
L 3163 -775 
L 3163 4153 
L 678 4153 
L 678 -775 
z
" transform="scale(0.015625)"/>
      <path id="DejaVuSans-30eb" d="M 319 -1131 
L 319 4513 
L 3519 4513 
L 3519 -1131 
L 319 -1131 
z
M 678 -775 
L 3163 -775 
L 3163 4153 
L 678 4153 
L 678 -775 
z
" transform="scale(0.015625)"/>
     </defs>
     <use xlink:href="#DejaVuSans-28"/>
     <use xlink:href="#DejaVuSans-63" transform="translate(39.013672 0)"/>
     <use xlink:href="#DejaVuSans-29" transform="translate(93.994141 0)"/>
     <use xlink:href="#DejaVuSans-20" transform="translate(133.007812 0)"/>
     <use xlink:href="#DejaVuSans-5730" transform="translate(164.794922 0)"/>
     <use xlink:href="#DejaVuSans-7403" transform="translate(224.804688 0)"/>
     <use xlink:href="#DejaVuSans-30e2" transform="translate(284.814453 0)"/>
     <use xlink:href="#DejaVuSans-30c7" transform="translate(344.824219 0)"/>
     <use xlink:href="#DejaVuSans-30eb" transform="translate(404.833984 0)"/>
    </g>
   </g>
  </g>
 </g>
 <defs>
  <clipPath id="p02e1c6c9fd">
   <rect x="7.2" y="22.318125" width="246.133333" height="221.52"/>
  </clipPath>
  <clipPath id="p0e6a1290a0">
   <rect x="299.838323" y="22.318125" width="173.623784" height="221.52"/>
  </clipPath>
  <clipPath id="p50fd89652f">
   <rect x="523.293223" y="22.318125" width="239.481081" height="221.52"/>
  </clipPath>
 </defs>
</svg>
