<?xml version="1.0" encoding="utf-8" standalone="no"?>
<!DOCTYPE svg PUBLIC "-//W3C//DTD SVG 1.1//EN"
  "http://www.w3.org/Graphics/SVG/1.1/DTD/svg11.dtd">
<svg xmlns:xlink="http://www.w3.org/1999/xlink" width="293.4pt" height="275.9625pt" viewBox="0 0 293.4 275.9625" xmlns="http://www.w3.org/2000/svg" version="1.1">
 <metadata>
  <rdf:RDF xmlns:dc="http://purl.org/dc/elements/1.1/" xmlns:cc="http://creativecommons.org/ns#" xmlns:rdf="http://www.w3.org/1999/02/22-rdf-syntax-ns#">
   <cc:Work>
    <dc:type rdf:resource="http://purl.org/dc/dcmitype/StillImage"/>
    <dc:date>2026-06-24T00:44:45.585506</dc:date>
    <dc:format>image/svg+xml</dc:format>
    <dc:creator>
     <cc:Agent>
      <dc:title>Matplotlib v3.10.0, https://matplotlib.org/</dc:title>
     </cc:Agent>
    </dc:creator>
   </cc:Work>
  </rdf:RDF>
 </metadata>
 <defs>
  <style type="text/css">*{stroke-linejoin: round; stroke-linecap: butt}</style>
 </defs>
 <g id="figure_1">
  <g id="patch_1">
   <path d="M 0 275.9625 
L 293.4 275.9625 
L 293.4 0 
L 0 0 
z
" style="fill: #ffffff"/>
  </g>
  <g id="axes_1">
   <g id="patch_2">
    <path d="M 146.7 233.8875 
C 172.134635 233.8875 196.530957 223.782212 214.51596 205.79721 
C 232.500962 187.812207 242.60625 163.415885 242.60625 137.98125 
C 242.60625 112.546615 232.500962 88.150293 214.51596 70.16529 
C 196.530957 52.180288 172.134635 42.075 146.7 42.075 
C 121.265365 42.075 96.869043 52.180288 78.88404 70.16529 
C 60.899038 88.150293 50.79375 112.546615 50.79375 137.98125 
C 50.79375 163.415885 60.899038 187.812207 78.88404 205.79721 
C 96.869043 223.782212 121.265365 233.8875 146.7 233.8875 
L 146.7 233.8875 
z
" clip-path="url(#peefecda491)" style="fill: none; stroke: #000000; stroke-width: 1.4; stroke-linejoin: miter"/>
   </g>
   <g id="patch_3">
    <path d="M 131.442187 220.809375 
C 148.205924 220.809375 164.285318 214.149072 176.13907 202.29532 
C 187.992822 190.441568 194.653125 174.362174 194.653125 157.598437 
C 194.653125 140.834701 187.992822 124.755307 176.13907 112.901555 
C 164.285318 101.047803 148.205924 94.3875 131.442187 94.3875 
C 114.678451 94.3875 98.599057 101.047803 86.745305 112.901555 
C 74.891553 124.755307 68.23125 140.834701 68.23125 157.598437 
C 68.23125 174.362174 74.891553 190.441568 86.745305 202.29532 
C 98.599057 214.149072 114.678451 220.809375 131.442187 220.809375 
L 131.442187 220.809375 
z
" clip-path="url(#peefecda491)" style="fill: none; stroke: #000000; stroke-width: 1.4; stroke-linejoin: miter"/>
   </g>
   <g id="patch_4">
    <path d="M 179.395312 172.85625 
C 191.53457 172.85625 203.178269 168.033272 211.762021 159.449521 
C 220.345772 150.865769 225.16875 139.22207 225.16875 127.082812 
C 225.16875 114.943555 220.345772 103.299856 211.762021 94.716104 
C 203.178269 86.132353 191.53457 81.309375 179.395312 81.309375 
C 167.256055 81.309375 155.612356 86.132353 147.028604 94.716104 
C 138.444853 103.299856 133.621875 114.943555 133.621875 127.082812 
C 133.621875 139.22207 138.444853 150.865769 147.028604 159.449521 
C 155.612356 168.033272 167.256055 172.85625 179.395312 172.85625 
L 179.395312 172.85625 
z
" clip-path="url(#peefecda491)" style="fill: none; stroke: #000000; stroke-width: 1.4; stroke-linejoin: miter"/>
   </g>
   <g id="patch_5">
    <path d="M 177.215625 218.629687 
C 188.198763 218.629687 198.733538 214.266041 206.499789 206.499789 
C 214.266041 198.733538 218.629687 188.198763 218.629687 177.215625 
C 218.629687 166.232487 214.266041 155.697712 206.499789 147.931461 
C 198.733538 140.165209 188.198763 135.801562 177.215625 135.801562 
C 166.232487 135.801562 155.697712 140.165209 147.931461 147.931461 
C 140.165209 155.697712 135.801562 166.232487 135.801562 177.215625 
C 135.801562 188.198763 140.165209 198.733538 147.931461 206.499789 
C 155.697712 214.266041 166.232487 218.629687 177.215625 218.629687 
L 177.215625 218.629687 
z
" clip-path="url(#peefecda491)" style="fill: none; stroke: #000000; stroke-width: 1.4; stroke-linejoin: miter"/>
   </g>
   <g id="text_1">
    <!-- センシング -->
    <g transform="translate(115.693281 74.324375) scale(0.14 -0.14)">
     <defs>
      <path id="IPAPGothic-30bb" d="M 1869 4878 
L 2394 4878 
L 2394 3400 
L 5100 3731 
L 5416 3444 
Q 4647 2309 3816 1556 
L 3378 1875 
Q 4106 2459 4653 3234 
L 2394 2931 
L 2394 978 
Q 2394 734 2547 669 
Q 2731 584 3425 584 
Q 4228 584 5234 697 
L 5253 172 
Q 4372 103 3653 103 
Q 2488 103 2169 256 
Q 1869 403 1869 866 
L 1869 2863 
L 447 2675 
L 397 3150 
L 1869 3334 
L 1869 4878 
z
" transform="scale(0.015625)"/>
      <path id="IPAPGothic-30f3" d="M 1931 3084 
Q 1303 3656 544 4084 
L 869 4519 
Q 1550 4188 2303 3559 
L 1931 3084 
z
M 588 609 
Q 3472 1106 4703 3828 
L 5106 3469 
Q 3900 794 922 103 
L 588 609 
z
" transform="scale(0.015625)"/>
      <path id="IPAPGothic-30b7" d="M 2438 3525 
Q 1828 4050 1222 4353 
L 1522 4775 
Q 2113 4484 2778 3975 
L 2438 3525 
z
M 772 494 
Q 3553 1088 4947 3519 
L 5297 3122 
Q 3906 694 1094 -6 
L 772 494 
z
M 1681 2272 
Q 1075 2791 441 3103 
L 741 3531 
Q 1416 3206 2016 2719 
L 1681 2272 
z
" transform="scale(0.015625)"/>
      <path id="IPAPGothic-30b0" d="M 4269 4191 
L 4609 3941 
Q 4044 1013 1453 -225 
L 1081 184 
Q 2263 675 3041 1625 
Q 3784 2531 4025 3731 
L 2203 3731 
Q 1609 2681 744 1959 
L 366 2309 
Q 1659 3353 2228 5022 
L 2722 4881 
Q 2659 4672 2441 4191 
L 4269 4191 
z
M 5313 4341 
Q 5072 4772 4731 5131 
L 5063 5350 
Q 5384 5050 5672 4594 
L 5313 4341 
z
M 4725 4025 
Q 4484 4478 4169 4831 
L 4494 5038 
Q 4819 4709 5088 4256 
L 4725 4025 
z
" transform="scale(0.015625)"/>
     </defs>
     <use xlink:href="#IPAPGothic-30bb"/>
     <use xlink:href="#IPAPGothic-30f3" transform="translate(93.017578 0)"/>
     <use xlink:href="#IPAPGothic-30b7" transform="translate(179.003906 0)"/>
     <use xlink:href="#IPAPGothic-30f3" transform="translate(266.992188 0)"/>
     <use xlink:href="#IPAPGothic-30b0" transform="translate(352.978516 0)"/>
    </g>
   </g>
   <g id="text_2">
    <!-- 制御 -->
    <g transform="translate(108.723437 148.43375) scale(0.14 -0.14)">
     <defs>
      <path id="IPAPGothic-5236" d="M 1881 4331 
L 1881 5313 
L 2309 5313 
L 2309 4331 
L 3616 4331 
L 3616 3959 
L 2309 3959 
L 2309 3206 
L 3813 3206 
L 3813 2822 
L 2309 2822 
L 2309 2188 
L 3544 2188 
L 3544 544 
Q 3544 281 3434 191 
Q 3338 116 3084 116 
Q 2816 116 2578 153 
L 2534 581 
Q 2747 531 2950 531 
Q 3122 531 3122 728 
L 3122 1816 
L 2309 1816 
L 2309 -447 
L 1881 -447 
L 1881 1816 
L 1106 1816 
L 1106 13 
L 691 13 
L 691 2188 
L 1881 2188 
L 1881 2822 
L 319 2822 
L 319 3206 
L 1881 3206 
L 1881 3959 
L 1119 3959 
Q 984 3625 741 3263 
L 375 3525 
Q 822 4203 1003 5081 
L 1447 4991 
Q 1372 4666 1259 4331 
L 1881 4331 
z
M 4159 4575 
L 4606 4575 
L 4606 1013 
L 4159 1013 
L 4159 4575 
z
M 5369 5100 
L 5809 5100 
L 5809 147 
Q 5809 -128 5700 -256 
Q 5575 -391 5156 -391 
Q 4744 -391 4350 -341 
L 4275 134 
Q 4731 69 5138 69 
Q 5369 69 5369 325 
L 5369 5100 
z
" transform="scale(0.015625)"/>
      <path id="IPAPGothic-5fa1" d="M 3297 734 
Q 3569 800 4206 978 
L 4219 606 
Q 3034 209 1806 -31 
L 1634 391 
Q 1963 447 2063 466 
L 2063 2350 
L 2478 2350 
L 2478 550 
L 2625 581 
L 2759 613 
L 2888 641 
L 2888 2791 
L 1825 2791 
L 1825 3181 
L 2888 3181 
L 2888 4103 
L 2478 4103 
Q 2356 3813 2172 3541 
L 1831 3791 
Q 2222 4359 2434 5275 
L 2831 5184 
Q 2744 4800 2638 4494 
L 4128 4494 
L 4128 4103 
L 3297 4103 
L 3297 3181 
L 4250 3181 
L 4250 2791 
L 3297 2791 
L 3297 2053 
L 4156 2053 
L 4156 1656 
L 3297 1656 
L 3297 734 
z
M 1434 2869 
L 1434 -447 
L 1025 -447 
L 1025 2325 
Q 741 1988 450 1703 
L 219 2063 
Q 969 2744 1531 3809 
L 1875 3597 
Q 1675 3225 1434 2869 
z
M 5916 4653 
L 5916 853 
Q 5916 597 5819 500 
Q 5725 403 5475 403 
Q 5253 403 5053 444 
L 5006 866 
Q 5156 831 5334 831 
Q 5513 831 5513 1031 
L 5513 4250 
L 4841 4250 
L 4841 -447 
L 4425 -447 
L 4425 4653 
L 5916 4653 
z
M 263 3822 
Q 1038 4391 1466 5203 
L 1844 5019 
Q 1297 4047 538 3500 
L 263 3822 
z
" transform="scale(0.015625)"/>
     </defs>
     <use xlink:href="#IPAPGothic-5236"/>
     <use xlink:href="#IPAPGothic-5fa1" transform="translate(100 0)"/>
    </g>
   </g>
   <g id="text_3">
    <!-- 計測 -->
    <g transform="translate(176.29375 122.2775) scale(0.14 -0.14)">
     <defs>
      <path id="IPAPGothic-8a08" d="M 2853 1684 
L 2853 -416 
L 2413 -416 
L 2413 -128 
L 1088 -128 
L 1088 -447 
L 647 -447 
L 647 1684 
L 2853 1684 
z
M 1088 1300 
L 1088 256 
L 2413 256 
L 2413 1300 
L 1088 1300 
z
M 4322 3225 
L 4322 5178 
L 4781 5178 
L 4781 3225 
L 6063 3225 
L 6063 2797 
L 4781 2797 
L 4781 -447 
L 4322 -447 
L 4322 2797 
L 3059 2797 
L 3059 3225 
L 4322 3225 
z
M 781 5044 
L 2722 5044 
L 2722 4647 
L 781 4647 
L 781 5044 
z
M 384 4206 
L 3150 4206 
L 3150 3803 
L 384 3803 
L 384 4206 
z
M 781 3359 
L 2722 3359 
L 2722 2963 
L 781 2963 
L 781 3359 
z
M 781 2522 
L 2722 2522 
L 2722 2125 
L 781 2125 
L 781 2522 
z
" transform="scale(0.015625)"/>
      <path id="IPAPGothic-6e2c" d="M 3856 4884 
L 3856 1081 
L 2059 1081 
L 2059 4884 
L 3856 4884 
z
M 2456 4494 
L 2456 3756 
L 3459 3756 
L 3459 4494 
L 2456 4494 
z
M 2456 3384 
L 2456 2656 
L 3459 2656 
L 3459 3384 
L 2456 3384 
z
M 2456 2284 
L 2456 1478 
L 3459 1478 
L 3459 2284 
L 2456 2284 
z
M 1413 3891 
Q 1000 4428 556 4763 
L 856 5100 
Q 1309 4753 1734 4269 
L 1413 3891 
z
M 1222 2394 
Q 816 2878 325 3256 
L 625 3591 
Q 1141 3231 1528 2778 
L 1222 2394 
z
M 375 -78 
Q 916 800 1297 1906 
L 1669 1619 
Q 1284 478 759 -428 
L 375 -78 
z
M 3819 -256 
Q 3478 319 3128 716 
L 3469 966 
Q 3834 581 4172 63 
L 3819 -256 
z
M 4378 4513 
L 4806 4513 
L 4806 959 
L 4378 959 
L 4378 4513 
z
M 1638 -109 
Q 2103 300 2450 984 
L 2828 763 
Q 2425 -6 1944 -488 
L 1638 -109 
z
M 5419 5081 
L 5853 5081 
L 5853 109 
Q 5853 -391 5297 -391 
Q 4919 -391 4541 -359 
L 4441 109 
Q 4928 50 5219 50 
Q 5419 50 5419 244 
L 5419 5081 
z
" transform="scale(0.015625)"/>
     </defs>
     <use xlink:href="#IPAPGothic-8a08"/>
     <use xlink:href="#IPAPGothic-6e2c" transform="translate(100 0)"/>
    </g>
   </g>
   <g id="text_4">
    <!-- 計量 -->
    <g transform="translate(174.114062 187.668125) scale(0.14 -0.14)">
     <defs>
      <path id="IPAPGothic-91cf" d="M 5081 5159 
L 5081 3497 
L 1275 3497 
L 1275 5159 
L 5081 5159 
z
M 1716 4819 
L 1716 4475 
L 4647 4475 
L 4647 4819 
L 1716 4819 
z
M 1716 4175 
L 1716 3816 
L 4647 3816 
L 4647 4175 
L 1716 4175 
z
M 5238 2625 
L 5238 997 
L 3388 997 
L 3388 694 
L 5428 694 
L 5428 353 
L 3388 353 
L 3388 34 
L 6044 34 
L 6044 -331 
L 353 -331 
L 353 34 
L 2972 34 
L 2972 353 
L 969 353 
L 969 694 
L 2972 694 
L 2972 997 
L 1159 997 
L 1159 2625 
L 5238 2625 
z
M 1588 2325 
L 1588 1972 
L 2972 1972 
L 2972 2325 
L 1588 2325 
z
M 1588 1672 
L 1588 1303 
L 2972 1303 
L 2972 1672 
L 1588 1672 
z
M 4809 1303 
L 4809 1672 
L 3388 1672 
L 3388 1303 
L 4809 1303 
z
M 4809 1972 
L 4809 2325 
L 3388 2325 
L 3388 1972 
L 4809 1972 
z
M 384 3231 
L 6009 3231 
L 6009 2884 
L 384 2884 
L 384 3231 
z
" transform="scale(0.015625)"/>
     </defs>
     <use xlink:href="#IPAPGothic-8a08"/>
     <use xlink:href="#IPAPGothic-91cf" transform="translate(100 0)"/>
    </g>
   </g>
  </g>
 </g>
 <defs>
  <clipPath id="peefecda491">
   <rect x="7.2" y="7.2" width="279" height="261.5625"/>
  </clipPath>
 </defs>
</svg>
