<?xml version="1.0" encoding="utf-8" standalone="no"?>
<!DOCTYPE svg PUBLIC "-//W3C//DTD SVG 1.1//EN"
  "http://www.w3.org/Graphics/SVG/1.1/DTD/svg11.dtd">
<svg xmlns:xlink="http://www.w3.org/1999/xlink" width="437.431304pt" height="263.88pt" viewBox="0 0 437.431304 263.88" xmlns="http://www.w3.org/2000/svg" version="1.1">
 <metadata>
  <rdf:RDF xmlns:dc="http://purl.org/dc/elements/1.1/" xmlns:cc="http://creativecommons.org/ns#" xmlns:rdf="http://www.w3.org/1999/02/22-rdf-syntax-ns#">
   <cc:Work>
    <dc:type rdf:resource="http://purl.org/dc/dcmitype/StillImage"/>
    <dc:date>2026-06-24T00:57:31.673623</dc:date>
    <dc:format>image/svg+xml</dc:format>
    <dc:creator>
     <cc:Agent>
      <dc:title>Matplotlib v3.10.0, https://matplotlib.org/</dc:title>
     </cc:Agent>
    </dc:creator>
   </cc:Work>
  </rdf:RDF>
 </metadata>
 <defs>
  <style type="text/css">*{stroke-linejoin: round; stroke-linecap: butt}</style>
 </defs>
 <g id="figure_1">
  <g id="patch_1">
   <path d="M 0 263.88 
L 437.431304 263.88 
L 437.431304 0 
L 0 0 
z
" style="fill: #ffffff"/>
  </g>
  <g id="axes_1">
   <g id="line2d_1">
    <path d="M 380.742065 34.317391 
L 397.690435 34.317391 
" clip-path="url(#pcaef2f935f)" style="fill: none; stroke: #000000; stroke-width: 1.4; stroke-linecap: square"/>
   </g>
   <g id="line2d_2">
    <path d="M 380.742065 40.825565 
L 380.742065 27.809217 
" clip-path="url(#pcaef2f935f)" style="fill: none; stroke: #000000; stroke-width: 1.2; stroke-linecap: square"/>
   </g>
   <g id="line2d_3">
    <path d="M 397.690435 40.825565 
L 397.690435 27.809217 
" clip-path="url(#pcaef2f935f)" style="fill: none; stroke: #000000; stroke-width: 1.2; stroke-linecap: square"/>
   </g>
   <g id="line2d_4">
    <defs>
     <path id="m66cec85e0c" d="M 0 2 
C 0.530406 2 1.03916 1.789267 1.414214 1.414214 
C 1.789267 1.03916 2 0.530406 2 0 
C 2 -0.530406 1.789267 -1.03916 1.414214 -1.414214 
C 1.03916 -1.789267 0.530406 -2 0 -2 
C -0.530406 -2 -1.03916 -1.789267 -1.414214 -1.414214 
C -1.789267 -1.03916 -2 -0.530406 -2 0 
C -2 0.530406 -1.789267 1.03916 -1.414214 1.414214 
C -1.03916 1.789267 -0.530406 2 0 2 
z
" style="stroke: #000000"/>
    </defs>
    <g clip-path="url(#pcaef2f935f)">
     <use xlink:href="#m66cec85e0c" x="389.21625" y="34.317391" style="stroke: #000000"/>
    </g>
   </g>
   <g id="line2d_5">
    <path d="M 363.793696 77.705217 
L 397.690435 77.705217 
" clip-path="url(#pcaef2f935f)" style="fill: none; stroke: #000000; stroke-width: 1.4; stroke-linecap: square"/>
   </g>
   <g id="line2d_6">
    <path d="M 363.793696 84.213391 
L 363.793696 71.197043 
" clip-path="url(#pcaef2f935f)" style="fill: none; stroke: #000000; stroke-width: 1.2; stroke-linecap: square"/>
   </g>
   <g id="line2d_7">
    <path d="M 397.690435 84.213391 
L 397.690435 71.197043 
" clip-path="url(#pcaef2f935f)" style="fill: none; stroke: #000000; stroke-width: 1.2; stroke-linecap: square"/>
   </g>
   <g id="line2d_8">
    <g clip-path="url(#pcaef2f935f)">
     <use xlink:href="#m66cec85e0c" x="380.742065" y="77.705217" style="stroke: #000000"/>
    </g>
   </g>
   <g id="line2d_9">
    <path d="M 329.896957 121.093043 
L 397.690435 121.093043 
" clip-path="url(#pcaef2f935f)" style="fill: none; stroke: #000000; stroke-width: 1.4; stroke-linecap: square"/>
   </g>
   <g id="line2d_10">
    <path d="M 329.896957 127.601217 
L 329.896957 114.58487 
" clip-path="url(#pcaef2f935f)" style="fill: none; stroke: #000000; stroke-width: 1.2; stroke-linecap: square"/>
   </g>
   <g id="line2d_11">
    <path d="M 397.690435 127.601217 
L 397.690435 114.58487 
" clip-path="url(#pcaef2f935f)" style="fill: none; stroke: #000000; stroke-width: 1.2; stroke-linecap: square"/>
   </g>
   <g id="line2d_12">
    <g clip-path="url(#pcaef2f935f)">
     <use xlink:href="#m66cec85e0c" x="363.793696" y="121.093043" style="stroke: #000000"/>
    </g>
   </g>
   <g id="line2d_13">
    <path d="M 262.103478 164.48087 
L 397.690435 164.48087 
" clip-path="url(#pcaef2f935f)" style="fill: none; stroke: #000000; stroke-width: 1.4; stroke-linecap: square"/>
   </g>
   <g id="line2d_14">
    <path d="M 262.103478 170.989043 
L 262.103478 157.972696 
" clip-path="url(#pcaef2f935f)" style="fill: none; stroke: #000000; stroke-width: 1.2; stroke-linecap: square"/>
   </g>
   <g id="line2d_15">
    <path d="M 397.690435 170.989043 
L 397.690435 157.972696 
" clip-path="url(#pcaef2f935f)" style="fill: none; stroke: #000000; stroke-width: 1.2; stroke-linecap: square"/>
   </g>
   <g id="line2d_16">
    <g clip-path="url(#pcaef2f935f)">
     <use xlink:href="#m66cec85e0c" x="329.896957" y="164.48087" style="stroke: #000000"/>
    </g>
   </g>
   <g id="line2d_17">
    <path d="M 126.516522 210.580435 
L 397.690435 210.580435 
" clip-path="url(#pcaef2f935f)" style="fill: none; stroke: #000000; stroke-width: 1.4; stroke-linecap: square"/>
   </g>
   <g id="line2d_18">
    <path d="M 126.516522 217.088609 
L 126.516522 204.072261 
" clip-path="url(#pcaef2f935f)" style="fill: none; stroke: #000000; stroke-width: 1.2; stroke-linecap: square"/>
   </g>
   <g id="line2d_19">
    <path d="M 397.690435 217.088609 
L 397.690435 204.072261 
" clip-path="url(#pcaef2f935f)" style="fill: none; stroke: #000000; stroke-width: 1.2; stroke-linecap: square"/>
   </g>
   <g id="line2d_20">
    <path d="M 262.103478 216.003913 
L 262.103478 200.818174 
" clip-path="url(#pcaef2f935f)" style="fill: none; stroke: #000000; stroke-linecap: square"/>
   </g>
   <g id="line2d_21">
    <path d="M 329.896957 216.003913 
L 329.896957 200.818174 
" clip-path="url(#pcaef2f935f)" style="fill: none; stroke: #000000; stroke-linecap: square"/>
   </g>
   <g id="line2d_22">
    <path d="M 363.793696 216.003913 
L 363.793696 200.818174 
" clip-path="url(#pcaef2f935f)" style="fill: none; stroke: #000000; stroke-linecap: square"/>
   </g>
   <g id="line2d_23">
    <path d="M 380.742065 216.003913 
L 380.742065 200.818174 
" clip-path="url(#pcaef2f935f)" style="fill: none; stroke: #000000; stroke-linecap: square"/>
   </g>
   <g id="text_1">
    <!-- 4回の比較後の計測値の範囲 -->
    <g transform="translate(18.046957 37.671766) scale(0.12 -0.12)">
     <defs>
      <path id="IPAPGothic-34" d="M 3813 1159 
L 3056 1159 
L 3056 63 
L 2544 63 
L 2544 1159 
L 197 1159 
L 197 1672 
L 2453 4678 
L 3056 4678 
L 3056 1634 
L 3813 1634 
L 3813 1159 
z
M 2575 4109 
L 2556 4109 
Q 2278 3659 2000 3284 
L 759 1634 
L 2544 1634 
L 2544 3144 
Q 2544 3472 2575 4109 
z
" transform="scale(0.015625)"/>
      <path id="IPAPGothic-56de" d="M 4519 3647 
L 4519 1178 
L 1875 1178 
L 1875 3647 
L 4519 3647 
z
M 2328 3250 
L 2328 1575 
L 4066 1575 
L 4066 3250 
L 2328 3250 
z
M 5722 4891 
L 5722 -453 
L 5247 -453 
L 5247 -103 
L 1147 -103 
L 1147 -453 
L 672 -453 
L 672 4891 
L 5722 4891 
z
M 1147 4475 
L 1147 313 
L 5247 313 
L 5247 4475 
L 1147 4475 
z
" transform="scale(0.015625)"/>
      <path id="IPAPGothic-306e" d="M 2991 469 
Q 5147 766 5147 2425 
Q 5147 3453 4284 3922 
Q 3913 4113 3419 4159 
Q 3266 2525 2722 1400 
Q 2194 306 1594 306 
Q 1256 306 956 666 
Q 481 1244 481 2003 
Q 481 3025 1269 3794 
Q 2056 4563 3303 4563 
Q 4178 4563 4800 4122 
Q 5684 3506 5684 2425 
Q 5684 438 3303 6 
L 2991 469 
z
M 2925 4147 
Q 2250 4044 1763 3641 
Q 969 2981 969 1991 
Q 969 1366 1306 978 
Q 1453 813 1591 813 
Q 1894 813 2288 1625 
Q 2781 2638 2925 4147 
z
" transform="scale(0.015625)"/>
      <path id="IPAPGothic-6bd4" d="M 1525 3250 
L 3000 3250 
L 3000 2822 
L 1525 2822 
L 1525 472 
Q 2463 747 3013 934 
L 3038 531 
Q 1809 59 459 -300 
L 294 159 
Q 694 250 1056 344 
L 1056 5081 
L 1525 5081 
L 1525 3250 
z
M 3794 3025 
Q 4691 3469 5341 4038 
L 5744 3703 
Q 4778 2969 3794 2572 
L 3794 556 
Q 3794 350 3978 309 
Q 4106 284 4472 284 
Q 5169 284 5328 375 
Q 5491 459 5522 1516 
L 5994 1356 
Q 5966 234 5772 31 
Q 5566 -175 4491 -175 
Q 3809 -175 3588 -78 
Q 3334 25 3334 397 
L 3334 5113 
L 3794 5113 
L 3794 3025 
z
" transform="scale(0.015625)"/>
      <path id="IPAPGothic-8f03" d="M 1413 3688 
L 1413 4153 
L 384 4153 
L 384 4538 
L 1413 4538 
L 1413 5313 
L 1816 5313 
L 1816 4538 
L 2872 4538 
L 2872 4153 
L 1816 4153 
L 1816 3688 
L 2734 3688 
L 2734 1516 
L 1816 1516 
L 1816 1013 
L 2931 1013 
L 2931 628 
L 1816 628 
L 1816 -447 
L 1413 -447 
L 1413 628 
L 294 628 
L 294 1013 
L 1413 1013 
L 1413 1516 
L 531 1516 
L 531 3688 
L 1413 3688 
z
M 1425 3356 
L 903 3356 
L 903 2778 
L 1425 2778 
L 1425 3356 
z
M 1803 3356 
L 1803 2778 
L 2363 2778 
L 2363 3356 
L 1803 3356 
z
M 1425 2459 
L 903 2459 
L 903 1856 
L 1425 1856 
L 1425 2459 
z
M 1803 2459 
L 1803 1856 
L 2363 1856 
L 2363 2459 
L 1803 2459 
z
M 4244 1013 
Q 3791 1606 3550 2338 
L 3916 2509 
Q 4094 1900 4478 1363 
Q 4825 1941 4978 2638 
L 5375 2491 
Q 5194 1719 4747 1031 
Q 5294 444 6144 44 
L 5863 -378 
Q 5072 50 4500 691 
Q 3853 -78 3053 -481 
L 2750 -128 
Q 3647 259 4244 1013 
z
M 4647 4263 
L 6059 4263 
L 6059 3853 
L 2963 3853 
L 2963 4263 
L 4206 4263 
L 4206 5313 
L 4647 5313 
L 4647 4263 
z
M 2847 2297 
Q 3409 2859 3738 3700 
L 4122 3541 
Q 3772 2644 3153 1991 
L 2847 2297 
z
M 5759 2106 
Q 5338 2863 4734 3541 
L 5075 3731 
Q 5734 3044 6100 2419 
L 5759 2106 
z
" transform="scale(0.015625)"/>
      <path id="IPAPGothic-5f8c" d="M 3309 2475 
Q 3184 2469 2291 2425 
L 2125 2859 
Q 2625 2859 2822 2866 
L 3169 2878 
L 3488 3194 
Q 2891 3844 2375 4238 
L 2700 4563 
Q 2878 4409 3097 4191 
Q 3563 4781 3828 5297 
L 4263 5075 
Q 3853 4431 3366 3916 
Q 3538 3744 3769 3475 
Q 4366 4109 4756 4647 
L 5178 4391 
Q 4525 3594 3719 2891 
L 4519 2925 
Q 5022 2950 5197 2963 
Q 4978 3316 4741 3591 
L 5106 3794 
Q 5606 3197 5972 2516 
L 5569 2259 
Q 5494 2428 5381 2638 
Q 5363 2631 5309 2628 
Q 5259 2625 5234 2622 
Q 4741 2566 3806 2509 
Q 3728 2338 3550 2041 
L 5050 2041 
L 5319 1791 
Q 4978 1122 4441 631 
Q 5069 256 5984 25 
L 5663 -419 
Q 4734 -106 4109 338 
Q 3372 -225 2194 -531 
L 1900 -116 
Q 3009 66 3775 594 
Q 3331 969 3053 1356 
Q 2663 900 2259 625 
L 1959 941 
Q 2838 1559 3309 2475 
z
M 4109 863 
Q 4528 1244 4728 1656 
L 3322 1656 
Q 3613 1263 4109 863 
z
M 1588 2753 
L 1588 -447 
L 1147 -447 
L 1147 2209 
Q 869 1894 550 1616 
L 250 1947 
Q 1216 2806 1803 3938 
L 2206 3738 
Q 1906 3188 1588 2753 
z
M 294 3719 
Q 1213 4378 1663 5209 
L 2078 4997 
Q 1475 4019 588 3372 
L 294 3719 
z
" transform="scale(0.015625)"/>
      <path id="IPAPGothic-8a08" d="M 2853 1684 
L 2853 -416 
L 2413 -416 
L 2413 -128 
L 1088 -128 
L 1088 -447 
L 647 -447 
L 647 1684 
L 2853 1684 
z
M 1088 1300 
L 1088 256 
L 2413 256 
L 2413 1300 
L 1088 1300 
z
M 4322 3225 
L 4322 5178 
L 4781 5178 
L 4781 3225 
L 6063 3225 
L 6063 2797 
L 4781 2797 
L 4781 -447 
L 4322 -447 
L 4322 2797 
L 3059 2797 
L 3059 3225 
L 4322 3225 
z
M 781 5044 
L 2722 5044 
L 2722 4647 
L 781 4647 
L 781 5044 
z
M 384 4206 
L 3150 4206 
L 3150 3803 
L 384 3803 
L 384 4206 
z
M 781 3359 
L 2722 3359 
L 2722 2963 
L 781 2963 
L 781 3359 
z
M 781 2522 
L 2722 2522 
L 2722 2125 
L 781 2125 
L 781 2522 
z
" transform="scale(0.015625)"/>
      <path id="IPAPGothic-6e2c" d="M 3856 4884 
L 3856 1081 
L 2059 1081 
L 2059 4884 
L 3856 4884 
z
M 2456 4494 
L 2456 3756 
L 3459 3756 
L 3459 4494 
L 2456 4494 
z
M 2456 3384 
L 2456 2656 
L 3459 2656 
L 3459 3384 
L 2456 3384 
z
M 2456 2284 
L 2456 1478 
L 3459 1478 
L 3459 2284 
L 2456 2284 
z
M 1413 3891 
Q 1000 4428 556 4763 
L 856 5100 
Q 1309 4753 1734 4269 
L 1413 3891 
z
M 1222 2394 
Q 816 2878 325 3256 
L 625 3591 
Q 1141 3231 1528 2778 
L 1222 2394 
z
M 375 -78 
Q 916 800 1297 1906 
L 1669 1619 
Q 1284 478 759 -428 
L 375 -78 
z
M 3819 -256 
Q 3478 319 3128 716 
L 3469 966 
Q 3834 581 4172 63 
L 3819 -256 
z
M 4378 4513 
L 4806 4513 
L 4806 959 
L 4378 959 
L 4378 4513 
z
M 1638 -109 
Q 2103 300 2450 984 
L 2828 763 
Q 2425 -6 1944 -488 
L 1638 -109 
z
M 5419 5081 
L 5853 5081 
L 5853 109 
Q 5853 -391 5297 -391 
Q 4919 -391 4541 -359 
L 4441 109 
Q 4928 50 5219 50 
Q 5419 50 5419 244 
L 5419 5081 
z
" transform="scale(0.015625)"/>
      <path id="IPAPGothic-5024" d="M 4172 3675 
L 5453 3675 
L 5453 684 
L 3019 684 
L 3019 3675 
L 3747 3675 
Q 3788 3884 3825 4153 
L 2144 4153 
L 2144 4544 
L 3881 4544 
Q 3922 4841 3966 5325 
L 4434 5272 
L 4391 4953 
Q 4331 4578 4331 4544 
L 5863 4544 
L 5863 4153 
L 4269 4153 
Q 4200 3781 4172 3675 
z
M 5038 3316 
L 3434 3316 
L 3434 2803 
L 5038 2803 
L 5038 3316 
z
M 3434 2450 
L 3434 1941 
L 5038 1941 
L 5038 2450 
L 3434 2450 
z
M 3434 1588 
L 3434 1044 
L 5038 1044 
L 5038 1588 
L 3434 1588 
z
M 1509 3669 
L 1509 -447 
L 1069 -447 
L 1069 2728 
Q 856 2338 531 1875 
L 288 2266 
Q 1163 3534 1541 5325 
L 1975 5225 
Q 1791 4378 1509 3669 
z
M 2488 244 
L 6034 244 
L 6034 -153 
L 2488 -153 
L 2488 -447 
L 2059 -447 
L 2059 3213 
L 2488 3213 
L 2488 244 
z
" transform="scale(0.015625)"/>
      <path id="IPAPGothic-7bc4" d="M 1613 2631 
L 1613 2938 
L 397 2938 
L 397 3291 
L 1613 3291 
L 1613 3731 
L 2003 3731 
L 2003 3291 
L 3238 3291 
L 3238 2938 
L 2003 2938 
L 2003 2631 
L 3016 2631 
L 3016 978 
L 2003 978 
L 2003 628 
L 3303 628 
L 3303 275 
L 2003 275 
L 2003 -447 
L 1613 -447 
L 1613 275 
L 325 275 
L 325 628 
L 1613 628 
L 1613 978 
L 634 978 
L 634 2631 
L 1613 2631 
z
M 1619 2319 
L 1019 2319 
L 1019 1966 
L 1619 1966 
L 1619 2319 
z
M 1997 2319 
L 1997 1966 
L 2625 1966 
L 2625 2319 
L 1997 2319 
z
M 1619 1666 
L 1019 1666 
L 1019 1291 
L 1619 1291 
L 1619 1666 
z
M 1997 1666 
L 1997 1291 
L 2625 1291 
L 2625 1666 
L 1997 1666 
z
M 3941 3072 
L 3941 288 
Q 3941 103 4038 63 
Q 4134 19 4669 19 
Q 5447 19 5553 116 
Q 5659 222 5669 872 
L 6103 750 
Q 6094 53 5944 -166 
Q 5778 -391 4797 -391 
Q 3944 -391 3744 -313 
Q 3513 -219 3513 178 
L 3513 3463 
L 5681 3463 
L 5681 1350 
Q 5681 922 5209 922 
Q 4778 922 4459 966 
L 4381 1381 
Q 4797 1313 5072 1313 
Q 5253 1313 5253 1509 
L 5253 3072 
L 3941 3072 
z
M 1413 4788 
L 3200 4788 
L 3200 4416 
L 2228 4416 
Q 2350 4184 2497 3800 
L 2066 3672 
Q 1959 4031 1791 4416 
L 1253 4416 
L 1241 4384 
Q 1006 3903 600 3469 
L 288 3744 
Q 884 4350 1150 5350 
L 1569 5275 
Q 1503 5038 1413 4788 
z
M 3959 4788 
L 6034 4788 
L 6034 4416 
L 4678 4416 
Q 4863 4141 5022 3806 
L 4594 3659 
Q 4406 4113 4222 4416 
L 3800 4416 
Q 3569 3934 3256 3584 
L 2925 3841 
Q 3431 4416 3691 5356 
L 4113 5263 
Q 4022 4956 3959 4788 
z
" transform="scale(0.015625)"/>
      <path id="IPAPGothic-56f2" d="M 2291 3494 
L 2291 4384 
L 2731 4384 
L 2731 3494 
L 3700 3494 
L 3700 4384 
L 4141 4384 
L 4141 3494 
L 5000 3494 
L 5000 3122 
L 4141 3122 
L 4141 2156 
L 5103 2156 
L 5103 1772 
L 4159 1772 
L 4159 447 
L 3719 447 
L 3719 1772 
L 2688 1772 
Q 2541 853 1769 344 
L 1441 666 
Q 2122 1069 2247 1772 
L 1294 1772 
L 1294 2156 
L 2284 2156 
Q 2291 2228 2291 2375 
L 2291 3122 
L 1391 3122 
L 1391 3494 
L 2291 3494 
z
M 3700 3122 
L 2731 3122 
L 2731 2475 
Q 2731 2272 2725 2156 
L 3700 2156 
L 3700 3122 
z
M 5759 4984 
L 5759 -447 
L 5300 -447 
L 5300 -172 
L 1097 -172 
L 1097 -447 
L 628 -447 
L 628 4984 
L 5759 4984 
z
M 1097 4575 
L 1097 244 
L 5300 244 
L 5300 4575 
L 1097 4575 
z
" transform="scale(0.015625)"/>
     </defs>
     <use xlink:href="#IPAPGothic-34"/>
     <use xlink:href="#IPAPGothic-56de" transform="translate(62.988281 0)"/>
     <use xlink:href="#IPAPGothic-306e" transform="translate(162.988281 0)"/>
     <use xlink:href="#IPAPGothic-6bd4" transform="translate(260.009766 0)"/>
     <use xlink:href="#IPAPGothic-8f03" transform="translate(360.009766 0)"/>
     <use xlink:href="#IPAPGothic-5f8c" transform="translate(460.009766 0)"/>
     <use xlink:href="#IPAPGothic-306e" transform="translate(560.009766 0)"/>
     <use xlink:href="#IPAPGothic-8a08" transform="translate(657.03125 0)"/>
     <use xlink:href="#IPAPGothic-6e2c" transform="translate(757.03125 0)"/>
     <use xlink:href="#IPAPGothic-5024" transform="translate(857.03125 0)"/>
     <use xlink:href="#IPAPGothic-306e" transform="translate(957.03125 0)"/>
     <use xlink:href="#IPAPGothic-7bc4" transform="translate(1054.052734 0)"/>
     <use xlink:href="#IPAPGothic-56f2" transform="translate(1154.052734 0)"/>
    </g>
   </g>
   <g id="text_2">
    <!-- 3回の比較後の計測値の範囲 -->
    <g transform="translate(18.046957 81.059592) scale(0.12 -0.12)">
     <defs>
      <path id="IPAPGothic-33" d="M 2381 2419 
Q 3506 2219 3506 1281 
Q 3506 716 3128 359 
Q 2709 -31 1944 -31 
Q 797 -31 288 881 
L 756 1131 
Q 1109 441 1938 441 
Q 2425 441 2694 691 
Q 2950 928 2950 1294 
Q 2950 1719 2566 1978 
Q 2216 2216 1644 2216 
L 1363 2216 
L 1363 2669 
L 1656 2669 
Q 2231 2669 2534 2888 
Q 2859 3119 2859 3509 
Q 2859 3934 2494 4138 
Q 2259 4278 1931 4278 
Q 1234 4278 903 3578 
L 434 3803 
Q 894 4725 1938 4725 
Q 2597 4725 3006 4391 
Q 3416 4069 3416 3534 
Q 3416 3028 3019 2706 
Q 2763 2500 2381 2444 
L 2381 2419 
z
" transform="scale(0.015625)"/>
     </defs>
     <use xlink:href="#IPAPGothic-33"/>
     <use xlink:href="#IPAPGothic-56de" transform="translate(62.988281 0)"/>
     <use xlink:href="#IPAPGothic-306e" transform="translate(162.988281 0)"/>
     <use xlink:href="#IPAPGothic-6bd4" transform="translate(260.009766 0)"/>
     <use xlink:href="#IPAPGothic-8f03" transform="translate(360.009766 0)"/>
     <use xlink:href="#IPAPGothic-5f8c" transform="translate(460.009766 0)"/>
     <use xlink:href="#IPAPGothic-306e" transform="translate(560.009766 0)"/>
     <use xlink:href="#IPAPGothic-8a08" transform="translate(657.03125 0)"/>
     <use xlink:href="#IPAPGothic-6e2c" transform="translate(757.03125 0)"/>
     <use xlink:href="#IPAPGothic-5024" transform="translate(857.03125 0)"/>
     <use xlink:href="#IPAPGothic-306e" transform="translate(957.03125 0)"/>
     <use xlink:href="#IPAPGothic-7bc4" transform="translate(1054.052734 0)"/>
     <use xlink:href="#IPAPGothic-56f2" transform="translate(1154.052734 0)"/>
    </g>
   </g>
   <g id="text_3">
    <!-- 2回の比較後の計測値の範囲 -->
    <g transform="translate(18.046957 124.447418) scale(0.12 -0.12)">
     <defs>
      <path id="IPAPGothic-32" d="M 3659 63 
L 447 63 
L 447 594 
Q 825 1475 1894 2203 
L 2072 2322 
Q 2619 2697 2791 2906 
Q 2988 3150 2988 3444 
Q 2988 3769 2756 4000 
Q 2500 4256 2084 4256 
Q 1250 4256 991 3328 
L 497 3506 
Q 853 4725 2116 4725 
Q 2806 4725 3216 4316 
Q 3575 3947 3575 3425 
Q 3575 3038 3344 2722 
Q 3131 2416 2366 1938 
L 2231 1856 
Q 1256 1253 978 569 
L 3659 569 
L 3659 63 
z
" transform="scale(0.015625)"/>
     </defs>
     <use xlink:href="#IPAPGothic-32"/>
     <use xlink:href="#IPAPGothic-56de" transform="translate(62.988281 0)"/>
     <use xlink:href="#IPAPGothic-306e" transform="translate(162.988281 0)"/>
     <use xlink:href="#IPAPGothic-6bd4" transform="translate(260.009766 0)"/>
     <use xlink:href="#IPAPGothic-8f03" transform="translate(360.009766 0)"/>
     <use xlink:href="#IPAPGothic-5f8c" transform="translate(460.009766 0)"/>
     <use xlink:href="#IPAPGothic-306e" transform="translate(560.009766 0)"/>
     <use xlink:href="#IPAPGothic-8a08" transform="translate(657.03125 0)"/>
     <use xlink:href="#IPAPGothic-6e2c" transform="translate(757.03125 0)"/>
     <use xlink:href="#IPAPGothic-5024" transform="translate(857.03125 0)"/>
     <use xlink:href="#IPAPGothic-306e" transform="translate(957.03125 0)"/>
     <use xlink:href="#IPAPGothic-7bc4" transform="translate(1054.052734 0)"/>
     <use xlink:href="#IPAPGothic-56f2" transform="translate(1154.052734 0)"/>
    </g>
   </g>
   <g id="text_4">
    <!-- 1回の比較後の計測値の範囲 -->
    <g transform="translate(18.046957 167.835245) scale(0.12 -0.12)">
     <defs>
      <path id="IPAPGothic-31" d="M 2463 63 
L 1900 63 
L 1900 4103 
Q 1372 3922 788 3797 
L 684 4231 
Q 1522 4441 2106 4728 
L 2463 4728 
L 2463 63 
z
" transform="scale(0.015625)"/>
     </defs>
     <use xlink:href="#IPAPGothic-31"/>
     <use xlink:href="#IPAPGothic-56de" transform="translate(62.988281 0)"/>
     <use xlink:href="#IPAPGothic-306e" transform="translate(162.988281 0)"/>
     <use xlink:href="#IPAPGothic-6bd4" transform="translate(260.009766 0)"/>
     <use xlink:href="#IPAPGothic-8f03" transform="translate(360.009766 0)"/>
     <use xlink:href="#IPAPGothic-5f8c" transform="translate(460.009766 0)"/>
     <use xlink:href="#IPAPGothic-306e" transform="translate(560.009766 0)"/>
     <use xlink:href="#IPAPGothic-8a08" transform="translate(657.03125 0)"/>
     <use xlink:href="#IPAPGothic-6e2c" transform="translate(757.03125 0)"/>
     <use xlink:href="#IPAPGothic-5024" transform="translate(857.03125 0)"/>
     <use xlink:href="#IPAPGothic-306e" transform="translate(957.03125 0)"/>
     <use xlink:href="#IPAPGothic-7bc4" transform="translate(1054.052734 0)"/>
     <use xlink:href="#IPAPGothic-56f2" transform="translate(1154.052734 0)"/>
    </g>
   </g>
   <g id="text_5">
    <!-- 0 -->
    <g transform="translate(123.367303 229.562609) scale(0.1 -0.1)">
     <defs>
      <path id="IPAPGothic-30" d="M 2038 4725 
Q 2881 4725 3334 3944 
Q 3694 3325 3694 2344 
Q 3694 1372 3334 741 
Q 2888 -31 2016 -31 
Q 1147 -31 700 741 
Q 341 1372 341 2350 
Q 341 3713 1000 4334 
Q 1419 4725 2038 4725 
z
M 2016 4263 
Q 1516 4263 1228 3756 
Q 934 3244 934 2341 
Q 934 1456 1222 947 
Q 1513 447 2016 447 
Q 2619 447 2909 1150 
Q 3100 1622 3100 2375 
Q 3100 3253 2806 3756 
Q 2509 4263 2016 4263 
z
" transform="scale(0.015625)"/>
     </defs>
     <use xlink:href="#IPAPGothic-30"/>
    </g>
   </g>
   <g id="text_6">
    <!-- N -->
    <g transform="translate(393.891216 229.562609) scale(0.1 -0.1)">
     <defs>
      <path id="IPAPGothic-4e" d="M 4244 63 
L 3731 63 
L 1697 3150 
Q 1466 3500 1141 4097 
L 1116 4097 
L 1128 3797 
Q 1159 2803 1159 2469 
L 1159 63 
L 609 63 
L 609 4634 
L 1366 4634 
L 3113 1978 
Q 3453 1447 3713 966 
L 3738 966 
Q 3694 1897 3694 2469 
L 3694 4634 
L 4244 4634 
L 4244 63 
z
" transform="scale(0.015625)"/>
     </defs>
     <use xlink:href="#IPAPGothic-4e"/>
    </g>
   </g>
   <g id="text_7">
    <!-- m1 -->
    <g transform="translate(254.598791 192.41) scale(0.1 -0.1)">
     <defs>
      <path id="IPAPGothic-6d" d="M 5022 63 
L 4472 63 
L 4472 2059 
Q 4472 2866 3847 2866 
Q 3550 2866 3303 2591 
Q 3128 2397 3059 2103 
L 3059 63 
L 2509 63 
L 2509 2066 
Q 2509 2866 1919 2866 
Q 1606 2866 1369 2591 
Q 1113 2306 1113 2041 
L 1113 63 
L 563 63 
L 563 3250 
L 1075 3250 
L 1075 2700 
Q 1391 3313 2028 3313 
Q 2725 3313 2956 2647 
Q 3303 3313 3953 3313 
Q 4478 3313 4772 2941 
Q 5022 2634 5022 2072 
L 5022 63 
z
" transform="scale(0.015625)"/>
     </defs>
     <use xlink:href="#IPAPGothic-6d"/>
     <use xlink:href="#IPAPGothic-31" transform="translate(87.109375 0)"/>
    </g>
   </g>
   <g id="text_8">
    <!-- m2 -->
    <g transform="translate(322.392269 192.41) scale(0.1 -0.1)">
     <use xlink:href="#IPAPGothic-6d"/>
     <use xlink:href="#IPAPGothic-32" transform="translate(87.109375 0)"/>
    </g>
   </g>
   <g id="text_9">
    <!-- m3 -->
    <g transform="translate(356.289008 192.41) scale(0.1 -0.1)">
     <use xlink:href="#IPAPGothic-6d"/>
     <use xlink:href="#IPAPGothic-33" transform="translate(87.109375 0)"/>
    </g>
   </g>
   <g id="text_10">
    <!-- m4 -->
    <g transform="translate(373.237378 192.41) scale(0.1 -0.1)">
     <use xlink:href="#IPAPGothic-6d"/>
     <use xlink:href="#IPAPGothic-34" transform="translate(87.109375 0)"/>
    </g>
   </g>
   <g id="text_11">
    <!-- 図1.5　計測で得られる情報量 -->
    <g transform="translate(190.305275 237.697826) scale(0.11 -0.11)">
     <defs>
      <path id="IPAPGothic-56f3" d="M 3375 1428 
Q 2606 747 1625 447 
L 1356 831 
Q 2297 1091 2966 1631 
L 2791 1709 
Q 2138 2022 1338 2328 
L 1575 2669 
Q 2356 2375 3297 1941 
Q 4069 2759 4422 4178 
L 4853 4013 
Q 4456 2588 3694 1747 
Q 4313 1434 5000 1050 
L 4706 666 
Q 4113 1041 3431 1394 
L 3375 1428 
z
M 2131 2681 
Q 1897 3466 1625 3903 
L 2038 4084 
Q 2331 3563 2559 2869 
L 2131 2681 
z
M 3169 2834 
Q 2934 3603 2663 4056 
L 3059 4225 
Q 3366 3728 3597 3022 
L 3169 2834 
z
M 5769 4984 
L 5769 -447 
L 5300 -447 
L 5300 -128 
L 1097 -128 
L 1097 -447 
L 628 -447 
L 628 4984 
L 5769 4984 
z
M 1097 4575 
L 1097 275 
L 5300 275 
L 5300 4575 
L 1097 4575 
z
" transform="scale(0.015625)"/>
      <path id="IPAPGothic-2e" d="M 1184 63 
L 494 63 
L 494 753 
L 1184 753 
L 1184 63 
z
" transform="scale(0.015625)"/>
      <path id="IPAPGothic-35" d="M 1178 2603 
Q 1634 2963 2172 2963 
Q 2816 2963 3241 2528 
Q 3638 2113 3638 1497 
Q 3638 938 3297 513 
Q 2869 -31 2031 -31 
Q 959 -31 469 784 
L 938 1028 
Q 1309 434 2013 434 
Q 2466 434 2769 716 
Q 3081 1013 3081 1503 
Q 3081 1966 2806 2241 
Q 2519 2528 2056 2528 
Q 1406 2528 1072 2028 
L 591 2091 
L 884 4634 
L 3406 4634 
L 3406 4153 
L 1341 4153 
L 1134 2603 
L 1178 2603 
z
" transform="scale(0.015625)"/>
      <path id="IPAPGothic-3000" transform="scale(0.015625)"/>
      <path id="IPAPGothic-3067" d="M 4525 2181 
Q 4238 2653 3903 2975 
L 4250 3219 
Q 4588 2900 4891 2444 
L 4525 2181 
z
M 5203 2650 
Q 4906 3091 4550 3419 
L 4878 3669 
Q 5234 3359 5556 2919 
L 5203 2650 
z
M 263 4031 
Q 2659 4363 5147 4556 
L 5191 4097 
Q 4069 4028 3431 3572 
Q 2478 2878 2478 1913 
Q 2478 1169 2972 819 
Q 3459 484 4550 416 
L 4588 -116 
Q 1959 0 1959 1850 
Q 1959 3125 3372 4000 
Q 1734 3781 366 3553 
L 263 4031 
z
" transform="scale(0.015625)"/>
      <path id="IPAPGothic-5f97" d="M 1613 2803 
L 1613 -447 
L 1172 -447 
L 1172 2247 
Q 850 1884 544 1616 
L 244 1953 
Q 1197 2803 1797 3938 
L 2200 3738 
Q 1916 3238 1613 2803 
z
M 5491 5088 
L 5491 3072 
L 2541 3072 
L 2541 5088 
L 5491 5088 
z
M 2981 4734 
L 2981 4250 
L 5038 4250 
L 5038 4734 
L 2981 4734 
z
M 2981 3919 
L 2981 3419 
L 5038 3419 
L 5038 3919 
L 2981 3919 
z
M 5147 2253 
L 5147 1728 
L 6050 1728 
L 6050 1350 
L 5166 1350 
L 5166 72 
Q 5166 -422 4584 -422 
Q 4134 -422 3700 -384 
L 3625 91 
Q 4097 31 4444 31 
Q 4644 31 4694 103 
Q 4719 144 4719 275 
L 4719 1350 
L 1966 1350 
L 1966 1728 
L 4700 1728 
L 4700 2253 
L 2050 2253 
L 2050 2638 
L 5966 2638 
L 5966 2253 
L 5147 2253 
z
M 288 3719 
Q 1213 4372 1666 5209 
L 2075 4997 
Q 1472 4009 591 3372 
L 288 3719 
z
M 3259 159 
Q 2856 728 2478 1044 
L 2822 1306 
Q 3253 963 3622 459 
L 3259 159 
z
" transform="scale(0.015625)"/>
      <path id="IPAPGothic-3089" d="M 2931 3928 
Q 2128 4478 1388 4750 
L 1613 5166 
Q 2378 4891 3188 4384 
L 2931 3928 
z
M 575 1281 
Q 681 2544 978 4038 
L 1466 3928 
Q 1225 2856 1119 1844 
Q 2128 2688 3194 2688 
Q 3763 2688 4141 2450 
Q 4672 2122 4672 1516 
Q 4672 669 3800 213 
Q 3088 -169 1816 -238 
L 1594 250 
Q 2716 250 3444 588 
Q 4141 922 4141 1509 
Q 4141 1856 3878 2059 
Q 3597 2266 3128 2266 
Q 2084 2266 997 1141 
L 575 1281 
z
" transform="scale(0.015625)"/>
      <path id="IPAPGothic-308c" d="M 475 3694 
Q 1213 3791 1734 3906 
L 1741 4097 
L 1747 4291 
L 1763 4603 
L 1769 4794 
L 1775 5006 
L 2253 5006 
Q 2231 4450 2191 4006 
L 2556 3675 
Q 2366 3425 2184 3144 
Q 2178 3084 2178 2869 
Q 3278 3988 4091 3988 
Q 4806 3988 4806 3163 
Q 4806 2947 4744 2619 
Q 4609 1878 4609 1159 
Q 4609 622 4816 622 
Q 4938 622 5134 750 
Q 5466 984 5741 1441 
L 6025 972 
Q 5775 628 5409 359 
Q 5034 91 4738 91 
Q 4134 91 4134 1141 
Q 4134 1878 4288 2956 
Q 4306 3072 4306 3147 
Q 4306 3513 4000 3513 
Q 3309 3513 2166 2291 
Q 2159 1934 2159 1478 
Q 2159 734 2178 -159 
L 1684 -159 
L 1684 225 
Q 1684 1241 1691 1734 
Q 1478 1466 1019 853 
L 866 647 
L 469 994 
Q 1022 1719 1709 2478 
Q 1709 3038 1728 3469 
Q 1066 3284 591 3194 
L 475 3694 
z
" transform="scale(0.015625)"/>
      <path id="IPAPGothic-308b" d="M 3813 4397 
L 2034 2584 
Q 2647 2809 3181 2809 
Q 3684 2809 4081 2625 
Q 4813 2269 4813 1484 
Q 4813 756 4128 275 
Q 3494 -166 2475 -166 
Q 1981 -166 1669 19 
Q 1284 250 1284 666 
Q 1284 934 1491 1141 
Q 1753 1403 2163 1403 
Q 2931 1403 3441 428 
Q 4294 781 4294 1491 
Q 4294 1981 3891 2222 
Q 3588 2406 3103 2406 
Q 1847 2406 659 1209 
L 313 1581 
Q 1859 2934 3000 4281 
Q 2016 4125 1009 4063 
L 900 4550 
Q 2016 4578 3531 4763 
L 3813 4397 
z
M 3013 300 
Q 2666 1025 2153 1025 
Q 1825 1025 1756 800 
Q 1738 725 1738 700 
Q 1738 250 2456 250 
Q 2694 250 3013 300 
z
" transform="scale(0.015625)"/>
      <path id="IPAPGothic-60c5" d="M 3791 4672 
L 3791 5313 
L 4219 5313 
L 4219 4672 
L 5844 4672 
L 5844 4325 
L 4219 4325 
L 4219 3944 
L 5659 3944 
L 5659 3603 
L 4219 3603 
L 4219 3200 
L 6050 3200 
L 6050 2841 
L 2034 2841 
L 2034 3200 
L 3791 3200 
L 3791 3603 
L 2447 3603 
L 2447 3944 
L 3791 3944 
L 3791 4325 
L 2228 4325 
L 2228 4672 
L 3791 4672 
z
M 5491 2478 
L 5491 38 
Q 5491 -403 4966 -403 
Q 4744 -403 4134 -372 
L 4066 84 
Q 4484 19 4866 19 
Q 5063 19 5063 206 
L 5063 634 
L 3066 634 
L 3066 -447 
L 2638 -447 
L 2638 2478 
L 5491 2478 
z
M 3066 2131 
L 3066 1725 
L 5063 1725 
L 5063 2131 
L 3066 2131 
z
M 3066 1394 
L 3066 975 
L 5063 975 
L 5063 1394 
L 3066 1394 
z
M 244 2291 
Q 438 2947 488 4013 
L 878 3928 
Q 838 2825 641 2081 
L 244 2291 
z
M 1941 3213 
Q 1797 3725 1613 4103 
L 1953 4263 
Q 2172 3891 2319 3425 
L 1941 3213 
z
M 1106 5313 
L 1547 5313 
L 1547 -447 
L 1106 -447 
L 1106 5313 
z
" transform="scale(0.015625)"/>
      <path id="IPAPGothic-5831" d="M 2738 3084 
Q 2597 2591 2425 2203 
L 3175 2203 
L 3175 1819 
L 2009 1819 
L 2009 1134 
L 3097 1134 
L 3097 750 
L 2009 750 
L 2009 -447 
L 1569 -447 
L 1569 750 
L 519 750 
L 519 1134 
L 1569 1134 
L 1569 1819 
L 434 1819 
L 434 2203 
L 1125 2203 
Q 994 2800 881 3084 
L 294 3084 
L 294 3469 
L 1569 3469 
L 1569 4134 
L 575 4134 
L 575 4519 
L 1569 4519 
L 1569 5313 
L 2009 5313 
L 2009 4519 
L 3025 4519 
L 3025 4134 
L 2009 4134 
L 2009 3469 
L 3169 3469 
L 3169 3084 
L 2738 3084 
z
M 2297 3084 
L 1306 3084 
Q 1466 2609 1544 2203 
L 2009 2203 
Q 2191 2606 2297 3084 
z
M 5681 4991 
L 5681 3591 
Q 5681 3319 5572 3222 
Q 5463 3131 5156 3131 
Q 4831 3131 4441 3169 
L 4388 3597 
Q 4763 3541 5016 3541 
Q 5253 3541 5253 3769 
L 5253 4594 
L 3800 4594 
L 3800 2741 
L 5591 2741 
L 5828 2550 
Q 5656 1600 5203 806 
Q 5541 334 6128 -6 
L 5853 -416 
Q 5316 -19 4959 425 
Q 4584 -94 4113 -497 
L 3825 -147 
Q 4319 231 4697 775 
Q 4169 1516 3966 2350 
L 3800 2350 
L 3800 -447 
L 3372 -447 
L 3372 4991 
L 5681 4991 
z
M 4350 2350 
Q 4503 1794 4919 1153 
Q 5225 1716 5350 2350 
L 4350 2350 
z
" transform="scale(0.015625)"/>
      <path id="IPAPGothic-91cf" d="M 5081 5159 
L 5081 3497 
L 1275 3497 
L 1275 5159 
L 5081 5159 
z
M 1716 4819 
L 1716 4475 
L 4647 4475 
L 4647 4819 
L 1716 4819 
z
M 1716 4175 
L 1716 3816 
L 4647 3816 
L 4647 4175 
L 1716 4175 
z
M 5238 2625 
L 5238 997 
L 3388 997 
L 3388 694 
L 5428 694 
L 5428 353 
L 3388 353 
L 3388 34 
L 6044 34 
L 6044 -331 
L 353 -331 
L 353 34 
L 2972 34 
L 2972 353 
L 969 353 
L 969 694 
L 2972 694 
L 2972 997 
L 1159 997 
L 1159 2625 
L 5238 2625 
z
M 1588 2325 
L 1588 1972 
L 2972 1972 
L 2972 2325 
L 1588 2325 
z
M 1588 1672 
L 1588 1303 
L 2972 1303 
L 2972 1672 
L 1588 1672 
z
M 4809 1303 
L 4809 1672 
L 3388 1672 
L 3388 1303 
L 4809 1303 
z
M 4809 1972 
L 4809 2325 
L 3388 2325 
L 3388 1972 
L 4809 1972 
z
M 384 3231 
L 6009 3231 
L 6009 2884 
L 384 2884 
L 384 3231 
z
" transform="scale(0.015625)"/>
     </defs>
     <use xlink:href="#IPAPGothic-56f3"/>
     <use xlink:href="#IPAPGothic-31" transform="translate(100 0)"/>
     <use xlink:href="#IPAPGothic-2e" transform="translate(162.988281 0)"/>
     <use xlink:href="#IPAPGothic-35" transform="translate(189.404297 0)"/>
     <use xlink:href="#IPAPGothic-3000" transform="translate(252.392578 0)"/>
     <use xlink:href="#IPAPGothic-8a08" transform="translate(352.392578 0)"/>
     <use xlink:href="#IPAPGothic-6e2c" transform="translate(452.392578 0)"/>
     <use xlink:href="#IPAPGothic-3067" transform="translate(552.392578 0)"/>
     <use xlink:href="#IPAPGothic-5f97" transform="translate(643.408203 0)"/>
     <use xlink:href="#IPAPGothic-3089" transform="translate(743.408203 0)"/>
     <use xlink:href="#IPAPGothic-308c" transform="translate(824.414062 0)"/>
     <use xlink:href="#IPAPGothic-308b" transform="translate(922.412109 0)"/>
     <use xlink:href="#IPAPGothic-60c5" transform="translate(1005.419922 0)"/>
     <use xlink:href="#IPAPGothic-5831" transform="translate(1105.419922 0)"/>
     <use xlink:href="#IPAPGothic-91cf" transform="translate(1205.419922 0)"/>
    </g>
   </g>
  </g>
 </g>
 <defs>
  <clipPath id="pcaef2f935f">
   <rect x="7.2" y="7.2" width="423.031304" height="249.48"/>
  </clipPath>
 </defs>
</svg>
