<?xml version="1.0" encoding="utf-8" standalone="no"?>
<!DOCTYPE svg PUBLIC "-//W3C//DTD SVG 1.1//EN"
  "http://www.w3.org/Graphics/SVG/1.1/DTD/svg11.dtd">
<svg xmlns:xlink="http://www.w3.org/1999/xlink" width="389.28pt" height="236.16pt" viewBox="0 0 389.28 236.16" xmlns="http://www.w3.org/2000/svg" version="1.1">
 <metadata>
  <rdf:RDF xmlns:dc="http://purl.org/dc/elements/1.1/" xmlns:cc="http://creativecommons.org/ns#" xmlns:rdf="http://www.w3.org/1999/02/22-rdf-syntax-ns#">
   <cc:Work>
    <dc:type rdf:resource="http://purl.org/dc/dcmitype/StillImage"/>
    <dc:date>2026-06-24T00:53:49.587362</dc:date>
    <dc:format>image/svg+xml</dc:format>
    <dc:creator>
     <cc:Agent>
      <dc:title>Matplotlib v3.10.0, https://matplotlib.org/</dc:title>
     </cc:Agent>
    </dc:creator>
   </cc:Work>
  </rdf:RDF>
 </metadata>
 <defs>
  <style type="text/css">*{stroke-linejoin: round; stroke-linecap: butt}</style>
 </defs>
 <g id="figure_1">
  <g id="patch_1">
   <path d="M 0 236.16 
L 389.28 236.16 
L 389.28 0 
L 0 0 
z
" style="fill: #ffffff"/>
  </g>
  <g id="axes_1">
   <g id="line2d_1">
    <path d="M 44.16 33.6 
L 360.96 33.6 
" clip-path="url(#p0f11a29513)" style="fill: none; stroke: #000000; stroke-width: 1.4; stroke-linecap: square"/>
   </g>
   <g id="line2d_2">
    <path d="M 44.16 39.936 
L 44.16 27.264 
" clip-path="url(#p0f11a29513)" style="fill: none; stroke: #000000; stroke-width: 1.2; stroke-linecap: square"/>
   </g>
   <g id="line2d_3">
    <path d="M 360.96 39.936 
L 360.96 27.264 
" clip-path="url(#p0f11a29513)" style="fill: none; stroke: #000000; stroke-width: 1.2; stroke-linecap: square"/>
   </g>
   <g id="line2d_4">
    <defs>
     <path id="m3670687d3a" d="M 0 2 
C 0.530406 2 1.03916 1.789267 1.414214 1.414214 
C 1.789267 1.03916 2 0.530406 2 0 
C 2 -0.530406 1.789267 -1.03916 1.414214 -1.414214 
C 1.03916 -1.789267 0.530406 -2 0 -2 
C -0.530406 -2 -1.03916 -1.789267 -1.414214 -1.414214 
C -1.789267 -1.03916 -2 -0.530406 -2 0 
C -2 0.530406 -1.789267 1.03916 -1.414214 1.414214 
C -1.03916 1.789267 -0.530406 2 0 2 
z
" style="stroke: #000000"/>
    </defs>
    <g clip-path="url(#p0f11a29513)">
     <use xlink:href="#m3670687d3a" x="202.56" y="33.6" style="stroke: #000000"/>
    </g>
   </g>
   <g id="line2d_5">
    <path d="M 102.24 75.84 
L 297.6 75.84 
" clip-path="url(#p0f11a29513)" style="fill: none; stroke: #000000; stroke-width: 1.4; stroke-linecap: square"/>
   </g>
   <g id="line2d_6">
    <path d="M 102.24 82.176 
L 102.24 69.504 
" clip-path="url(#p0f11a29513)" style="fill: none; stroke: #000000; stroke-width: 1.2; stroke-linecap: square"/>
   </g>
   <g id="line2d_7">
    <path d="M 297.6 82.176 
L 297.6 69.504 
" clip-path="url(#p0f11a29513)" style="fill: none; stroke: #000000; stroke-width: 1.2; stroke-linecap: square"/>
   </g>
   <g id="line2d_8">
    <g clip-path="url(#p0f11a29513)">
     <use xlink:href="#m3670687d3a" x="199.92" y="75.84" style="stroke: #000000"/>
    </g>
   </g>
   <g id="line2d_9">
    <path d="M 155.04 118.08 
L 255.36 118.08 
" clip-path="url(#p0f11a29513)" style="fill: none; stroke: #000000; stroke-width: 1.4; stroke-linecap: square"/>
   </g>
   <g id="line2d_10">
    <path d="M 155.04 124.416 
L 155.04 111.744 
" clip-path="url(#p0f11a29513)" style="fill: none; stroke: #000000; stroke-width: 1.2; stroke-linecap: square"/>
   </g>
   <g id="line2d_11">
    <path d="M 255.36 124.416 
L 255.36 111.744 
" clip-path="url(#p0f11a29513)" style="fill: none; stroke: #000000; stroke-width: 1.2; stroke-linecap: square"/>
   </g>
   <g id="line2d_12">
    <g clip-path="url(#p0f11a29513)">
     <use xlink:href="#m3670687d3a" x="205.2" y="118.08" style="stroke: #000000"/>
    </g>
   </g>
   <g id="line2d_13">
    <path d="M 186.72 160.32 
L 223.68 160.32 
" clip-path="url(#p0f11a29513)" style="fill: none; stroke: #000000; stroke-width: 1.4; stroke-linecap: square"/>
   </g>
   <g id="line2d_14">
    <path d="M 186.72 166.656 
L 186.72 153.984 
" clip-path="url(#p0f11a29513)" style="fill: none; stroke: #000000; stroke-width: 1.2; stroke-linecap: square"/>
   </g>
   <g id="line2d_15">
    <path d="M 223.68 166.656 
L 223.68 153.984 
" clip-path="url(#p0f11a29513)" style="fill: none; stroke: #000000; stroke-width: 1.2; stroke-linecap: square"/>
   </g>
   <g id="line2d_16">
    <g clip-path="url(#p0f11a29513)">
     <use xlink:href="#m3670687d3a" x="205.2" y="160.32" style="stroke: #000000"/>
    </g>
   </g>
   <g id="line2d_17">
    <path d="M 44.16 199.92 
L 360.96 199.92 
" clip-path="url(#p0f11a29513)" style="fill: none; stroke: #000000; stroke-width: 1.4; stroke-linecap: square"/>
   </g>
   <g id="line2d_18">
    <path d="M 44.16 206.256 
L 44.16 193.584 
" clip-path="url(#p0f11a29513)" style="fill: none; stroke: #000000; stroke-width: 1.2; stroke-linecap: square"/>
   </g>
   <g id="line2d_19">
    <path d="M 360.96 206.256 
L 360.96 193.584 
" clip-path="url(#p0f11a29513)" style="fill: none; stroke: #000000; stroke-width: 1.2; stroke-linecap: square"/>
   </g>
   <g id="line2d_20">
    <path d="M 184.08 205.2 
L 184.08 188.304 
" clip-path="url(#p0f11a29513)" style="fill: none; stroke: #000000; stroke-width: 1.1; stroke-linecap: square"/>
   </g>
   <g id="line2d_21">
    <path d="M 199.92 205.2 
L 199.92 188.304 
" clip-path="url(#p0f11a29513)" style="fill: none; stroke: #000000; stroke-width: 1.1; stroke-linecap: square"/>
   </g>
   <g id="line2d_22">
    <path d="M 215.76 205.2 
L 215.76 188.304 
" clip-path="url(#p0f11a29513)" style="fill: none; stroke: #000000; stroke-width: 1.1; stroke-linecap: square"/>
   </g>
   <g id="line2d_23">
    <path d="M 231.6 205.2 
L 231.6 188.304 
" clip-path="url(#p0f11a29513)" style="fill: none; stroke: #000000; stroke-width: 1.1; stroke-linecap: square"/>
   </g>
   <g id="text_1">
    <!-- ① -->
    <g transform="translate(23.04 38.409141) scale(0.17 -0.17)">
     <defs>
      <path id="IPAPGothic-2460" d="M 3013 391 
L 3013 3847 
Q 2625 3653 2291 3572 
L 2291 4053 
Q 2731 4156 3147 4475 
L 3563 4475 
L 3563 391 
L 3013 391 
z
M 3213 5459 
Q 3938 5459 4606 5100 
Q 5203 4778 5616 4231 
Q 6225 3409 6225 2425 
Q 6225 1694 5866 1025 
Q 5534 413 4997 16 
Q 4175 -594 3194 -594 
Q 2431 -594 1766 -222 
Q 1166 109 759 659 
Q 172 1463 172 2441 
Q 172 3878 1344 4800 
Q 2163 5459 3213 5459 
z
M 3184 5166 
Q 2550 5166 1963 4859 
Q 1416 4581 1041 4091 
Q 466 3350 466 2425 
Q 466 1784 772 1197 
Q 1050 650 1541 275 
Q 2281 -300 3206 -300 
Q 3847 -300 4434 6 
Q 4981 284 5356 775 
Q 5931 1516 5931 2434 
Q 5931 3719 4900 4556 
Q 4138 5166 3184 5166 
z
" transform="scale(0.015625)"/>
     </defs>
     <use xlink:href="#IPAPGothic-2460"/>
    </g>
   </g>
   <g id="text_2">
    <!-- ② -->
    <g transform="translate(23.04 80.649141) scale(0.17 -0.17)">
     <defs>
      <path id="IPAPGothic-2461" d="M 4659 519 
L 1800 519 
Q 2019 1709 3275 2478 
Q 3694 2731 3859 2916 
Q 4038 3113 4038 3419 
Q 4038 3728 3831 3931 
Q 3609 4156 3275 4156 
Q 2869 4156 2613 3791 
Q 2434 3547 2425 3175 
L 1863 3175 
Q 1922 3772 2216 4122 
Q 2619 4603 3275 4603 
Q 3713 4603 4044 4384 
Q 4575 4038 4575 3419 
Q 4575 2663 3653 2166 
Q 2694 1634 2484 1006 
L 4659 1006 
L 4659 519 
z
M 3213 5459 
Q 3938 5459 4606 5100 
Q 5203 4778 5616 4231 
Q 6225 3409 6225 2425 
Q 6225 1694 5866 1025 
Q 5534 413 4997 16 
Q 4175 -594 3194 -594 
Q 2431 -594 1766 -222 
Q 1166 109 759 659 
Q 172 1463 172 2441 
Q 172 3878 1344 4800 
Q 2163 5459 3213 5459 
z
M 3184 5166 
Q 2550 5166 1963 4859 
Q 1416 4581 1041 4091 
Q 466 3350 466 2425 
Q 466 1784 772 1197 
Q 1050 650 1541 275 
Q 2281 -300 3206 -300 
Q 3847 -300 4434 6 
Q 4981 284 5356 775 
Q 5931 1516 5931 2434 
Q 5931 3719 4900 4556 
Q 4138 5166 3184 5166 
z
" transform="scale(0.015625)"/>
     </defs>
     <use xlink:href="#IPAPGothic-2461"/>
    </g>
   </g>
   <g id="text_3">
    <!-- ③ -->
    <g transform="translate(23.04 122.889141) scale(0.17 -0.17)">
     <defs>
      <path id="IPAPGothic-2462" d="M 2628 2778 
L 3116 2778 
Q 3984 2778 3984 3450 
Q 3984 3775 3716 3956 
Q 3516 4091 3203 4091 
Q 2491 4091 2384 3438 
L 1816 3438 
Q 1931 3981 2334 4269 
Q 2709 4538 3203 4538 
Q 3681 4538 4031 4319 
Q 4497 4025 4497 3494 
Q 4497 2825 3769 2588 
Q 4697 2309 4697 1544 
Q 4697 975 4244 634 
Q 3828 328 3231 328 
Q 2703 328 2297 591 
Q 1791 916 1713 1538 
L 2281 1538 
Q 2322 1166 2622 959 
Q 2881 788 3231 788 
Q 3534 788 3775 922 
Q 4159 1144 4159 1556 
Q 4159 1991 3763 2203 
Q 3509 2344 3116 2344 
L 2628 2344 
L 2628 2778 
z
M 3213 5459 
Q 3938 5459 4606 5100 
Q 5203 4778 5616 4231 
Q 6225 3409 6225 2425 
Q 6225 1694 5866 1025 
Q 5534 413 4997 16 
Q 4175 -594 3194 -594 
Q 2431 -594 1766 -222 
Q 1166 109 759 659 
Q 172 1463 172 2441 
Q 172 3878 1344 4800 
Q 2163 5459 3213 5459 
z
M 3184 5166 
Q 2550 5166 1963 4859 
Q 1416 4581 1041 4091 
Q 466 3350 466 2425 
Q 466 1784 772 1197 
Q 1050 650 1541 275 
Q 2281 -300 3206 -300 
Q 3847 -300 4434 6 
Q 4981 284 5356 775 
Q 5931 1516 5931 2434 
Q 5931 3719 4900 4556 
Q 4138 5166 3184 5166 
z
" transform="scale(0.015625)"/>
     </defs>
     <use xlink:href="#IPAPGothic-2462"/>
    </g>
   </g>
   <g id="text_4">
    <!-- ④ -->
    <g transform="translate(23.04 165.129141) scale(0.17 -0.17)">
     <defs>
      <path id="IPAPGothic-2463" d="M 3391 4475 
L 3928 4475 
L 3928 1803 
L 4716 1803 
L 4716 1356 
L 3928 1356 
L 3928 391 
L 3428 391 
L 3428 1356 
L 1491 1356 
L 1491 1809 
L 3391 4475 
z
M 3428 3706 
L 2047 1803 
L 3428 1803 
L 3428 3706 
z
M 3213 5459 
Q 3938 5459 4606 5100 
Q 5203 4778 5616 4231 
Q 6225 3409 6225 2425 
Q 6225 1694 5866 1025 
Q 5534 413 4997 16 
Q 4175 -594 3194 -594 
Q 2431 -594 1766 -222 
Q 1166 109 759 659 
Q 172 1463 172 2441 
Q 172 3878 1344 4800 
Q 2163 5459 3213 5459 
z
M 3184 5166 
Q 2550 5166 1963 4859 
Q 1416 4581 1041 4091 
Q 466 3350 466 2425 
Q 466 1784 772 1197 
Q 1050 650 1541 275 
Q 2281 -300 3206 -300 
Q 3847 -300 4434 6 
Q 4981 284 5356 775 
Q 5931 1516 5931 2434 
Q 5931 3719 4900 4556 
Q 4138 5166 3184 5166 
z
" transform="scale(0.015625)"/>
     </defs>
     <use xlink:href="#IPAPGothic-2463"/>
    </g>
   </g>
   <g id="text_5">
    <!-- m1 -->
    <g transform="translate(176.575312 181.44) scale(0.1 -0.1)">
     <defs>
      <path id="IPAPGothic-6d" d="M 5022 63 
L 4472 63 
L 4472 2059 
Q 4472 2866 3847 2866 
Q 3550 2866 3303 2591 
Q 3128 2397 3059 2103 
L 3059 63 
L 2509 63 
L 2509 2066 
Q 2509 2866 1919 2866 
Q 1606 2866 1369 2591 
Q 1113 2306 1113 2041 
L 1113 63 
L 563 63 
L 563 3250 
L 1075 3250 
L 1075 2700 
Q 1391 3313 2028 3313 
Q 2725 3313 2956 2647 
Q 3303 3313 3953 3313 
Q 4478 3313 4772 2941 
Q 5022 2634 5022 2072 
L 5022 63 
z
" transform="scale(0.015625)"/>
      <path id="IPAPGothic-31" d="M 2463 63 
L 1900 63 
L 1900 4103 
Q 1372 3922 788 3797 
L 684 4231 
Q 1522 4441 2106 4728 
L 2463 4728 
L 2463 63 
z
" transform="scale(0.015625)"/>
     </defs>
     <use xlink:href="#IPAPGothic-6d"/>
     <use xlink:href="#IPAPGothic-31" transform="translate(87.109375 0)"/>
    </g>
   </g>
   <g id="text_6">
    <!-- m2 -->
    <g transform="translate(192.415313 181.44) scale(0.1 -0.1)">
     <defs>
      <path id="IPAPGothic-32" d="M 3659 63 
L 447 63 
L 447 594 
Q 825 1475 1894 2203 
L 2072 2322 
Q 2619 2697 2791 2906 
Q 2988 3150 2988 3444 
Q 2988 3769 2756 4000 
Q 2500 4256 2084 4256 
Q 1250 4256 991 3328 
L 497 3506 
Q 853 4725 2116 4725 
Q 2806 4725 3216 4316 
Q 3575 3947 3575 3425 
Q 3575 3038 3344 2722 
Q 3131 2416 2366 1938 
L 2231 1856 
Q 1256 1253 978 569 
L 3659 569 
L 3659 63 
z
" transform="scale(0.015625)"/>
     </defs>
     <use xlink:href="#IPAPGothic-6d"/>
     <use xlink:href="#IPAPGothic-32" transform="translate(87.109375 0)"/>
    </g>
   </g>
   <g id="text_7">
    <!-- m3 -->
    <g transform="translate(208.255313 181.44) scale(0.1 -0.1)">
     <defs>
      <path id="IPAPGothic-33" d="M 2381 2419 
Q 3506 2219 3506 1281 
Q 3506 716 3128 359 
Q 2709 -31 1944 -31 
Q 797 -31 288 881 
L 756 1131 
Q 1109 441 1938 441 
Q 2425 441 2694 691 
Q 2950 928 2950 1294 
Q 2950 1719 2566 1978 
Q 2216 2216 1644 2216 
L 1363 2216 
L 1363 2669 
L 1656 2669 
Q 2231 2669 2534 2888 
Q 2859 3119 2859 3509 
Q 2859 3934 2494 4138 
Q 2259 4278 1931 4278 
Q 1234 4278 903 3578 
L 434 3803 
Q 894 4725 1938 4725 
Q 2597 4725 3006 4391 
Q 3416 4069 3416 3534 
Q 3416 3028 3019 2706 
Q 2763 2500 2381 2444 
L 2381 2419 
z
" transform="scale(0.015625)"/>
     </defs>
     <use xlink:href="#IPAPGothic-6d"/>
     <use xlink:href="#IPAPGothic-33" transform="translate(87.109375 0)"/>
    </g>
   </g>
   <g id="text_8">
    <!-- m4 -->
    <g transform="translate(224.095313 181.44) scale(0.1 -0.1)">
     <defs>
      <path id="IPAPGothic-34" d="M 3813 1159 
L 3056 1159 
L 3056 63 
L 2544 63 
L 2544 1159 
L 197 1159 
L 197 1672 
L 2453 4678 
L 3056 4678 
L 3056 1634 
L 3813 1634 
L 3813 1159 
z
M 2575 4109 
L 2556 4109 
Q 2278 3659 2000 3284 
L 759 1634 
L 2544 1634 
L 2544 3144 
Q 2544 3472 2575 4109 
z
" transform="scale(0.015625)"/>
     </defs>
     <use xlink:href="#IPAPGothic-6d"/>
     <use xlink:href="#IPAPGothic-34" transform="translate(87.109375 0)"/>
    </g>
   </g>
   <g id="text_9">
    <!-- 0 -->
    <g transform="translate(41.010781 218.4) scale(0.1 -0.1)">
     <defs>
      <path id="IPAPGothic-30" d="M 2038 4725 
Q 2881 4725 3334 3944 
Q 3694 3325 3694 2344 
Q 3694 1372 3334 741 
Q 2888 -31 2016 -31 
Q 1147 -31 700 741 
Q 341 1372 341 2350 
Q 341 3713 1000 4334 
Q 1419 4725 2038 4725 
z
M 2016 4263 
Q 1516 4263 1228 3756 
Q 934 3244 934 2341 
Q 934 1456 1222 947 
Q 1513 447 2016 447 
Q 2619 447 2909 1150 
Q 3100 1622 3100 2375 
Q 3100 3253 2806 3756 
Q 2509 4263 2016 4263 
z
" transform="scale(0.015625)"/>
     </defs>
     <use xlink:href="#IPAPGothic-30"/>
    </g>
   </g>
   <g id="text_10">
    <!-- N -->
    <g transform="translate(357.160781 218.4) scale(0.1 -0.1)">
     <defs>
      <path id="IPAPGothic-4e" d="M 4244 63 
L 3731 63 
L 1697 3150 
Q 1466 3500 1141 4097 
L 1116 4097 
L 1128 3797 
Q 1159 2803 1159 2469 
L 1159 63 
L 609 63 
L 609 4634 
L 1366 4634 
L 3113 1978 
Q 3453 1447 3713 966 
L 3738 966 
Q 3694 1897 3694 2469 
L 3694 4634 
L 4244 4634 
L 4244 63 
z
" transform="scale(0.015625)"/>
     </defs>
     <use xlink:href="#IPAPGothic-4e"/>
    </g>
   </g>
  </g>
 </g>
 <defs>
  <clipPath id="p0f11a29513">
   <rect x="7.2" y="7.2" width="374.88" height="221.76"/>
  </clipPath>
 </defs>
</svg>
