<?xml version="1.0" encoding="utf-8" standalone="no"?>
<!DOCTYPE svg PUBLIC "-//W3C//DTD SVG 1.1//EN"
  "http://www.w3.org/Graphics/SVG/1.1/DTD/svg11.dtd">
<svg xmlns:xlink="http://www.w3.org/1999/xlink" width="446.832pt" height="302.688pt" viewBox="0 0 446.832 302.688" xmlns="http://www.w3.org/2000/svg" version="1.1">
 <metadata>
  <rdf:RDF xmlns:dc="http://purl.org/dc/elements/1.1/" xmlns:cc="http://creativecommons.org/ns#" xmlns:rdf="http://www.w3.org/1999/02/22-rdf-syntax-ns#">
   <cc:Work>
    <dc:type rdf:resource="http://purl.org/dc/dcmitype/StillImage"/>
    <dc:date>2026-06-24T00:58:38.606383</dc:date>
    <dc:format>image/svg+xml</dc:format>
    <dc:creator>
     <cc:Agent>
      <dc:title>Matplotlib v3.10.0, https://matplotlib.org/</dc:title>
     </cc:Agent>
    </dc:creator>
   </cc:Work>
  </rdf:RDF>
 </metadata>
 <defs>
  <style type="text/css">*{stroke-linejoin: round; stroke-linecap: butt}</style>
 </defs>
 <g id="figure_1">
  <g id="patch_1">
   <path d="M 0 302.688 
L 446.832 302.688 
L 446.832 0 
L 0 0 
z
" style="fill: #ffffff"/>
  </g>
  <g id="axes_1">
   <g id="patch_2">
    <path d="M 25.218 106.299 
L 92.7855 106.299 
L 92.7855 77.01975 
L 25.218 77.01975 
z
" clip-path="url(#p606289932c)" style="fill: #ffffff; stroke: #000000; stroke-width: 1.2; stroke-linejoin: miter"/>
   </g>
   <g id="patch_3">
    <path d="M 115.308 56.7495 
L 191.8845 56.7495 
L 191.8845 20.7135 
L 115.308 20.7135 
z
" clip-path="url(#p606289932c)" style="fill: #ffffff; stroke: #000000; stroke-width: 1.2; stroke-linejoin: miter"/>
   </g>
   <g id="patch_4">
    <path d="M 115.308 151.344 
L 191.8845 151.344 
L 191.8845 115.308 
L 115.308 115.308 
z
" clip-path="url(#p606289932c)" style="fill: #ffffff; stroke: #000000; stroke-width: 1.2; stroke-linejoin: miter"/>
   </g>
   <g id="patch_5">
    <path d="M 232.425 106.299 
L 322.515 106.299 
L 322.515 72.51525 
L 232.425 72.51525 
z
" clip-path="url(#p606289932c)" style="fill: #ffffff; stroke: #000000; stroke-width: 1.2; stroke-linejoin: miter"/>
   </g>
   <g id="patch_6">
    <path d="M 358.551 106.299 
L 426.1185 106.299 
L 426.1185 77.01975 
L 358.551 77.01975 
z
" clip-path="url(#p606289932c)" style="fill: #ffffff; stroke: #000000; stroke-width: 1.2; stroke-linejoin: miter"/>
   </g>
   <g id="patch_7">
    <path d="M 25.218 230.17275 
L 92.7855 230.17275 
L 92.7855 200.8935 
L 25.218 200.8935 
z
" clip-path="url(#p606289932c)" style="fill: #ffffff; stroke: #000000; stroke-width: 1.2; stroke-linejoin: miter"/>
   </g>
   <g id="patch_8">
    <path d="M 115.308 180.62325 
L 191.8845 180.62325 
L 191.8845 144.58725 
L 115.308 144.58725 
z
" clip-path="url(#p606289932c)" style="fill: #ffffff; stroke: #000000; stroke-width: 1.2; stroke-linejoin: miter"/>
   </g>
   <g id="patch_9">
    <path d="M 115.308 275.21775 
L 191.8845 275.21775 
L 191.8845 239.18175 
L 115.308 239.18175 
z
" clip-path="url(#p606289932c)" style="fill: #ffffff; stroke: #000000; stroke-width: 1.2; stroke-linejoin: miter"/>
   </g>
   <g id="patch_10">
    <path d="M 232.425 230.17275 
L 322.515 230.17275 
L 322.515 196.389 
L 232.425 196.389 
z
" clip-path="url(#p606289932c)" style="fill: #ffffff; stroke: #000000; stroke-width: 1.2; stroke-linejoin: miter"/>
   </g>
   <g id="patch_11">
    <path d="M 358.551 230.17275 
L 426.1185 230.17275 
L 426.1185 200.8935 
L 358.551 200.8935 
z
" clip-path="url(#p606289932c)" style="fill: #ffffff; stroke: #000000; stroke-width: 1.2; stroke-linejoin: miter"/>
   </g>
   <g id="text_1">
    <!-- センサ情報 -->
    <g transform="translate(32.87675 94.734219) scale(0.11 -0.11)">
     <defs>
      <path id="IPAPGothic-30bb" d="M 1869 4878 
L 2394 4878 
L 2394 3400 
L 5100 3731 
L 5416 3444 
Q 4647 2309 3816 1556 
L 3378 1875 
Q 4106 2459 4653 3234 
L 2394 2931 
L 2394 978 
Q 2394 734 2547 669 
Q 2731 584 3425 584 
Q 4228 584 5234 697 
L 5253 172 
Q 4372 103 3653 103 
Q 2488 103 2169 256 
Q 1869 403 1869 866 
L 1869 2863 
L 447 2675 
L 397 3150 
L 1869 3334 
L 1869 4878 
z
" transform="scale(0.015625)"/>
      <path id="IPAPGothic-30f3" d="M 1931 3084 
Q 1303 3656 544 4084 
L 869 4519 
Q 1550 4188 2303 3559 
L 1931 3084 
z
M 588 609 
Q 3472 1106 4703 3828 
L 5106 3469 
Q 3900 794 922 103 
L 588 609 
z
" transform="scale(0.015625)"/>
      <path id="IPAPGothic-30b5" d="M 3866 4922 
L 4378 4922 
L 4378 3531 
L 5759 3531 
L 5759 3072 
L 4378 3072 
Q 4359 1719 4025 1063 
Q 3600 222 2516 -325 
L 2141 38 
Q 3197 525 3584 1319 
Q 3847 1853 3866 3072 
L 2203 3072 
L 2203 1575 
L 1691 1575 
L 1691 3072 
L 384 3072 
L 384 3531 
L 1691 3531 
L 1691 4800 
L 2203 4800 
L 2203 3531 
L 3866 3531 
L 3866 4922 
z
" transform="scale(0.015625)"/>
      <path id="IPAPGothic-60c5" d="M 3791 4672 
L 3791 5313 
L 4219 5313 
L 4219 4672 
L 5844 4672 
L 5844 4325 
L 4219 4325 
L 4219 3944 
L 5659 3944 
L 5659 3603 
L 4219 3603 
L 4219 3200 
L 6050 3200 
L 6050 2841 
L 2034 2841 
L 2034 3200 
L 3791 3200 
L 3791 3603 
L 2447 3603 
L 2447 3944 
L 3791 3944 
L 3791 4325 
L 2228 4325 
L 2228 4672 
L 3791 4672 
z
M 5491 2478 
L 5491 38 
Q 5491 -403 4966 -403 
Q 4744 -403 4134 -372 
L 4066 84 
Q 4484 19 4866 19 
Q 5063 19 5063 206 
L 5063 634 
L 3066 634 
L 3066 -447 
L 2638 -447 
L 2638 2478 
L 5491 2478 
z
M 3066 2131 
L 3066 1725 
L 5063 1725 
L 5063 2131 
L 3066 2131 
z
M 3066 1394 
L 3066 975 
L 5063 975 
L 5063 1394 
L 3066 1394 
z
M 244 2291 
Q 438 2947 488 4013 
L 878 3928 
Q 838 2825 641 2081 
L 244 2291 
z
M 1941 3213 
Q 1797 3725 1613 4103 
L 1953 4263 
Q 2172 3891 2319 3425 
L 1941 3213 
z
M 1106 5313 
L 1547 5313 
L 1547 -447 
L 1106 -447 
L 1106 5313 
z
" transform="scale(0.015625)"/>
      <path id="IPAPGothic-5831" d="M 2738 3084 
Q 2597 2591 2425 2203 
L 3175 2203 
L 3175 1819 
L 2009 1819 
L 2009 1134 
L 3097 1134 
L 3097 750 
L 2009 750 
L 2009 -447 
L 1569 -447 
L 1569 750 
L 519 750 
L 519 1134 
L 1569 1134 
L 1569 1819 
L 434 1819 
L 434 2203 
L 1125 2203 
Q 994 2800 881 3084 
L 294 3084 
L 294 3469 
L 1569 3469 
L 1569 4134 
L 575 4134 
L 575 4519 
L 1569 4519 
L 1569 5313 
L 2009 5313 
L 2009 4519 
L 3025 4519 
L 3025 4134 
L 2009 4134 
L 2009 3469 
L 3169 3469 
L 3169 3084 
L 2738 3084 
z
M 2297 3084 
L 1306 3084 
Q 1466 2609 1544 2203 
L 2009 2203 
Q 2191 2606 2297 3084 
z
M 5681 4991 
L 5681 3591 
Q 5681 3319 5572 3222 
Q 5463 3131 5156 3131 
Q 4831 3131 4441 3169 
L 4388 3597 
Q 4763 3541 5016 3541 
Q 5253 3541 5253 3769 
L 5253 4594 
L 3800 4594 
L 3800 2741 
L 5591 2741 
L 5828 2550 
Q 5656 1600 5203 806 
Q 5541 334 6128 -6 
L 5853 -416 
Q 5316 -19 4959 425 
Q 4584 -94 4113 -497 
L 3825 -147 
Q 4319 231 4697 775 
Q 4169 1516 3966 2350 
L 3800 2350 
L 3800 -447 
L 3372 -447 
L 3372 4991 
L 5681 4991 
z
M 4350 2350 
Q 4503 1794 4919 1153 
Q 5225 1716 5350 2350 
L 4350 2350 
z
" transform="scale(0.015625)"/>
     </defs>
     <use xlink:href="#IPAPGothic-30bb"/>
     <use xlink:href="#IPAPGothic-30f3" transform="translate(93.017578 0)"/>
     <use xlink:href="#IPAPGothic-30b5" transform="translate(179.003906 0)"/>
     <use xlink:href="#IPAPGothic-60c5" transform="translate(275 0)"/>
     <use xlink:href="#IPAPGothic-5831" transform="translate(375 0)"/>
    </g>
   </g>
   <g id="text_2">
    <!-- 量の体系 -->
    <g transform="translate(133.745469 36.082437) scale(0.1 -0.1)">
     <defs>
      <path id="IPAPGothic-91cf" d="M 5081 5159 
L 5081 3497 
L 1275 3497 
L 1275 5159 
L 5081 5159 
z
M 1716 4819 
L 1716 4475 
L 4647 4475 
L 4647 4819 
L 1716 4819 
z
M 1716 4175 
L 1716 3816 
L 4647 3816 
L 4647 4175 
L 1716 4175 
z
M 5238 2625 
L 5238 997 
L 3388 997 
L 3388 694 
L 5428 694 
L 5428 353 
L 3388 353 
L 3388 34 
L 6044 34 
L 6044 -331 
L 353 -331 
L 353 34 
L 2972 34 
L 2972 353 
L 969 353 
L 969 694 
L 2972 694 
L 2972 997 
L 1159 997 
L 1159 2625 
L 5238 2625 
z
M 1588 2325 
L 1588 1972 
L 2972 1972 
L 2972 2325 
L 1588 2325 
z
M 1588 1672 
L 1588 1303 
L 2972 1303 
L 2972 1672 
L 1588 1672 
z
M 4809 1303 
L 4809 1672 
L 3388 1672 
L 3388 1303 
L 4809 1303 
z
M 4809 1972 
L 4809 2325 
L 3388 2325 
L 3388 1972 
L 4809 1972 
z
M 384 3231 
L 6009 3231 
L 6009 2884 
L 384 2884 
L 384 3231 
z
" transform="scale(0.015625)"/>
      <path id="IPAPGothic-306e" d="M 2991 469 
Q 5147 766 5147 2425 
Q 5147 3453 4284 3922 
Q 3913 4113 3419 4159 
Q 3266 2525 2722 1400 
Q 2194 306 1594 306 
Q 1256 306 956 666 
Q 481 1244 481 2003 
Q 481 3025 1269 3794 
Q 2056 4563 3303 4563 
Q 4178 4563 4800 4122 
Q 5684 3506 5684 2425 
Q 5684 438 3303 6 
L 2991 469 
z
M 2925 4147 
Q 2250 4044 1763 3641 
Q 969 2981 969 1991 
Q 969 1366 1306 978 
Q 1453 813 1591 813 
Q 1894 813 2288 1625 
Q 2781 2638 2925 4147 
z
" transform="scale(0.015625)"/>
      <path id="IPAPGothic-4f53" d="M 4253 3481 
Q 4869 2069 6041 1138 
L 5691 703 
Q 4541 1841 4069 3122 
L 4069 1228 
L 4928 1228 
L 4928 831 
L 4081 831 
L 4081 -447 
L 3613 -447 
L 3613 831 
L 2784 831 
L 2784 1228 
L 3628 1228 
L 3628 3097 
Q 3216 1706 2069 556 
L 1709 928 
Q 2844 1875 3441 3481 
L 1972 3481 
L 1972 3897 
L 3613 3897 
L 3613 5209 
L 4081 5209 
L 4081 3897 
L 5875 3897 
L 5875 3481 
L 4253 3481 
z
M 1572 3700 
L 1572 -441 
L 1119 -441 
L 1119 2778 
Q 888 2363 550 1916 
L 300 2306 
Q 1219 3575 1591 5244 
L 2041 5128 
Q 1844 4356 1572 3700 
z
" transform="scale(0.015625)"/>
      <path id="IPAPGothic-7cfb" d="M 3016 2550 
Q 3747 3259 4341 4016 
L 4769 3744 
Q 3978 2834 3259 2197 
Q 3303 2203 3406 2203 
Q 3681 2209 4988 2272 
Q 4756 2522 4469 2791 
L 4794 3041 
Q 5478 2469 6013 1813 
L 5628 1494 
Q 5484 1688 5275 1941 
Q 5238 1938 5116 1928 
Q 5022 1919 4963 1916 
L 4188 1863 
Q 3803 1838 3419 1806 
L 3419 -447 
L 2944 -447 
L 2944 1781 
L 2609 1763 
Q 1972 1731 684 1697 
L 513 2153 
Q 1878 2153 2553 2178 
L 2625 2178 
Q 2644 2197 2663 2209 
L 2694 2241 
Q 2084 2872 1222 3522 
L 1569 3847 
Q 2047 3456 2119 3394 
Q 2497 3819 2791 4328 
L 2675 4322 
Q 1919 4253 856 4200 
L 678 4616 
Q 3319 4750 5000 5097 
L 5397 4688 
Q 4234 4478 2963 4347 
L 3303 4200 
Q 2797 3484 2431 3113 
Q 2788 2781 3016 2550 
z
M 525 31 
Q 1366 641 1869 1403 
L 2291 1191 
Q 1731 313 934 -313 
L 525 31 
z
M 5544 -141 
Q 4738 722 4038 1241 
L 4409 1516 
Q 5225 956 5972 213 
L 5544 -141 
z
" transform="scale(0.015625)"/>
     </defs>
     <use xlink:href="#IPAPGothic-91cf"/>
     <use xlink:href="#IPAPGothic-306e" transform="translate(100 0)"/>
     <use xlink:href="#IPAPGothic-4f53" transform="translate(197.021484 0)"/>
     <use xlink:href="#IPAPGothic-7cfb" transform="translate(297.021484 0)"/>
    </g>
    <!-- 計測標準 -->
    <g transform="translate(133.59625 46.971187) scale(0.1 -0.1)">
     <defs>
      <path id="IPAPGothic-8a08" d="M 2853 1684 
L 2853 -416 
L 2413 -416 
L 2413 -128 
L 1088 -128 
L 1088 -447 
L 647 -447 
L 647 1684 
L 2853 1684 
z
M 1088 1300 
L 1088 256 
L 2413 256 
L 2413 1300 
L 1088 1300 
z
M 4322 3225 
L 4322 5178 
L 4781 5178 
L 4781 3225 
L 6063 3225 
L 6063 2797 
L 4781 2797 
L 4781 -447 
L 4322 -447 
L 4322 2797 
L 3059 2797 
L 3059 3225 
L 4322 3225 
z
M 781 5044 
L 2722 5044 
L 2722 4647 
L 781 4647 
L 781 5044 
z
M 384 4206 
L 3150 4206 
L 3150 3803 
L 384 3803 
L 384 4206 
z
M 781 3359 
L 2722 3359 
L 2722 2963 
L 781 2963 
L 781 3359 
z
M 781 2522 
L 2722 2522 
L 2722 2125 
L 781 2125 
L 781 2522 
z
" transform="scale(0.015625)"/>
      <path id="IPAPGothic-6e2c" d="M 3856 4884 
L 3856 1081 
L 2059 1081 
L 2059 4884 
L 3856 4884 
z
M 2456 4494 
L 2456 3756 
L 3459 3756 
L 3459 4494 
L 2456 4494 
z
M 2456 3384 
L 2456 2656 
L 3459 2656 
L 3459 3384 
L 2456 3384 
z
M 2456 2284 
L 2456 1478 
L 3459 1478 
L 3459 2284 
L 2456 2284 
z
M 1413 3891 
Q 1000 4428 556 4763 
L 856 5100 
Q 1309 4753 1734 4269 
L 1413 3891 
z
M 1222 2394 
Q 816 2878 325 3256 
L 625 3591 
Q 1141 3231 1528 2778 
L 1222 2394 
z
M 375 -78 
Q 916 800 1297 1906 
L 1669 1619 
Q 1284 478 759 -428 
L 375 -78 
z
M 3819 -256 
Q 3478 319 3128 716 
L 3469 966 
Q 3834 581 4172 63 
L 3819 -256 
z
M 4378 4513 
L 4806 4513 
L 4806 959 
L 4378 959 
L 4378 4513 
z
M 1638 -109 
Q 2103 300 2450 984 
L 2828 763 
Q 2425 -6 1944 -488 
L 1638 -109 
z
M 5419 5081 
L 5853 5081 
L 5853 109 
Q 5853 -391 5297 -391 
Q 4919 -391 4541 -359 
L 4441 109 
Q 4928 50 5219 50 
Q 5419 50 5419 244 
L 5419 5081 
z
" transform="scale(0.015625)"/>
      <path id="IPAPGothic-6a19" d="M 1113 2534 
Q 813 1522 384 794 
L 153 1250 
Q 763 2228 1063 3547 
L 294 3547 
L 294 3956 
L 1113 3956 
L 1113 5306 
L 1522 5306 
L 1522 3956 
L 2144 3956 
L 2144 3547 
L 1522 3547 
L 1522 3009 
Q 1991 2634 2309 2288 
L 2059 1844 
Q 1813 2222 1522 2550 
L 1522 -447 
L 1113 -447 
L 1113 2534 
z
M 3353 4109 
L 3353 4641 
L 2100 4641 
L 2100 5019 
L 5997 5019 
L 5997 4641 
L 4756 4641 
L 4756 4109 
L 5778 4109 
L 5778 2769 
L 2356 2769 
L 2356 4109 
L 3353 4109 
z
M 3756 4109 
L 4350 4109 
L 4350 4641 
L 3756 4641 
L 3756 4109 
z
M 3359 3756 
L 2772 3756 
L 2772 3122 
L 3359 3122 
L 3359 3756 
z
M 3756 3756 
L 3756 3122 
L 4350 3122 
L 4350 3756 
L 3756 3756 
z
M 4741 3756 
L 4741 3122 
L 5363 3122 
L 5363 3756 
L 4741 3756 
z
M 4300 1191 
L 4300 19 
Q 4300 -409 3809 -409 
Q 3469 -409 3175 -372 
L 3097 78 
Q 3416 0 3675 0 
Q 3866 0 3866 184 
L 3866 1191 
L 2100 1191 
L 2100 1563 
L 6072 1563 
L 6072 1191 
L 4300 1191 
z
M 2481 2350 
L 5669 2350 
L 5669 1984 
L 2481 1984 
L 2481 2350 
z
M 1938 13 
Q 2534 406 2938 1069 
L 3322 891 
Q 2903 150 2272 -306 
L 1938 13 
z
M 5722 -191 
Q 5166 459 4666 838 
L 4978 1088 
Q 5572 681 6094 134 
L 5722 -191 
z
" transform="scale(0.015625)"/>
      <path id="IPAPGothic-6e96" d="M 4338 4141 
L 4338 3694 
L 5503 3694 
L 5503 3353 
L 4338 3353 
L 4338 2906 
L 5503 2906 
L 5503 2566 
L 4338 2566 
L 4338 2088 
L 5919 2088 
L 5919 1722 
L 3413 1722 
L 3413 1100 
L 6078 1100 
L 6078 703 
L 3413 703 
L 3413 -447 
L 2938 -447 
L 2938 703 
L 319 703 
L 319 1100 
L 2938 1100 
L 2938 1722 
L 2450 1722 
L 2450 3644 
Q 2288 3441 2047 3188 
L 1759 3528 
Q 2528 4259 2841 5288 
L 3297 5166 
Q 3159 4803 3003 4500 
L 3966 4500 
Q 4159 4869 4281 5269 
L 4753 5159 
Q 4566 4759 4409 4500 
L 5791 4500 
L 5791 4141 
L 4338 4141 
z
M 3928 4141 
L 2878 4141 
L 2878 3694 
L 3928 3694 
L 3928 4141 
z
M 2878 2088 
L 3928 2088 
L 3928 2566 
L 2878 2566 
L 2878 2088 
z
M 2878 2906 
L 3928 2906 
L 3928 3353 
L 2878 3353 
L 2878 2906 
z
M 497 1778 
Q 1053 2316 1625 3181 
L 1913 2900 
Q 1484 2131 875 1434 
L 497 1778 
z
M 1559 4134 
Q 1109 4519 678 4769 
L 941 5131 
Q 1494 4831 1834 4519 
L 1559 4134 
z
M 1297 3144 
Q 997 3388 397 3763 
L 631 4122 
Q 1153 3847 1547 3541 
L 1297 3144 
z
" transform="scale(0.015625)"/>
     </defs>
     <use xlink:href="#IPAPGothic-8a08"/>
     <use xlink:href="#IPAPGothic-6e2c" transform="translate(100 0)"/>
     <use xlink:href="#IPAPGothic-6a19" transform="translate(200 0)"/>
     <use xlink:href="#IPAPGothic-6e96" transform="translate(300 0)"/>
    </g>
   </g>
   <g id="text_3">
    <!-- 物理モデル -->
    <g transform="translate(129.394688 136.121313) scale(0.1 -0.1)">
     <defs>
      <path id="IPAPGothic-7269" d="M 4650 3763 
L 4178 3763 
L 4166 3697 
Q 3809 1916 2663 922 
L 2334 1228 
Q 3216 2034 3563 3084 
Q 3647 3328 3744 3763 
L 3300 3763 
Q 2991 3081 2634 2616 
L 2297 2919 
Q 3013 3872 3319 5319 
L 3775 5209 
Q 3631 4603 3469 4166 
L 5900 4166 
Q 5891 1056 5734 225 
Q 5628 -331 4959 -331 
Q 4553 -331 4166 -294 
L 4069 197 
Q 4594 122 4881 122 
Q 5172 122 5241 275 
Q 5422 669 5450 3438 
L 5459 3763 
L 5081 3763 
Q 4925 2650 4581 1797 
Q 4091 603 3066 -325 
L 2725 0 
Q 4281 1309 4638 3697 
L 4650 3763 
z
M 1025 3950 
L 1434 3950 
L 1434 5313 
L 1875 5313 
L 1875 3950 
L 2566 3950 
L 2566 3547 
L 1875 3547 
L 1875 2131 
Q 2366 2341 2572 2441 
L 2616 2031 
Q 2184 1809 1856 1672 
L 1856 -447 
L 1416 -447 
L 1416 1478 
Q 1028 1313 506 1122 
L 300 1563 
Q 903 1747 1434 1953 
L 1434 3547 
L 947 3547 
Q 831 2994 641 2556 
L 269 2803 
Q 600 3669 684 4744 
L 1125 4684 
Q 1066 4222 1025 3950 
z
" transform="scale(0.015625)"/>
      <path id="IPAPGothic-7406" d="M 1541 4397 
L 1541 3084 
L 2222 3084 
L 2222 2688 
L 1541 2688 
L 1541 1247 
Q 1916 1356 2400 1522 
L 2431 1144 
Q 1356 713 434 472 
L 263 909 
Q 759 1025 1113 1119 
L 1113 2688 
L 441 2688 
L 441 3084 
L 1113 3084 
L 1113 4397 
L 372 4397 
L 372 4800 
L 2350 4800 
L 2350 4397 
L 1541 4397 
z
M 5691 4991 
L 5691 2106 
L 4378 2106 
L 4378 1375 
L 5825 1375 
L 5825 984 
L 4378 984 
L 4378 206 
L 6081 206 
L 6081 -191 
L 2150 -191 
L 2150 206 
L 3944 206 
L 3944 984 
L 2559 984 
L 2559 1375 
L 3944 1375 
L 3944 2106 
L 2675 2106 
L 2675 4991 
L 5691 4991 
z
M 3091 4606 
L 3091 3750 
L 3956 3750 
L 3956 4606 
L 3091 4606 
z
M 3091 3378 
L 3091 2491 
L 3956 2491 
L 3956 3378 
L 3091 3378 
z
M 5275 2491 
L 5275 3378 
L 4366 3378 
L 4366 2491 
L 5275 2491 
z
M 5275 3750 
L 5275 4606 
L 4366 4606 
L 4366 3750 
L 5275 3750 
z
" transform="scale(0.015625)"/>
      <path id="IPAPGothic-30e2" d="M 834 4409 
L 4763 4409 
L 4763 3950 
L 2669 3950 
L 2669 2797 
L 5263 2797 
L 5263 2328 
L 2669 2328 
L 2669 972 
Q 2669 669 2888 600 
Q 3069 544 3628 544 
Q 4175 544 4884 600 
L 4884 97 
Q 4300 50 3763 50 
Q 2641 50 2369 250 
Q 2156 403 2156 825 
L 2156 2328 
L 359 2328 
L 359 2797 
L 2156 2797 
L 2156 3950 
L 834 3950 
L 834 4409 
z
" transform="scale(0.015625)"/>
      <path id="IPAPGothic-30c7" d="M 306 3072 
L 5484 3072 
L 5484 2613 
L 3322 2613 
Q 3284 1516 2878 872 
Q 2431 156 1406 -256 
L 1056 156 
Q 2078 538 2456 1166 
Q 2747 1644 2778 2613 
L 306 2613 
L 306 3072 
z
M 1150 4588 
L 4459 4588 
L 4459 4128 
L 1150 4128 
L 1150 4588 
z
M 4991 4006 
Q 4772 4509 4484 4884 
L 4838 5056 
Q 5075 4784 5381 4219 
L 4991 4006 
z
M 5631 4366 
Q 5406 4828 5113 5197 
L 5453 5394 
Q 5741 5059 5997 4575 
L 5631 4366 
z
" transform="scale(0.015625)"/>
      <path id="IPAPGothic-30eb" d="M 353 331 
Q 1313 994 1544 2022 
Q 1684 2650 1684 4397 
L 2203 4397 
L 2203 4153 
L 2203 4116 
Q 2203 2259 1934 1491 
Q 1619 588 744 -38 
L 353 331 
z
M 3125 4666 
L 3650 4666 
L 3650 769 
Q 4875 1488 5672 2731 
L 5997 2278 
Q 5075 966 3516 63 
L 3125 359 
L 3125 4666 
z
" transform="scale(0.015625)"/>
     </defs>
     <use xlink:href="#IPAPGothic-7269"/>
     <use xlink:href="#IPAPGothic-7406" transform="translate(100 0)"/>
     <use xlink:href="#IPAPGothic-30e2" transform="translate(200 0)"/>
     <use xlink:href="#IPAPGothic-30c7" transform="translate(289.990234 0)"/>
     <use xlink:href="#IPAPGothic-30eb" transform="translate(385.009766 0)"/>
    </g>
   </g>
   <g id="text_4">
    <!-- 数値情報処理 -->
    <g transform="translate(244.47 92.481969) scale(0.11 -0.11)">
     <defs>
      <path id="IPAPGothic-6570" d="M 2847 1553 
Q 2741 1006 2425 534 
Q 2622 444 3091 203 
L 2809 -188 
Q 2541 0 2144 209 
Q 1569 -291 703 -500 
L 422 -125 
Q 1263 19 1747 406 
Q 1219 650 734 816 
Q 978 1175 1147 1503 
L 1172 1553 
L 359 1553 
L 359 1925 
L 1344 1925 
Q 1406 2066 1569 2475 
L 1691 2450 
L 1691 3372 
Q 1250 2738 550 2303 
L 275 2663 
Q 1019 3013 1528 3641 
L 378 3641 
L 378 4006 
L 1691 4006 
L 1691 5313 
L 2113 5313 
L 2113 4006 
L 3297 4006 
L 3297 3641 
L 2113 3641 
L 2113 3513 
Q 2659 3291 3175 2963 
L 2956 2584 
Q 2553 2922 2113 3159 
L 2113 2372 
L 1966 2372 
Q 1928 2288 1872 2141 
Q 1806 1975 1784 1925 
L 3378 1925 
L 3378 1553 
L 2847 1553 
z
M 2419 1553 
L 1613 1553 
Q 1478 1269 1313 997 
Q 1559 909 2047 703 
Q 2313 1047 2419 1553 
z
M 4363 1163 
Q 3953 1781 3738 2638 
Q 3575 2281 3428 2016 
L 3103 2406 
Q 3675 3444 3916 5291 
L 4363 5200 
Q 4284 4666 4197 4197 
L 6009 4197 
L 6009 3775 
L 5503 3775 
Q 5397 2275 4869 1191 
Q 5419 503 6144 75 
L 5822 -378 
Q 5188 106 4631 788 
Q 4113 34 3341 -463 
L 3031 -78 
Q 3888 406 4363 1163 
z
M 4588 1594 
Q 4938 2388 5059 3775 
L 4100 3775 
Q 4041 3519 3972 3288 
Q 3981 3250 3991 3194 
Q 4175 2256 4588 1594 
z
M 1003 4116 
Q 878 4544 638 4934 
L 1053 5094 
Q 1247 4788 1438 4269 
L 1003 4116 
z
M 2316 4269 
Q 2550 4688 2688 5131 
L 3128 4997 
Q 2966 4588 2675 4128 
L 2316 4269 
z
" transform="scale(0.015625)"/>
      <path id="IPAPGothic-5024" d="M 4172 3675 
L 5453 3675 
L 5453 684 
L 3019 684 
L 3019 3675 
L 3747 3675 
Q 3788 3884 3825 4153 
L 2144 4153 
L 2144 4544 
L 3881 4544 
Q 3922 4841 3966 5325 
L 4434 5272 
L 4391 4953 
Q 4331 4578 4331 4544 
L 5863 4544 
L 5863 4153 
L 4269 4153 
Q 4200 3781 4172 3675 
z
M 5038 3316 
L 3434 3316 
L 3434 2803 
L 5038 2803 
L 5038 3316 
z
M 3434 2450 
L 3434 1941 
L 5038 1941 
L 5038 2450 
L 3434 2450 
z
M 3434 1588 
L 3434 1044 
L 5038 1044 
L 5038 1588 
L 3434 1588 
z
M 1509 3669 
L 1509 -447 
L 1069 -447 
L 1069 2728 
Q 856 2338 531 1875 
L 288 2266 
Q 1163 3534 1541 5325 
L 1975 5225 
Q 1791 4378 1509 3669 
z
M 2488 244 
L 6034 244 
L 6034 -153 
L 2488 -153 
L 2488 -447 
L 2059 -447 
L 2059 3213 
L 2488 3213 
L 2488 244 
z
" transform="scale(0.015625)"/>
      <path id="IPAPGothic-51e6" d="M 2144 1263 
Q 2538 638 3147 425 
Q 3628 253 4741 253 
Q 5266 253 6163 303 
Q 6038 63 6009 -216 
Q 5450 -234 5094 -234 
Q 3675 -234 3097 -38 
Q 2388 206 1919 884 
Q 1366 6 734 -478 
L 397 -106 
Q 1128 384 1675 1306 
Q 1341 1969 1138 2913 
Q 934 2309 606 1775 
L 306 2159 
Q 1069 3425 1319 5219 
L 1759 5116 
Q 1694 4763 1631 4481 
L 2650 4481 
L 2903 4275 
Q 2759 2447 2144 1263 
z
M 1900 1744 
Q 2356 2797 2469 4066 
L 1528 4066 
Q 1463 3822 1388 3625 
Q 1534 2575 1900 1744 
z
M 5056 4756 
L 5056 1466 
Q 5056 1263 5269 1263 
Q 5466 1263 5484 1475 
Q 5506 1600 5516 2081 
L 5525 2222 
L 5953 2069 
Q 5944 1234 5831 1038 
Q 5728 859 5216 859 
Q 4888 859 4750 950 
Q 4622 1038 4622 1294 
L 4622 4353 
L 3872 4353 
L 3872 3759 
Q 3872 2547 3744 1916 
Q 3603 1244 3144 706 
L 2816 1025 
Q 3259 1563 3375 2369 
Q 3431 2809 3431 3566 
L 3431 4756 
L 5056 4756 
z
" transform="scale(0.015625)"/>
     </defs>
     <use xlink:href="#IPAPGothic-6570"/>
     <use xlink:href="#IPAPGothic-5024" transform="translate(100 0)"/>
     <use xlink:href="#IPAPGothic-60c5" transform="translate(200 0)"/>
     <use xlink:href="#IPAPGothic-5831" transform="translate(300 0)"/>
     <use xlink:href="#IPAPGothic-51e6" transform="translate(400 0)"/>
     <use xlink:href="#IPAPGothic-7406" transform="translate(500 0)"/>
    </g>
   </g>
   <g id="text_5">
    <!-- 数値表示 -->
    <g transform="translate(370.33475 94.734219) scale(0.11 -0.11)">
     <defs>
      <path id="IPAPGothic-8868" d="M 3209 2350 
Q 2856 1944 2328 1563 
L 2328 288 
Q 2975 438 3756 691 
L 3763 275 
Q 2538 -163 1188 -447 
L 981 13 
Q 1566 119 1819 175 
L 1875 188 
L 1875 1275 
Q 1303 941 506 666 
L 219 1056 
Q 1813 1509 2675 2356 
L 384 2356 
L 384 2753 
L 2978 2753 
L 2978 3309 
L 963 3309 
L 963 3694 
L 2978 3694 
L 2978 4219 
L 641 4219 
L 641 4603 
L 2978 4603 
L 2978 5313 
L 3431 5313 
L 3431 4603 
L 5763 4603 
L 5763 4219 
L 3431 4219 
L 3431 3694 
L 5434 3694 
L 5434 3309 
L 3431 3309 
L 3431 2753 
L 6016 2753 
L 6016 2356 
L 3634 2356 
Q 3863 1838 4244 1356 
Q 4781 1756 5166 2191 
L 5588 1894 
Q 5084 1419 4525 1056 
Q 5150 463 6106 66 
L 5738 -356 
Q 3850 575 3209 2350 
z
" transform="scale(0.015625)"/>
      <path id="IPAPGothic-793a" d="M 3488 2822 
L 3488 153 
Q 3488 -144 3334 -247 
Q 3213 -331 2872 -331 
Q 2425 -331 1950 -294 
L 1863 213 
Q 2350 128 2775 128 
Q 3000 128 3000 353 
L 3000 2822 
L 447 2822 
L 447 3250 
L 5953 3250 
L 5953 2822 
L 3488 2822 
z
M 1125 4813 
L 5266 4813 
L 5266 4384 
L 1125 4384 
L 1125 4813 
z
M 5581 244 
Q 4966 1263 4206 2081 
L 4563 2369 
Q 5319 1575 6009 622 
L 5581 244 
z
M 403 616 
Q 1184 1238 1741 2259 
L 2163 2053 
Q 1631 975 763 238 
L 403 616 
z
" transform="scale(0.015625)"/>
     </defs>
     <use xlink:href="#IPAPGothic-6570"/>
     <use xlink:href="#IPAPGothic-5024" transform="translate(100 0)"/>
     <use xlink:href="#IPAPGothic-8868" transform="translate(200 0)"/>
     <use xlink:href="#IPAPGothic-793a" transform="translate(300 0)"/>
    </g>
   </g>
   <g id="patch_12">
    <path d="M 92.7855 91.8846 
Q 123.190875 91.8846 152.366413 91.8846 
" style="fill: none; stroke: #000000; stroke-width: 1.1; stroke-linecap: round"/>
    <path d="M 148.366413 89.8846 
L 152.366413 91.8846 
L 148.366413 93.8846 
" style="fill: none; stroke: #000000; stroke-width: 1.1; stroke-linecap: round"/>
   </g>
   <g id="patch_13">
    <path d="M 153.59625 56.7495 
Q 153.59625 72.0648 153.59625 86.150263 
" style="fill: none; stroke: #000000; stroke-width: 1.1; stroke-linecap: round"/>
    <path d="M 155.59625 82.150263 
L 153.59625 86.150263 
L 151.59625 82.150263 
" style="fill: none; stroke: #000000; stroke-width: 1.1; stroke-linecap: round"/>
   </g>
   <g id="patch_14">
    <path d="M 153.59625 115.308 
Q 153.59625 105.84855 153.59625 97.618937 
" style="fill: none; stroke: #000000; stroke-width: 1.1; stroke-linecap: round"/>
    <path d="M 151.59625 101.618937 
L 153.59625 97.618937 
L 155.59625 101.618937 
" style="fill: none; stroke: #000000; stroke-width: 1.1; stroke-linecap: round"/>
   </g>
   <g id="patch_15">
    <path d="M 153.59625 91.8846 
Q 193.010625 90.53325 231.195885 89.224041 
" style="fill: none; stroke: #000000; stroke-width: 1.1; stroke-linecap: round"/>
    <path d="M 227.129703 87.362278 
L 231.195885 89.224041 
L 227.266765 91.359929 
" style="fill: none; stroke: #000000; stroke-width: 1.1; stroke-linecap: round"/>
   </g>
   <g id="patch_16">
    <path d="M 322.515 89.1819 
Q 340.533 90.53325 357.324607 91.792621 
" style="fill: none; stroke: #000000; stroke-width: 1.1; stroke-linecap: round"/>
    <path d="M 353.48539 89.499062 
L 357.324607 91.792621 
L 353.18623 93.487859 
" style="fill: none; stroke: #000000; stroke-width: 1.1; stroke-linecap: round"/>
   </g>
   <g id="text_6">
    <!-- センサ情報 -->
    <g transform="translate(32.87675 218.607969) scale(0.11 -0.11)">
     <use xlink:href="#IPAPGothic-30bb"/>
     <use xlink:href="#IPAPGothic-30f3" transform="translate(93.017578 0)"/>
     <use xlink:href="#IPAPGothic-30b5" transform="translate(179.003906 0)"/>
     <use xlink:href="#IPAPGothic-60c5" transform="translate(275 0)"/>
     <use xlink:href="#IPAPGothic-5831" transform="translate(375 0)"/>
    </g>
   </g>
   <g id="text_7">
    <!-- 知識の体系 -->
    <g transform="translate(128.745469 159.956187) scale(0.1 -0.1)">
     <defs>
      <path id="IPAPGothic-77e5" d="M 2219 3988 
L 2219 2778 
L 3372 2778 
L 3372 2375 
L 2213 2375 
Q 2203 2078 2163 1813 
L 2194 1788 
Q 2888 1163 3403 531 
L 3078 116 
Q 2625 741 2066 1319 
Q 1766 159 756 -478 
L 428 -109 
Q 1231 359 1528 1147 
Q 1713 1634 1759 2375 
L 409 2375 
L 409 2778 
L 1766 2778 
L 1766 3988 
L 1344 3988 
Q 1106 3409 806 3003 
L 466 3316 
Q 1016 4103 1234 5281 
L 1688 5216 
Q 1591 4731 1484 4391 
L 3219 4391 
L 3219 3988 
L 2219 3988 
z
M 5791 4469 
L 5791 -191 
L 5338 -191 
L 5338 197 
L 3981 197 
L 3981 -269 
L 3528 -269 
L 3528 4469 
L 5791 4469 
z
M 3981 4053 
L 3981 613 
L 5338 613 
L 5338 4053 
L 3981 4053 
z
" transform="scale(0.015625)"/>
      <path id="IPAPGothic-8b58" d="M 5063 1656 
Q 5294 2131 5466 2700 
L 5838 2519 
Q 5506 1619 5191 1088 
Q 5322 644 5528 350 
Q 5616 216 5656 216 
Q 5750 216 5819 1150 
L 6175 906 
Q 6072 -372 5741 -372 
Q 5569 -372 5313 -59 
Q 5063 250 4916 663 
Q 4444 3 3763 -506 
L 3481 -194 
Q 4297 394 4775 1144 
Q 4625 1763 4575 2878 
L 1959 2878 
L 1959 2975 
L 500 2975 
L 500 3359 
L 1966 3359 
L 1966 3250 
L 2759 3250 
Q 2697 3681 2559 4178 
L 2241 4178 
L 2241 4538 
L 3122 4538 
L 3122 5319 
L 3531 5319 
L 3531 4538 
L 4366 4538 
L 4366 4178 
L 4091 4178 
Q 3969 3613 3841 3250 
L 4563 3250 
L 4563 3359 
Q 4556 3578 4556 4069 
L 4556 5281 
L 4959 5281 
L 4959 4116 
Q 4959 3769 4966 3506 
L 4966 3291 
L 6113 3291 
L 6113 2919 
L 4972 2919 
Q 4991 2153 5063 1656 
z
M 2938 4178 
Q 3072 3688 3134 3250 
L 3453 3250 
Q 3616 3734 3697 4178 
L 2938 4178 
z
M 2028 1684 
L 2028 -128 
L 831 -128 
L 831 -447 
L 434 -447 
L 434 1684 
L 2028 1684 
z
M 831 1313 
L 831 244 
L 1631 244 
L 1631 1313 
L 831 1313 
z
M 4159 2478 
L 4159 428 
L 2822 428 
L 2822 109 
L 2444 109 
L 2444 2478 
L 4159 2478 
z
M 2822 2138 
L 2822 1638 
L 3788 1638 
L 3788 2138 
L 2822 2138 
z
M 2822 1306 
L 2822 769 
L 3788 769 
L 3788 1306 
L 2822 1306 
z
M 500 5044 
L 1966 5044 
L 1966 4659 
L 500 4659 
L 500 5044 
z
M 288 4206 
L 2113 4206 
L 2113 3816 
L 288 3816 
L 288 4206 
z
M 500 2522 
L 1966 2522 
L 1966 2138 
L 500 2138 
L 500 2522 
z
M 5631 3694 
Q 5406 4366 5166 4769 
L 5516 4941 
Q 5834 4388 5997 3916 
L 5631 3694 
z
" transform="scale(0.015625)"/>
     </defs>
     <use xlink:href="#IPAPGothic-77e5"/>
     <use xlink:href="#IPAPGothic-8b58" transform="translate(100 0)"/>
     <use xlink:href="#IPAPGothic-306e" transform="translate(200 0)"/>
     <use xlink:href="#IPAPGothic-4f53" transform="translate(297.021484 0)"/>
     <use xlink:href="#IPAPGothic-7cfb" transform="translate(397.021484 0)"/>
    </g>
    <!-- 知識標準 -->
    <g transform="translate(133.59625 170.844938) scale(0.1 -0.1)">
     <use xlink:href="#IPAPGothic-77e5"/>
     <use xlink:href="#IPAPGothic-8b58" transform="translate(100 0)"/>
     <use xlink:href="#IPAPGothic-6a19" transform="translate(200 0)"/>
     <use xlink:href="#IPAPGothic-6e96" transform="translate(300 0)"/>
    </g>
   </g>
   <g id="text_8">
    <!-- 認識モデル -->
    <g transform="translate(129.394688 254.550688) scale(0.1 -0.1)">
     <defs>
      <path id="IPAPGothic-8a8d" d="M 4338 4556 
Q 4309 4069 4216 3694 
Q 4619 3497 4953 3309 
L 4728 2963 
Q 4459 3125 4141 3291 
L 4088 3322 
Q 3756 2566 2956 2088 
L 2663 2419 
Q 3453 2844 3713 3500 
Q 3213 3722 2906 3828 
L 3109 4141 
Q 3381 4050 3828 3866 
Q 3913 4231 3922 4556 
L 2816 4556 
L 2816 4947 
L 5772 4947 
Q 5763 3272 5650 2713 
Q 5603 2459 5453 2369 
Q 5331 2284 5022 2284 
Q 4681 2284 4366 2334 
L 4300 2784 
Q 4644 2713 4928 2713 
Q 5181 2713 5228 2906 
Q 5309 3234 5338 4513 
Q 5338 4541 5338 4556 
L 4338 4556 
z
M 2406 1684 
L 2406 -128 
L 959 -128 
L 959 -447 
L 544 -447 
L 544 1684 
L 2406 1684 
z
M 959 1313 
L 959 244 
L 1984 244 
L 1984 1313 
L 959 1313 
z
M 634 5044 
L 2313 5044 
L 2313 4659 
L 634 4659 
L 634 5044 
z
M 353 4206 
L 2638 4206 
L 2638 3816 
L 353 3816 
L 353 4206 
z
M 634 3359 
L 2313 3359 
L 2313 2975 
L 634 2975 
L 634 3359 
z
M 634 2522 
L 2313 2522 
L 2313 2138 
L 634 2138 
L 634 2522 
z
M 2528 31 
Q 2816 625 2919 1447 
L 3322 1375 
Q 3200 381 2900 -225 
L 2528 31 
z
M 3572 1556 
L 4000 1556 
L 4000 294 
Q 4000 128 4084 100 
Q 4144 75 4300 75 
Q 4728 75 4775 275 
Q 4806 394 4825 738 
L 5253 616 
Q 5206 -44 5081 -188 
Q 4941 -347 4359 -347 
Q 3900 -347 3738 -269 
Q 3572 -191 3572 91 
L 3572 1556 
z
M 5775 -25 
Q 5428 800 5006 1375 
L 5366 1588 
Q 5819 994 6166 244 
L 5775 -25 
z
M 4566 1294 
Q 4106 1772 3656 2075 
L 3938 2350 
Q 4331 2113 4872 1613 
L 4566 1294 
z
" transform="scale(0.015625)"/>
     </defs>
     <use xlink:href="#IPAPGothic-8a8d"/>
     <use xlink:href="#IPAPGothic-8b58" transform="translate(100 0)"/>
     <use xlink:href="#IPAPGothic-30e2" transform="translate(200 0)"/>
     <use xlink:href="#IPAPGothic-30c7" transform="translate(289.990234 0)"/>
     <use xlink:href="#IPAPGothic-30eb" transform="translate(385.009766 0)"/>
    </g>
    <!-- 非表象モデル -->
    <g transform="translate(124.394688 265.439438) scale(0.1 -0.1)">
     <defs>
      <path id="IPAPGothic-975e" d="M 2675 1703 
Q 2931 1753 3359 1866 
L 3378 1475 
Q 2869 1344 2616 1275 
Q 2406 188 1178 -522 
L 859 -153 
Q 1909 413 2131 1166 
Q 1169 953 453 828 
L 288 1288 
Q 1041 1384 1906 1550 
L 2209 1603 
Q 2238 1878 2247 2422 
L 2247 2466 
L 641 2466 
L 641 2869 
L 2247 2869 
L 2247 3731 
L 544 3731 
L 544 4134 
L 2247 4134 
L 2247 5106 
L 2706 5106 
L 2706 2625 
Q 2706 2125 2675 1703 
z
M 4128 4134 
L 5919 4134 
L 5919 3731 
L 4128 3731 
L 4128 2875 
L 5728 2875 
L 5728 2472 
L 4128 2472 
L 4128 1563 
L 6047 1563 
L 6047 1159 
L 4128 1159 
L 4128 -384 
L 3669 -384 
L 3669 5141 
L 4128 5141 
L 4128 4134 
z
" transform="scale(0.015625)"/>
      <path id="IPAPGothic-8c61" d="M 3194 2681 
Q 3009 2528 2900 2450 
Q 3834 1584 3834 450 
Q 3834 -84 3675 -281 
Q 3528 -447 3175 -447 
Q 2816 -447 2419 -416 
L 2334 25 
Q 2700 -38 3041 -38 
Q 3303 -38 3363 134 
Q 3400 250 3400 463 
Q 3400 800 3297 1147 
Q 2341 231 863 -288 
L 550 72 
Q 1975 503 3138 1453 
L 3169 1478 
Q 3084 1638 2997 1784 
Q 2119 1053 875 641 
L 594 991 
Q 1922 1350 2803 2041 
Q 2741 2113 2613 2253 
Q 1856 1775 838 1466 
L 575 1816 
Q 1709 2097 2631 2681 
L 1106 2681 
L 1106 3444 
Q 878 3250 659 3109 
L 384 3409 
Q 1491 4166 2169 5375 
L 2613 5256 
Q 2578 5194 2413 4916 
L 4188 4916 
L 4463 4716 
Q 4119 4278 3834 4013 
L 5453 4013 
L 5453 2681 
L 3775 2681 
Q 3956 2159 4200 1772 
Q 4884 2200 5319 2572 
L 5691 2284 
Q 5094 1831 4403 1478 
Q 4969 741 5947 263 
L 5588 -128 
Q 4403 531 3775 1728 
Q 3572 2122 3366 2681 
L 3194 2681 
z
M 3469 3653 
L 3469 3041 
L 5000 3041 
L 5000 3653 
L 3469 3653 
z
M 3041 3041 
L 3041 3653 
L 1547 3653 
L 1547 3041 
L 3041 3041 
z
M 3309 4013 
Q 3616 4328 3769 4544 
L 2156 4544 
Q 2031 4375 1700 4013 
L 3309 4013 
z
" transform="scale(0.015625)"/>
     </defs>
     <use xlink:href="#IPAPGothic-975e"/>
     <use xlink:href="#IPAPGothic-8868" transform="translate(100 0)"/>
     <use xlink:href="#IPAPGothic-8c61" transform="translate(200 0)"/>
     <use xlink:href="#IPAPGothic-30e2" transform="translate(300 0)"/>
     <use xlink:href="#IPAPGothic-30c7" transform="translate(389.990234 0)"/>
     <use xlink:href="#IPAPGothic-30eb" transform="translate(485.009766 0)"/>
    </g>
   </g>
   <g id="text_9">
    <!-- 言語情報処理 -->
    <g transform="translate(244.47 216.355719) scale(0.11 -0.11)">
     <defs>
      <path id="IPAPGothic-8a00" d="M 5272 1619 
L 5272 -447 
L 4797 -447 
L 4797 -116 
L 1594 -116 
L 1594 -447 
L 1119 -447 
L 1119 1619 
L 5272 1619 
z
M 1594 1234 
L 1594 269 
L 4797 269 
L 4797 1234 
L 1594 1234 
z
M 1344 4978 
L 5050 4978 
L 5050 4588 
L 1344 4588 
L 1344 4978 
z
M 447 4147 
L 5950 4147 
L 5950 3738 
L 447 3738 
L 447 4147 
z
M 1344 3297 
L 5050 3297 
L 5050 2900 
L 1344 2900 
L 1344 3297 
z
M 1344 2456 
L 5050 2456 
L 5050 2059 
L 1344 2059 
L 1344 2456 
z
" transform="scale(0.015625)"/>
      <path id="IPAPGothic-8a9e" d="M 2388 1684 
L 2388 -128 
L 959 -128 
L 959 -447 
L 538 -447 
L 538 1684 
L 2388 1684 
z
M 959 1313 
L 959 244 
L 1966 244 
L 1966 1313 
L 959 1313 
z
M 4309 4659 
Q 4244 4128 4206 3903 
L 5459 3903 
L 5459 2606 
L 6106 2606 
L 6106 2222 
L 2541 2222 
L 2541 2606 
L 3522 2606 
Q 3528 2641 3688 3416 
L 3706 3531 
L 2881 3531 
L 2881 3903 
L 3772 3903 
Q 3778 3916 3778 3947 
Q 3831 4259 3884 4659 
L 2753 4659 
L 2753 5044 
L 5794 5044 
L 5794 4659 
L 4309 4659 
z
M 5044 3531 
L 4141 3531 
Q 4013 2834 3963 2606 
L 5044 2606 
L 5044 3531 
z
M 5606 1625 
L 5606 -447 
L 5178 -447 
L 5178 -134 
L 3419 -134 
L 3419 -453 
L 2991 -453 
L 2991 1625 
L 5606 1625 
z
M 3419 1253 
L 3419 238 
L 5178 238 
L 5178 1253 
L 3419 1253 
z
M 634 5044 
L 2294 5044 
L 2294 4659 
L 634 4659 
L 634 5044 
z
M 347 4206 
L 2550 4206 
L 2550 3816 
L 347 3816 
L 347 4206 
z
M 634 3359 
L 2294 3359 
L 2294 2975 
L 634 2975 
L 634 3359 
z
M 634 2522 
L 2294 2522 
L 2294 2138 
L 634 2138 
L 634 2522 
z
" transform="scale(0.015625)"/>
     </defs>
     <use xlink:href="#IPAPGothic-8a00"/>
     <use xlink:href="#IPAPGothic-8a9e" transform="translate(100 0)"/>
     <use xlink:href="#IPAPGothic-60c5" transform="translate(200 0)"/>
     <use xlink:href="#IPAPGothic-5831" transform="translate(300 0)"/>
     <use xlink:href="#IPAPGothic-51e6" transform="translate(400 0)"/>
     <use xlink:href="#IPAPGothic-7406" transform="translate(500 0)"/>
    </g>
   </g>
   <g id="text_10">
    <!-- 言語表示 -->
    <g transform="translate(370.33475 218.607969) scale(0.11 -0.11)">
     <use xlink:href="#IPAPGothic-8a00"/>
     <use xlink:href="#IPAPGothic-8a9e" transform="translate(100 0)"/>
     <use xlink:href="#IPAPGothic-8868" transform="translate(200 0)"/>
     <use xlink:href="#IPAPGothic-793a" transform="translate(300 0)"/>
    </g>
   </g>
   <g id="patch_17">
    <path d="M 92.7855 215.3079 
Q 123.190875 215.3079 152.366413 215.3079 
" style="fill: none; stroke: #000000; stroke-width: 1.1; stroke-linecap: round"/>
    <path d="M 148.366413 213.3079 
L 152.366413 215.3079 
L 148.366413 217.3079 
" style="fill: none; stroke: #000000; stroke-width: 1.1; stroke-linecap: round"/>
   </g>
   <g id="patch_18">
    <path d="M 153.59625 180.62325 
Q 153.59625 195.713325 153.59625 209.573563 
" style="fill: none; stroke: #000000; stroke-width: 1.1; stroke-linecap: round"/>
    <path d="M 155.59625 205.573563 
L 153.59625 209.573563 
L 151.59625 205.573563 
" style="fill: none; stroke: #000000; stroke-width: 1.1; stroke-linecap: round"/>
   </g>
   <g id="patch_19">
    <path d="M 153.59625 239.18175 
Q 153.59625 229.497075 153.59625 221.042237 
" style="fill: none; stroke: #000000; stroke-width: 1.1; stroke-linecap: round"/>
    <path d="M 151.59625 225.042237 
L 153.59625 221.042237 
L 155.59625 225.042237 
" style="fill: none; stroke: #000000; stroke-width: 1.1; stroke-linecap: round"/>
   </g>
   <g id="patch_20">
    <path d="M 153.59625 215.3079 
Q 193.010625 214.407 231.195484 213.534203 
" style="fill: none; stroke: #000000; stroke-width: 1.1; stroke-linecap: round"/>
    <path d="M 227.150826 211.62613 
L 231.195484 213.534203 
L 227.242231 215.625086 
" style="fill: none; stroke: #000000; stroke-width: 1.1; stroke-linecap: round"/>
   </g>
   <g id="patch_21">
    <path d="M 322.515 213.5061 
Q 340.533 214.407 357.322697 215.246485 
" style="fill: none; stroke: #000000; stroke-width: 1.1; stroke-linecap: round"/>
    <path d="M 353.427563 213.04923 
L 357.322697 215.246485 
L 353.227812 217.044239 
" style="fill: none; stroke: #000000; stroke-width: 1.1; stroke-linecap: round"/>
   </g>
  </g>
 </g>
 <defs>
  <clipPath id="p606289932c">
   <rect x="7.2" y="7.2" width="432.432" height="288.288"/>
  </clipPath>
 </defs>
</svg>
