<?xml version="1.0" encoding="utf-8" standalone="no"?>
<!DOCTYPE svg PUBLIC "-//W3C//DTD SVG 1.1//EN"
  "http://www.w3.org/Graphics/SVG/1.1/DTD/svg11.dtd">
<svg xmlns:xlink="http://www.w3.org/1999/xlink" width="684pt" height="284.991781pt" viewBox="0 0 684 284.991781" xmlns="http://www.w3.org/2000/svg" version="1.1">
 <metadata>
  <rdf:RDF xmlns:dc="http://purl.org/dc/elements/1.1/" xmlns:cc="http://creativecommons.org/ns#" xmlns:rdf="http://www.w3.org/1999/02/22-rdf-syntax-ns#">
   <cc:Work>
    <dc:type rdf:resource="http://purl.org/dc/dcmitype/StillImage"/>
    <dc:date>2026-06-24T01:01:13.109556</dc:date>
    <dc:format>image/svg+xml</dc:format>
    <dc:creator>
     <cc:Agent>
      <dc:title>Matplotlib v3.10.0, https://matplotlib.org/</dc:title>
     </cc:Agent>
    </dc:creator>
   </cc:Work>
  </rdf:RDF>
 </metadata>
 <defs>
  <style type="text/css">*{stroke-linejoin: round; stroke-linecap: butt}</style>
 </defs>
 <g id="figure_1">
  <g id="patch_1">
   <path d="M 0 284.991781 
L 684 284.991781 
L 684 0 
L 0 0 
z
" style="fill: #ffffff"/>
  </g>
  <g id="axes_1">
   <g id="patch_2">
    <path d="M 190.652055 250.273973 
C 230.181848 250.273973 268.097926 238.676173 296.049711 218.034855 
C 324.001496 197.393537 339.706849 169.393972 339.706849 140.20274 
C 339.706849 111.011508 324.001496 83.011943 296.049711 62.370625 
C 268.097926 41.729306 230.181848 30.131507 190.652055 30.131507 
C 151.122261 30.131507 113.206184 41.729306 85.254399 62.370625 
C 57.302614 83.011943 41.59726 111.011508 41.59726 140.20274 
C 41.59726 169.393972 57.302614 197.393537 85.254399 218.034855 
C 113.206184 238.676173 151.122261 250.273973 190.652055 250.273973 
L 190.652055 250.273973 
z
" clip-path="url(#p9c99a47b4a)" style="fill: none; stroke: #000000; stroke-width: 1.2; stroke-linejoin: miter"/>
   </g>
   <g id="patch_3">
    <path d="M 355.758904 250.273973 
C 395.288698 250.273973 433.204775 238.676173 461.15656 218.034855 
C 489.108345 197.393537 504.813699 169.393972 504.813699 140.20274 
C 504.813699 111.011508 489.108345 83.011943 461.15656 62.370625 
C 433.204775 41.729306 395.288698 30.131507 355.758904 30.131507 
C 316.229111 30.131507 278.313033 41.729306 250.361248 62.370625 
C 222.409463 83.011943 206.70411 111.011508 206.70411 140.20274 
C 206.70411 169.393972 222.409463 197.393537 250.361248 218.034855 
C 278.313033 238.676173 316.229111 250.273973 355.758904 250.273973 
L 355.758904 250.273973 
z
" clip-path="url(#p9c99a47b4a)" style="fill: none; stroke: #000000; stroke-width: 1.2; stroke-linejoin: miter"/>
   </g>
   <g id="patch_4">
    <path d="M 42.973151 174.14137 
L 104.429589 174.14137 
Q 109.933151 174.14137 109.933151 168.637808 
L 109.933151 111.767671 
Q 109.933151 106.26411 104.429589 106.26411 
L 42.973151 106.26411 
Q 37.469589 106.26411 37.469589 111.767671 
L 37.469589 168.637808 
Q 37.469589 174.14137 42.973151 174.14137 
z
" clip-path="url(#p9c99a47b4a)" style="fill: #ffffff; stroke: #000000; stroke-width: 1.3; stroke-linejoin: miter"/>
   </g>
   <g id="patch_5">
    <path d="M 134.699178 167.261918 
L 186.983014 167.261918 
Q 192.486575 167.261918 192.486575 161.758356 
L 192.486575 118.647123 
Q 192.486575 113.143562 186.983014 113.143562 
L 134.699178 113.143562 
Q 129.195616 113.143562 129.195616 118.647123 
L 129.195616 161.758356 
Q 129.195616 167.261918 134.699178 167.261918 
z
" clip-path="url(#p9c99a47b4a)" style="fill: #ffffff; stroke: #000000; stroke-width: 1.3; stroke-linejoin: miter"/>
   </g>
   <g id="patch_6">
    <path d="M 212.666301 167.261918 
L 264.950137 167.261918 
Q 270.453699 167.261918 270.453699 161.758356 
L 270.453699 118.647123 
Q 270.453699 113.143562 264.950137 113.143562 
L 212.666301 113.143562 
Q 207.16274 113.143562 207.16274 118.647123 
L 207.16274 161.758356 
Q 207.16274 167.261918 212.666301 167.261918 
z
" clip-path="url(#p9c99a47b4a)" style="fill: #ffffff; stroke: #000000; stroke-width: 1.3; stroke-linejoin: miter"/>
   </g>
   <g id="patch_7">
    <path d="M 295.219726 194.779726 
L 379.607671 194.779726 
Q 385.111233 194.779726 385.111233 189.276164 
L 385.111233 91.129315 
Q 385.111233 85.625753 379.607671 85.625753 
L 295.219726 85.625753 
Q 289.716164 85.625753 289.716164 91.129315 
L 289.716164 189.276164 
Q 289.716164 194.779726 295.219726 194.779726 
z
" clip-path="url(#p9c99a47b4a)" style="fill: #ffffff; stroke: #000000; stroke-width: 1.3; stroke-linejoin: miter"/>
   </g>
   <g id="patch_8">
    <path d="M 414.463562 167.261918 
L 466.747397 167.261918 
Q 472.250959 167.261918 472.250959 161.758356 
L 472.250959 118.647123 
Q 472.250959 113.143562 466.747397 113.143562 
L 414.463562 113.143562 
Q 408.96 113.143562 408.96 118.647123 
L 408.96 161.758356 
Q 408.96 167.261918 414.463562 167.261918 
z
" clip-path="url(#p9c99a47b4a)" style="fill: #ffffff; stroke: #000000; stroke-width: 1.3; stroke-linejoin: miter"/>
   </g>
   <g id="patch_9">
    <path d="M 492.430685 167.261918 
L 544.714521 167.261918 
Q 550.218082 167.261918 550.218082 161.758356 
L 550.218082 118.647123 
Q 550.218082 113.143562 544.714521 113.143562 
L 492.430685 113.143562 
Q 486.927123 113.143562 486.927123 118.647123 
L 486.927123 161.758356 
Q 486.927123 167.261918 492.430685 167.261918 
z
" clip-path="url(#p9c99a47b4a)" style="fill: #ffffff; stroke: #000000; stroke-width: 1.3; stroke-linejoin: miter"/>
   </g>
   <g id="patch_10">
    <path d="M 574.98411 174.14137 
L 650.199452 174.14137 
Q 655.703014 174.14137 655.703014 168.637808 
L 655.703014 111.767671 
Q 655.703014 106.26411 650.199452 106.26411 
L 574.98411 106.26411 
Q 569.480548 106.26411 569.480548 111.767671 
L 569.480548 168.637808 
Q 569.480548 174.14137 574.98411 174.14137 
z
" clip-path="url(#p9c99a47b4a)" style="fill: #ffffff; stroke: #000000; stroke-width: 1.3; stroke-linejoin: miter"/>
   </g>
   <g id="patch_11">
    <path d="M 148.458082 226.883836 
L 205.328219 226.883836 
Q 210.831781 226.883836 210.831781 221.380274 
L 210.831781 208.08 
Q 210.831781 202.576438 205.328219 202.576438 
L 148.458082 202.576438 
Q 142.954521 202.576438 142.954521 208.08 
L 142.954521 221.380274 
Q 142.954521 226.883836 148.458082 226.883836 
z
" clip-path="url(#p9c99a47b4a)" style="fill: #ffffff; stroke: #000000; stroke-width: 1.3; stroke-linejoin: miter"/>
   </g>
   <g id="patch_12">
    <path d="M 162.216986 263.574247 
L 301.640548 263.574247 
Q 307.14411 263.574247 307.14411 258.070685 
L 307.14411 242.47726 
Q 307.14411 236.973699 301.640548 236.973699 
L 162.216986 236.973699 
Q 156.713425 236.973699 156.713425 242.47726 
L 156.713425 258.070685 
Q 156.713425 263.574247 162.216986 263.574247 
z
" clip-path="url(#p9c99a47b4a)" style="fill: #ffffff; stroke: #000000; stroke-width: 1.3; stroke-linejoin: miter"/>
   </g>
   <g id="line2d_1">
    <path d="M 612.591781 172.306849 
L 612.591781 250.273973 
" clip-path="url(#p9c99a47b4a)" style="fill: none; stroke: #000000; stroke-width: 1.2; stroke-linecap: square"/>
   </g>
   <g id="line2d_2">
    <path d="M 612.591781 250.273973 
L 53.063014 250.273973 
" clip-path="url(#p9c99a47b4a)" style="fill: none; stroke: #000000; stroke-width: 1.2; stroke-linecap: square"/>
   </g>
   <g id="line2d_3">
    <path d="M 53.063014 250.273973 
L 53.063014 172.306849 
" clip-path="url(#p9c99a47b4a)" style="fill: none; stroke: #000000; stroke-width: 1.2; stroke-linecap: square"/>
   </g>
   <g id="text_1">
    <!-- 計測 -->
    <g transform="translate(144.789041 37.010959) scale(0.28 -0.28)">
     <defs>
      <path id="IPAPGothic-8a08" d="M 2853 1684 
L 2853 -416 
L 2413 -416 
L 2413 -128 
L 1088 -128 
L 1088 -447 
L 647 -447 
L 647 1684 
L 2853 1684 
z
M 1088 1300 
L 1088 256 
L 2413 256 
L 2413 1300 
L 1088 1300 
z
M 4322 3225 
L 4322 5178 
L 4781 5178 
L 4781 3225 
L 6063 3225 
L 6063 2797 
L 4781 2797 
L 4781 -447 
L 4322 -447 
L 4322 2797 
L 3059 2797 
L 3059 3225 
L 4322 3225 
z
M 781 5044 
L 2722 5044 
L 2722 4647 
L 781 4647 
L 781 5044 
z
M 384 4206 
L 3150 4206 
L 3150 3803 
L 384 3803 
L 384 4206 
z
M 781 3359 
L 2722 3359 
L 2722 2963 
L 781 2963 
L 781 3359 
z
M 781 2522 
L 2722 2522 
L 2722 2125 
L 781 2125 
L 781 2522 
z
" transform="scale(0.015625)"/>
      <path id="IPAPGothic-6e2c" d="M 3856 4884 
L 3856 1081 
L 2059 1081 
L 2059 4884 
L 3856 4884 
z
M 2456 4494 
L 2456 3756 
L 3459 3756 
L 3459 4494 
L 2456 4494 
z
M 2456 3384 
L 2456 2656 
L 3459 2656 
L 3459 3384 
L 2456 3384 
z
M 2456 2284 
L 2456 1478 
L 3459 1478 
L 3459 2284 
L 2456 2284 
z
M 1413 3891 
Q 1000 4428 556 4763 
L 856 5100 
Q 1309 4753 1734 4269 
L 1413 3891 
z
M 1222 2394 
Q 816 2878 325 3256 
L 625 3591 
Q 1141 3231 1528 2778 
L 1222 2394 
z
M 375 -78 
Q 916 800 1297 1906 
L 1669 1619 
Q 1284 478 759 -428 
L 375 -78 
z
M 3819 -256 
Q 3478 319 3128 716 
L 3469 966 
Q 3834 581 4172 63 
L 3819 -256 
z
M 4378 4513 
L 4806 4513 
L 4806 959 
L 4378 959 
L 4378 4513 
z
M 1638 -109 
Q 2103 300 2450 984 
L 2828 763 
Q 2425 -6 1944 -488 
L 1638 -109 
z
M 5419 5081 
L 5853 5081 
L 5853 109 
Q 5853 -391 5297 -391 
Q 4919 -391 4541 -359 
L 4441 109 
Q 4928 50 5219 50 
Q 5419 50 5419 244 
L 5419 5081 
z
" transform="scale(0.015625)"/>
     </defs>
     <use xlink:href="#IPAPGothic-8a08"/>
     <use xlink:href="#IPAPGothic-6e2c" transform="translate(100 0)"/>
    </g>
   </g>
   <g id="text_2">
    <!-- 制御 -->
    <g transform="translate(328.241096 37.010959) scale(0.28 -0.28)">
     <defs>
      <path id="IPAPGothic-5236" d="M 1881 4331 
L 1881 5313 
L 2309 5313 
L 2309 4331 
L 3616 4331 
L 3616 3959 
L 2309 3959 
L 2309 3206 
L 3813 3206 
L 3813 2822 
L 2309 2822 
L 2309 2188 
L 3544 2188 
L 3544 544 
Q 3544 281 3434 191 
Q 3338 116 3084 116 
Q 2816 116 2578 153 
L 2534 581 
Q 2747 531 2950 531 
Q 3122 531 3122 728 
L 3122 1816 
L 2309 1816 
L 2309 -447 
L 1881 -447 
L 1881 1816 
L 1106 1816 
L 1106 13 
L 691 13 
L 691 2188 
L 1881 2188 
L 1881 2822 
L 319 2822 
L 319 3206 
L 1881 3206 
L 1881 3959 
L 1119 3959 
Q 984 3625 741 3263 
L 375 3525 
Q 822 4203 1003 5081 
L 1447 4991 
Q 1372 4666 1259 4331 
L 1881 4331 
z
M 4159 4575 
L 4606 4575 
L 4606 1013 
L 4159 1013 
L 4159 4575 
z
M 5369 5100 
L 5809 5100 
L 5809 147 
Q 5809 -128 5700 -256 
Q 5575 -391 5156 -391 
Q 4744 -391 4350 -341 
L 4275 134 
Q 4731 69 5138 69 
Q 5369 69 5369 325 
L 5369 5100 
z
" transform="scale(0.015625)"/>
      <path id="IPAPGothic-5fa1" d="M 3297 734 
Q 3569 800 4206 978 
L 4219 606 
Q 3034 209 1806 -31 
L 1634 391 
Q 1963 447 2063 466 
L 2063 2350 
L 2478 2350 
L 2478 550 
L 2625 581 
L 2759 613 
L 2888 641 
L 2888 2791 
L 1825 2791 
L 1825 3181 
L 2888 3181 
L 2888 4103 
L 2478 4103 
Q 2356 3813 2172 3541 
L 1831 3791 
Q 2222 4359 2434 5275 
L 2831 5184 
Q 2744 4800 2638 4494 
L 4128 4494 
L 4128 4103 
L 3297 4103 
L 3297 3181 
L 4250 3181 
L 4250 2791 
L 3297 2791 
L 3297 2053 
L 4156 2053 
L 4156 1656 
L 3297 1656 
L 3297 734 
z
M 1434 2869 
L 1434 -447 
L 1025 -447 
L 1025 2325 
Q 741 1988 450 1703 
L 219 2063 
Q 969 2744 1531 3809 
L 1875 3597 
Q 1675 3225 1434 2869 
z
M 5916 4653 
L 5916 853 
Q 5916 597 5819 500 
Q 5725 403 5475 403 
Q 5253 403 5053 444 
L 5006 866 
Q 5156 831 5334 831 
Q 5513 831 5513 1031 
L 5513 4250 
L 4841 4250 
L 4841 -447 
L 4425 -447 
L 4425 4653 
L 5916 4653 
z
M 263 3822 
Q 1038 4391 1466 5203 
L 1844 5019 
Q 1297 4047 538 3500 
L 263 3822 
z
" transform="scale(0.015625)"/>
     </defs>
     <use xlink:href="#IPAPGothic-5236"/>
     <use xlink:href="#IPAPGothic-5fa1" transform="translate(100 0)"/>
    </g>
   </g>
   <g id="text_3">
    <!-- センサ -->
    <g transform="translate(55.82637 143.836646) scale(0.13 -0.13)">
     <defs>
      <path id="IPAPGothic-30bb" d="M 1869 4878 
L 2394 4878 
L 2394 3400 
L 5100 3731 
L 5416 3444 
Q 4647 2309 3816 1556 
L 3378 1875 
Q 4106 2459 4653 3234 
L 2394 2931 
L 2394 978 
Q 2394 734 2547 669 
Q 2731 584 3425 584 
Q 4228 584 5234 697 
L 5253 172 
Q 4372 103 3653 103 
Q 2488 103 2169 256 
Q 1869 403 1869 866 
L 1869 2863 
L 447 2675 
L 397 3150 
L 1869 3334 
L 1869 4878 
z
" transform="scale(0.015625)"/>
      <path id="IPAPGothic-30f3" d="M 1931 3084 
Q 1303 3656 544 4084 
L 869 4519 
Q 1550 4188 2303 3559 
L 1931 3084 
z
M 588 609 
Q 3472 1106 4703 3828 
L 5106 3469 
Q 3900 794 922 103 
L 588 609 
z
" transform="scale(0.015625)"/>
      <path id="IPAPGothic-30b5" d="M 3866 4922 
L 4378 4922 
L 4378 3531 
L 5759 3531 
L 5759 3072 
L 4378 3072 
Q 4359 1719 4025 1063 
Q 3600 222 2516 -325 
L 2141 38 
Q 3197 525 3584 1319 
Q 3847 1853 3866 3072 
L 2203 3072 
L 2203 1575 
L 1691 1575 
L 1691 3072 
L 384 3072 
L 384 3531 
L 1691 3531 
L 1691 4800 
L 2203 4800 
L 2203 3531 
L 3866 3531 
L 3866 4922 
z
" transform="scale(0.015625)"/>
     </defs>
     <use xlink:href="#IPAPGothic-30bb"/>
     <use xlink:href="#IPAPGothic-30f3" transform="translate(93.017578 0)"/>
     <use xlink:href="#IPAPGothic-30b5" transform="translate(179.003906 0)"/>
    </g>
   </g>
   <g id="text_4">
    <!-- 信号 -->
    <g transform="translate(149.841096 137.288771) scale(0.11 -0.11)">
     <defs>
      <path id="IPAPGothic-4fe1" d="M 1572 3809 
L 1572 -447 
L 1119 -447 
L 1119 2850 
Q 856 2375 550 1972 
L 300 2363 
Q 1172 3553 1566 5256 
L 2013 5147 
Q 1819 4428 1572 3809 
z
M 5534 1619 
L 5534 -447 
L 5081 -447 
L 5081 -116 
L 2763 -116 
L 2763 -447 
L 2316 -447 
L 2316 1619 
L 5534 1619 
z
M 2763 1234 
L 2763 269 
L 5081 269 
L 5081 1234 
L 2763 1234 
z
M 2475 4984 
L 5375 4984 
L 5375 4588 
L 2475 4588 
L 2475 4984 
z
M 2475 3297 
L 5375 3297 
L 5375 2906 
L 2475 2906 
L 2475 3297 
z
M 2475 2456 
L 5375 2456 
L 5375 2066 
L 2475 2066 
L 2475 2456 
z
M 1894 4147 
L 6003 4147 
L 6003 3738 
L 1894 3738 
L 1894 4147 
z
" transform="scale(0.015625)"/>
      <path id="IPAPGothic-53f7" d="M 5144 4947 
L 5144 3303 
L 1247 3303 
L 1247 4947 
L 5144 4947 
z
M 1706 4550 
L 1706 3694 
L 4684 3694 
L 4684 4550 
L 1706 4550 
z
M 2328 2350 
L 2309 2291 
Q 2225 2013 2138 1753 
L 5297 1753 
Q 5231 556 4978 19 
Q 4850 -247 4613 -331 
Q 4431 -403 4044 -403 
Q 3463 -403 3006 -359 
L 2906 147 
Q 3544 44 4025 44 
Q 4425 44 4569 397 
Q 4703 731 4775 1344 
L 1978 1344 
Q 1875 1097 1716 788 
L 1241 928 
Q 1631 1603 1850 2350 
L 416 2350 
L 416 2753 
L 6034 2753 
L 6034 2350 
L 2328 2350 
z
" transform="scale(0.015625)"/>
     </defs>
     <use xlink:href="#IPAPGothic-4fe1"/>
     <use xlink:href="#IPAPGothic-53f7" transform="translate(100 0)"/>
    </g>
    <!-- 変換 -->
    <g transform="translate(149.841096 149.266396) scale(0.11 -0.11)">
     <defs>
      <path id="IPAPGothic-5909" d="M 2147 1253 
Q 1641 822 944 563 
L 672 900 
Q 1938 1391 2556 2394 
L 2972 2231 
Q 2847 2034 2747 1900 
L 4750 1900 
L 4969 1700 
Q 4422 984 3859 563 
Q 4650 241 6094 69 
L 5825 -366 
Q 4275 -125 3431 288 
Q 2441 -272 603 -538 
L 341 -134 
Q 2103 75 2997 538 
Q 2591 791 2184 1209 
L 2147 1253 
z
M 2434 1528 
L 2422 1516 
Q 2803 1106 3425 778 
Q 3888 1078 4269 1528 
L 2434 1528 
z
M 4059 4147 
L 4059 2650 
Q 4059 2272 3663 2272 
Q 3416 2272 3047 2309 
L 2963 2725 
Q 3241 2681 3431 2681 
Q 3631 2681 3631 2872 
L 3631 4147 
L 2822 4147 
Q 2766 3291 2503 2816 
Q 2191 2259 1503 1869 
L 1172 2156 
Q 1878 2572 2144 3066 
Q 2359 3456 2388 4147 
L 403 4147 
L 403 4544 
L 2938 4544 
L 2938 5294 
L 3419 5294 
L 3419 4544 
L 5997 4544 
L 5997 4147 
L 4059 4147 
z
M 5494 2363 
Q 4828 3150 4328 3584 
L 4672 3859 
Q 5266 3369 5878 2656 
L 5494 2363 
z
M 341 2528 
Q 1025 3022 1441 3775 
L 1844 3597 
Q 1406 2781 706 2241 
L 341 2528 
z
" transform="scale(0.015625)"/>
      <path id="IPAPGothic-63db" d="M 3869 3591 
Q 3850 3044 3722 2719 
Q 3588 2403 3225 2144 
L 2981 2431 
L 2981 1772 
L 2578 1772 
L 2578 3256 
Q 2425 3075 2219 2866 
L 1981 3206 
Q 2853 4097 3219 5306 
L 3634 5219 
Q 3591 5084 3513 4878 
L 4606 4878 
L 4844 4691 
Q 4644 4288 4428 3950 
L 5644 3950 
L 5644 1772 
L 5234 1772 
L 5234 2328 
L 4709 2328 
Q 4313 2328 4313 2663 
L 4313 3591 
L 3869 3591 
z
M 3494 3591 
L 2981 3591 
L 2981 2450 
Q 3300 2644 3403 2956 
Q 3475 3191 3494 3591 
z
M 3063 3950 
L 3991 3950 
Q 4200 4278 4300 4519 
L 3366 4519 
Q 3225 4222 3063 3950 
z
M 4697 3591 
L 4697 2828 
Q 4697 2688 4888 2688 
L 5234 2688 
L 5234 3591 
L 4697 3591 
z
M 4416 1191 
Q 4913 394 6103 59 
L 5803 -378 
Q 4528 150 4097 1038 
Q 3741 -91 2363 -472 
L 2081 -69 
Q 3422 150 3750 1191 
L 2113 1191 
L 2113 1563 
L 3828 1563 
L 3828 2119 
L 4256 2119 
L 4256 1563 
L 6041 1563 
L 6041 1191 
L 4416 1191 
z
M 1184 4019 
L 1184 5313 
L 1613 5313 
L 1613 4019 
L 2266 4019 
L 2266 3603 
L 1613 3603 
L 1613 2394 
Q 1903 2472 2266 2597 
L 2303 2241 
Q 2038 2119 1613 1978 
L 1613 6 
Q 1613 -272 1491 -363 
Q 1388 -447 1088 -447 
Q 759 -447 519 -403 
L 441 56 
Q 716 -6 972 -6 
Q 1184 -6 1184 172 
L 1184 1844 
L 1125 1825 
Q 694 1700 409 1625 
L 275 2059 
Q 769 2163 1184 2272 
L 1184 3603 
L 372 3603 
L 372 4019 
L 1184 4019 
z
" transform="scale(0.015625)"/>
     </defs>
     <use xlink:href="#IPAPGothic-5909"/>
     <use xlink:href="#IPAPGothic-63db" transform="translate(100 0)"/>
    </g>
   </g>
   <g id="text_5">
    <!-- A/D -->
    <g transform="translate(228.390875 137.288771) scale(0.11 -0.11)">
     <defs>
      <path id="IPAPGothic-41" d="M 4056 63 
L 3444 63 
L 2938 1409 
L 1100 1409 
L 603 63 
L -6 63 
L 1806 4666 
L 2259 4666 
L 4056 63 
z
M 2778 1863 
L 2316 3078 
Q 2125 3588 2028 4000 
L 2009 4000 
Q 1897 3563 1716 3078 
L 1263 1863 
L 2778 1863 
z
" transform="scale(0.015625)"/>
      <path id="IPAPGothic-2f" d="M 2719 4709 
L 600 -884 
L 300 -763 
L 2413 4831 
L 2719 4709 
z
" transform="scale(0.015625)"/>
      <path id="IPAPGothic-44" d="M 609 4634 
L 1984 4634 
Q 3159 4634 3791 4050 
Q 4456 3444 4456 2356 
Q 4456 1047 3516 441 
Q 2925 63 1941 63 
L 609 63 
L 609 4634 
z
M 1172 556 
L 1894 556 
Q 3853 556 3853 2356 
Q 3853 4147 1928 4147 
L 1172 4147 
L 1172 556 
z
" transform="scale(0.015625)"/>
     </defs>
     <use xlink:href="#IPAPGothic-41"/>
     <use xlink:href="#IPAPGothic-2f" transform="translate(63.720703 0)"/>
     <use xlink:href="#IPAPGothic-44" transform="translate(113.720703 0)"/>
    </g>
    <!-- 変換 -->
    <g transform="translate(227.808219 149.266396) scale(0.11 -0.11)">
     <use xlink:href="#IPAPGothic-5909"/>
     <use xlink:href="#IPAPGothic-63db" transform="translate(100 0)"/>
    </g>
   </g>
   <g id="text_6">
    <!-- コントローラ -->
    <g transform="translate(309.418699 119.322333) scale(0.11 -0.11)">
     <defs>
      <path id="IPAPGothic-30b3" d="M 666 4178 
L 4697 4178 
L 4697 122 
L 4184 122 
L 4184 563 
L 594 563 
L 594 1056 
L 4184 1056 
L 4184 3691 
L 666 3691 
L 666 4178 
z
" transform="scale(0.015625)"/>
      <path id="IPAPGothic-30c8" d="M 1131 4997 
L 1650 4997 
L 1650 3206 
Q 2934 2619 4063 1888 
L 3725 1369 
Q 2663 2178 1650 2688 
L 1650 -184 
L 1131 -184 
L 1131 4997 
z
" transform="scale(0.015625)"/>
      <path id="IPAPGothic-30ed" d="M 763 4256 
L 4866 4256 
L 4866 159 
L 4341 159 
L 4341 556 
L 1288 556 
L 1288 159 
L 763 159 
L 763 4256 
z
M 1288 3769 
L 1288 1050 
L 4341 1050 
L 4341 3769 
L 1288 3769 
z
" transform="scale(0.015625)"/>
      <path id="IPAPGothic-30fc" d="M 397 2688 
L 5619 2688 
L 5619 2175 
L 397 2175 
L 397 2688 
z
" transform="scale(0.015625)"/>
      <path id="IPAPGothic-30e9" d="M 934 4594 
L 4409 4594 
L 4409 4119 
L 934 4119 
L 934 4594 
z
M 384 3188 
L 4659 3188 
L 4966 2900 
Q 4556 1553 3706 759 
Q 2963 66 1794 -297 
L 1459 178 
Q 3638 669 4322 2713 
L 384 2713 
L 384 3188 
z
" transform="scale(0.015625)"/>
     </defs>
     <use xlink:href="#IPAPGothic-30b3"/>
     <use xlink:href="#IPAPGothic-30f3" transform="translate(85.009766 0)"/>
     <use xlink:href="#IPAPGothic-30c8" transform="translate(170.996094 0)"/>
     <use xlink:href="#IPAPGothic-30ed" transform="translate(241.992188 0)"/>
     <use xlink:href="#IPAPGothic-30fc" transform="translate(329.980469 0)"/>
     <use xlink:href="#IPAPGothic-30e9" transform="translate(423.974609 0)"/>
    </g>
    <!--  -->
    <g transform="translate(337.413699 131.299958) scale(0.11 -0.11)"/>
    <!-- 論理演算 -->
    <g transform="translate(315.413699 143.277583) scale(0.11 -0.11)">
     <defs>
      <path id="IPAPGothic-8ad6" d="M 2181 1684 
L 2181 -128 
L 894 -128 
L 894 -447 
L 484 -447 
L 484 1684 
L 2181 1684 
z
M 894 1313 
L 894 244 
L 1772 244 
L 1772 1313 
L 894 1313 
z
M 5063 3584 
L 5063 3250 
L 3334 3250 
L 3334 3566 
Q 3006 3200 2516 2828 
L 2222 3153 
Q 3372 3916 3847 5241 
L 4341 5241 
Q 5022 4022 6163 3300 
L 5888 2909 
Q 5466 3191 5063 3584 
z
M 3384 3622 
L 5025 3622 
Q 4466 4191 4116 4806 
Q 3853 4156 3384 3622 
z
M 5747 2778 
L 5747 6 
Q 5747 -397 5331 -397 
Q 5134 -397 4966 -372 
L 4909 63 
Q 5072 25 5203 25 
Q 5338 25 5338 206 
L 5338 1197 
L 4794 1197 
L 4794 -288 
L 4409 -288 
L 4409 1197 
L 3903 1197 
L 3903 -288 
L 3519 -288 
L 3519 1197 
L 3006 1197 
L 3006 -447 
L 2603 -447 
L 2603 2778 
L 5747 2778 
z
M 3006 2400 
L 3006 1550 
L 3519 1550 
L 3519 2400 
L 3006 2400 
z
M 5338 1550 
L 5338 2400 
L 4794 2400 
L 4794 1550 
L 5338 1550 
z
M 3903 2400 
L 3903 1550 
L 4409 1550 
L 4409 2400 
L 3903 2400 
z
M 569 5044 
L 2097 5044 
L 2097 4659 
L 569 4659 
L 569 5044 
z
M 313 4206 
L 2366 4206 
L 2366 3816 
L 313 3816 
L 313 4206 
z
M 569 3359 
L 2097 3359 
L 2097 2975 
L 569 2975 
L 569 3359 
z
M 569 2522 
L 2097 2522 
L 2097 2138 
L 569 2138 
L 569 2522 
z
" transform="scale(0.015625)"/>
      <path id="IPAPGothic-7406" d="M 1541 4397 
L 1541 3084 
L 2222 3084 
L 2222 2688 
L 1541 2688 
L 1541 1247 
Q 1916 1356 2400 1522 
L 2431 1144 
Q 1356 713 434 472 
L 263 909 
Q 759 1025 1113 1119 
L 1113 2688 
L 441 2688 
L 441 3084 
L 1113 3084 
L 1113 4397 
L 372 4397 
L 372 4800 
L 2350 4800 
L 2350 4397 
L 1541 4397 
z
M 5691 4991 
L 5691 2106 
L 4378 2106 
L 4378 1375 
L 5825 1375 
L 5825 984 
L 4378 984 
L 4378 206 
L 6081 206 
L 6081 -191 
L 2150 -191 
L 2150 206 
L 3944 206 
L 3944 984 
L 2559 984 
L 2559 1375 
L 3944 1375 
L 3944 2106 
L 2675 2106 
L 2675 4991 
L 5691 4991 
z
M 3091 4606 
L 3091 3750 
L 3956 3750 
L 3956 4606 
L 3091 4606 
z
M 3091 3378 
L 3091 2491 
L 3956 2491 
L 3956 3378 
L 3091 3378 
z
M 5275 2491 
L 5275 3378 
L 4366 3378 
L 4366 2491 
L 5275 2491 
z
M 5275 3750 
L 5275 4606 
L 4366 4606 
L 4366 3750 
L 5275 3750 
z
" transform="scale(0.015625)"/>
      <path id="IPAPGothic-6f14" d="M 4091 2869 
L 5600 2869 
L 5600 697 
L 2209 697 
L 2209 2869 
L 3675 2869 
L 3675 3353 
L 2522 3353 
L 2522 3725 
L 5356 3725 
L 5356 3353 
L 4091 3353 
L 4091 2869 
z
M 4091 2503 
L 4091 1972 
L 5172 1972 
L 5172 2503 
L 4091 2503 
z
M 4091 1625 
L 4091 1063 
L 5172 1063 
L 5172 1625 
L 4091 1625 
z
M 3675 1063 
L 3675 1625 
L 2638 1625 
L 2638 1063 
L 3675 1063 
z
M 3675 1972 
L 3675 2503 
L 2638 2503 
L 2638 1972 
L 3675 1972 
z
M 4109 4544 
L 5984 4544 
L 5984 3378 
L 5544 3378 
L 5544 4166 
L 2341 4166 
L 2341 3378 
L 1900 3378 
L 1900 4544 
L 3656 4544 
L 3656 5313 
L 4109 5313 
L 4109 4544 
z
M 1447 3878 
Q 1088 4347 556 4769 
L 859 5100 
Q 1366 4719 1766 4250 
L 1447 3878 
z
M 1288 2381 
Q 841 2906 378 3256 
L 678 3591 
Q 1113 3288 1606 2753 
L 1288 2381 
z
M 372 -72 
Q 934 834 1306 1906 
L 1672 1613 
Q 1306 519 750 -422 
L 372 -72 
z
M 5741 -441 
Q 5019 47 4225 397 
L 4578 684 
Q 5353 372 6100 -63 
L 5741 -441 
z
M 1653 -109 
Q 2553 178 3213 653 
L 3541 359 
Q 2819 -159 1984 -506 
L 1653 -109 
z
" transform="scale(0.015625)"/>
      <path id="IPAPGothic-7b97" d="M 2463 672 
Q 2319 -225 1031 -525 
L 753 -166 
Q 1416 -22 1728 213 
Q 1941 369 2009 672 
L 325 672 
L 325 1056 
L 2034 1056 
L 2034 1466 
L 1203 1466 
L 1203 3803 
L 3316 3803 
L 3019 4019 
Q 3441 4525 3694 5319 
L 4122 5222 
Q 4078 5091 3963 4794 
L 5988 4794 
L 5988 4422 
L 4691 4422 
Q 4788 4281 4953 3988 
L 4556 3809 
Q 4394 4153 4225 4422 
L 3791 4422 
Q 3606 4075 3372 3803 
L 5209 3803 
L 5209 1466 
L 4422 1466 
L 4422 1056 
L 6084 1056 
L 6084 672 
L 4441 672 
L 4441 -441 
L 3988 -441 
L 3988 672 
L 2463 672 
z
M 2488 1056 
L 3969 1056 
L 3969 1466 
L 2488 1466 
L 2488 1056 
z
M 4769 1797 
L 4769 2172 
L 1644 2172 
L 1644 1797 
L 4769 1797 
z
M 4769 2497 
L 4769 2819 
L 1644 2819 
L 1644 2497 
L 4769 2497 
z
M 4769 3144 
L 4769 3463 
L 1644 3463 
L 1644 3144 
L 4769 3144 
z
M 1472 4794 
L 3206 4794 
L 3206 4422 
L 2272 4422 
L 2478 3994 
L 2088 3806 
Q 1931 4200 1819 4422 
L 1281 4422 
Q 1025 3969 691 3616 
L 384 3878 
Q 941 4494 1241 5313 
L 1656 5203 
Q 1594 5053 1472 4794 
z
" transform="scale(0.015625)"/>
     </defs>
     <use xlink:href="#IPAPGothic-8ad6"/>
     <use xlink:href="#IPAPGothic-7406" transform="translate(100 0)"/>
     <use xlink:href="#IPAPGothic-6f14" transform="translate(200 0)"/>
     <use xlink:href="#IPAPGothic-7b97" transform="translate(300 0)"/>
    </g>
    <!-- 論理回路 -->
    <g transform="translate(315.413699 155.255208) scale(0.11 -0.11)">
     <defs>
      <path id="IPAPGothic-56de" d="M 4519 3647 
L 4519 1178 
L 1875 1178 
L 1875 3647 
L 4519 3647 
z
M 2328 3250 
L 2328 1575 
L 4066 1575 
L 4066 3250 
L 2328 3250 
z
M 5722 4891 
L 5722 -453 
L 5247 -453 
L 5247 -103 
L 1147 -103 
L 1147 -453 
L 672 -453 
L 672 4891 
L 5722 4891 
z
M 1147 4475 
L 1147 313 
L 5247 313 
L 5247 4475 
L 1147 4475 
z
" transform="scale(0.015625)"/>
      <path id="IPAPGothic-8def" d="M 5563 1941 
L 5563 -447 
L 5134 -447 
L 5134 -122 
L 3628 -122 
L 3628 -447 
L 3194 -447 
L 3194 1831 
Q 2938 1684 2791 1606 
L 2541 1916 
L 2541 1772 
L 1856 1772 
L 1856 488 
Q 1866 491 1897 497 
Q 1931 506 1953 513 
Q 2022 538 2188 591 
Q 2569 713 2803 794 
L 2828 409 
Q 1778 -3 466 -356 
L 288 78 
Q 338 88 459 116 
Q 547 138 594 147 
L 594 2516 
L 1003 2516 
L 1003 250 
L 1119 275 
Q 1213 300 1322 331 
Q 1441 363 1447 366 
L 1447 3047 
L 550 3047 
L 550 4984 
L 2566 4984 
L 2566 3047 
L 1856 3047 
L 1856 2150 
L 2541 2150 
L 2541 1978 
Q 3497 2422 4147 3091 
Q 3809 3469 3591 3841 
Q 3303 3375 2894 2975 
L 2616 3291 
Q 3463 4153 3738 5291 
L 4166 5175 
Q 4134 5072 4050 4806 
L 5378 4806 
L 5594 4625 
Q 5194 3719 4731 3144 
L 4697 3103 
Q 5353 2534 6184 2181 
L 5903 1747 
Q 5000 2259 4434 2797 
Q 3966 2319 3378 1941 
L 5563 1941 
z
M 3628 1556 
L 3628 263 
L 5134 263 
L 5134 1556 
L 3628 1556 
z
M 3897 4422 
L 3878 4378 
Q 3828 4263 3800 4209 
Q 4038 3784 4403 3394 
Q 4772 3859 5013 4422 
L 3897 4422 
z
M 966 4600 
L 966 3431 
L 2150 3431 
L 2150 4600 
L 966 4600 
z
" transform="scale(0.015625)"/>
     </defs>
     <use xlink:href="#IPAPGothic-8ad6"/>
     <use xlink:href="#IPAPGothic-7406" transform="translate(100 0)"/>
     <use xlink:href="#IPAPGothic-56de" transform="translate(200 0)"/>
     <use xlink:href="#IPAPGothic-8def" transform="translate(300 0)"/>
    </g>
    <!-- 回路作成 -->
    <g transform="translate(315.413699 167.232833) scale(0.11 -0.11)">
     <defs>
      <path id="IPAPGothic-4f5c" d="M 3609 3834 
L 3231 3834 
Q 2869 2822 2297 2038 
L 1963 2381 
Q 2797 3513 3153 5275 
L 3616 5184 
Q 3506 4656 3378 4256 
L 5984 4256 
L 5984 3834 
L 4078 3834 
L 4078 2906 
L 5678 2906 
L 5678 2484 
L 4078 2484 
L 4078 1563 
L 5775 1563 
L 5775 1147 
L 4078 1147 
L 4078 -447 
L 3609 -447 
L 3609 3834 
z
M 1734 3725 
L 1734 -447 
L 1275 -447 
L 1275 2797 
L 1250 2747 
Q 984 2284 647 1850 
L 372 2234 
Q 1309 3484 1747 5203 
L 2219 5084 
Q 2028 4406 1734 3725 
z
" transform="scale(0.015625)"/>
      <path id="IPAPGothic-6210" d="M 4322 1650 
Q 4809 2378 5153 3309 
L 5563 3116 
Q 5156 2053 4563 1200 
Q 4881 675 5247 384 
Q 5388 275 5441 275 
Q 5544 275 5638 1119 
L 6059 875 
Q 5916 -328 5550 -328 
Q 5394 -328 5141 -150 
Q 4644 203 4250 806 
Q 3656 97 2825 -431 
L 2497 -59 
Q 3338 434 4006 1228 
Q 3491 2241 3272 3738 
L 1347 3738 
L 1347 2847 
L 2944 2847 
Q 2897 1366 2809 953 
Q 2706 453 2191 453 
Q 1900 453 1563 509 
L 1513 978 
Q 1981 888 2153 888 
Q 2350 888 2388 1100 
Q 2453 1416 2491 2463 
L 1347 2463 
L 1347 2303 
Q 1347 606 609 -438 
L 256 -78 
Q 878 772 878 2316 
L 878 4153 
L 3213 4153 
Q 3156 4672 3119 5294 
L 3591 5294 
Q 3619 4719 3681 4184 
L 5959 4184 
L 5959 3769 
L 3738 3769 
L 3756 3641 
Q 3953 2413 4322 1650 
z
M 4934 4225 
Q 4597 4656 4300 4897 
L 4659 5172 
Q 5003 4916 5319 4506 
L 4934 4225 
z
" transform="scale(0.015625)"/>
     </defs>
     <use xlink:href="#IPAPGothic-56de"/>
     <use xlink:href="#IPAPGothic-8def" transform="translate(100 0)"/>
     <use xlink:href="#IPAPGothic-4f5c" transform="translate(200 0)"/>
     <use xlink:href="#IPAPGothic-6210" transform="translate(300 0)"/>
    </g>
   </g>
   <g id="text_7">
    <!-- D/A -->
    <g transform="translate(430.188136 137.288771) scale(0.11 -0.11)">
     <use xlink:href="#IPAPGothic-44"/>
     <use xlink:href="#IPAPGothic-2f" transform="translate(75.683594 0)"/>
     <use xlink:href="#IPAPGothic-41" transform="translate(125.683594 0)"/>
    </g>
    <!-- 変換 -->
    <g transform="translate(429.605479 149.266396) scale(0.11 -0.11)">
     <use xlink:href="#IPAPGothic-5909"/>
     <use xlink:href="#IPAPGothic-63db" transform="translate(100 0)"/>
    </g>
   </g>
   <g id="text_8">
    <!-- ドライバ -->
    <g transform="translate(500.202603 137.288771) scale(0.11 -0.11)">
     <defs>
      <path id="IPAPGothic-30c9" d="M 1131 4997 
L 1650 4997 
L 1650 3206 
Q 2934 2619 4063 1888 
L 3725 1369 
Q 2663 2178 1650 2688 
L 1650 -184 
L 1131 -184 
L 1131 4997 
z
M 3494 3463 
Q 3244 3916 2916 4300 
L 3256 4538 
Q 3522 4263 3863 3706 
L 3494 3463 
z
M 4234 3781 
Q 3944 4281 3634 4588 
L 3972 4819 
Q 4309 4513 4606 4031 
L 4234 3781 
z
" transform="scale(0.015625)"/>
      <path id="IPAPGothic-30a4" d="M 2634 -231 
L 2634 2872 
Q 1594 2088 609 1656 
L 284 2059 
Q 2519 3000 3972 4916 
L 4419 4641 
Q 3888 3938 3178 3316 
L 3178 -231 
L 2634 -231 
z
" transform="scale(0.015625)"/>
      <path id="IPAPGothic-30d0" d="M 331 928 
Q 1375 2097 1875 3909 
L 2400 3725 
Q 1841 1803 800 569 
L 331 928 
z
M 5344 703 
Q 4597 2303 3588 3750 
L 4050 3994 
Q 4953 2759 5859 1050 
L 5344 703 
z
M 5631 4116 
Q 5334 4606 5003 4947 
L 5363 5184 
Q 5709 4834 6022 4366 
L 5631 4116 
z
M 4941 3681 
Q 4628 4234 4338 4525 
L 4709 4750 
Q 5050 4416 5328 3938 
L 4941 3681 
z
" transform="scale(0.015625)"/>
     </defs>
     <use xlink:href="#IPAPGothic-30c9"/>
     <use xlink:href="#IPAPGothic-30e9" transform="translate(75 0)"/>
     <use xlink:href="#IPAPGothic-30a4" transform="translate(160.009766 0)"/>
     <use xlink:href="#IPAPGothic-30d0" transform="translate(235.986328 0)"/>
    </g>
    <!-- 回路 -->
    <g transform="translate(507.572603 149.266396) scale(0.11 -0.11)">
     <use xlink:href="#IPAPGothic-56de"/>
     <use xlink:href="#IPAPGothic-8def" transform="translate(100 0)"/>
    </g>
   </g>
   <g id="text_9">
    <!-- アクチュエータ -->
    <g transform="translate(576.293656 143.557115) scale(0.12 -0.12)">
     <defs>
      <path id="IPAPGothic-30a2" d="M 4878 4556 
L 5238 4197 
Q 4572 3022 3509 2188 
L 3138 2547 
Q 4009 3178 4572 4091 
L 341 4013 
L 341 4500 
L 4878 4556 
z
M 706 256 
Q 1809 813 2106 1688 
Q 2288 2197 2288 3628 
L 2803 3628 
Q 2794 1981 2550 1356 
Q 2188 431 1084 -153 
L 706 256 
z
" transform="scale(0.015625)"/>
      <path id="IPAPGothic-30af" d="M 4269 4191 
L 4609 3941 
Q 4044 1013 1453 -225 
L 1081 184 
Q 2263 675 3041 1625 
Q 3784 2531 4025 3731 
L 2203 3731 
Q 1609 2681 744 1959 
L 366 2309 
Q 1659 3353 2228 5022 
L 2722 4881 
Q 2659 4672 2441 4191 
L 4269 4191 
z
" transform="scale(0.015625)"/>
      <path id="IPAPGothic-30c1" d="M 2831 2853 
L 2831 3981 
Q 2106 3847 1275 3797 
L 1031 4238 
Q 2944 4344 4297 4872 
L 4653 4456 
Q 3991 4216 3350 4078 
L 3350 2913 
L 5550 2913 
L 5550 2459 
L 3344 2459 
Q 3306 1422 2934 850 
Q 2466 138 1481 -256 
L 1091 153 
Q 2063 500 2453 1081 
Q 2778 1563 2825 2400 
L 341 2400 
L 341 2853 
L 2831 2853 
z
" transform="scale(0.015625)"/>
      <path id="IPAPGothic-30e5" d="M 953 3297 
L 3609 3297 
Q 3550 2288 3375 869 
L 4616 869 
L 4616 422 
L 372 422 
L 372 869 
L 2875 869 
Q 3022 2066 3072 2856 
L 953 2856 
L 953 3297 
z
" transform="scale(0.015625)"/>
      <path id="IPAPGothic-30a8" d="M 853 4063 
L 5038 4063 
L 5038 3594 
L 3188 3594 
L 3188 988 
L 5503 988 
L 5503 513 
L 384 513 
L 384 988 
L 2656 988 
L 2656 3594 
L 853 3594 
L 853 4063 
z
" transform="scale(0.015625)"/>
      <path id="IPAPGothic-30bf" d="M 4403 4263 
L 4738 3988 
Q 4456 2575 3609 1459 
Q 2744 325 1375 -300 
L 1019 109 
Q 2256 609 3016 1513 
L 3034 1538 
L 3084 1600 
Q 2431 2372 1728 2888 
Q 1281 2297 725 1875 
L 378 2234 
Q 1719 3219 2247 5031 
L 2728 4897 
Q 2625 4538 2509 4263 
L 4403 4263 
z
M 2303 3809 
Q 2225 3644 1991 3266 
Q 2691 2753 3394 2003 
Q 3928 2825 4172 3809 
L 2303 3809 
z
" transform="scale(0.015625)"/>
     </defs>
     <use xlink:href="#IPAPGothic-30a2"/>
     <use xlink:href="#IPAPGothic-30af" transform="translate(87.011719 0)"/>
     <use xlink:href="#IPAPGothic-30c1" transform="translate(166.992188 0)"/>
     <use xlink:href="#IPAPGothic-30e5" transform="translate(258.984375 0)"/>
     <use xlink:href="#IPAPGothic-30a8" transform="translate(336.962891 0)"/>
     <use xlink:href="#IPAPGothic-30fc" transform="translate(428.955078 0)"/>
     <use xlink:href="#IPAPGothic-30bf" transform="translate(522.949219 0)"/>
    </g>
   </g>
   <g id="patch_13">
    <path d="M 108.09863 140.20274 
Q 119.564384 140.20274 129.688496 140.20274 
" style="fill: none; stroke: #000000; stroke-width: 1.2; stroke-linecap: round"/>
    <path d="M 125.688496 138.20274 
L 129.688496 140.20274 
L 125.688496 142.20274 
" style="fill: none; stroke: #000000; stroke-width: 1.2; stroke-linecap: round"/>
   </g>
   <g id="patch_14">
    <path d="M 190.652055 140.20274 
Q 199.824658 140.20274 207.655619 140.20274 
" style="fill: none; stroke: #000000; stroke-width: 1.2; stroke-linecap: round"/>
    <path d="M 203.655619 138.20274 
L 207.655619 140.20274 
L 203.655619 142.20274 
" style="fill: none; stroke: #000000; stroke-width: 1.2; stroke-linecap: round"/>
   </g>
   <g id="patch_15">
    <path d="M 268.619178 140.20274 
Q 280.084932 140.20274 290.209044 140.20274 
" style="fill: none; stroke: #000000; stroke-width: 1.2; stroke-linecap: round"/>
    <path d="M 286.209044 138.20274 
L 290.209044 140.20274 
L 286.209044 142.20274 
" style="fill: none; stroke: #000000; stroke-width: 1.2; stroke-linecap: round"/>
   </g>
   <g id="patch_16">
    <path d="M 383.276712 140.20274 
Q 397.035616 140.20274 409.45288 140.20274 
" style="fill: none; stroke: #000000; stroke-width: 1.2; stroke-linecap: round"/>
    <path d="M 405.45288 138.20274 
L 409.45288 140.20274 
L 405.45288 142.20274 
" style="fill: none; stroke: #000000; stroke-width: 1.2; stroke-linecap: round"/>
   </g>
   <g id="patch_17">
    <path d="M 470.416438 140.20274 
Q 479.589041 140.20274 487.420003 140.20274 
" style="fill: none; stroke: #000000; stroke-width: 1.2; stroke-linecap: round"/>
    <path d="M 483.420003 138.20274 
L 487.420003 140.20274 
L 483.420003 142.20274 
" style="fill: none; stroke: #000000; stroke-width: 1.2; stroke-linecap: round"/>
   </g>
   <g id="patch_18">
    <path d="M 548.383562 140.20274 
Q 559.849315 140.20274 569.973428 140.20274 
" style="fill: none; stroke: #000000; stroke-width: 1.2; stroke-linecap: round"/>
    <path d="M 565.973428 138.20274 
L 569.973428 140.20274 
L 565.973428 142.20274 
" style="fill: none; stroke: #000000; stroke-width: 1.2; stroke-linecap: round"/>
   </g>
   <g id="text_10">
    <!-- 入力 -->
    <g transform="translate(106.564384 124.150685) scale(0.13 -0.13)">
     <defs>
      <path id="IPAPGothic-5165" d="M 3278 3078 
Q 2809 619 822 -334 
L 450 91 
Q 2934 1156 3003 4550 
L 1475 4550 
L 1475 4984 
L 3528 4984 
L 3528 4728 
Q 3528 3053 4116 2041 
Q 4738 972 6022 275 
L 5653 -200 
Q 3697 1044 3278 3078 
z
" transform="scale(0.015625)"/>
      <path id="IPAPGothic-529b" d="M 3303 3944 
L 5650 3944 
Q 5622 1247 5428 356 
Q 5303 -231 4647 -231 
Q 4159 -231 3456 -147 
L 3378 416 
Q 4022 263 4453 263 
Q 4881 263 4947 616 
Q 5103 1509 5134 3303 
L 5141 3509 
L 3291 3509 
Q 3231 2200 2738 1281 
Q 2194 297 878 -416 
L 525 -6 
Q 2709 963 2778 3450 
L 641 3450 
L 641 3891 
L 2784 3891 
L 2784 5147 
L 3303 5147 
L 3303 3944 
z
" transform="scale(0.015625)"/>
     </defs>
     <use xlink:href="#IPAPGothic-5165"/>
     <use xlink:href="#IPAPGothic-529b" transform="translate(100 0)"/>
    </g>
   </g>
   <g id="text_11">
    <!-- 出力 -->
    <g transform="translate(466.589041 124.150685) scale(0.13 -0.13)">
     <defs>
      <path id="IPAPGothic-51fa" d="M 3419 2956 
L 4928 2956 
L 4928 4500 
L 5397 4500 
L 5397 2203 
L 4928 2203 
L 4928 2541 
L 3419 2541 
L 3419 384 
L 5194 384 
L 5194 1813 
L 5653 1813 
L 5653 -447 
L 5194 -447 
L 5194 -31 
L 1203 -31 
L 1203 -447 
L 744 -447 
L 744 1813 
L 1203 1813 
L 1203 384 
L 2938 384 
L 2938 2541 
L 1459 2541 
L 1459 2203 
L 1000 2203 
L 1000 4500 
L 1459 4500 
L 1459 2956 
L 2938 2956 
L 2938 5147 
L 3419 5147 
L 3419 2956 
z
" transform="scale(0.015625)"/>
     </defs>
     <use xlink:href="#IPAPGothic-51fa"/>
     <use xlink:href="#IPAPGothic-529b" transform="translate(100 0)"/>
    </g>
   </g>
   <g id="text_12">
    <!-- 目標値 -->
    <g transform="translate(161.893151 217.525449) scale(0.1 -0.1)">
     <defs>
      <path id="IPAPGothic-76ee" d="M 5266 4819 
L 5266 -384 
L 4791 -384 
L 4791 38 
L 1600 38 
L 1600 -384 
L 1125 -384 
L 1125 4819 
L 5266 4819 
z
M 1600 4416 
L 1600 3384 
L 4791 3384 
L 4791 4416 
L 1600 4416 
z
M 1600 2988 
L 1600 1966 
L 4791 1966 
L 4791 2988 
L 1600 2988 
z
M 1600 1563 
L 1600 447 
L 4791 447 
L 4791 1563 
L 1600 1563 
z
" transform="scale(0.015625)"/>
      <path id="IPAPGothic-6a19" d="M 1113 2534 
Q 813 1522 384 794 
L 153 1250 
Q 763 2228 1063 3547 
L 294 3547 
L 294 3956 
L 1113 3956 
L 1113 5306 
L 1522 5306 
L 1522 3956 
L 2144 3956 
L 2144 3547 
L 1522 3547 
L 1522 3009 
Q 1991 2634 2309 2288 
L 2059 1844 
Q 1813 2222 1522 2550 
L 1522 -447 
L 1113 -447 
L 1113 2534 
z
M 3353 4109 
L 3353 4641 
L 2100 4641 
L 2100 5019 
L 5997 5019 
L 5997 4641 
L 4756 4641 
L 4756 4109 
L 5778 4109 
L 5778 2769 
L 2356 2769 
L 2356 4109 
L 3353 4109 
z
M 3756 4109 
L 4350 4109 
L 4350 4641 
L 3756 4641 
L 3756 4109 
z
M 3359 3756 
L 2772 3756 
L 2772 3122 
L 3359 3122 
L 3359 3756 
z
M 3756 3756 
L 3756 3122 
L 4350 3122 
L 4350 3756 
L 3756 3756 
z
M 4741 3756 
L 4741 3122 
L 5363 3122 
L 5363 3756 
L 4741 3756 
z
M 4300 1191 
L 4300 19 
Q 4300 -409 3809 -409 
Q 3469 -409 3175 -372 
L 3097 78 
Q 3416 0 3675 0 
Q 3866 0 3866 184 
L 3866 1191 
L 2100 1191 
L 2100 1563 
L 6072 1563 
L 6072 1191 
L 4300 1191 
z
M 2481 2350 
L 5669 2350 
L 5669 1984 
L 2481 1984 
L 2481 2350 
z
M 1938 13 
Q 2534 406 2938 1069 
L 3322 891 
Q 2903 150 2272 -306 
L 1938 13 
z
M 5722 -191 
Q 5166 459 4666 838 
L 4978 1088 
Q 5572 681 6094 134 
L 5722 -191 
z
" transform="scale(0.015625)"/>
      <path id="IPAPGothic-5024" d="M 4172 3675 
L 5453 3675 
L 5453 684 
L 3019 684 
L 3019 3675 
L 3747 3675 
Q 3788 3884 3825 4153 
L 2144 4153 
L 2144 4544 
L 3881 4544 
Q 3922 4841 3966 5325 
L 4434 5272 
L 4391 4953 
Q 4331 4578 4331 4544 
L 5863 4544 
L 5863 4153 
L 4269 4153 
Q 4200 3781 4172 3675 
z
M 5038 3316 
L 3434 3316 
L 3434 2803 
L 5038 2803 
L 5038 3316 
z
M 3434 2450 
L 3434 1941 
L 5038 1941 
L 5038 2450 
L 3434 2450 
z
M 3434 1588 
L 3434 1044 
L 5038 1044 
L 5038 1588 
L 3434 1588 
z
M 1509 3669 
L 1509 -447 
L 1069 -447 
L 1069 2728 
Q 856 2338 531 1875 
L 288 2266 
Q 1163 3534 1541 5325 
L 1975 5225 
Q 1791 4378 1509 3669 
z
M 2488 244 
L 6034 244 
L 6034 -153 
L 2488 -153 
L 2488 -447 
L 2059 -447 
L 2059 3213 
L 2488 3213 
L 2488 244 
z
" transform="scale(0.015625)"/>
     </defs>
     <use xlink:href="#IPAPGothic-76ee"/>
     <use xlink:href="#IPAPGothic-6a19" transform="translate(100 0)"/>
     <use xlink:href="#IPAPGothic-5024" transform="translate(200 0)"/>
    </g>
   </g>
   <g id="patch_19">
    <path d="M 208.99726 214.500822 
Q 250.273973 197.990137 290.305003 181.977725 
" style="fill: none; stroke: #000000; stroke-width: 1.2; stroke-linecap: round"/>
    <path d="M 285.848315 181.606334 
L 290.305003 181.977725 
L 287.333877 185.320241 
" style="fill: none; stroke: #000000; stroke-width: 1.2; stroke-linecap: round"/>
   </g>
   <g id="text_13">
    <!-- フィードバック制御 -->
    <g transform="translate(189.966345 253.348816) scale(0.11 -0.11)">
     <defs>
      <path id="IPAPGothic-30d5" d="M 4391 4294 
L 4688 4019 
Q 4244 894 1391 -97 
L 1025 353 
Q 3659 1156 4109 3822 
L 469 3756 
L 469 4244 
L 4391 4294 
z
" transform="scale(0.015625)"/>
      <path id="IPAPGothic-30a3" d="M 2203 -231 
L 2203 2188 
Q 1513 1656 684 1291 
L 359 1669 
Q 2150 2428 3297 3922 
L 3688 3634 
Q 3306 3122 2703 2597 
L 2703 -231 
L 2203 -231 
z
" transform="scale(0.015625)"/>
      <path id="IPAPGothic-30c3" d="M 878 1984 
Q 656 2666 378 3175 
L 819 3391 
Q 1138 2866 1350 2209 
L 878 1984 
z
M 2106 2297 
Q 1916 2978 1625 3469 
L 2081 3681 
Q 2394 3166 2588 2522 
L 2106 2297 
z
M 1031 372 
Q 2197 744 2834 1569 
Q 3378 2263 3572 3525 
L 4078 3406 
Q 3838 1975 3119 1119 
Q 2509 391 1369 -44 
L 1031 372 
z
" transform="scale(0.015625)"/>
     </defs>
     <use xlink:href="#IPAPGothic-30d5"/>
     <use xlink:href="#IPAPGothic-30a3" transform="translate(79.980469 0)"/>
     <use xlink:href="#IPAPGothic-30fc" transform="translate(144.970703 0)"/>
     <use xlink:href="#IPAPGothic-30c9" transform="translate(238.964844 0)"/>
     <use xlink:href="#IPAPGothic-30d0" transform="translate(313.964844 0)"/>
     <use xlink:href="#IPAPGothic-30c3" transform="translate(411.962891 0)"/>
     <use xlink:href="#IPAPGothic-30af" transform="translate(482.958984 0)"/>
     <use xlink:href="#IPAPGothic-5236" transform="translate(562.939453 0)"/>
     <use xlink:href="#IPAPGothic-5fa1" transform="translate(662.939453 0)"/>
    </g>
   </g>
   <g id="patch_20">
    <path d="M 53.063014 172.306849 
Q 53.063014 166.573973 53.063014 162.182737 
" style="fill: none; stroke: #000000; stroke-width: 1.2; stroke-linecap: round"/>
    <path d="M 51.063014 166.182737 
L 53.063014 162.182737 
L 55.063014 166.182737 
" style="fill: none; stroke: #000000; stroke-width: 1.2; stroke-linecap: round"/>
   </g>
  </g>
 </g>
 <defs>
  <clipPath id="p9c99a47b4a">
   <rect x="7.2" y="7.2" width="669.6" height="270.591781"/>
  </clipPath>
 </defs>
</svg>
