<?xml version="1.0" encoding="utf-8" standalone="no"?>
<!DOCTYPE svg PUBLIC "-//W3C//DTD SVG 1.1//EN"
  "http://www.w3.org/Graphics/SVG/1.1/DTD/svg11.dtd">
<svg xmlns:xlink="http://www.w3.org/1999/xlink" width="628.2pt" height="295.959633pt" viewBox="0 0 628.2 295.959633" xmlns="http://www.w3.org/2000/svg" version="1.1">
 <metadata>
  <rdf:RDF xmlns:dc="http://purl.org/dc/elements/1.1/" xmlns:cc="http://creativecommons.org/ns#" xmlns:rdf="http://www.w3.org/1999/02/22-rdf-syntax-ns#">
   <cc:Work>
    <dc:type rdf:resource="http://purl.org/dc/dcmitype/StillImage"/>
    <dc:date>2026-06-24T01:01:54.157440</dc:date>
    <dc:format>image/svg+xml</dc:format>
    <dc:creator>
     <cc:Agent>
      <dc:title>Matplotlib v3.10.0, https://matplotlib.org/</dc:title>
     </cc:Agent>
    </dc:creator>
   </cc:Work>
  </rdf:RDF>
 </metadata>
 <defs>
  <style type="text/css">*{stroke-linejoin: round; stroke-linecap: butt}</style>
 </defs>
 <g id="figure_1">
  <g id="patch_1">
   <path d="M 0 295.959633 
L 628.2 295.959633 
L 628.2 0 
L 0 0 
z
" style="fill: #ffffff"/>
  </g>
  <g id="axes_1">
   <g id="patch_2">
    <path d="M 20.714862 138.969908 
L 80.968624 138.969908 
Q 85.473578 138.969908 85.473578 134.464954 
L 85.473578 74.211193 
Q 85.473578 69.706239 80.968624 69.706239 
L 20.714862 69.706239 
Q 16.209908 69.706239 16.209908 74.211193 
L 16.209908 134.464954 
Q 16.209908 138.969908 20.714862 138.969908 
z
" clip-path="url(#p30b61b0ce8)" style="fill: #ffffff; stroke: #000000; stroke-width: 1.3; stroke-linejoin: miter"/>
   </g>
   <g id="patch_3">
    <path d="M 18.462385 92.794128 
L 83.221101 92.794128 
L 83.221101 71.958716 
L 18.462385 71.958716 
z
" clip-path="url(#p30b61b0ce8)" style="fill: #ffffff; stroke: #000000; stroke-width: 1.2; stroke-linejoin: miter"/>
   </g>
   <g id="patch_4">
    <path d="M 122.07633 138.969908 
L 182.330092 138.969908 
Q 186.835046 138.969908 186.835046 134.464954 
L 186.835046 74.211193 
Q 186.835046 69.706239 182.330092 69.706239 
L 122.07633 69.706239 
Q 117.571376 69.706239 117.571376 74.211193 
L 117.571376 134.464954 
Q 117.571376 138.969908 122.07633 138.969908 
z
" clip-path="url(#p30b61b0ce8)" style="fill: #ffffff; stroke: #000000; stroke-width: 1.3; stroke-linejoin: miter"/>
   </g>
   <g id="patch_5">
    <path d="M 119.823853 92.794128 
L 184.582569 92.794128 
L 184.582569 71.958716 
L 119.823853 71.958716 
z
" clip-path="url(#p30b61b0ce8)" style="fill: #ffffff; stroke: #000000; stroke-width: 1.2; stroke-linejoin: miter"/>
   </g>
   <g id="patch_6">
    <path d="M 223.437798 138.969908 
L 283.69156 138.969908 
Q 288.196514 138.969908 288.196514 134.464954 
L 288.196514 74.211193 
Q 288.196514 69.706239 283.69156 69.706239 
L 223.437798 69.706239 
Q 218.932844 69.706239 218.932844 74.211193 
L 218.932844 134.464954 
Q 218.932844 138.969908 223.437798 138.969908 
z
" clip-path="url(#p30b61b0ce8)" style="fill: #ffffff; stroke: #000000; stroke-width: 1.3; stroke-linejoin: miter"/>
   </g>
   <g id="patch_7">
    <path d="M 221.185321 92.794128 
L 285.944037 92.794128 
L 285.944037 71.958716 
L 221.185321 71.958716 
z
" clip-path="url(#p30b61b0ce8)" style="fill: #ffffff; stroke: #000000; stroke-width: 1.2; stroke-linejoin: miter"/>
   </g>
   <g id="patch_8">
    <path d="M 324.799266 138.969908 
L 385.053028 138.969908 
Q 389.557982 138.969908 389.557982 134.464954 
L 389.557982 74.211193 
Q 389.557982 69.706239 385.053028 69.706239 
L 324.799266 69.706239 
Q 320.294312 69.706239 320.294312 74.211193 
L 320.294312 134.464954 
Q 320.294312 138.969908 324.799266 138.969908 
z
" clip-path="url(#p30b61b0ce8)" style="fill: #ffffff; stroke: #000000; stroke-width: 1.3; stroke-linejoin: miter"/>
   </g>
   <g id="patch_9">
    <path d="M 322.546789 92.794128 
L 387.305505 92.794128 
L 387.305505 71.958716 
L 322.546789 71.958716 
z
" clip-path="url(#p30b61b0ce8)" style="fill: #ffffff; stroke: #000000; stroke-width: 1.2; stroke-linejoin: miter"/>
   </g>
   <g id="patch_10">
    <path d="M 426.160734 138.969908 
L 486.414495 138.969908 
Q 490.91945 138.969908 490.91945 134.464954 
L 490.91945 74.211193 
Q 490.91945 69.706239 486.414495 69.706239 
L 426.160734 69.706239 
Q 421.65578 69.706239 421.65578 74.211193 
L 421.65578 134.464954 
Q 421.65578 138.969908 426.160734 138.969908 
z
" clip-path="url(#p30b61b0ce8)" style="fill: #ffffff; stroke: #000000; stroke-width: 1.3; stroke-linejoin: miter"/>
   </g>
   <g id="patch_11">
    <path d="M 423.908257 92.794128 
L 488.666972 92.794128 
L 488.666972 71.958716 
L 423.908257 71.958716 
z
" clip-path="url(#p30b61b0ce8)" style="fill: #ffffff; stroke: #000000; stroke-width: 1.2; stroke-linejoin: miter"/>
   </g>
   <g id="patch_12">
    <path d="M 527.522202 138.969908 
L 587.775963 138.969908 
Q 592.280917 138.969908 592.280917 134.464954 
L 592.280917 74.211193 
Q 592.280917 69.706239 587.775963 69.706239 
L 527.522202 69.706239 
Q 523.017248 69.706239 523.017248 74.211193 
L 523.017248 134.464954 
Q 523.017248 138.969908 527.522202 138.969908 
z
" clip-path="url(#p30b61b0ce8)" style="fill: #ffffff; stroke: #000000; stroke-width: 1.3; stroke-linejoin: miter"/>
   </g>
   <g id="patch_13">
    <path d="M 525.269725 92.794128 
L 590.02844 92.794128 
L 590.02844 71.958716 
L 525.269725 71.958716 
z
" clip-path="url(#p30b61b0ce8)" style="fill: #ffffff; stroke: #000000; stroke-width: 1.2; stroke-linejoin: miter"/>
   </g>
   <g id="patch_14">
    <path d="M 318.041835 155.300367 
L 594.533394 155.300367 
Q 608.611376 155.300367 608.611376 141.222385 
L 608.611376 67.453761 
Q 608.611376 53.37578 594.533394 53.37578 
L 318.041835 53.37578 
Q 303.963853 53.37578 303.963853 67.453761 
L 303.963853 141.222385 
Q 303.963853 155.300367 318.041835 155.300367 
L 318.041835 155.300367 
z
" clip-path="url(#p30b61b0ce8)" style="fill: none; stroke: #000000; stroke-width: 1.8; stroke-linejoin: miter"/>
   </g>
   <g id="line2d_1">
    <path d="M 18.462385 165.999633 
L 18.462385 176.13578 
L 285.944037 176.13578 
L 285.944037 165.999633 
" clip-path="url(#p30b61b0ce8)" style="fill: none; stroke: #000000; stroke-width: 1.3; stroke-linecap: square"/>
   </g>
   <g id="line2d_2">
    <path d="M 221.185321 208.233578 
L 221.185321 218.369725 
L 488.666972 218.369725 
L 488.666972 208.233578 
" clip-path="url(#p30b61b0ce8)" style="fill: none; stroke: #000000; stroke-width: 1.3; stroke-linecap: square"/>
   </g>
   <g id="line2d_3">
    <path d="M 322.546789 250.467523 
L 322.546789 260.60367 
L 590.02844 260.60367 
L 590.02844 250.467523 
" clip-path="url(#p30b61b0ce8)" style="fill: none; stroke: #000000; stroke-width: 1.3; stroke-linecap: square"/>
   </g>
   <g id="text_1">
    <!-- WT-MACS -->
    <g transform="translate(18.462385 26.909174) scale(0.24 -0.24)">
     <defs>
      <path id="IPAPGothic-57" d="M 5888 4634 
L 4466 0 
L 4038 0 
L 3219 2756 
Q 3084 3209 2981 3738 
L 2963 3738 
Q 2866 3284 2713 2756 
L 1888 0 
L 1453 0 
L 44 4634 
L 672 4634 
L 1406 2041 
Q 1569 1444 1694 928 
L 1716 928 
Q 1819 1406 2003 2041 
L 2725 4556 
L 3213 4556 
L 3972 2041 
Q 4128 1541 4269 922 
L 4288 922 
Q 4441 1603 4563 2041 
L 5291 4634 
L 5888 4634 
z
" transform="scale(0.015625)"/>
      <path id="IPAPGothic-54" d="M 3866 4141 
L 2175 4141 
L 2175 63 
L 1606 63 
L 1606 4141 
L -31 4141 
L -31 4634 
L 3866 4634 
L 3866 4141 
z
" transform="scale(0.015625)"/>
      <path id="IPAPGothic-2d" d="M 1969 1703 
L 319 1703 
L 319 2203 
L 1969 2203 
L 1969 1703 
z
" transform="scale(0.015625)"/>
      <path id="IPAPGothic-4d" d="M 5147 63 
L 4597 63 
L 4597 2534 
Q 4597 3281 4634 4134 
L 4609 4134 
Q 4359 3413 4066 2675 
L 3066 213 
L 2650 213 
L 1641 2728 
Q 1328 3509 1128 4141 
L 1103 4141 
Q 1141 3134 1141 2553 
L 1141 63 
L 609 63 
L 609 4634 
L 1416 4634 
L 2503 1947 
Q 2697 1475 2869 909 
L 2888 909 
Q 3028 1419 3234 1934 
L 4316 4634 
L 5147 4634 
L 5147 63 
z
" transform="scale(0.015625)"/>
      <path id="IPAPGothic-41" d="M 4056 63 
L 3444 63 
L 2938 1409 
L 1100 1409 
L 603 63 
L -6 63 
L 1806 4666 
L 2259 4666 
L 4056 63 
z
M 2778 1863 
L 2316 3078 
Q 2125 3588 2028 4000 
L 2009 4000 
Q 1897 3563 1716 3078 
L 1263 1863 
L 2778 1863 
z
" transform="scale(0.015625)"/>
      <path id="IPAPGothic-43" d="M 4353 1088 
Q 4181 694 3859 428 
Q 3313 -31 2559 -31 
Q 1588 -31 959 653 
Q 378 1294 378 2331 
Q 378 3406 1013 4078 
Q 1619 4725 2534 4725 
Q 3813 4725 4322 3628 
L 3809 3391 
Q 3425 4238 2541 4238 
Q 1891 4238 1453 3744 
Q 994 3216 994 2322 
Q 994 1550 1384 1056 
Q 1841 472 2563 472 
Q 3456 472 3878 1319 
L 4353 1088 
z
" transform="scale(0.015625)"/>
      <path id="IPAPGothic-53" d="M 2919 3641 
Q 2563 4256 1853 4256 
Q 1453 4256 1213 4006 
Q 1028 3800 1028 3531 
Q 1028 3234 1266 3047 
Q 1441 2913 1984 2688 
L 2200 2597 
Q 2925 2306 3191 1953 
Q 3422 1644 3422 1259 
Q 3422 644 2969 288 
Q 2559 -31 1931 -31 
Q 881 -31 313 766 
L 753 1100 
Q 1203 459 1938 459 
Q 2288 459 2534 625 
Q 2841 847 2841 1216 
Q 2841 1503 2616 1728 
Q 2375 1959 1728 2206 
L 1541 2278 
Q 453 2694 453 3481 
Q 453 4003 806 4347 
Q 1203 4725 1863 4725 
Q 2841 4725 3359 3956 
L 2919 3641 
z
" transform="scale(0.015625)"/>
     </defs>
     <use xlink:href="#IPAPGothic-57"/>
     <use xlink:href="#IPAPGothic-54" transform="translate(92.822266 0)"/>
     <use xlink:href="#IPAPGothic-2d" transform="translate(152.734375 0)"/>
     <use xlink:href="#IPAPGothic-4d" transform="translate(188.525391 0)"/>
     <use xlink:href="#IPAPGothic-41" transform="translate(278.710938 0)"/>
     <use xlink:href="#IPAPGothic-43" transform="translate(342.431641 0)"/>
     <use xlink:href="#IPAPGothic-53" transform="translate(414.941406 0)"/>
    </g>
   </g>
   <g id="text_2">
    <!-- 開発課題の守備範囲 -->
    <g transform="translate(18.462385 49.433945) scale(0.17 -0.17)">
     <defs>
      <path id="IPAPGothic-958b" d="M 2913 5013 
L 2913 3097 
L 1063 3097 
L 1063 -447 
L 609 -447 
L 609 5013 
L 2913 5013 
z
M 1063 4653 
L 1063 4225 
L 2491 4225 
L 2491 4653 
L 1063 4653 
z
M 1063 3900 
L 1063 3444 
L 2491 3444 
L 2491 3900 
L 1063 3900 
z
M 5781 5013 
L 5781 78 
Q 5781 -231 5647 -325 
Q 5538 -409 5238 -409 
Q 4809 -409 4488 -366 
L 4425 103 
Q 4791 38 5122 38 
Q 5328 38 5328 238 
L 5328 3097 
L 3438 3097 
L 3438 5013 
L 5781 5013 
z
M 3853 4653 
L 3853 4225 
L 5328 4225 
L 5328 4653 
L 3853 4653 
z
M 3853 3900 
L 3853 3444 
L 5328 3444 
L 5328 3900 
L 3853 3900 
z
M 4028 2266 
L 4028 1556 
L 5000 1556 
L 5000 1184 
L 4047 1184 
L 4047 -159 
L 3625 -159 
L 3625 1184 
L 2809 1184 
Q 2731 156 1850 -313 
L 1550 13 
Q 2319 347 2388 1184 
L 1403 1184 
L 1403 1556 
L 2394 1556 
L 2394 2266 
L 1594 2266 
L 1594 2619 
L 4800 2619 
L 4800 2266 
L 4028 2266 
z
M 3606 1556 
L 3606 2266 
L 2816 2266 
L 2816 1556 
L 3606 1556 
z
" transform="scale(0.015625)"/>
      <path id="IPAPGothic-767a" d="M 4719 3638 
Q 5159 4016 5453 4391 
L 5831 4122 
Q 5409 3700 5038 3413 
Q 5500 3116 6106 2856 
L 5800 2456 
Q 5231 2738 4706 3113 
L 4706 2772 
L 4106 2772 
L 4106 1919 
L 5756 1919 
L 5756 1522 
L 4106 1522 
L 4106 359 
Q 4106 159 4206 131 
Q 4313 94 4681 94 
Q 5256 94 5353 191 
Q 5444 284 5472 766 
Q 5472 863 5481 900 
L 5928 741 
Q 5900 25 5741 -141 
Q 5572 -341 4647 -341 
Q 4084 -341 3900 -256 
Q 3653 -150 3653 213 
L 3653 1522 
L 2728 1522 
Q 2572 34 713 -475 
L 469 -63 
Q 2128 347 2272 1522 
L 644 1522 
L 644 1919 
L 2294 1919 
L 2294 2772 
L 1781 2772 
L 1781 3009 
Q 1266 2647 584 2316 
L 291 2700 
Q 1047 2991 1666 3444 
Q 1269 3850 866 4134 
L 1191 4425 
Q 1700 4003 1991 3713 
Q 2438 4100 2766 4616 
L 1288 4616 
L 1288 5006 
L 3459 5006 
Q 3728 4566 4028 4244 
Q 4425 4584 4738 4988 
L 5109 4719 
Q 4747 4328 4297 3981 
Q 4506 3781 4719 3638 
z
M 3653 2772 
L 2741 2772 
L 2741 1919 
L 3653 1919 
L 3653 2772 
z
M 1978 3156 
L 4641 3156 
Q 3759 3794 3241 4544 
Q 2769 3769 1978 3156 
z
" transform="scale(0.015625)"/>
      <path id="IPAPGothic-8ab2" d="M 4644 1669 
Q 5250 863 6181 347 
L 5894 -44 
Q 4994 538 4509 1309 
L 4509 -447 
L 4100 -447 
L 4100 1253 
Q 3634 447 2769 -166 
L 2463 213 
Q 3403 719 3978 1669 
L 2591 1669 
L 2591 2053 
L 4100 2053 
L 4100 2622 
L 2872 2622 
L 2872 5013 
L 5766 5013 
L 5766 2622 
L 4509 2622 
L 4509 2053 
L 6047 2053 
L 6047 1669 
L 4644 1669 
z
M 3275 4653 
L 3275 4013 
L 4100 4013 
L 4100 4653 
L 3275 4653 
z
M 3275 3659 
L 3275 2981 
L 4100 2981 
L 4100 3659 
L 3275 3659 
z
M 5363 2981 
L 5363 3659 
L 4509 3659 
L 4509 2981 
L 5363 2981 
z
M 5363 4013 
L 5363 4653 
L 4509 4653 
L 4509 4013 
L 5363 4013 
z
M 2303 1684 
L 2303 -128 
L 925 -128 
L 925 -447 
L 516 -447 
L 516 1684 
L 2303 1684 
z
M 925 1313 
L 925 244 
L 1894 244 
L 1894 1313 
L 925 1313 
z
M 606 5044 
L 2213 5044 
L 2213 4659 
L 606 4659 
L 606 5044 
z
M 331 4206 
L 2525 4206 
L 2525 3816 
L 331 3816 
L 331 4206 
z
M 606 3359 
L 2213 3359 
L 2213 2975 
L 606 2975 
L 606 3359 
z
M 606 2522 
L 2213 2522 
L 2213 2138 
L 606 2138 
L 606 2522 
z
" transform="scale(0.015625)"/>
      <path id="IPAPGothic-984c" d="M 2056 300 
Q 2556 63 3925 63 
Q 4722 63 6159 141 
Q 6063 -128 6038 -325 
Q 4956 -366 4322 -366 
Q 2678 -366 2100 -169 
Q 1500 34 1038 697 
Q 850 -3 547 -494 
L 206 -153 
Q 734 700 841 1963 
L 1244 1881 
Q 1203 1506 1147 1150 
Q 1350 809 1647 563 
L 1647 2309 
L 322 2309 
L 322 2688 
L 3222 2688 
L 3222 2309 
L 2056 2309 
L 2056 1619 
L 3053 1619 
L 3053 1234 
L 2056 1234 
L 2056 300 
z
M 4575 4122 
L 5734 4122 
L 5734 1269 
L 3431 1269 
L 3431 4122 
L 4184 4122 
Q 4269 4400 4313 4716 
L 3125 4716 
L 3125 5088 
L 5984 5088 
L 5984 4716 
L 4756 4716 
Q 4659 4353 4575 4122 
z
M 5331 3769 
L 3834 3769 
L 3834 3284 
L 5331 3284 
L 5331 3769 
z
M 3834 2959 
L 3834 2472 
L 5331 2472 
L 5331 2959 
L 3834 2959 
z
M 3834 2147 
L 3834 1628 
L 5331 1628 
L 5331 2147 
L 3834 2147 
z
M 2894 5088 
L 2894 3103 
L 653 3103 
L 653 5088 
L 2894 5088 
z
M 1056 4728 
L 1056 4269 
L 2491 4269 
L 2491 4728 
L 1056 4728 
z
M 1056 3928 
L 1056 3450 
L 2491 3450 
L 2491 3928 
L 1056 3928 
z
M 2925 481 
Q 3553 809 3931 1222 
L 4275 997 
Q 3825 481 3241 159 
L 2925 481 
z
M 5734 225 
Q 5366 594 4781 978 
L 5050 1241 
Q 5641 891 6056 550 
L 5734 225 
z
" transform="scale(0.015625)"/>
      <path id="IPAPGothic-306e" d="M 2991 469 
Q 5147 766 5147 2425 
Q 5147 3453 4284 3922 
Q 3913 4113 3419 4159 
Q 3266 2525 2722 1400 
Q 2194 306 1594 306 
Q 1256 306 956 666 
Q 481 1244 481 2003 
Q 481 3025 1269 3794 
Q 2056 4563 3303 4563 
Q 4178 4563 4800 4122 
Q 5684 3506 5684 2425 
Q 5684 438 3303 6 
L 2991 469 
z
M 2925 4147 
Q 2250 4044 1763 3641 
Q 969 2981 969 1991 
Q 969 1366 1306 978 
Q 1453 813 1591 813 
Q 1894 813 2288 1625 
Q 2781 2638 2925 4147 
z
" transform="scale(0.015625)"/>
      <path id="IPAPGothic-5b88" d="M 3419 4434 
L 5747 4434 
L 5747 3072 
L 5272 3072 
L 5272 4025 
L 1122 4025 
L 1122 3072 
L 647 3072 
L 647 4434 
L 2931 4434 
L 2931 5313 
L 3419 5313 
L 3419 4434 
z
M 4050 2675 
L 4050 3706 
L 4538 3706 
L 4538 2675 
L 6009 2675 
L 6009 2253 
L 4563 2253 
L 4563 153 
Q 4563 -184 4378 -300 
Q 4234 -397 3872 -397 
Q 3331 -397 2822 -353 
L 2731 159 
Q 3375 56 3859 56 
Q 4075 56 4075 288 
L 4075 2253 
L 378 2253 
L 378 2675 
L 4050 2675 
z
M 2197 453 
Q 1778 1272 1356 1766 
L 1772 2034 
Q 2291 1384 2644 763 
L 2197 453 
z
" transform="scale(0.015625)"/>
      <path id="IPAPGothic-5099" d="M 1394 3719 
L 1394 -447 
L 966 -447 
L 966 2703 
Q 750 2275 478 1869 
L 244 2272 
Q 1044 3538 1388 5319 
L 1816 5209 
Q 1638 4391 1394 3719 
z
M 2991 4538 
L 2991 5313 
L 3419 5313 
L 3419 4538 
L 4384 4538 
L 4384 5313 
L 4813 5313 
L 4813 4538 
L 5819 4538 
L 5819 4178 
L 4813 4178 
L 4813 3541 
L 6050 3541 
L 6050 3181 
L 2369 3181 
L 2369 2528 
Q 2369 1313 2228 666 
Q 2097 75 1794 -397 
L 1447 -81 
Q 1775 428 1869 1153 
Q 1941 1706 1941 2553 
L 1941 3541 
L 2991 3541 
L 2991 4178 
L 2034 4178 
L 2034 4538 
L 2991 4538 
z
M 4384 4178 
L 3419 4178 
L 3419 3541 
L 4384 3541 
L 4384 4178 
z
M 5653 2731 
L 5653 -19 
Q 5653 -409 5238 -409 
Q 4953 -409 4731 -384 
L 4669 31 
Q 4856 -13 5066 -13 
Q 5238 -13 5238 172 
L 5238 738 
L 4347 738 
L 4347 -288 
L 3944 -288 
L 3944 738 
L 3103 738 
L 3103 -447 
L 2681 -447 
L 2681 2731 
L 5653 2731 
z
M 3103 2378 
L 3103 1906 
L 3944 1906 
L 3944 2378 
L 3103 2378 
z
M 3103 1566 
L 3103 1078 
L 3944 1078 
L 3944 1566 
L 3103 1566 
z
M 5238 1078 
L 5238 1566 
L 4347 1566 
L 4347 1078 
L 5238 1078 
z
M 5238 1906 
L 5238 2378 
L 4347 2378 
L 4347 1906 
L 5238 1906 
z
" transform="scale(0.015625)"/>
      <path id="IPAPGothic-7bc4" d="M 1613 2631 
L 1613 2938 
L 397 2938 
L 397 3291 
L 1613 3291 
L 1613 3731 
L 2003 3731 
L 2003 3291 
L 3238 3291 
L 3238 2938 
L 2003 2938 
L 2003 2631 
L 3016 2631 
L 3016 978 
L 2003 978 
L 2003 628 
L 3303 628 
L 3303 275 
L 2003 275 
L 2003 -447 
L 1613 -447 
L 1613 275 
L 325 275 
L 325 628 
L 1613 628 
L 1613 978 
L 634 978 
L 634 2631 
L 1613 2631 
z
M 1619 2319 
L 1019 2319 
L 1019 1966 
L 1619 1966 
L 1619 2319 
z
M 1997 2319 
L 1997 1966 
L 2625 1966 
L 2625 2319 
L 1997 2319 
z
M 1619 1666 
L 1019 1666 
L 1019 1291 
L 1619 1291 
L 1619 1666 
z
M 1997 1666 
L 1997 1291 
L 2625 1291 
L 2625 1666 
L 1997 1666 
z
M 3941 3072 
L 3941 288 
Q 3941 103 4038 63 
Q 4134 19 4669 19 
Q 5447 19 5553 116 
Q 5659 222 5669 872 
L 6103 750 
Q 6094 53 5944 -166 
Q 5778 -391 4797 -391 
Q 3944 -391 3744 -313 
Q 3513 -219 3513 178 
L 3513 3463 
L 5681 3463 
L 5681 1350 
Q 5681 922 5209 922 
Q 4778 922 4459 966 
L 4381 1381 
Q 4797 1313 5072 1313 
Q 5253 1313 5253 1509 
L 5253 3072 
L 3941 3072 
z
M 1413 4788 
L 3200 4788 
L 3200 4416 
L 2228 4416 
Q 2350 4184 2497 3800 
L 2066 3672 
Q 1959 4031 1791 4416 
L 1253 4416 
L 1241 4384 
Q 1006 3903 600 3469 
L 288 3744 
Q 884 4350 1150 5350 
L 1569 5275 
Q 1503 5038 1413 4788 
z
M 3959 4788 
L 6034 4788 
L 6034 4416 
L 4678 4416 
Q 4863 4141 5022 3806 
L 4594 3659 
Q 4406 4113 4222 4416 
L 3800 4416 
Q 3569 3934 3256 3584 
L 2925 3841 
Q 3431 4416 3691 5356 
L 4113 5263 
Q 4022 4956 3959 4788 
z
" transform="scale(0.015625)"/>
      <path id="IPAPGothic-56f2" d="M 2291 3494 
L 2291 4384 
L 2731 4384 
L 2731 3494 
L 3700 3494 
L 3700 4384 
L 4141 4384 
L 4141 3494 
L 5000 3494 
L 5000 3122 
L 4141 3122 
L 4141 2156 
L 5103 2156 
L 5103 1772 
L 4159 1772 
L 4159 447 
L 3719 447 
L 3719 1772 
L 2688 1772 
Q 2541 853 1769 344 
L 1441 666 
Q 2122 1069 2247 1772 
L 1294 1772 
L 1294 2156 
L 2284 2156 
Q 2291 2228 2291 2375 
L 2291 3122 
L 1391 3122 
L 1391 3494 
L 2291 3494 
z
M 3700 3122 
L 2731 3122 
L 2731 2475 
Q 2731 2272 2725 2156 
L 3700 2156 
L 3700 3122 
z
M 5759 4984 
L 5759 -447 
L 5300 -447 
L 5300 -172 
L 1097 -172 
L 1097 -447 
L 628 -447 
L 628 4984 
L 5759 4984 
z
M 1097 4575 
L 1097 244 
L 5300 244 
L 5300 4575 
L 1097 4575 
z
" transform="scale(0.015625)"/>
     </defs>
     <use xlink:href="#IPAPGothic-958b"/>
     <use xlink:href="#IPAPGothic-767a" transform="translate(100 0)"/>
     <use xlink:href="#IPAPGothic-8ab2" transform="translate(200 0)"/>
     <use xlink:href="#IPAPGothic-984c" transform="translate(300 0)"/>
     <use xlink:href="#IPAPGothic-306e" transform="translate(400 0)"/>
     <use xlink:href="#IPAPGothic-5b88" transform="translate(497.021484 0)"/>
     <use xlink:href="#IPAPGothic-5099" transform="translate(597.021484 0)"/>
     <use xlink:href="#IPAPGothic-7bc4" transform="translate(697.021484 0)"/>
     <use xlink:href="#IPAPGothic-56f2" transform="translate(797.021484 0)"/>
    </g>
   </g>
   <g id="text_3">
    <!-- W -->
    <g transform="translate(43.415493 86.848922) scale(0.16 -0.16)">
     <use xlink:href="#IPAPGothic-57"/>
    </g>
   </g>
   <g id="text_4">
    <!-- ワーク -->
    <g transform="translate(37.943306 110.41736) scale(0.1 -0.1)">
     <defs>
      <path id="IPAPGothic-30ef" d="M 581 4391 
L 4575 4391 
L 4900 4097 
Q 4681 2372 4006 1375 
Q 3350 400 2059 -116 
L 1681 325 
Q 3028 775 3628 1753 
Q 4175 2647 4319 3903 
L 1125 3903 
L 1125 2363 
L 581 2363 
L 581 4391 
z
" transform="scale(0.015625)"/>
      <path id="IPAPGothic-30fc" d="M 397 2688 
L 5619 2688 
L 5619 2175 
L 397 2175 
L 397 2688 
z
" transform="scale(0.015625)"/>
      <path id="IPAPGothic-30af" d="M 4269 4191 
L 4609 3941 
Q 4044 1013 1453 -225 
L 1081 184 
Q 2263 675 3041 1625 
Q 3784 2531 4025 3731 
L 2203 3731 
Q 1609 2681 744 1959 
L 366 2309 
Q 1659 3353 2228 5022 
L 2722 4881 
Q 2659 4672 2441 4191 
L 4269 4191 
z
" transform="scale(0.015625)"/>
     </defs>
     <use xlink:href="#IPAPGothic-30ef"/>
     <use xlink:href="#IPAPGothic-30fc" transform="translate(83.984375 0)"/>
     <use xlink:href="#IPAPGothic-30af" transform="translate(177.978516 0)"/>
    </g>
    <!-- 対象物 -->
    <g transform="translate(35.841743 121.30611) scale(0.1 -0.1)">
     <defs>
      <path id="IPAPGothic-5bfe" d="M 2697 3597 
Q 2697 3566 2691 3534 
Q 2584 2566 2234 1703 
Q 2566 1294 3028 666 
L 2656 331 
Q 2428 678 2016 1234 
Q 1466 184 725 -416 
L 366 -63 
Q 1156 525 1684 1569 
L 1709 1625 
Q 1191 2278 647 2844 
L 975 3113 
Q 1478 2619 1909 2100 
Q 2153 2825 2241 3597 
L 391 3597 
L 391 4013 
L 1666 4013 
L 1666 5209 
L 2106 5209 
L 2106 4013 
L 3272 4013 
L 3272 3706 
L 4822 3706 
L 4822 5209 
L 5275 5209 
L 5275 3706 
L 6044 3706 
L 6044 3278 
L 5300 3278 
L 5300 109 
Q 5300 -397 4694 -397 
Q 4206 -397 3875 -353 
L 3784 141 
Q 4200 63 4616 63 
Q 4847 63 4847 269 
L 4847 3278 
L 3241 3278 
L 3241 3597 
L 2697 3597 
z
M 4000 1147 
Q 3619 1994 3188 2578 
L 3578 2816 
Q 4044 2188 4409 1428 
L 4000 1147 
z
" transform="scale(0.015625)"/>
      <path id="IPAPGothic-8c61" d="M 3194 2681 
Q 3009 2528 2900 2450 
Q 3834 1584 3834 450 
Q 3834 -84 3675 -281 
Q 3528 -447 3175 -447 
Q 2816 -447 2419 -416 
L 2334 25 
Q 2700 -38 3041 -38 
Q 3303 -38 3363 134 
Q 3400 250 3400 463 
Q 3400 800 3297 1147 
Q 2341 231 863 -288 
L 550 72 
Q 1975 503 3138 1453 
L 3169 1478 
Q 3084 1638 2997 1784 
Q 2119 1053 875 641 
L 594 991 
Q 1922 1350 2803 2041 
Q 2741 2113 2613 2253 
Q 1856 1775 838 1466 
L 575 1816 
Q 1709 2097 2631 2681 
L 1106 2681 
L 1106 3444 
Q 878 3250 659 3109 
L 384 3409 
Q 1491 4166 2169 5375 
L 2613 5256 
Q 2578 5194 2413 4916 
L 4188 4916 
L 4463 4716 
Q 4119 4278 3834 4013 
L 5453 4013 
L 5453 2681 
L 3775 2681 
Q 3956 2159 4200 1772 
Q 4884 2200 5319 2572 
L 5691 2284 
Q 5094 1831 4403 1478 
Q 4969 741 5947 263 
L 5588 -128 
Q 4403 531 3775 1728 
Q 3572 2122 3366 2681 
L 3194 2681 
z
M 3469 3653 
L 3469 3041 
L 5000 3041 
L 5000 3653 
L 3469 3653 
z
M 3041 3041 
L 3041 3653 
L 1547 3653 
L 1547 3041 
L 3041 3041 
z
M 3309 4013 
Q 3616 4328 3769 4544 
L 2156 4544 
Q 2031 4375 1700 4013 
L 3309 4013 
z
" transform="scale(0.015625)"/>
      <path id="IPAPGothic-7269" d="M 4650 3763 
L 4178 3763 
L 4166 3697 
Q 3809 1916 2663 922 
L 2334 1228 
Q 3216 2034 3563 3084 
Q 3647 3328 3744 3763 
L 3300 3763 
Q 2991 3081 2634 2616 
L 2297 2919 
Q 3013 3872 3319 5319 
L 3775 5209 
Q 3631 4603 3469 4166 
L 5900 4166 
Q 5891 1056 5734 225 
Q 5628 -331 4959 -331 
Q 4553 -331 4166 -294 
L 4069 197 
Q 4594 122 4881 122 
Q 5172 122 5241 275 
Q 5422 669 5450 3438 
L 5459 3763 
L 5081 3763 
Q 4925 2650 4581 1797 
Q 4091 603 3066 -325 
L 2725 0 
Q 4281 1309 4638 3697 
L 4650 3763 
z
M 1025 3950 
L 1434 3950 
L 1434 5313 
L 1875 5313 
L 1875 3950 
L 2566 3950 
L 2566 3547 
L 1875 3547 
L 1875 2131 
Q 2366 2341 2572 2441 
L 2616 2031 
Q 2184 1809 1856 1672 
L 1856 -447 
L 1416 -447 
L 1416 1478 
Q 1028 1313 506 1122 
L 300 1563 
Q 903 1747 1434 1953 
L 1434 3547 
L 947 3547 
Q 831 2994 641 2556 
L 269 2803 
Q 600 3669 684 4744 
L 1125 4684 
Q 1066 4222 1025 3950 
z
" transform="scale(0.015625)"/>
     </defs>
     <use xlink:href="#IPAPGothic-5bfe"/>
     <use xlink:href="#IPAPGothic-8c61" transform="translate(100 0)"/>
     <use xlink:href="#IPAPGothic-7269" transform="translate(200 0)"/>
    </g>
   </g>
   <g id="text_5">
    <!-- T -->
    <g transform="translate(147.410711 86.848922) scale(0.16 -0.16)">
     <use xlink:href="#IPAPGothic-54"/>
    </g>
   </g>
   <g id="text_6">
    <!-- ツール -->
    <g transform="translate(138.35243 110.41736) scale(0.1 -0.1)">
     <defs>
      <path id="IPAPGothic-30c4" d="M 947 2591 
Q 691 3459 331 4116 
L 850 4331 
Q 1228 3647 1497 2841 
L 947 2591 
z
M 2450 2963 
Q 2234 3759 1847 4494 
L 2359 4703 
Q 2728 4031 2994 3200 
L 2450 2963 
z
M 1388 294 
Q 3044 925 3738 2272 
Q 4172 3109 4394 4538 
L 4947 4366 
Q 4659 2584 3928 1516 
Q 3216 459 1759 -147 
L 1388 294 
z
" transform="scale(0.015625)"/>
      <path id="IPAPGothic-30eb" d="M 353 331 
Q 1313 994 1544 2022 
Q 1684 2650 1684 4397 
L 2203 4397 
L 2203 4153 
L 2203 4116 
Q 2203 2259 1934 1491 
Q 1619 588 744 -38 
L 353 331 
z
M 3125 4666 
L 3650 4666 
L 3650 769 
Q 4875 1488 5672 2731 
L 5997 2278 
Q 5075 966 3516 63 
L 3125 359 
L 3125 4666 
z
" transform="scale(0.015625)"/>
     </defs>
     <use xlink:href="#IPAPGothic-30c4"/>
     <use xlink:href="#IPAPGothic-30fc" transform="translate(83.984375 0)"/>
     <use xlink:href="#IPAPGothic-30eb" transform="translate(177.978516 0)"/>
    </g>
    <!-- 作用物 -->
    <g transform="translate(137.203211 121.30611) scale(0.1 -0.1)">
     <defs>
      <path id="IPAPGothic-4f5c" d="M 3609 3834 
L 3231 3834 
Q 2869 2822 2297 2038 
L 1963 2381 
Q 2797 3513 3153 5275 
L 3616 5184 
Q 3506 4656 3378 4256 
L 5984 4256 
L 5984 3834 
L 4078 3834 
L 4078 2906 
L 5678 2906 
L 5678 2484 
L 4078 2484 
L 4078 1563 
L 5775 1563 
L 5775 1147 
L 4078 1147 
L 4078 -447 
L 3609 -447 
L 3609 3834 
z
M 1734 3725 
L 1734 -447 
L 1275 -447 
L 1275 2797 
L 1250 2747 
Q 984 2284 647 1850 
L 372 2234 
Q 1309 3484 1747 5203 
L 2219 5084 
Q 2028 4406 1734 3725 
z
" transform="scale(0.015625)"/>
      <path id="IPAPGothic-7528" d="M 5553 4891 
L 5553 203 
Q 5553 -53 5456 -169 
Q 5328 -316 4941 -316 
Q 4547 -316 4191 -275 
L 4113 203 
Q 4516 131 4875 131 
Q 5106 131 5106 372 
L 5106 1625 
L 3441 1625 
L 3441 -103 
L 3000 -103 
L 3000 1625 
L 1469 1625 
Q 1441 231 816 -488 
L 459 -134 
Q 1022 466 1022 1831 
L 1022 4891 
L 5553 4891 
z
M 1475 4500 
L 1475 3469 
L 3000 3469 
L 3000 4500 
L 1475 4500 
z
M 1475 3084 
L 1475 2009 
L 3000 2009 
L 3000 3084 
L 1475 3084 
z
M 5106 2009 
L 5106 3084 
L 3441 3084 
L 3441 2009 
L 5106 2009 
z
M 5106 3469 
L 5106 4500 
L 3441 4500 
L 3441 3469 
L 5106 3469 
z
" transform="scale(0.015625)"/>
     </defs>
     <use xlink:href="#IPAPGothic-4f5c"/>
     <use xlink:href="#IPAPGothic-7528" transform="translate(100 0)"/>
     <use xlink:href="#IPAPGothic-7269" transform="translate(200 0)"/>
    </g>
   </g>
   <g id="text_7">
    <!-- M -->
    <g transform="translate(246.349679 86.848922) scale(0.16 -0.16)">
     <use xlink:href="#IPAPGothic-4d"/>
    </g>
   </g>
   <g id="text_8">
    <!-- メカニズム -->
    <g transform="translate(231.516241 110.41736) scale(0.1 -0.1)">
     <defs>
      <path id="IPAPGothic-30e1" d="M 1531 3641 
Q 2169 3259 2850 2747 
Q 3397 3678 3772 4819 
L 4275 4609 
Q 3838 3384 3247 2425 
Q 3716 2031 4416 1369 
L 4034 972 
Q 3522 1519 2966 1997 
Q 2013 650 750 -172 
L 353 206 
Q 1569 931 2503 2216 
Q 2531 2244 2581 2328 
Q 1947 2844 1191 3263 
L 1531 3641 
z
" transform="scale(0.015625)"/>
      <path id="IPAPGothic-30ab" d="M 2413 4978 
L 2925 4978 
L 2925 3694 
L 4928 3694 
L 4928 3491 
L 4928 3425 
Q 4928 1334 4697 500 
Q 4534 -84 3975 -84 
Q 3466 -84 2925 172 
L 2906 731 
Q 3538 441 3878 441 
Q 4163 441 4231 763 
Q 4388 1478 4416 3234 
L 2888 3234 
Q 2703 906 838 -134 
L 447 263 
Q 2197 1134 2381 3209 
L 594 3209 
L 594 3669 
L 2413 3669 
L 2413 4978 
z
" transform="scale(0.015625)"/>
      <path id="IPAPGothic-30cb" d="M 1088 3916 
L 4800 3916 
L 4800 3416 
L 1088 3416 
L 1088 3916 
z
M 403 1172 
L 5484 1172 
L 5484 666 
L 403 666 
L 403 1172 
z
" transform="scale(0.015625)"/>
      <path id="IPAPGothic-30ba" d="M 4103 4481 
L 4459 4147 
Q 4072 3072 3391 2150 
Q 4403 1434 5403 453 
L 4978 19 
Q 4000 1088 3097 1778 
Q 3059 1722 3034 1697 
Q 3031 1694 3025 1691 
Q 3009 1678 3003 1663 
Q 2028 553 788 -31 
L 397 403 
Q 2872 1453 3841 4000 
L 984 3963 
L 972 4453 
L 4103 4481 
z
M 4884 3963 
Q 4694 4353 4275 4819 
L 4622 5050 
Q 4972 4700 5253 4219 
L 4884 3963 
z
M 5563 4269 
Q 5303 4700 4916 5088 
L 5247 5338 
Q 5606 5000 5913 4538 
L 5563 4269 
z
" transform="scale(0.015625)"/>
      <path id="IPAPGothic-30e0" d="M 288 891 
L 397 897 
L 563 903 
Q 731 913 941 925 
Q 1091 931 1125 934 
Q 1969 2888 2534 4703 
L 3072 4525 
Q 2519 2859 1697 978 
Q 3231 1109 4338 1275 
Q 3878 1950 3347 2584 
L 3800 2834 
Q 4753 1700 5466 513 
L 4997 191 
Q 4716 691 4600 863 
Q 2597 509 500 325 
L 288 891 
z
" transform="scale(0.015625)"/>
     </defs>
     <use xlink:href="#IPAPGothic-30e1"/>
     <use xlink:href="#IPAPGothic-30ab" transform="translate(77.001953 0)"/>
     <use xlink:href="#IPAPGothic-30cb" transform="translate(164.990234 0)"/>
     <use xlink:href="#IPAPGothic-30ba" transform="translate(256.982422 0)"/>
     <use xlink:href="#IPAPGothic-30e0" transform="translate(350.976562 0)"/>
    </g>
    <!-- 機構 -->
    <g transform="translate(243.564679 121.30611) scale(0.1 -0.1)">
     <defs>
      <path id="IPAPGothic-6a5f" d="M 3916 2125 
Q 3806 2984 3806 4238 
L 3806 5313 
L 4216 5313 
L 4216 4300 
Q 4216 3088 4300 2278 
L 4313 2150 
L 5178 2150 
Q 4984 2350 4825 2469 
L 5144 2669 
Q 5328 2541 5547 2309 
L 5313 2150 
L 6009 2150 
L 6009 1797 
L 4363 1797 
Q 4450 1278 4691 869 
Q 4931 1150 5197 1631 
L 5556 1431 
Q 5284 953 4913 531 
Q 4941 491 4959 475 
Q 5278 78 5441 78 
Q 5584 78 5669 844 
L 6066 628 
Q 5884 -422 5563 -422 
Q 5163 -422 4631 244 
Q 4069 -275 3384 -519 
L 3116 -191 
Q 3881 88 4409 569 
Q 4072 1116 3966 1772 
L 3084 1772 
Q 3078 1747 3078 1675 
Q 3078 1650 3066 1431 
Q 3534 1153 3934 781 
L 3684 441 
Q 3328 816 3031 1056 
Q 2909 91 2241 -494 
L 1953 -172 
Q 2481 241 2606 891 
Q 2663 1197 2681 1772 
L 2119 1772 
L 2119 2125 
L 3916 2125 
z
M 1113 2534 
Q 813 1522 384 794 
L 153 1250 
Q 763 2228 1063 3547 
L 294 3547 
L 294 3956 
L 1113 3956 
L 1113 5306 
L 1522 5306 
L 1522 3956 
L 2138 3956 
L 2138 3547 
L 1522 3547 
L 1522 2881 
Q 1878 2588 2150 2228 
L 1888 1884 
Q 1753 2144 1522 2434 
L 1522 -447 
L 1113 -447 
L 1113 2534 
z
M 2750 3334 
Q 2441 3850 2131 4159 
L 2347 4469 
Q 2384 4425 2509 4275 
Q 2734 4703 2913 5228 
L 3263 5025 
Q 3028 4447 2719 3988 
Q 2766 3919 2838 3803 
Q 2913 3684 2938 3647 
Q 3175 4066 3347 4434 
L 3666 4244 
Q 3263 3431 2809 2841 
Q 3097 2872 3347 2900 
Q 3347 2913 3334 2950 
Q 3313 3063 3231 3303 
L 3519 3372 
Q 3716 2891 3781 2413 
L 3456 2297 
Q 3453 2316 3428 2484 
Q 3416 2575 3403 2631 
Q 2906 2506 2175 2438 
L 2072 2797 
Q 2109 2800 2194 2803 
Q 2263 2806 2297 2809 
Q 2369 2809 2413 2816 
L 2438 2853 
Q 2538 2994 2750 3334 
z
M 4875 3413 
Q 4559 3916 4263 4206 
L 4478 4506 
Q 4494 4488 4559 4406 
Q 4609 4350 4641 4306 
Q 4891 4769 5038 5216 
L 5394 5013 
Q 5147 4466 4838 4025 
Q 4963 3844 5050 3700 
Q 5241 4019 5466 4469 
L 5784 4256 
Q 5497 3725 4991 3009 
Q 5356 3031 5547 3053 
Q 5466 3281 5381 3450 
L 5681 3553 
Q 5872 3181 6022 2669 
L 5709 2503 
Q 5697 2550 5663 2678 
Q 5641 2759 5631 2797 
Q 5019 2669 4434 2619 
L 4338 2975 
Q 4513 2975 4594 2981 
Q 4778 3256 4875 3413 
z
" transform="scale(0.015625)"/>
      <path id="IPAPGothic-69cb" d="M 1203 2594 
Q 925 1575 453 788 
L 191 1250 
Q 853 2238 1153 3547 
L 325 3547 
L 325 3956 
L 1203 3956 
L 1203 5306 
L 1625 5306 
L 1625 3956 
L 2303 3956 
L 2303 3547 
L 1625 3547 
L 1625 2906 
Q 2209 2391 2444 2106 
L 2188 1647 
Q 1928 2034 1625 2406 
L 1625 -447 
L 1203 -447 
L 1203 2594 
z
M 5003 3194 
L 6097 3194 
L 6097 2841 
L 4325 2841 
L 4325 2509 
L 5644 2509 
L 5644 1025 
L 6131 1025 
L 6131 672 
L 5644 672 
L 5644 78 
Q 5644 -191 5522 -294 
Q 5409 -397 5106 -397 
Q 4709 -397 4409 -350 
L 4344 84 
Q 4759 13 5069 13 
Q 5228 13 5228 197 
L 5228 672 
L 3044 672 
L 3044 -447 
L 2628 -447 
L 2628 672 
L 1975 672 
L 1975 1025 
L 2628 1025 
L 2628 2509 
L 3909 2509 
L 3909 2841 
L 2175 2841 
L 2175 3194 
L 3219 3194 
L 3219 3631 
L 2519 3631 
L 2519 3956 
L 3219 3956 
L 3219 4369 
L 2291 4369 
L 2291 4709 
L 3219 4709 
L 3219 5313 
L 3641 5313 
L 3641 4709 
L 4588 4709 
L 4588 5313 
L 5003 5313 
L 5003 4709 
L 5950 4709 
L 5950 4369 
L 5003 4369 
L 5003 3956 
L 5759 3956 
L 5759 3631 
L 5003 3631 
L 5003 3194 
z
M 4588 3194 
L 4588 3631 
L 3641 3631 
L 3641 3194 
L 4588 3194 
z
M 4588 4369 
L 3641 4369 
L 3641 3956 
L 4588 3956 
L 4588 4369 
z
M 3044 2169 
L 3044 1759 
L 3922 1759 
L 3922 2169 
L 3044 2169 
z
M 3044 1434 
L 3044 1025 
L 3922 1025 
L 3922 1434 
L 3044 1434 
z
M 4313 2169 
L 4313 1759 
L 5228 1759 
L 5228 2169 
L 4313 2169 
z
M 4313 1434 
L 4313 1025 
L 5228 1025 
L 5228 1434 
L 4313 1434 
z
" transform="scale(0.015625)"/>
     </defs>
     <use xlink:href="#IPAPGothic-6a5f"/>
     <use xlink:href="#IPAPGothic-69cb" transform="translate(100 0)"/>
    </g>
   </g>
   <g id="text_9">
    <!-- A -->
    <g transform="translate(349.828647 86.848922) scale(0.16 -0.16)">
     <use xlink:href="#IPAPGothic-41"/>
    </g>
   </g>
   <g id="text_10">
    <!-- アクチュエータ -->
    <g transform="translate(324.677709 110.41736) scale(0.1 -0.1)">
     <defs>
      <path id="IPAPGothic-30a2" d="M 4878 4556 
L 5238 4197 
Q 4572 3022 3509 2188 
L 3138 2547 
Q 4009 3178 4572 4091 
L 341 4013 
L 341 4500 
L 4878 4556 
z
M 706 256 
Q 1809 813 2106 1688 
Q 2288 2197 2288 3628 
L 2803 3628 
Q 2794 1981 2550 1356 
Q 2188 431 1084 -153 
L 706 256 
z
" transform="scale(0.015625)"/>
      <path id="IPAPGothic-30c1" d="M 2831 2853 
L 2831 3981 
Q 2106 3847 1275 3797 
L 1031 4238 
Q 2944 4344 4297 4872 
L 4653 4456 
Q 3991 4216 3350 4078 
L 3350 2913 
L 5550 2913 
L 5550 2459 
L 3344 2459 
Q 3306 1422 2934 850 
Q 2466 138 1481 -256 
L 1091 153 
Q 2063 500 2453 1081 
Q 2778 1563 2825 2400 
L 341 2400 
L 341 2853 
L 2831 2853 
z
" transform="scale(0.015625)"/>
      <path id="IPAPGothic-30e5" d="M 953 3297 
L 3609 3297 
Q 3550 2288 3375 869 
L 4616 869 
L 4616 422 
L 372 422 
L 372 869 
L 2875 869 
Q 3022 2066 3072 2856 
L 953 2856 
L 953 3297 
z
" transform="scale(0.015625)"/>
      <path id="IPAPGothic-30a8" d="M 853 4063 
L 5038 4063 
L 5038 3594 
L 3188 3594 
L 3188 988 
L 5503 988 
L 5503 513 
L 384 513 
L 384 988 
L 2656 988 
L 2656 3594 
L 853 3594 
L 853 4063 
z
" transform="scale(0.015625)"/>
      <path id="IPAPGothic-30bf" d="M 4403 4263 
L 4738 3988 
Q 4456 2575 3609 1459 
Q 2744 325 1375 -300 
L 1019 109 
Q 2256 609 3016 1513 
L 3034 1538 
L 3084 1600 
Q 2431 2372 1728 2888 
Q 1281 2297 725 1875 
L 378 2234 
Q 1719 3219 2247 5031 
L 2728 4897 
Q 2625 4538 2509 4263 
L 4403 4263 
z
M 2303 3809 
Q 2225 3644 1991 3266 
Q 2691 2753 3394 2003 
Q 3928 2825 4172 3809 
L 2303 3809 
z
" transform="scale(0.015625)"/>
     </defs>
     <use xlink:href="#IPAPGothic-30a2"/>
     <use xlink:href="#IPAPGothic-30af" transform="translate(87.011719 0)"/>
     <use xlink:href="#IPAPGothic-30c1" transform="translate(166.992188 0)"/>
     <use xlink:href="#IPAPGothic-30e5" transform="translate(258.984375 0)"/>
     <use xlink:href="#IPAPGothic-30a8" transform="translate(336.962891 0)"/>
     <use xlink:href="#IPAPGothic-30fc" transform="translate(428.955078 0)"/>
     <use xlink:href="#IPAPGothic-30bf" transform="translate(522.949219 0)"/>
    </g>
    <!-- 動力源 -->
    <g transform="translate(339.926147 121.30611) scale(0.1 -0.1)">
     <defs>
      <path id="IPAPGothic-52d5" d="M 1806 3425 
L 1806 3794 
L 375 3794 
L 375 4147 
L 1806 4147 
L 1806 4556 
Q 1253 4500 634 4466 
L 506 4819 
Q 2000 4903 3091 5159 
L 3381 4794 
Q 2806 4678 2222 4606 
L 2222 4147 
L 3541 4147 
L 3541 3794 
L 2222 3794 
L 2222 3425 
L 3381 3425 
L 3381 1569 
L 2222 1569 
L 2222 1178 
L 3453 1178 
L 3453 825 
L 2222 825 
L 2222 384 
Q 2934 459 3547 569 
L 3547 231 
Q 2569 22 419 -206 
L 297 197 
Q 794 238 1288 288 
L 1806 338 
L 1806 825 
L 584 825 
L 584 1178 
L 1806 1178 
L 1806 1569 
L 681 1569 
L 681 3425 
L 1806 3425 
z
M 1819 3100 
L 1078 3100 
L 1078 2669 
L 1819 2669 
L 1819 3100 
z
M 2209 3100 
L 2209 2669 
L 2984 2669 
L 2984 3100 
L 2209 3100 
z
M 1819 2350 
L 1078 2350 
L 1078 1894 
L 1819 1894 
L 1819 2350 
z
M 2209 2350 
L 2209 1894 
L 2984 1894 
L 2984 2350 
L 2209 2350 
z
M 4809 3469 
Q 4797 2081 4628 1338 
Q 4378 250 3572 -459 
L 3238 -141 
Q 3975 478 4225 1550 
Q 4378 2213 4378 3413 
L 3559 3413 
L 3559 3828 
L 4388 3828 
L 4388 5209 
L 4816 5209 
L 4816 3878 
L 5934 3878 
Q 5934 941 5766 128 
Q 5672 -347 5147 -347 
Q 4838 -347 4500 -294 
L 4425 197 
Q 4797 100 5069 100 
Q 5297 100 5344 369 
Q 5484 1056 5506 3200 
L 5506 3469 
L 4809 3469 
z
" transform="scale(0.015625)"/>
      <path id="IPAPGothic-529b" d="M 3303 3944 
L 5650 3944 
Q 5622 1247 5428 356 
Q 5303 -231 4647 -231 
Q 4159 -231 3456 -147 
L 3378 416 
Q 4022 263 4453 263 
Q 4881 263 4947 616 
Q 5103 1509 5134 3303 
L 5141 3509 
L 3291 3509 
Q 3231 2200 2738 1281 
Q 2194 297 878 -416 
L 525 -6 
Q 2709 963 2778 3450 
L 641 3450 
L 641 3891 
L 2784 3891 
L 2784 5147 
L 3303 5147 
L 3303 3944 
z
" transform="scale(0.015625)"/>
      <path id="IPAPGothic-6e90" d="M 4141 3909 
L 5588 3909 
L 5588 1669 
L 4434 1669 
L 4434 -6 
Q 4434 -272 4313 -363 
Q 4213 -447 3944 -447 
Q 3647 -447 3278 -397 
L 3213 56 
Q 3603 -13 3809 -13 
Q 3994 -13 3994 191 
L 3994 1669 
L 2791 1669 
L 2791 3909 
L 3719 3909 
Q 3819 4225 3884 4588 
L 2372 4588 
L 2372 2866 
Q 2372 1806 2238 1106 
Q 2075 259 1619 -434 
L 1278 -78 
Q 1931 922 1931 2550 
L 1931 4978 
L 5972 4978 
L 5972 4588 
L 4338 4588 
Q 4238 4178 4141 3909 
z
M 5159 3550 
L 3219 3550 
L 3219 2981 
L 5159 2981 
L 5159 3550 
z
M 3219 2628 
L 3219 2034 
L 5159 2034 
L 5159 2628 
L 3219 2628 
z
M 1178 2400 
Q 775 2888 294 3256 
L 581 3597 
Q 1041 3272 1491 2766 
L 1178 2400 
z
M 1375 3903 
Q 963 4403 491 4769 
L 794 5100 
Q 1303 4731 1688 4263 
L 1375 3903 
z
M 331 -109 
Q 850 797 1172 1931 
L 1534 1656 
Q 1184 403 716 -434 
L 331 -109 
z
M 2206 78 
Q 2728 578 3019 1331 
L 3438 1159 
Q 3113 328 2541 -263 
L 2206 78 
z
M 5688 -141 
Q 5275 675 4788 1184 
L 5178 1416 
Q 5713 853 6106 178 
L 5688 -141 
z
" transform="scale(0.015625)"/>
     </defs>
     <use xlink:href="#IPAPGothic-52d5"/>
     <use xlink:href="#IPAPGothic-529b" transform="translate(100 0)"/>
     <use xlink:href="#IPAPGothic-6e90" transform="translate(200 0)"/>
    </g>
   </g>
   <g id="text_11">
    <!-- C -->
    <g transform="translate(450.486365 86.848922) scale(0.16 -0.16)">
     <use xlink:href="#IPAPGothic-43"/>
    </g>
   </g>
   <g id="text_12">
    <!-- コントローラ -->
    <g transform="translate(430.837615 110.41736) scale(0.1 -0.1)">
     <defs>
      <path id="IPAPGothic-30b3" d="M 666 4178 
L 4697 4178 
L 4697 122 
L 4184 122 
L 4184 563 
L 594 563 
L 594 1056 
L 4184 1056 
L 4184 3691 
L 666 3691 
L 666 4178 
z
" transform="scale(0.015625)"/>
      <path id="IPAPGothic-30f3" d="M 1931 3084 
Q 1303 3656 544 4084 
L 869 4519 
Q 1550 4188 2303 3559 
L 1931 3084 
z
M 588 609 
Q 3472 1106 4703 3828 
L 5106 3469 
Q 3900 794 922 103 
L 588 609 
z
" transform="scale(0.015625)"/>
      <path id="IPAPGothic-30c8" d="M 1131 4997 
L 1650 4997 
L 1650 3206 
Q 2934 2619 4063 1888 
L 3725 1369 
Q 2663 2178 1650 2688 
L 1650 -184 
L 1131 -184 
L 1131 4997 
z
" transform="scale(0.015625)"/>
      <path id="IPAPGothic-30ed" d="M 763 4256 
L 4866 4256 
L 4866 159 
L 4341 159 
L 4341 556 
L 1288 556 
L 1288 159 
L 763 159 
L 763 4256 
z
M 1288 3769 
L 1288 1050 
L 4341 1050 
L 4341 3769 
L 1288 3769 
z
" transform="scale(0.015625)"/>
      <path id="IPAPGothic-30e9" d="M 934 4594 
L 4409 4594 
L 4409 4119 
L 934 4119 
L 934 4594 
z
M 384 3188 
L 4659 3188 
L 4966 2900 
Q 4556 1553 3706 759 
Q 2963 66 1794 -297 
L 1459 178 
Q 3638 669 4322 2713 
L 384 2713 
L 384 3188 
z
" transform="scale(0.015625)"/>
     </defs>
     <use xlink:href="#IPAPGothic-30b3"/>
     <use xlink:href="#IPAPGothic-30f3" transform="translate(85.009766 0)"/>
     <use xlink:href="#IPAPGothic-30c8" transform="translate(170.996094 0)"/>
     <use xlink:href="#IPAPGothic-30ed" transform="translate(241.992188 0)"/>
     <use xlink:href="#IPAPGothic-30fc" transform="translate(329.980469 0)"/>
     <use xlink:href="#IPAPGothic-30e9" transform="translate(423.974609 0)"/>
    </g>
    <!-- 制御 -->
    <g transform="translate(446.287615 121.30611) scale(0.1 -0.1)">
     <defs>
      <path id="IPAPGothic-5236" d="M 1881 4331 
L 1881 5313 
L 2309 5313 
L 2309 4331 
L 3616 4331 
L 3616 3959 
L 2309 3959 
L 2309 3206 
L 3813 3206 
L 3813 2822 
L 2309 2822 
L 2309 2188 
L 3544 2188 
L 3544 544 
Q 3544 281 3434 191 
Q 3338 116 3084 116 
Q 2816 116 2578 153 
L 2534 581 
Q 2747 531 2950 531 
Q 3122 531 3122 728 
L 3122 1816 
L 2309 1816 
L 2309 -447 
L 1881 -447 
L 1881 1816 
L 1106 1816 
L 1106 13 
L 691 13 
L 691 2188 
L 1881 2188 
L 1881 2822 
L 319 2822 
L 319 3206 
L 1881 3206 
L 1881 3959 
L 1119 3959 
Q 984 3625 741 3263 
L 375 3525 
Q 822 4203 1003 5081 
L 1447 4991 
Q 1372 4666 1259 4331 
L 1881 4331 
z
M 4159 4575 
L 4606 4575 
L 4606 1013 
L 4159 1013 
L 4159 4575 
z
M 5369 5100 
L 5809 5100 
L 5809 147 
Q 5809 -128 5700 -256 
Q 5575 -391 5156 -391 
Q 4744 -391 4350 -341 
L 4275 134 
Q 4731 69 5138 69 
Q 5369 69 5369 325 
L 5369 5100 
z
" transform="scale(0.015625)"/>
      <path id="IPAPGothic-5fa1" d="M 3297 734 
Q 3569 800 4206 978 
L 4219 606 
Q 3034 209 1806 -31 
L 1634 391 
Q 1963 447 2063 466 
L 2063 2350 
L 2478 2350 
L 2478 550 
L 2625 581 
L 2759 613 
L 2888 641 
L 2888 2791 
L 1825 2791 
L 1825 3181 
L 2888 3181 
L 2888 4103 
L 2478 4103 
Q 2356 3813 2172 3541 
L 1831 3791 
Q 2222 4359 2434 5275 
L 2831 5184 
Q 2744 4800 2638 4494 
L 4128 4494 
L 4128 4103 
L 3297 4103 
L 3297 3181 
L 4250 3181 
L 4250 2791 
L 3297 2791 
L 3297 2053 
L 4156 2053 
L 4156 1656 
L 3297 1656 
L 3297 734 
z
M 1434 2869 
L 1434 -447 
L 1025 -447 
L 1025 2325 
Q 741 1988 450 1703 
L 219 2063 
Q 969 2744 1531 3809 
L 1875 3597 
Q 1675 3225 1434 2869 
z
M 5916 4653 
L 5916 853 
Q 5916 597 5819 500 
Q 5725 403 5475 403 
Q 5253 403 5053 444 
L 5006 866 
Q 5156 831 5334 831 
Q 5513 831 5513 1031 
L 5513 4250 
L 4841 4250 
L 4841 -447 
L 4425 -447 
L 4425 4653 
L 5916 4653 
z
M 263 3822 
Q 1038 4391 1466 5203 
L 1844 5019 
Q 1297 4047 538 3500 
L 263 3822 
z
" transform="scale(0.015625)"/>
     </defs>
     <use xlink:href="#IPAPGothic-5236"/>
     <use xlink:href="#IPAPGothic-5fa1" transform="translate(100 0)"/>
    </g>
   </g>
   <g id="text_13">
    <!-- S -->
    <g transform="translate(552.969083 86.848922) scale(0.16 -0.16)">
     <use xlink:href="#IPAPGothic-53"/>
    </g>
   </g>
   <g id="text_14">
    <!-- センサ -->
    <g transform="translate(543.899083 110.41736) scale(0.1 -0.1)">
     <defs>
      <path id="IPAPGothic-30bb" d="M 1869 4878 
L 2394 4878 
L 2394 3400 
L 5100 3731 
L 5416 3444 
Q 4647 2309 3816 1556 
L 3378 1875 
Q 4106 2459 4653 3234 
L 2394 2931 
L 2394 978 
Q 2394 734 2547 669 
Q 2731 584 3425 584 
Q 4228 584 5234 697 
L 5253 172 
Q 4372 103 3653 103 
Q 2488 103 2169 256 
Q 1869 403 1869 866 
L 1869 2863 
L 447 2675 
L 397 3150 
L 1869 3334 
L 1869 4878 
z
" transform="scale(0.015625)"/>
      <path id="IPAPGothic-30b5" d="M 3866 4922 
L 4378 4922 
L 4378 3531 
L 5759 3531 
L 5759 3072 
L 4378 3072 
Q 4359 1719 4025 1063 
Q 3600 222 2516 -325 
L 2141 38 
Q 3197 525 3584 1319 
Q 3847 1853 3866 3072 
L 2203 3072 
L 2203 1575 
L 1691 1575 
L 1691 3072 
L 384 3072 
L 384 3531 
L 1691 3531 
L 1691 4800 
L 2203 4800 
L 2203 3531 
L 3866 3531 
L 3866 4922 
z
" transform="scale(0.015625)"/>
     </defs>
     <use xlink:href="#IPAPGothic-30bb"/>
     <use xlink:href="#IPAPGothic-30f3" transform="translate(93.017578 0)"/>
     <use xlink:href="#IPAPGothic-30b5" transform="translate(179.003906 0)"/>
    </g>
    <!-- 検知 -->
    <g transform="translate(547.649083 121.30611) scale(0.1 -0.1)">
     <defs>
      <path id="IPAPGothic-691c" d="M 4122 1119 
Q 3803 -72 2456 -481 
L 2175 -103 
Q 3588 250 3828 1438 
L 2994 1438 
L 2994 1113 
L 2578 1113 
L 2578 2869 
L 3847 2869 
L 3847 3353 
L 3188 3353 
L 3188 3566 
Q 2788 3166 2372 2888 
L 2091 3238 
Q 3263 3956 3750 5241 
L 4225 5241 
Q 4891 4109 6122 3403 
L 5816 3028 
Q 5422 3288 5009 3647 
L 5009 3353 
L 4263 3353 
L 4263 2869 
L 5572 2869 
L 5572 1153 
L 5156 1153 
L 5156 1438 
L 4359 1438 
Q 4781 469 6013 19 
L 5681 -391 
Q 4494 197 4122 1119 
z
M 3853 2516 
L 2994 2516 
L 2994 1784 
L 3853 1784 
L 3853 2516 
z
M 4256 2516 
L 4256 1784 
L 5156 1784 
L 5156 2516 
L 4256 2516 
z
M 3334 3725 
L 4925 3725 
Q 4359 4263 4013 4831 
Q 3759 4228 3334 3725 
z
M 1197 2594 
Q 925 1569 447 794 
L 184 1256 
Q 850 2238 1147 3547 
L 319 3547 
L 319 3956 
L 1197 3956 
L 1197 5306 
L 1619 5306 
L 1619 3956 
L 2322 3956 
L 2322 3547 
L 1619 3547 
L 1619 2900 
Q 2084 2484 2394 2119 
L 2138 1666 
Q 1897 2078 1619 2400 
L 1619 -447 
L 1197 -447 
L 1197 2594 
z
" transform="scale(0.015625)"/>
      <path id="IPAPGothic-77e5" d="M 2219 3988 
L 2219 2778 
L 3372 2778 
L 3372 2375 
L 2213 2375 
Q 2203 2078 2163 1813 
L 2194 1788 
Q 2888 1163 3403 531 
L 3078 116 
Q 2625 741 2066 1319 
Q 1766 159 756 -478 
L 428 -109 
Q 1231 359 1528 1147 
Q 1713 1634 1759 2375 
L 409 2375 
L 409 2778 
L 1766 2778 
L 1766 3988 
L 1344 3988 
Q 1106 3409 806 3003 
L 466 3316 
Q 1016 4103 1234 5281 
L 1688 5216 
Q 1591 4731 1484 4391 
L 3219 4391 
L 3219 3988 
L 2219 3988 
z
M 5791 4469 
L 5791 -191 
L 5338 -191 
L 5338 197 
L 3981 197 
L 3981 -269 
L 3528 -269 
L 3528 4469 
L 5791 4469 
z
M 3981 4053 
L 3981 613 
L 5338 613 
L 5338 4053 
L 3981 4053 
z
" transform="scale(0.015625)"/>
     </defs>
     <use xlink:href="#IPAPGothic-691c"/>
     <use xlink:href="#IPAPGothic-77e5" transform="translate(100 0)"/>
    </g>
   </g>
   <g id="patch_15">
    <path d="M 83.221101 104.056514 
Q 101.522477 104.056514 118.370409 104.056514 
" style="fill: none; stroke: #000000; stroke-width: 1.3; stroke-linecap: round"/>
    <path d="M 114.370409 102.056514 
L 118.370409 104.056514 
L 114.370409 106.056514 
" style="fill: none; stroke: #000000; stroke-width: 1.3; stroke-linecap: round"/>
   </g>
   <g id="patch_16">
    <path d="M 184.582569 104.056514 
Q 202.883945 104.056514 219.731877 104.056514 
" style="fill: none; stroke: #000000; stroke-width: 1.3; stroke-linecap: round"/>
    <path d="M 215.731877 102.056514 
L 219.731877 104.056514 
L 215.731877 106.056514 
" style="fill: none; stroke: #000000; stroke-width: 1.3; stroke-linecap: round"/>
   </g>
   <g id="patch_17">
    <path d="M 285.944037 104.056514 
Q 304.245413 104.056514 321.093345 104.056514 
" style="fill: none; stroke: #000000; stroke-width: 1.3; stroke-linecap: round"/>
    <path d="M 317.093345 102.056514 
L 321.093345 104.056514 
L 317.093345 106.056514 
" style="fill: none; stroke: #000000; stroke-width: 1.3; stroke-linecap: round"/>
   </g>
   <g id="patch_18">
    <path d="M 387.305505 104.056514 
Q 405.606881 104.056514 422.454813 104.056514 
" style="fill: none; stroke: #000000; stroke-width: 1.3; stroke-linecap: round"/>
    <path d="M 418.454813 102.056514 
L 422.454813 104.056514 
L 418.454813 106.056514 
" style="fill: none; stroke: #000000; stroke-width: 1.3; stroke-linecap: round"/>
   </g>
   <g id="patch_19">
    <path d="M 488.666972 104.056514 
Q 506.968349 104.056514 523.816281 104.056514 
" style="fill: none; stroke: #000000; stroke-width: 1.3; stroke-linecap: round"/>
    <path d="M 519.816281 102.056514 
L 523.816281 104.056514 
L 519.816281 106.056514 
" style="fill: none; stroke: #000000; stroke-width: 1.3; stroke-linecap: round"/>
   </g>
   <g id="text_15">
    <!-- 機械 -->
    <g transform="translate(137.203211 197.507864) scale(0.15 -0.15)">
     <defs>
      <path id="IPAPGothic-68b0" d="M 4678 1275 
Q 4447 2122 4331 3547 
L 2341 3547 
L 2341 3956 
L 4300 3956 
Q 4247 4656 4228 5306 
L 4659 5306 
Q 4669 4741 4716 3981 
L 6041 3981 
L 6041 3572 
L 4747 3572 
L 4778 3284 
Q 4872 2322 4984 1806 
Q 5300 2409 5497 3100 
L 5894 2938 
Q 5569 1963 5131 1231 
Q 5244 834 5394 547 
Q 5509 322 5553 322 
Q 5653 322 5759 1225 
L 6131 941 
Q 5959 -350 5638 -350 
Q 5472 -350 5222 9 
Q 5003 319 4831 781 
Q 4275 38 3434 -478 
L 3147 -134 
Q 4069 381 4678 1275 
z
M 2775 2344 
L 2775 3213 
L 3166 3213 
L 3166 2344 
L 3569 2344 
L 3569 3213 
L 3959 3213 
L 3959 2344 
L 4381 2344 
L 4381 1966 
L 3959 1966 
L 3959 647 
L 3569 647 
L 3569 1966 
L 3166 1966 
Q 3156 1372 3094 1044 
Q 2988 463 2603 0 
L 2297 309 
Q 2775 856 2775 1966 
L 2341 1966 
L 2122 1634 
Q 1809 2106 1619 2338 
L 1619 -447 
L 1197 -447 
L 1197 2594 
Q 925 1566 447 794 
L 184 1256 
Q 850 2238 1147 3547 
L 319 3547 
L 319 3956 
L 1197 3956 
L 1197 5306 
L 1619 5306 
L 1619 3956 
L 2219 3956 
L 2219 3547 
L 1619 3547 
L 1619 2828 
Q 2053 2450 2341 2063 
L 2341 2344 
L 2775 2344 
z
M 5491 4141 
Q 5253 4613 4953 4991 
L 5316 5172 
Q 5603 4850 5869 4359 
L 5491 4141 
z
" transform="scale(0.015625)"/>
     </defs>
     <use xlink:href="#IPAPGothic-6a5f"/>
     <use xlink:href="#IPAPGothic-68b0" transform="translate(100 0)"/>
    </g>
   </g>
   <g id="text_16">
    <!-- 電気 -->
    <g transform="translate(339.926147 239.741809) scale(0.15 -0.15)">
     <defs>
      <path id="IPAPGothic-96fb" d="M 2956 4378 
L 2956 4741 
L 1053 4741 
L 1053 5106 
L 5338 5106 
L 5338 4741 
L 3397 4741 
L 3397 4378 
L 5797 4378 
L 5797 3084 
L 5344 3084 
L 5344 4031 
L 3397 4031 
L 3397 2638 
L 2956 2638 
L 2956 4031 
L 1047 4031 
L 1047 3072 
L 594 3072 
L 594 4378 
L 2956 4378 
z
M 3366 544 
L 3366 238 
Q 3366 59 3500 31 
Q 3603 6 4491 6 
Q 5219 6 5347 31 
Q 5556 78 5584 281 
Q 5609 500 5616 684 
L 6038 556 
Q 6028 -109 5797 -256 
Q 5619 -378 4422 -378 
Q 3256 -378 3128 -313 
Q 2963 -225 2963 91 
L 2963 544 
L 1456 544 
L 1456 166 
L 1034 166 
L 1034 2400 
L 5316 2400 
L 5316 544 
L 3366 544 
z
M 2963 2059 
L 1456 2059 
L 1456 1666 
L 2963 1666 
L 2963 2059 
z
M 3366 2059 
L 3366 1666 
L 4900 1666 
L 4900 2059 
L 3366 2059 
z
M 2963 1325 
L 1456 1325 
L 1456 897 
L 2963 897 
L 2963 1325 
z
M 3366 1325 
L 3366 897 
L 4900 897 
L 4900 1325 
L 3366 1325 
z
M 1338 3688 
L 2663 3688 
L 2663 3375 
L 1338 3375 
L 1338 3688 
z
M 1338 3072 
L 2663 3072 
L 2663 2753 
L 1338 2753 
L 1338 3072 
z
M 3691 3688 
L 5053 3688 
L 5053 3375 
L 3691 3375 
L 3691 3688 
z
M 3691 3072 
L 5053 3072 
L 5053 2753 
L 3691 2753 
L 3691 3072 
z
" transform="scale(0.015625)"/>
      <path id="IPAPGothic-6c17" d="M 1863 4659 
L 5594 4659 
L 5594 4263 
L 1672 4263 
Q 1306 3572 831 3059 
L 531 3397 
Q 1266 4181 1600 5288 
L 2069 5203 
Q 1981 4941 1863 4659 
z
M 4997 2950 
L 5003 2400 
Q 5025 1044 5222 466 
Q 5328 184 5394 184 
Q 5513 184 5638 1191 
L 6047 916 
Q 5847 -450 5422 -450 
Q 5125 -450 4856 147 
Q 4550 819 4550 2381 
L 4550 2553 
L 672 2553 
L 672 2950 
L 4997 2950 
z
M 2388 1106 
Q 1741 1553 1069 1875 
L 1350 2188 
Q 1991 1878 2606 1478 
L 2669 1441 
Q 3034 1894 3250 2431 
L 3681 2241 
Q 3403 1634 3047 1184 
Q 3672 744 4269 231 
L 3944 -128 
Q 3384 391 2759 844 
Q 2031 50 928 -372 
L 653 31 
Q 1728 403 2356 1069 
L 2388 1106 
z
M 1516 3822 
L 4991 3822 
L 4991 3425 
L 1516 3425 
L 1516 3822 
z
" transform="scale(0.015625)"/>
     </defs>
     <use xlink:href="#IPAPGothic-96fb"/>
     <use xlink:href="#IPAPGothic-6c17" transform="translate(100 0)"/>
    </g>
   </g>
   <g id="text_17">
    <!-- 電子情報 -->
    <g transform="translate(426.287615 281.975754) scale(0.15 -0.15)">
     <defs>
      <path id="IPAPGothic-5b50" d="M 3481 3263 
L 3481 2566 
L 5938 2566 
L 5938 2125 
L 3519 2125 
L 3519 206 
Q 3519 -56 3425 -172 
Q 3306 -325 2897 -325 
Q 2569 -325 1944 -269 
L 1847 263 
Q 2409 181 2763 181 
Q 3025 181 3025 416 
L 3025 2125 
L 453 2125 
L 453 2566 
L 2988 2566 
L 2988 3488 
Q 3784 3844 4509 4366 
L 1113 4366 
L 1113 4794 
L 5150 4794 
L 5431 4500 
Q 4466 3784 3481 3263 
z
" transform="scale(0.015625)"/>
      <path id="IPAPGothic-60c5" d="M 3791 4672 
L 3791 5313 
L 4219 5313 
L 4219 4672 
L 5844 4672 
L 5844 4325 
L 4219 4325 
L 4219 3944 
L 5659 3944 
L 5659 3603 
L 4219 3603 
L 4219 3200 
L 6050 3200 
L 6050 2841 
L 2034 2841 
L 2034 3200 
L 3791 3200 
L 3791 3603 
L 2447 3603 
L 2447 3944 
L 3791 3944 
L 3791 4325 
L 2228 4325 
L 2228 4672 
L 3791 4672 
z
M 5491 2478 
L 5491 38 
Q 5491 -403 4966 -403 
Q 4744 -403 4134 -372 
L 4066 84 
Q 4484 19 4866 19 
Q 5063 19 5063 206 
L 5063 634 
L 3066 634 
L 3066 -447 
L 2638 -447 
L 2638 2478 
L 5491 2478 
z
M 3066 2131 
L 3066 1725 
L 5063 1725 
L 5063 2131 
L 3066 2131 
z
M 3066 1394 
L 3066 975 
L 5063 975 
L 5063 1394 
L 3066 1394 
z
M 244 2291 
Q 438 2947 488 4013 
L 878 3928 
Q 838 2825 641 2081 
L 244 2291 
z
M 1941 3213 
Q 1797 3725 1613 4103 
L 1953 4263 
Q 2172 3891 2319 3425 
L 1941 3213 
z
M 1106 5313 
L 1547 5313 
L 1547 -447 
L 1106 -447 
L 1106 5313 
z
" transform="scale(0.015625)"/>
      <path id="IPAPGothic-5831" d="M 2738 3084 
Q 2597 2591 2425 2203 
L 3175 2203 
L 3175 1819 
L 2009 1819 
L 2009 1134 
L 3097 1134 
L 3097 750 
L 2009 750 
L 2009 -447 
L 1569 -447 
L 1569 750 
L 519 750 
L 519 1134 
L 1569 1134 
L 1569 1819 
L 434 1819 
L 434 2203 
L 1125 2203 
Q 994 2800 881 3084 
L 294 3084 
L 294 3469 
L 1569 3469 
L 1569 4134 
L 575 4134 
L 575 4519 
L 1569 4519 
L 1569 5313 
L 2009 5313 
L 2009 4519 
L 3025 4519 
L 3025 4134 
L 2009 4134 
L 2009 3469 
L 3169 3469 
L 3169 3084 
L 2738 3084 
z
M 2297 3084 
L 1306 3084 
Q 1466 2609 1544 2203 
L 2009 2203 
Q 2191 2606 2297 3084 
z
M 5681 4991 
L 5681 3591 
Q 5681 3319 5572 3222 
Q 5463 3131 5156 3131 
Q 4831 3131 4441 3169 
L 4388 3597 
Q 4763 3541 5016 3541 
Q 5253 3541 5253 3769 
L 5253 4594 
L 3800 4594 
L 3800 2741 
L 5591 2741 
L 5828 2550 
Q 5656 1600 5203 806 
Q 5541 334 6128 -6 
L 5853 -416 
Q 5316 -19 4959 425 
Q 4584 -94 4113 -497 
L 3825 -147 
Q 4319 231 4697 775 
Q 4169 1516 3966 2350 
L 3800 2350 
L 3800 -447 
L 3372 -447 
L 3372 4991 
L 5681 4991 
z
M 4350 2350 
Q 4503 1794 4919 1153 
Q 5225 1716 5350 2350 
L 4350 2350 
z
" transform="scale(0.015625)"/>
     </defs>
     <use xlink:href="#IPAPGothic-96fb"/>
     <use xlink:href="#IPAPGothic-5b50" transform="translate(100 0)"/>
     <use xlink:href="#IPAPGothic-60c5" transform="translate(200 0)"/>
     <use xlink:href="#IPAPGothic-5831" transform="translate(300 0)"/>
    </g>
   </g>
  </g>
 </g>
 <defs>
  <clipPath id="p30b61b0ce8">
   <rect x="7.2" y="7.2" width="613.8" height="281.559633"/>
  </clipPath>
 </defs>
</svg>
