<?xml version="1.0" encoding="utf-8" standalone="no"?>
<!DOCTYPE svg PUBLIC "-//W3C//DTD SVG 1.1//EN"
  "http://www.w3.org/Graphics/SVG/1.1/DTD/svg11.dtd">
<svg xmlns:xlink="http://www.w3.org/1999/xlink" width="590.541176pt" height="291.6pt" viewBox="0 0 590.541176 291.6" xmlns="http://www.w3.org/2000/svg" version="1.1">
 <metadata>
  <rdf:RDF xmlns:dc="http://purl.org/dc/elements/1.1/" xmlns:cc="http://creativecommons.org/ns#" xmlns:rdf="http://www.w3.org/1999/02/22-rdf-syntax-ns#">
   <cc:Work>
    <dc:type rdf:resource="http://purl.org/dc/dcmitype/StillImage"/>
    <dc:date>2026-06-24T01:03:44.747382</dc:date>
    <dc:format>image/svg+xml</dc:format>
    <dc:creator>
     <cc:Agent>
      <dc:title>Matplotlib v3.10.0, https://matplotlib.org/</dc:title>
     </cc:Agent>
    </dc:creator>
   </cc:Work>
  </rdf:RDF>
 </metadata>
 <defs>
  <style type="text/css">*{stroke-linejoin: round; stroke-linecap: butt}</style>
 </defs>
 <g id="figure_1">
  <g id="patch_1">
   <path d="M 0 291.6 
L 590.541176 291.6 
L 590.541176 0 
L 0 0 
z
" style="fill: #ffffff"/>
  </g>
  <g id="axes_1">
   <g id="patch_2">
    <path d="M 140.364706 249.070588 
L 455.611765 249.070588 
L 455.611765 77.858824 
L 140.364706 77.858824 
L 140.364706 249.070588 
z
" clip-path="url(#pad6e9d06b0)" style="fill: none; stroke-dasharray: 3.7,1.6; stroke-dashoffset: 0; stroke: #000000; stroke-linejoin: miter"/>
   </g>
   <g id="patch_3">
    <path d="M 18.070588 156.670588 
L 107.752941 156.670588 
L 107.752941 99.6 
L 18.070588 99.6 
z
" clip-path="url(#pad6e9d06b0)" style="fill: #ffffff; stroke: #000000; stroke-width: 1.3; stroke-linejoin: miter"/>
   </g>
   <g id="patch_4">
    <path d="M 153.952941 156.670588 
L 227.329412 156.670588 
L 227.329412 99.6 
L 153.952941 99.6 
z
" clip-path="url(#pad6e9d06b0)" style="fill: #ffffff; stroke: #000000; stroke-width: 1.3; stroke-linejoin: miter"/>
   </g>
   <g id="patch_5">
    <path d="M 262.658824 156.670588 
L 336.035294 156.670588 
L 336.035294 99.6 
L 262.658824 99.6 
z
" clip-path="url(#pad6e9d06b0)" style="fill: #ffffff; stroke: #000000; stroke-width: 1.3; stroke-linejoin: miter"/>
   </g>
   <g id="patch_6">
    <path d="M 371.364706 156.670588 
L 444.741176 156.670588 
L 444.741176 99.6 
L 371.364706 99.6 
z
" clip-path="url(#pad6e9d06b0)" style="fill: #ffffff; stroke: #000000; stroke-width: 1.3; stroke-linejoin: miter"/>
   </g>
   <g id="patch_7">
    <path d="M 493.658824 156.670588 
L 567.035294 156.670588 
L 567.035294 99.6 
L 493.658824 99.6 
z
" clip-path="url(#pad6e9d06b0)" style="fill: #ffffff; stroke: #000000; stroke-width: 1.3; stroke-linejoin: miter"/>
   </g>
   <g id="patch_8">
    <path d="M 278.964706 240.917647 
C 298.064009 240.917647 316.383626 238.340511 329.888872 233.753824 
C 343.394119 229.167136 350.982353 222.945379 350.982353 216.458824 
C 350.982353 209.972268 343.394119 203.750511 329.888872 199.163824 
C 316.383626 194.577136 298.064009 192 278.964706 192 
C 259.865403 192 241.545786 194.577136 228.040539 199.163824 
C 214.535292 203.750511 206.947059 209.972268 206.947059 216.458824 
C 206.947059 222.945379 214.535292 229.167136 228.040539 233.753824 
C 241.545786 238.340511 259.865403 240.917647 278.964706 240.917647 
z
" clip-path="url(#pad6e9d06b0)" style="fill: #ffffff; stroke: #000000; stroke-width: 1.1; stroke-linejoin: miter"/>
   </g>
   <g id="patch_9">
    <path d="M 493.658824 66.988235 
C 508.433756 66.988235 522.605535 64.411099 533.05299 59.824412 
C 543.500445 55.237724 549.370588 49.015968 549.370588 42.529412 
C 549.370588 36.042856 543.500445 29.821099 533.05299 25.234412 
C 522.605535 20.647724 508.433756 18.070588 493.658824 18.070588 
C 478.883891 18.070588 464.712112 20.647724 454.264657 25.234412 
C 443.817202 29.821099 437.947059 36.042856 437.947059 42.529412 
C 437.947059 49.015968 443.817202 55.237724 454.264657 59.824412 
C 464.712112 64.411099 478.883891 66.988235 493.658824 66.988235 
z
" clip-path="url(#pad6e9d06b0)" style="fill: #ffffff; stroke: #000000; stroke-width: 1.1; stroke-linejoin: miter"/>
   </g>
   <g id="patch_10">
    <path d="M 423 76.228235 
C 424.729748 76.228235 426.388883 75.540999 427.612 74.317882 
C 428.835117 73.094766 429.522353 71.435631 429.522353 69.705882 
C 429.522353 67.976134 428.835117 66.316999 427.612 65.093882 
C 426.388883 63.870766 424.729748 63.183529 423 63.183529 
C 421.270252 63.183529 419.611117 63.870766 418.388 65.093882 
C 417.164883 66.316999 416.477647 67.976134 416.477647 69.705882 
C 416.477647 71.435631 417.164883 73.094766 418.388 74.317882 
C 419.611117 75.540999 421.270252 76.228235 423 76.228235 
L 423 76.228235 
z
" clip-path="url(#pad6e9d06b0)" style="fill: none; stroke: #000000; stroke-linejoin: miter"/>
   </g>
   <g id="patch_11">
    <path d="M 387.670588 90.36 
C 388.823754 90.36 389.929844 89.901842 390.745255 89.086431 
C 391.560666 88.27102 392.018824 87.16493 392.018824 86.011765 
C 392.018824 84.858599 391.560666 83.752509 390.745255 82.937098 
C 389.929844 82.121687 388.823754 81.663529 387.670588 81.663529 
C 386.517423 81.663529 385.411333 82.121687 384.595922 82.937098 
C 383.78051 83.752509 383.322353 84.858599 383.322353 86.011765 
C 383.322353 87.16493 383.78051 88.27102 384.595922 89.086431 
C 385.411333 89.901842 386.517423 90.36 387.670588 90.36 
L 387.670588 90.36 
z
" clip-path="url(#pad6e9d06b0)" style="fill: none; stroke: #000000; stroke-linejoin: miter"/>
   </g>
   <g id="patch_12">
    <path d="M 355.058824 96.882353 
C 355.779552 96.882353 356.470858 96.596005 356.98049 96.086373 
C 357.490122 95.576741 357.776471 94.885434 357.776471 94.164706 
C 357.776471 93.443977 357.490122 92.752671 356.98049 92.243039 
C 356.470858 91.733407 355.779552 91.447059 355.058824 91.447059 
C 354.338095 91.447059 353.646789 91.733407 353.137157 92.243039 
C 352.627525 92.752671 352.341176 93.443977 352.341176 94.164706 
C 352.341176 94.885434 352.627525 95.576741 353.137157 96.086373 
C 353.646789 96.596005 354.338095 96.882353 355.058824 96.882353 
L 355.058824 96.882353 
z
" clip-path="url(#pad6e9d06b0)" style="fill: none; stroke: #000000; stroke-linejoin: miter"/>
   </g>
   <g id="line2d_1">
    <path d="M 254.505882 194.717647 
L 227.329412 156.670588 
" clip-path="url(#pad6e9d06b0)" style="fill: none; stroke: #000000; stroke-linecap: square"/>
   </g>
   <g id="text_1">
    <!-- 計測器 -->
    <g transform="translate(272.488235 275.563796) scale(0.17 -0.17)">
     <defs>
      <path id="IPAPGothic-8a08" d="M 2853 1684 
L 2853 -416 
L 2413 -416 
L 2413 -128 
L 1088 -128 
L 1088 -447 
L 647 -447 
L 647 1684 
L 2853 1684 
z
M 1088 1300 
L 1088 256 
L 2413 256 
L 2413 1300 
L 1088 1300 
z
M 4322 3225 
L 4322 5178 
L 4781 5178 
L 4781 3225 
L 6063 3225 
L 6063 2797 
L 4781 2797 
L 4781 -447 
L 4322 -447 
L 4322 2797 
L 3059 2797 
L 3059 3225 
L 4322 3225 
z
M 781 5044 
L 2722 5044 
L 2722 4647 
L 781 4647 
L 781 5044 
z
M 384 4206 
L 3150 4206 
L 3150 3803 
L 384 3803 
L 384 4206 
z
M 781 3359 
L 2722 3359 
L 2722 2963 
L 781 2963 
L 781 3359 
z
M 781 2522 
L 2722 2522 
L 2722 2125 
L 781 2125 
L 781 2522 
z
" transform="scale(0.015625)"/>
      <path id="IPAPGothic-6e2c" d="M 3856 4884 
L 3856 1081 
L 2059 1081 
L 2059 4884 
L 3856 4884 
z
M 2456 4494 
L 2456 3756 
L 3459 3756 
L 3459 4494 
L 2456 4494 
z
M 2456 3384 
L 2456 2656 
L 3459 2656 
L 3459 3384 
L 2456 3384 
z
M 2456 2284 
L 2456 1478 
L 3459 1478 
L 3459 2284 
L 2456 2284 
z
M 1413 3891 
Q 1000 4428 556 4763 
L 856 5100 
Q 1309 4753 1734 4269 
L 1413 3891 
z
M 1222 2394 
Q 816 2878 325 3256 
L 625 3591 
Q 1141 3231 1528 2778 
L 1222 2394 
z
M 375 -78 
Q 916 800 1297 1906 
L 1669 1619 
Q 1284 478 759 -428 
L 375 -78 
z
M 3819 -256 
Q 3478 319 3128 716 
L 3469 966 
Q 3834 581 4172 63 
L 3819 -256 
z
M 4378 4513 
L 4806 4513 
L 4806 959 
L 4378 959 
L 4378 4513 
z
M 1638 -109 
Q 2103 300 2450 984 
L 2828 763 
Q 2425 -6 1944 -488 
L 1638 -109 
z
M 5419 5081 
L 5853 5081 
L 5853 109 
Q 5853 -391 5297 -391 
Q 4919 -391 4541 -359 
L 4441 109 
Q 4928 50 5219 50 
Q 5419 50 5419 244 
L 5419 5081 
z
" transform="scale(0.015625)"/>
      <path id="IPAPGothic-5668" d="M 2866 3469 
L 3231 3366 
Q 3106 3100 2938 2828 
L 5978 2828 
L 5978 2431 
L 4294 2431 
Q 5003 1797 6125 1428 
L 5869 1019 
Q 5597 1131 5363 1250 
L 5363 -447 
L 4947 -447 
L 4947 -159 
L 3891 -159 
L 3891 -447 
L 3475 -447 
L 3475 1531 
L 4856 1531 
Q 4194 1934 3750 2406 
L 3725 2431 
L 2656 2431 
Q 2266 1947 1644 1531 
L 2938 1531 
L 2938 -422 
L 2522 -422 
L 2522 -159 
L 1447 -159 
L 1447 -447 
L 1038 -447 
L 1038 1172 
Q 950 1119 556 928 
L 294 1294 
Q 1413 1694 2109 2431 
L 416 2431 
L 416 2828 
L 2431 2828 
Q 2631 3106 2756 3384 
L 922 3384 
L 922 5013 
L 2866 5013 
L 2866 3469 
z
M 3891 1159 
L 3891 219 
L 4947 219 
L 4947 1159 
L 3891 1159 
z
M 1338 4628 
L 1338 3756 
L 2450 3756 
L 2450 4628 
L 1338 4628 
z
M 1447 1159 
L 1447 219 
L 2522 219 
L 2522 1159 
L 1447 1159 
z
M 5434 5013 
L 5434 3384 
L 3456 3384 
L 3456 5013 
L 5434 5013 
z
M 3872 4628 
L 3872 3756 
L 5019 3756 
L 5019 4628 
L 3872 4628 
z
" transform="scale(0.015625)"/>
     </defs>
     <use xlink:href="#IPAPGothic-8a08"/>
     <use xlink:href="#IPAPGothic-6e2c" transform="translate(100 0)"/>
     <use xlink:href="#IPAPGothic-5668" transform="translate(200 0)"/>
    </g>
   </g>
   <g id="text_2">
    <!-- 計測対象 -->
    <g transform="translate(32.911765 132.328263) scale(0.15 -0.15)">
     <defs>
      <path id="IPAPGothic-5bfe" d="M 2697 3597 
Q 2697 3566 2691 3534 
Q 2584 2566 2234 1703 
Q 2566 1294 3028 666 
L 2656 331 
Q 2428 678 2016 1234 
Q 1466 184 725 -416 
L 366 -63 
Q 1156 525 1684 1569 
L 1709 1625 
Q 1191 2278 647 2844 
L 975 3113 
Q 1478 2619 1909 2100 
Q 2153 2825 2241 3597 
L 391 3597 
L 391 4013 
L 1666 4013 
L 1666 5209 
L 2106 5209 
L 2106 4013 
L 3272 4013 
L 3272 3706 
L 4822 3706 
L 4822 5209 
L 5275 5209 
L 5275 3706 
L 6044 3706 
L 6044 3278 
L 5300 3278 
L 5300 109 
Q 5300 -397 4694 -397 
Q 4206 -397 3875 -353 
L 3784 141 
Q 4200 63 4616 63 
Q 4847 63 4847 269 
L 4847 3278 
L 3241 3278 
L 3241 3597 
L 2697 3597 
z
M 4000 1147 
Q 3619 1994 3188 2578 
L 3578 2816 
Q 4044 2188 4409 1428 
L 4000 1147 
z
" transform="scale(0.015625)"/>
      <path id="IPAPGothic-8c61" d="M 3194 2681 
Q 3009 2528 2900 2450 
Q 3834 1584 3834 450 
Q 3834 -84 3675 -281 
Q 3528 -447 3175 -447 
Q 2816 -447 2419 -416 
L 2334 25 
Q 2700 -38 3041 -38 
Q 3303 -38 3363 134 
Q 3400 250 3400 463 
Q 3400 800 3297 1147 
Q 2341 231 863 -288 
L 550 72 
Q 1975 503 3138 1453 
L 3169 1478 
Q 3084 1638 2997 1784 
Q 2119 1053 875 641 
L 594 991 
Q 1922 1350 2803 2041 
Q 2741 2113 2613 2253 
Q 1856 1775 838 1466 
L 575 1816 
Q 1709 2097 2631 2681 
L 1106 2681 
L 1106 3444 
Q 878 3250 659 3109 
L 384 3409 
Q 1491 4166 2169 5375 
L 2613 5256 
Q 2578 5194 2413 4916 
L 4188 4916 
L 4463 4716 
Q 4119 4278 3834 4013 
L 5453 4013 
L 5453 2681 
L 3775 2681 
Q 3956 2159 4200 1772 
Q 4884 2200 5319 2572 
L 5691 2284 
Q 5094 1831 4403 1478 
Q 4969 741 5947 263 
L 5588 -128 
Q 4403 531 3775 1728 
Q 3572 2122 3366 2681 
L 3194 2681 
z
M 3469 3653 
L 3469 3041 
L 5000 3041 
L 5000 3653 
L 3469 3653 
z
M 3041 3041 
L 3041 3653 
L 1547 3653 
L 1547 3041 
L 3041 3041 
z
M 3309 4013 
Q 3616 4328 3769 4544 
L 2156 4544 
Q 2031 4375 1700 4013 
L 3309 4013 
z
" transform="scale(0.015625)"/>
     </defs>
     <use xlink:href="#IPAPGothic-8a08"/>
     <use xlink:href="#IPAPGothic-6e2c" transform="translate(100 0)"/>
     <use xlink:href="#IPAPGothic-5bfe" transform="translate(200 0)"/>
     <use xlink:href="#IPAPGothic-8c61" transform="translate(300 0)"/>
    </g>
   </g>
   <g id="text_3">
    <!-- 検出器 -->
    <g transform="translate(171.141176 124.691513) scale(0.13 -0.13)">
     <defs>
      <path id="IPAPGothic-691c" d="M 4122 1119 
Q 3803 -72 2456 -481 
L 2175 -103 
Q 3588 250 3828 1438 
L 2994 1438 
L 2994 1113 
L 2578 1113 
L 2578 2869 
L 3847 2869 
L 3847 3353 
L 3188 3353 
L 3188 3566 
Q 2788 3166 2372 2888 
L 2091 3238 
Q 3263 3956 3750 5241 
L 4225 5241 
Q 4891 4109 6122 3403 
L 5816 3028 
Q 5422 3288 5009 3647 
L 5009 3353 
L 4263 3353 
L 4263 2869 
L 5572 2869 
L 5572 1153 
L 5156 1153 
L 5156 1438 
L 4359 1438 
Q 4781 469 6013 19 
L 5681 -391 
Q 4494 197 4122 1119 
z
M 3853 2516 
L 2994 2516 
L 2994 1784 
L 3853 1784 
L 3853 2516 
z
M 4256 2516 
L 4256 1784 
L 5156 1784 
L 5156 2516 
L 4256 2516 
z
M 3334 3725 
L 4925 3725 
Q 4359 4263 4013 4831 
Q 3759 4228 3334 3725 
z
M 1197 2594 
Q 925 1569 447 794 
L 184 1256 
Q 850 2238 1147 3547 
L 319 3547 
L 319 3956 
L 1197 3956 
L 1197 5306 
L 1619 5306 
L 1619 3956 
L 2322 3956 
L 2322 3547 
L 1619 3547 
L 1619 2900 
Q 2084 2484 2394 2119 
L 2138 1666 
Q 1897 2078 1619 2400 
L 1619 -447 
L 1197 -447 
L 1197 2594 
z
" transform="scale(0.015625)"/>
      <path id="IPAPGothic-51fa" d="M 3419 2956 
L 4928 2956 
L 4928 4500 
L 5397 4500 
L 5397 2203 
L 4928 2203 
L 4928 2541 
L 3419 2541 
L 3419 384 
L 5194 384 
L 5194 1813 
L 5653 1813 
L 5653 -447 
L 5194 -447 
L 5194 -31 
L 1203 -31 
L 1203 -447 
L 744 -447 
L 744 1813 
L 1203 1813 
L 1203 384 
L 2938 384 
L 2938 2541 
L 1459 2541 
L 1459 2203 
L 1000 2203 
L 1000 4500 
L 1459 4500 
L 1459 2956 
L 2938 2956 
L 2938 5147 
L 3419 5147 
L 3419 2956 
z
" transform="scale(0.015625)"/>
     </defs>
     <use xlink:href="#IPAPGothic-691c"/>
     <use xlink:href="#IPAPGothic-51fa" transform="translate(100 0)"/>
     <use xlink:href="#IPAPGothic-5668" transform="translate(200 0)"/>
    </g>
    <!-- センサ -->
    <g transform="translate(172.766176 138.846888) scale(0.13 -0.13)">
     <defs>
      <path id="IPAPGothic-30bb" d="M 1869 4878 
L 2394 4878 
L 2394 3400 
L 5100 3731 
L 5416 3444 
Q 4647 2309 3816 1556 
L 3378 1875 
Q 4106 2459 4653 3234 
L 2394 2931 
L 2394 978 
Q 2394 734 2547 669 
Q 2731 584 3425 584 
Q 4228 584 5234 697 
L 5253 172 
Q 4372 103 3653 103 
Q 2488 103 2169 256 
Q 1869 403 1869 866 
L 1869 2863 
L 447 2675 
L 397 3150 
L 1869 3334 
L 1869 4878 
z
" transform="scale(0.015625)"/>
      <path id="IPAPGothic-30f3" d="M 1931 3084 
Q 1303 3656 544 4084 
L 869 4519 
Q 1550 4188 2303 3559 
L 1931 3084 
z
M 588 609 
Q 3472 1106 4703 3828 
L 5106 3469 
Q 3900 794 922 103 
L 588 609 
z
" transform="scale(0.015625)"/>
      <path id="IPAPGothic-30b5" d="M 3866 4922 
L 4378 4922 
L 4378 3531 
L 5759 3531 
L 5759 3072 
L 4378 3072 
Q 4359 1719 4025 1063 
Q 3600 222 2516 -325 
L 2141 38 
Q 3197 525 3584 1319 
Q 3847 1853 3866 3072 
L 2203 3072 
L 2203 1575 
L 1691 1575 
L 1691 3072 
L 384 3072 
L 384 3531 
L 1691 3531 
L 1691 4800 
L 2203 4800 
L 2203 3531 
L 3866 3531 
L 3866 4922 
z
" transform="scale(0.015625)"/>
     </defs>
     <use xlink:href="#IPAPGothic-30bb"/>
     <use xlink:href="#IPAPGothic-30f3" transform="translate(93.017578 0)"/>
     <use xlink:href="#IPAPGothic-30b5" transform="translate(179.003906 0)"/>
    </g>
   </g>
   <g id="text_4">
    <!-- 変換器 -->
    <g transform="translate(276.847059 132.328263) scale(0.15 -0.15)">
     <defs>
      <path id="IPAPGothic-5909" d="M 2147 1253 
Q 1641 822 944 563 
L 672 900 
Q 1938 1391 2556 2394 
L 2972 2231 
Q 2847 2034 2747 1900 
L 4750 1900 
L 4969 1700 
Q 4422 984 3859 563 
Q 4650 241 6094 69 
L 5825 -366 
Q 4275 -125 3431 288 
Q 2441 -272 603 -538 
L 341 -134 
Q 2103 75 2997 538 
Q 2591 791 2184 1209 
L 2147 1253 
z
M 2434 1528 
L 2422 1516 
Q 2803 1106 3425 778 
Q 3888 1078 4269 1528 
L 2434 1528 
z
M 4059 4147 
L 4059 2650 
Q 4059 2272 3663 2272 
Q 3416 2272 3047 2309 
L 2963 2725 
Q 3241 2681 3431 2681 
Q 3631 2681 3631 2872 
L 3631 4147 
L 2822 4147 
Q 2766 3291 2503 2816 
Q 2191 2259 1503 1869 
L 1172 2156 
Q 1878 2572 2144 3066 
Q 2359 3456 2388 4147 
L 403 4147 
L 403 4544 
L 2938 4544 
L 2938 5294 
L 3419 5294 
L 3419 4544 
L 5997 4544 
L 5997 4147 
L 4059 4147 
z
M 5494 2363 
Q 4828 3150 4328 3584 
L 4672 3859 
Q 5266 3369 5878 2656 
L 5494 2363 
z
M 341 2528 
Q 1025 3022 1441 3775 
L 1844 3597 
Q 1406 2781 706 2241 
L 341 2528 
z
" transform="scale(0.015625)"/>
      <path id="IPAPGothic-63db" d="M 3869 3591 
Q 3850 3044 3722 2719 
Q 3588 2403 3225 2144 
L 2981 2431 
L 2981 1772 
L 2578 1772 
L 2578 3256 
Q 2425 3075 2219 2866 
L 1981 3206 
Q 2853 4097 3219 5306 
L 3634 5219 
Q 3591 5084 3513 4878 
L 4606 4878 
L 4844 4691 
Q 4644 4288 4428 3950 
L 5644 3950 
L 5644 1772 
L 5234 1772 
L 5234 2328 
L 4709 2328 
Q 4313 2328 4313 2663 
L 4313 3591 
L 3869 3591 
z
M 3494 3591 
L 2981 3591 
L 2981 2450 
Q 3300 2644 3403 2956 
Q 3475 3191 3494 3591 
z
M 3063 3950 
L 3991 3950 
Q 4200 4278 4300 4519 
L 3366 4519 
Q 3225 4222 3063 3950 
z
M 4697 3591 
L 4697 2828 
Q 4697 2688 4888 2688 
L 5234 2688 
L 5234 3591 
L 4697 3591 
z
M 4416 1191 
Q 4913 394 6103 59 
L 5803 -378 
Q 4528 150 4097 1038 
Q 3741 -91 2363 -472 
L 2081 -69 
Q 3422 150 3750 1191 
L 2113 1191 
L 2113 1563 
L 3828 1563 
L 3828 2119 
L 4256 2119 
L 4256 1563 
L 6041 1563 
L 6041 1191 
L 4416 1191 
z
M 1184 4019 
L 1184 5313 
L 1613 5313 
L 1613 4019 
L 2266 4019 
L 2266 3603 
L 1613 3603 
L 1613 2394 
Q 1903 2472 2266 2597 
L 2303 2241 
Q 2038 2119 1613 1978 
L 1613 6 
Q 1613 -272 1491 -363 
Q 1388 -447 1088 -447 
Q 759 -447 519 -403 
L 441 56 
Q 716 -6 972 -6 
Q 1184 -6 1184 172 
L 1184 1844 
L 1125 1825 
Q 694 1700 409 1625 
L 275 2059 
Q 769 2163 1184 2272 
L 1184 3603 
L 372 3603 
L 372 4019 
L 1184 4019 
z
" transform="scale(0.015625)"/>
     </defs>
     <use xlink:href="#IPAPGothic-5909"/>
     <use xlink:href="#IPAPGothic-63db" transform="translate(100 0)"/>
     <use xlink:href="#IPAPGothic-5668" transform="translate(200 0)"/>
    </g>
   </g>
   <g id="text_5">
    <!-- 表示部 -->
    <g transform="translate(385.552941 132.328263) scale(0.15 -0.15)">
     <defs>
      <path id="IPAPGothic-8868" d="M 3209 2350 
Q 2856 1944 2328 1563 
L 2328 288 
Q 2975 438 3756 691 
L 3763 275 
Q 2538 -163 1188 -447 
L 981 13 
Q 1566 119 1819 175 
L 1875 188 
L 1875 1275 
Q 1303 941 506 666 
L 219 1056 
Q 1813 1509 2675 2356 
L 384 2356 
L 384 2753 
L 2978 2753 
L 2978 3309 
L 963 3309 
L 963 3694 
L 2978 3694 
L 2978 4219 
L 641 4219 
L 641 4603 
L 2978 4603 
L 2978 5313 
L 3431 5313 
L 3431 4603 
L 5763 4603 
L 5763 4219 
L 3431 4219 
L 3431 3694 
L 5434 3694 
L 5434 3309 
L 3431 3309 
L 3431 2753 
L 6016 2753 
L 6016 2356 
L 3634 2356 
Q 3863 1838 4244 1356 
Q 4781 1756 5166 2191 
L 5588 1894 
Q 5084 1419 4525 1056 
Q 5150 463 6106 66 
L 5738 -356 
Q 3850 575 3209 2350 
z
" transform="scale(0.015625)"/>
      <path id="IPAPGothic-793a" d="M 3488 2822 
L 3488 153 
Q 3488 -144 3334 -247 
Q 3213 -331 2872 -331 
Q 2425 -331 1950 -294 
L 1863 213 
Q 2350 128 2775 128 
Q 3000 128 3000 353 
L 3000 2822 
L 447 2822 
L 447 3250 
L 5953 3250 
L 5953 2822 
L 3488 2822 
z
M 1125 4813 
L 5266 4813 
L 5266 4384 
L 1125 4384 
L 1125 4813 
z
M 5581 244 
Q 4966 1263 4206 2081 
L 4563 2369 
Q 5319 1575 6009 622 
L 5581 244 
z
M 403 616 
Q 1184 1238 1741 2259 
L 2163 2053 
Q 1631 975 763 238 
L 403 616 
z
" transform="scale(0.015625)"/>
      <path id="IPAPGothic-90e8" d="M 3034 4031 
L 3028 4000 
Q 2897 3494 2675 2888 
L 3628 2888 
L 3628 2503 
L 319 2503 
L 319 2888 
L 1253 2888 
Q 1147 3453 947 4031 
L 434 4031 
L 434 4416 
L 1753 4416 
L 1753 5313 
L 2194 5313 
L 2194 4416 
L 3456 4416 
L 3456 4031 
L 3034 4031 
z
M 2591 4031 
L 1381 4031 
Q 1563 3538 1691 2888 
L 2238 2888 
Q 2459 3466 2591 4031 
z
M 3191 1863 
L 3191 -422 
L 2763 -422 
L 2763 -103 
L 1247 -103 
L 1247 -447 
L 819 -447 
L 819 1863 
L 3191 1863 
z
M 1247 1478 
L 1247 281 
L 2763 281 
L 2763 1478 
L 1247 1478 
z
M 5166 2881 
Q 5950 2063 5950 1159 
Q 5950 391 5303 391 
Q 5013 391 4581 463 
L 4525 947 
Q 4841 850 5163 850 
Q 5469 850 5469 1216 
Q 5469 2041 4666 2828 
Q 5078 3600 5300 4409 
L 4288 4409 
L 4288 -447 
L 3847 -447 
L 3847 4825 
L 5575 4825 
L 5863 4594 
Q 5559 3659 5166 2881 
z
" transform="scale(0.015625)"/>
     </defs>
     <use xlink:href="#IPAPGothic-8868"/>
     <use xlink:href="#IPAPGothic-793a" transform="translate(100 0)"/>
     <use xlink:href="#IPAPGothic-90e8" transform="translate(200 0)"/>
    </g>
   </g>
   <g id="text_6">
    <!-- 計測者 -->
    <g transform="translate(507.847059 132.328263) scale(0.15 -0.15)">
     <defs>
      <path id="IPAPGothic-8005" d="M 4328 4153 
Q 4694 4553 5038 5025 
L 5453 4794 
Q 4966 4144 4128 3372 
L 6044 3372 
L 6044 2963 
L 3656 2963 
Q 3319 2703 2778 2338 
L 5088 2338 
L 5088 -447 
L 4634 -447 
L 4634 -159 
L 2213 -159 
L 2213 -447 
L 1759 -447 
L 1759 1709 
Q 1141 1356 481 1075 
L 231 1472 
Q 1663 2022 2938 2913 
L 347 2913 
L 347 3322 
L 2703 3322 
L 2703 4109 
L 1128 4109 
L 1128 4500 
L 2741 4500 
L 2741 5313 
L 3194 5313 
L 3194 4500 
L 4328 4500 
L 4328 4153 
z
M 4284 4109 
L 3156 4109 
L 3156 3322 
L 3463 3322 
Q 3956 3747 4284 4109 
z
M 2213 1953 
L 2213 1306 
L 4634 1306 
L 4634 1953 
L 2213 1953 
z
M 2213 934 
L 2213 231 
L 4634 231 
L 4634 934 
L 2213 934 
z
" transform="scale(0.015625)"/>
     </defs>
     <use xlink:href="#IPAPGothic-8a08"/>
     <use xlink:href="#IPAPGothic-6e2c" transform="translate(100 0)"/>
     <use xlink:href="#IPAPGothic-8005" transform="translate(200 0)"/>
    </g>
   </g>
   <g id="patch_13">
    <path d="M 107.752941 128.135294 
Q 130.852941 128.135294 152.27589 128.135294 
" style="fill: none; stroke: #000000; stroke-width: 1.5; stroke-linecap: round"/>
    <path d="M 145.87589 124.935294 
L 152.27589 128.135294 
L 145.87589 131.335294 
" style="fill: none; stroke: #000000; stroke-width: 1.5; stroke-linecap: round"/>
   </g>
   <g id="patch_14">
    <path d="M 227.329412 128.135294 
Q 244.994118 128.135294 260.981773 128.135294 
" style="fill: none; stroke: #000000; stroke-width: 1.5; stroke-linecap: round"/>
    <path d="M 254.581773 124.935294 
L 260.981773 128.135294 
L 254.581773 131.335294 
" style="fill: none; stroke: #000000; stroke-width: 1.5; stroke-linecap: round"/>
   </g>
   <g id="patch_15">
    <path d="M 336.035294 128.135294 
Q 353.7 128.135294 369.687655 128.135294 
" style="fill: none; stroke: #000000; stroke-width: 1.5; stroke-linecap: round"/>
    <path d="M 363.287655 124.935294 
L 369.687655 128.135294 
L 363.287655 131.335294 
" style="fill: none; stroke: #000000; stroke-width: 1.5; stroke-linecap: round"/>
   </g>
   <g id="patch_16">
    <path d="M 444.741176 128.135294 
Q 469.2 128.135294 491.981773 128.135294 
" style="fill: none; stroke: #000000; stroke-width: 1.5; stroke-linecap: round"/>
    <path d="M 485.581773 124.935294 
L 491.981773 128.135294 
L 485.581773 131.335294 
" style="fill: none; stroke: #000000; stroke-width: 1.5; stroke-linecap: round"/>
   </g>
   <g id="text_7">
    <!-- 物 -->
    <g transform="translate(116.058824 168.655588) scale(0.16 -0.16)">
     <defs>
      <path id="IPAPGothic-7269" d="M 4650 3763 
L 4178 3763 
L 4166 3697 
Q 3809 1916 2663 922 
L 2334 1228 
Q 3216 2034 3563 3084 
Q 3647 3328 3744 3763 
L 3300 3763 
Q 2991 3081 2634 2616 
L 2297 2919 
Q 3013 3872 3319 5319 
L 3775 5209 
Q 3631 4603 3469 4166 
L 5900 4166 
Q 5891 1056 5734 225 
Q 5628 -331 4959 -331 
Q 4553 -331 4166 -294 
L 4069 197 
Q 4594 122 4881 122 
Q 5172 122 5241 275 
Q 5422 669 5450 3438 
L 5459 3763 
L 5081 3763 
Q 4925 2650 4581 1797 
Q 4091 603 3066 -325 
L 2725 0 
Q 4281 1309 4638 3697 
L 4650 3763 
z
M 1025 3950 
L 1434 3950 
L 1434 5313 
L 1875 5313 
L 1875 3950 
L 2566 3950 
L 2566 3547 
L 1875 3547 
L 1875 2131 
Q 2366 2341 2572 2441 
L 2616 2031 
Q 2184 1809 1856 1672 
L 1856 -447 
L 1416 -447 
L 1416 1478 
Q 1028 1313 506 1122 
L 300 1563 
Q 903 1747 1434 1953 
L 1434 3547 
L 947 3547 
Q 831 2994 641 2556 
L 269 2803 
Q 600 3669 684 4744 
L 1125 4684 
Q 1066 4222 1025 3950 
z
" transform="scale(0.015625)"/>
     </defs>
     <use xlink:href="#IPAPGothic-7269"/>
    </g>
    <!-- 理 -->
    <g transform="translate(116.058824 186.077588) scale(0.16 -0.16)">
     <defs>
      <path id="IPAPGothic-7406" d="M 1541 4397 
L 1541 3084 
L 2222 3084 
L 2222 2688 
L 1541 2688 
L 1541 1247 
Q 1916 1356 2400 1522 
L 2431 1144 
Q 1356 713 434 472 
L 263 909 
Q 759 1025 1113 1119 
L 1113 2688 
L 441 2688 
L 441 3084 
L 1113 3084 
L 1113 4397 
L 372 4397 
L 372 4800 
L 2350 4800 
L 2350 4397 
L 1541 4397 
z
M 5691 4991 
L 5691 2106 
L 4378 2106 
L 4378 1375 
L 5825 1375 
L 5825 984 
L 4378 984 
L 4378 206 
L 6081 206 
L 6081 -191 
L 2150 -191 
L 2150 206 
L 3944 206 
L 3944 984 
L 2559 984 
L 2559 1375 
L 3944 1375 
L 3944 2106 
L 2675 2106 
L 2675 4991 
L 5691 4991 
z
M 3091 4606 
L 3091 3750 
L 3956 3750 
L 3956 4606 
L 3091 4606 
z
M 3091 3378 
L 3091 2491 
L 3956 2491 
L 3956 3378 
L 3091 3378 
z
M 5275 2491 
L 5275 3378 
L 4366 3378 
L 4366 2491 
L 5275 2491 
z
M 5275 3750 
L 5275 4606 
L 4366 4606 
L 4366 3750 
L 5275 3750 
z
" transform="scale(0.015625)"/>
     </defs>
     <use xlink:href="#IPAPGothic-7406"/>
    </g>
    <!-- 量 -->
    <g transform="translate(116.058824 203.499588) scale(0.16 -0.16)">
     <defs>
      <path id="IPAPGothic-91cf" d="M 5081 5159 
L 5081 3497 
L 1275 3497 
L 1275 5159 
L 5081 5159 
z
M 1716 4819 
L 1716 4475 
L 4647 4475 
L 4647 4819 
L 1716 4819 
z
M 1716 4175 
L 1716 3816 
L 4647 3816 
L 4647 4175 
L 1716 4175 
z
M 5238 2625 
L 5238 997 
L 3388 997 
L 3388 694 
L 5428 694 
L 5428 353 
L 3388 353 
L 3388 34 
L 6044 34 
L 6044 -331 
L 353 -331 
L 353 34 
L 2972 34 
L 2972 353 
L 969 353 
L 969 694 
L 2972 694 
L 2972 997 
L 1159 997 
L 1159 2625 
L 5238 2625 
z
M 1588 2325 
L 1588 1972 
L 2972 1972 
L 2972 2325 
L 1588 2325 
z
M 1588 1672 
L 1588 1303 
L 2972 1303 
L 2972 1672 
L 1588 1672 
z
M 4809 1303 
L 4809 1672 
L 3388 1672 
L 3388 1303 
L 4809 1303 
z
M 4809 1972 
L 4809 2325 
L 3388 2325 
L 3388 1972 
L 4809 1972 
z
M 384 3231 
L 6009 3231 
L 6009 2884 
L 384 2884 
L 384 3231 
z
" transform="scale(0.015625)"/>
     </defs>
     <use xlink:href="#IPAPGothic-91cf"/>
    </g>
   </g>
   <g id="text_8">
    <!-- 電気量 -->
    <g transform="translate(260.964706 213.279949) scale(0.12 -0.12)">
     <defs>
      <path id="IPAPGothic-96fb" d="M 2956 4378 
L 2956 4741 
L 1053 4741 
L 1053 5106 
L 5338 5106 
L 5338 4741 
L 3397 4741 
L 3397 4378 
L 5797 4378 
L 5797 3084 
L 5344 3084 
L 5344 4031 
L 3397 4031 
L 3397 2638 
L 2956 2638 
L 2956 4031 
L 1047 4031 
L 1047 3072 
L 594 3072 
L 594 4378 
L 2956 4378 
z
M 3366 544 
L 3366 238 
Q 3366 59 3500 31 
Q 3603 6 4491 6 
Q 5219 6 5347 31 
Q 5556 78 5584 281 
Q 5609 500 5616 684 
L 6038 556 
Q 6028 -109 5797 -256 
Q 5619 -378 4422 -378 
Q 3256 -378 3128 -313 
Q 2963 -225 2963 91 
L 2963 544 
L 1456 544 
L 1456 166 
L 1034 166 
L 1034 2400 
L 5316 2400 
L 5316 544 
L 3366 544 
z
M 2963 2059 
L 1456 2059 
L 1456 1666 
L 2963 1666 
L 2963 2059 
z
M 3366 2059 
L 3366 1666 
L 4900 1666 
L 4900 2059 
L 3366 2059 
z
M 2963 1325 
L 1456 1325 
L 1456 897 
L 2963 897 
L 2963 1325 
z
M 3366 1325 
L 3366 897 
L 4900 897 
L 4900 1325 
L 3366 1325 
z
M 1338 3688 
L 2663 3688 
L 2663 3375 
L 1338 3375 
L 1338 3688 
z
M 1338 3072 
L 2663 3072 
L 2663 2753 
L 1338 2753 
L 1338 3072 
z
M 3691 3688 
L 5053 3688 
L 5053 3375 
L 3691 3375 
L 3691 3688 
z
M 3691 3072 
L 5053 3072 
L 5053 2753 
L 3691 2753 
L 3691 3072 
z
" transform="scale(0.015625)"/>
      <path id="IPAPGothic-6c17" d="M 1863 4659 
L 5594 4659 
L 5594 4263 
L 1672 4263 
Q 1306 3572 831 3059 
L 531 3397 
Q 1266 4181 1600 5288 
L 2069 5203 
Q 1981 4941 1863 4659 
z
M 4997 2950 
L 5003 2400 
Q 5025 1044 5222 466 
Q 5328 184 5394 184 
Q 5513 184 5638 1191 
L 6047 916 
Q 5847 -450 5422 -450 
Q 5125 -450 4856 147 
Q 4550 819 4550 2381 
L 4550 2553 
L 672 2553 
L 672 2950 
L 4997 2950 
z
M 2388 1106 
Q 1741 1553 1069 1875 
L 1350 2188 
Q 1991 1878 2606 1478 
L 2669 1441 
Q 3034 1894 3250 2431 
L 3681 2241 
Q 3403 1634 3047 1184 
Q 3672 744 4269 231 
L 3944 -128 
Q 3384 391 2759 844 
Q 2031 50 928 -372 
L 653 31 
Q 1728 403 2356 1069 
L 2388 1106 
z
M 1516 3822 
L 4991 3822 
L 4991 3425 
L 1516 3425 
L 1516 3822 
z
" transform="scale(0.015625)"/>
     </defs>
     <use xlink:href="#IPAPGothic-96fb"/>
     <use xlink:href="#IPAPGothic-6c17" transform="translate(100 0)"/>
     <use xlink:href="#IPAPGothic-91cf" transform="translate(200 0)"/>
    </g>
    <!-- 変位・圧力 -->
    <g transform="translate(251.964706 226.346449) scale(0.12 -0.12)">
     <defs>
      <path id="IPAPGothic-4f4d" d="M 1566 3669 
L 1566 -447 
L 1113 -447 
L 1113 2728 
Q 856 2288 544 1863 
L 294 2253 
Q 1209 3528 1591 5244 
L 2034 5147 
Q 1838 4313 1566 3669 
z
M 4075 3944 
L 5791 3944 
L 5791 3528 
L 2047 3528 
L 2047 3944 
L 3600 3944 
L 3600 5106 
L 4075 5106 
L 4075 3944 
z
M 4025 225 
L 4031 256 
Q 4456 1591 4691 3213 
L 5184 3091 
Q 4878 1463 4488 225 
L 6009 225 
L 6009 -191 
L 1838 -191 
L 1838 225 
L 4025 225 
z
M 3000 556 
Q 2791 1869 2431 2988 
L 2891 3116 
Q 3225 2194 3506 709 
L 3000 556 
z
" transform="scale(0.015625)"/>
      <path id="IPAPGothic-30fb" d="M 1172 2859 
L 2028 2859 
L 2028 2003 
L 1172 2003 
L 1172 2859 
z
" transform="scale(0.015625)"/>
      <path id="IPAPGothic-5727" d="M 1409 4409 
L 1409 3200 
Q 1409 1691 1275 916 
Q 1150 216 800 -456 
L 403 -103 
Q 934 931 934 2853 
L 934 4838 
L 5753 4838 
L 5753 4409 
L 1409 4409 
z
M 3378 2597 
L 3378 4134 
L 3859 4134 
L 3859 2597 
L 5588 2597 
L 5588 2169 
L 3859 2169 
L 3859 325 
L 6009 325 
L 6009 -116 
L 1356 -116 
L 1356 325 
L 3378 325 
L 3378 2169 
L 1747 2169 
L 1747 2597 
L 3378 2597 
z
" transform="scale(0.015625)"/>
      <path id="IPAPGothic-529b" d="M 3303 3944 
L 5650 3944 
Q 5622 1247 5428 356 
Q 5303 -231 4647 -231 
Q 4159 -231 3456 -147 
L 3378 416 
Q 4022 263 4453 263 
Q 4881 263 4947 616 
Q 5103 1509 5134 3303 
L 5141 3509 
L 3291 3509 
Q 3231 2200 2738 1281 
Q 2194 297 878 -416 
L 525 -6 
Q 2709 963 2778 3450 
L 641 3450 
L 641 3891 
L 2784 3891 
L 2784 5147 
L 3303 5147 
L 3303 3944 
z
" transform="scale(0.015625)"/>
     </defs>
     <use xlink:href="#IPAPGothic-5909"/>
     <use xlink:href="#IPAPGothic-4f4d" transform="translate(100 0)"/>
     <use xlink:href="#IPAPGothic-30fb" transform="translate(200 0)"/>
     <use xlink:href="#IPAPGothic-5727" transform="translate(250 0)"/>
     <use xlink:href="#IPAPGothic-529b" transform="translate(350 0)"/>
    </g>
   </g>
   <g id="text_9">
    <!-- ブロック図 -->
    <g transform="translate(461.559995 46.722381) scale(0.15 -0.15)">
     <defs>
      <path id="IPAPGothic-30d6" d="M 4294 4294 
L 4594 4019 
Q 4353 2400 3550 1403 
Q 2763 431 1356 -97 
L 991 353 
Q 3538 1131 4019 3822 
L 434 3756 
L 434 4244 
L 4294 4294 
z
M 5319 4428 
Q 5072 4878 4753 5216 
L 5088 5428 
Q 5384 5147 5675 4666 
L 5319 4428 
z
M 4653 4213 
Q 4413 4663 4094 5038 
L 4434 5241 
Q 4747 4909 5009 4447 
L 4653 4213 
z
" transform="scale(0.015625)"/>
      <path id="IPAPGothic-30ed" d="M 763 4256 
L 4866 4256 
L 4866 159 
L 4341 159 
L 4341 556 
L 1288 556 
L 1288 159 
L 763 159 
L 763 4256 
z
M 1288 3769 
L 1288 1050 
L 4341 1050 
L 4341 3769 
L 1288 3769 
z
" transform="scale(0.015625)"/>
      <path id="IPAPGothic-30c3" d="M 878 1984 
Q 656 2666 378 3175 
L 819 3391 
Q 1138 2866 1350 2209 
L 878 1984 
z
M 2106 2297 
Q 1916 2978 1625 3469 
L 2081 3681 
Q 2394 3166 2588 2522 
L 2106 2297 
z
M 1031 372 
Q 2197 744 2834 1569 
Q 3378 2263 3572 3525 
L 4078 3406 
Q 3838 1975 3119 1119 
Q 2509 391 1369 -44 
L 1031 372 
z
" transform="scale(0.015625)"/>
      <path id="IPAPGothic-30af" d="M 4269 4191 
L 4609 3941 
Q 4044 1013 1453 -225 
L 1081 184 
Q 2263 675 3041 1625 
Q 3784 2531 4025 3731 
L 2203 3731 
Q 1609 2681 744 1959 
L 366 2309 
Q 1659 3353 2228 5022 
L 2722 4881 
Q 2659 4672 2441 4191 
L 4269 4191 
z
" transform="scale(0.015625)"/>
      <path id="IPAPGothic-56f3" d="M 3375 1428 
Q 2606 747 1625 447 
L 1356 831 
Q 2297 1091 2966 1631 
L 2791 1709 
Q 2138 2022 1338 2328 
L 1575 2669 
Q 2356 2375 3297 1941 
Q 4069 2759 4422 4178 
L 4853 4013 
Q 4456 2588 3694 1747 
Q 4313 1434 5000 1050 
L 4706 666 
Q 4113 1041 3431 1394 
L 3375 1428 
z
M 2131 2681 
Q 1897 3466 1625 3903 
L 2038 4084 
Q 2331 3563 2559 2869 
L 2131 2681 
z
M 3169 2834 
Q 2934 3603 2663 4056 
L 3059 4225 
Q 3366 3728 3597 3022 
L 3169 2834 
z
M 5769 4984 
L 5769 -447 
L 5300 -447 
L 5300 -128 
L 1097 -128 
L 1097 -447 
L 628 -447 
L 628 4984 
L 5769 4984 
z
M 1097 4575 
L 1097 275 
L 5300 275 
L 5300 4575 
L 1097 4575 
z
" transform="scale(0.015625)"/>
     </defs>
     <use xlink:href="#IPAPGothic-30d6"/>
     <use xlink:href="#IPAPGothic-30ed" transform="translate(89.013672 0)"/>
     <use xlink:href="#IPAPGothic-30c3" transform="translate(177.001953 0)"/>
     <use xlink:href="#IPAPGothic-30af" transform="translate(247.998047 0)"/>
     <use xlink:href="#IPAPGothic-56f3" transform="translate(327.978516 0)"/>
    </g>
   </g>
  </g>
 </g>
 <defs>
  <clipPath id="pad6e9d06b0">
   <rect x="7.2" y="7.2" width="576.141176" height="277.2"/>
  </clipPath>
 </defs>
</svg>
