<?xml version="1.0" encoding="utf-8" standalone="no"?>
<!DOCTYPE svg PUBLIC "-//W3C//DTD SVG 1.1//EN"
  "http://www.w3.org/Graphics/SVG/1.1/DTD/svg11.dtd">
<svg xmlns:xlink="http://www.w3.org/1999/xlink" width="641.085294pt" height="225.017647pt" viewBox="0 0 641.085294 225.017647" xmlns="http://www.w3.org/2000/svg" version="1.1">
 <metadata>
  <rdf:RDF xmlns:dc="http://purl.org/dc/elements/1.1/" xmlns:cc="http://creativecommons.org/ns#" xmlns:rdf="http://www.w3.org/1999/02/22-rdf-syntax-ns#">
   <cc:Work>
    <dc:type rdf:resource="http://purl.org/dc/dcmitype/StillImage"/>
    <dc:date>2026-06-24T01:04:36.496312</dc:date>
    <dc:format>image/svg+xml</dc:format>
    <dc:creator>
     <cc:Agent>
      <dc:title>Matplotlib v3.10.0, https://matplotlib.org/</dc:title>
     </cc:Agent>
    </dc:creator>
   </cc:Work>
  </rdf:RDF>
 </metadata>
 <defs>
  <style type="text/css">*{stroke-linejoin: round; stroke-linecap: butt}</style>
 </defs>
 <g id="figure_1">
  <g id="patch_1">
   <path d="M 0 225.017647 
L 641.085294 225.017647 
L 641.085294 0 
L 0 0 
z
" style="fill: #ffffff"/>
  </g>
  <g id="axes_1">
   <g id="patch_2">
    <path d="M 152.473529 103.482353 
L 248.755882 103.482353 
L 248.755882 37.288235 
L 152.473529 37.288235 
z
" clip-path="url(#pb6636d5b8c)" style="fill: #ffffff; stroke: #000000; stroke-width: 1.3; stroke-linejoin: miter"/>
   </g>
   <g id="patch_3">
    <path d="M 357.073529 103.482353 
L 453.355882 103.482353 
L 453.355882 37.288235 
L 357.073529 37.288235 
z
" clip-path="url(#pb6636d5b8c)" style="fill: #ffffff; stroke: #000000; stroke-width: 1.3; stroke-linejoin: miter"/>
   </g>
   <g id="line2d_1">
    <path d="M 453.355882 70.385294 
L 519.55 70.385294 
" clip-path="url(#pb6636d5b8c)" style="fill: none; stroke: #000000; stroke-width: 1.6; stroke-linecap: square"/>
   </g>
   <g id="line2d_2">
    <defs>
     <path id="m540a2c6edd" d="M 0 4 
C 1.060812 4 2.078319 3.578535 2.828427 2.828427 
C 3.578535 2.078319 4 1.060812 4 0 
C 4 -1.060812 3.578535 -2.078319 2.828427 -2.828427 
C 2.078319 -3.578535 1.060812 -4 0 -4 
C -1.060812 -4 -2.078319 -3.578535 -2.828427 -2.828427 
C -3.578535 -2.078319 -4 -1.060812 -4 0 
C -4 1.060812 -3.578535 2.078319 -2.828427 2.828427 
C -2.078319 3.578535 -1.060812 4 0 4 
z
" style="stroke: #000000"/>
    </defs>
    <g clip-path="url(#pb6636d5b8c)">
     <use xlink:href="#m540a2c6edd" x="519.55" y="70.385294" style="stroke: #000000"/>
    </g>
   </g>
   <g id="line2d_3">
    <path d="M 519.55 70.385294 
L 519.55 184.720588 
" clip-path="url(#pb6636d5b8c)" style="fill: none; stroke: #000000; stroke-width: 1.6; stroke-linecap: square"/>
   </g>
   <g id="line2d_4">
    <path d="M 519.55 184.720588 
L 200.614706 184.720588 
" clip-path="url(#pb6636d5b8c)" style="fill: none; stroke: #000000; stroke-width: 1.6; stroke-linecap: square"/>
   </g>
   <g id="text_1">
    <!-- 制御装置 -->
    <g transform="translate(170.614706 74.578263) scale(0.15 -0.15)">
     <defs>
      <path id="IPAPGothic-5236" d="M 1881 4331 
L 1881 5313 
L 2309 5313 
L 2309 4331 
L 3616 4331 
L 3616 3959 
L 2309 3959 
L 2309 3206 
L 3813 3206 
L 3813 2822 
L 2309 2822 
L 2309 2188 
L 3544 2188 
L 3544 544 
Q 3544 281 3434 191 
Q 3338 116 3084 116 
Q 2816 116 2578 153 
L 2534 581 
Q 2747 531 2950 531 
Q 3122 531 3122 728 
L 3122 1816 
L 2309 1816 
L 2309 -447 
L 1881 -447 
L 1881 1816 
L 1106 1816 
L 1106 13 
L 691 13 
L 691 2188 
L 1881 2188 
L 1881 2822 
L 319 2822 
L 319 3206 
L 1881 3206 
L 1881 3959 
L 1119 3959 
Q 984 3625 741 3263 
L 375 3525 
Q 822 4203 1003 5081 
L 1447 4991 
Q 1372 4666 1259 4331 
L 1881 4331 
z
M 4159 4575 
L 4606 4575 
L 4606 1013 
L 4159 1013 
L 4159 4575 
z
M 5369 5100 
L 5809 5100 
L 5809 147 
Q 5809 -128 5700 -256 
Q 5575 -391 5156 -391 
Q 4744 -391 4350 -341 
L 4275 134 
Q 4731 69 5138 69 
Q 5369 69 5369 325 
L 5369 5100 
z
" transform="scale(0.015625)"/>
      <path id="IPAPGothic-5fa1" d="M 3297 734 
Q 3569 800 4206 978 
L 4219 606 
Q 3034 209 1806 -31 
L 1634 391 
Q 1963 447 2063 466 
L 2063 2350 
L 2478 2350 
L 2478 550 
L 2625 581 
L 2759 613 
L 2888 641 
L 2888 2791 
L 1825 2791 
L 1825 3181 
L 2888 3181 
L 2888 4103 
L 2478 4103 
Q 2356 3813 2172 3541 
L 1831 3791 
Q 2222 4359 2434 5275 
L 2831 5184 
Q 2744 4800 2638 4494 
L 4128 4494 
L 4128 4103 
L 3297 4103 
L 3297 3181 
L 4250 3181 
L 4250 2791 
L 3297 2791 
L 3297 2053 
L 4156 2053 
L 4156 1656 
L 3297 1656 
L 3297 734 
z
M 1434 2869 
L 1434 -447 
L 1025 -447 
L 1025 2325 
Q 741 1988 450 1703 
L 219 2063 
Q 969 2744 1531 3809 
L 1875 3597 
Q 1675 3225 1434 2869 
z
M 5916 4653 
L 5916 853 
Q 5916 597 5819 500 
Q 5725 403 5475 403 
Q 5253 403 5053 444 
L 5006 866 
Q 5156 831 5334 831 
Q 5513 831 5513 1031 
L 5513 4250 
L 4841 4250 
L 4841 -447 
L 4425 -447 
L 4425 4653 
L 5916 4653 
z
M 263 3822 
Q 1038 4391 1466 5203 
L 1844 5019 
Q 1297 4047 538 3500 
L 263 3822 
z
" transform="scale(0.015625)"/>
      <path id="IPAPGothic-88c5" d="M 3588 1709 
Q 3831 1291 4234 916 
Q 4725 1234 5138 1638 
L 5575 1391 
Q 5044 944 4563 659 
Q 5134 263 6072 -50 
L 5766 -447 
Q 3759 350 3181 1709 
Q 2775 1338 2275 1050 
L 2275 153 
Q 3034 278 3722 447 
L 3744 66 
Q 2363 -281 1175 -466 
L 1003 -31 
Q 1078 -22 1834 78 
L 1834 825 
Q 1247 566 472 334 
L 191 719 
Q 1719 1091 2647 1709 
L 344 1709 
L 344 2094 
L 2944 2094 
L 2944 2591 
L 3397 2591 
L 3397 2094 
L 6041 2094 
L 6041 1709 
L 3588 1709 
z
M 1728 3334 
Q 1716 3322 1638 3269 
Q 1234 2978 666 2694 
L 416 3097 
Q 1053 3359 1728 3794 
L 1728 5313 
L 2169 5313 
L 2169 2463 
L 1728 2463 
L 1728 3334 
z
M 3909 4525 
L 3909 5313 
L 4356 5313 
L 4356 4525 
L 5956 4525 
L 5956 4116 
L 4356 4116 
L 4356 3103 
L 5741 3103 
L 5741 2719 
L 2609 2719 
L 2609 3103 
L 3909 3103 
L 3909 4116 
L 2431 4116 
L 2431 4525 
L 3909 4525 
z
M 1100 3853 
Q 853 4472 581 4800 
L 953 5025 
Q 1259 4631 1491 4103 
L 1100 3853 
z
" transform="scale(0.015625)"/>
      <path id="IPAPGothic-7f6e" d="M 3559 3841 
Q 3531 3675 3481 3488 
L 5991 3488 
L 5991 3147 
L 3394 3147 
Q 3388 3128 3375 3066 
Q 3369 3047 3291 2797 
L 5222 2797 
L 5222 453 
L 1978 453 
L 1978 2797 
L 2856 2797 
Q 2913 2966 2956 3147 
L 397 3147 
L 397 3488 
L 3041 3488 
Q 3047 3519 3063 3591 
Q 3094 3750 3113 3841 
L 966 3841 
L 966 5050 
L 5491 5050 
L 5491 3841 
L 3559 3841 
z
M 1394 4725 
L 1394 4166 
L 2338 4166 
L 2338 4725 
L 1394 4725 
z
M 5063 4166 
L 5063 4725 
L 4109 4725 
L 4109 4166 
L 5063 4166 
z
M 2753 4725 
L 2753 4166 
L 3694 4166 
L 3694 4725 
L 2753 4725 
z
M 2406 2472 
L 2406 2125 
L 4794 2125 
L 4794 2472 
L 2406 2472 
z
M 2406 1813 
L 2406 1459 
L 4794 1459 
L 4794 1813 
L 2406 1813 
z
M 2406 1147 
L 2406 778 
L 4794 778 
L 4794 1147 
L 2406 1147 
z
M 1331 134 
L 6081 134 
L 6081 -225 
L 1331 -225 
L 1331 -447 
L 878 -447 
L 878 2803 
L 1331 2803 
L 1331 134 
z
" transform="scale(0.015625)"/>
     </defs>
     <use xlink:href="#IPAPGothic-5236"/>
     <use xlink:href="#IPAPGothic-5fa1" transform="translate(100 0)"/>
     <use xlink:href="#IPAPGothic-88c5" transform="translate(200 0)"/>
     <use xlink:href="#IPAPGothic-7f6e" transform="translate(300 0)"/>
    </g>
   </g>
   <g id="text_2">
    <!-- 制御対象 -->
    <g transform="translate(375.214706 74.578263) scale(0.15 -0.15)">
     <defs>
      <path id="IPAPGothic-5bfe" d="M 2697 3597 
Q 2697 3566 2691 3534 
Q 2584 2566 2234 1703 
Q 2566 1294 3028 666 
L 2656 331 
Q 2428 678 2016 1234 
Q 1466 184 725 -416 
L 366 -63 
Q 1156 525 1684 1569 
L 1709 1625 
Q 1191 2278 647 2844 
L 975 3113 
Q 1478 2619 1909 2100 
Q 2153 2825 2241 3597 
L 391 3597 
L 391 4013 
L 1666 4013 
L 1666 5209 
L 2106 5209 
L 2106 4013 
L 3272 4013 
L 3272 3706 
L 4822 3706 
L 4822 5209 
L 5275 5209 
L 5275 3706 
L 6044 3706 
L 6044 3278 
L 5300 3278 
L 5300 109 
Q 5300 -397 4694 -397 
Q 4206 -397 3875 -353 
L 3784 141 
Q 4200 63 4616 63 
Q 4847 63 4847 269 
L 4847 3278 
L 3241 3278 
L 3241 3597 
L 2697 3597 
z
M 4000 1147 
Q 3619 1994 3188 2578 
L 3578 2816 
Q 4044 2188 4409 1428 
L 4000 1147 
z
" transform="scale(0.015625)"/>
      <path id="IPAPGothic-8c61" d="M 3194 2681 
Q 3009 2528 2900 2450 
Q 3834 1584 3834 450 
Q 3834 -84 3675 -281 
Q 3528 -447 3175 -447 
Q 2816 -447 2419 -416 
L 2334 25 
Q 2700 -38 3041 -38 
Q 3303 -38 3363 134 
Q 3400 250 3400 463 
Q 3400 800 3297 1147 
Q 2341 231 863 -288 
L 550 72 
Q 1975 503 3138 1453 
L 3169 1478 
Q 3084 1638 2997 1784 
Q 2119 1053 875 641 
L 594 991 
Q 1922 1350 2803 2041 
Q 2741 2113 2613 2253 
Q 1856 1775 838 1466 
L 575 1816 
Q 1709 2097 2631 2681 
L 1106 2681 
L 1106 3444 
Q 878 3250 659 3109 
L 384 3409 
Q 1491 4166 2169 5375 
L 2613 5256 
Q 2578 5194 2413 4916 
L 4188 4916 
L 4463 4716 
Q 4119 4278 3834 4013 
L 5453 4013 
L 5453 2681 
L 3775 2681 
Q 3956 2159 4200 1772 
Q 4884 2200 5319 2572 
L 5691 2284 
Q 5094 1831 4403 1478 
Q 4969 741 5947 263 
L 5588 -128 
Q 4403 531 3775 1728 
Q 3572 2122 3366 2681 
L 3194 2681 
z
M 3469 3653 
L 3469 3041 
L 5000 3041 
L 5000 3653 
L 3469 3653 
z
M 3041 3041 
L 3041 3653 
L 1547 3653 
L 1547 3041 
L 3041 3041 
z
M 3309 4013 
Q 3616 4328 3769 4544 
L 2156 4544 
Q 2031 4375 1700 4013 
L 3309 4013 
z
" transform="scale(0.015625)"/>
     </defs>
     <use xlink:href="#IPAPGothic-5236"/>
     <use xlink:href="#IPAPGothic-5fa1" transform="translate(100 0)"/>
     <use xlink:href="#IPAPGothic-5bfe" transform="translate(200 0)"/>
     <use xlink:href="#IPAPGothic-8c61" transform="translate(300 0)"/>
    </g>
   </g>
   <g id="patch_4">
    <path d="M 68.226471 70.385294 
Q 110.35 70.385294 150.684675 70.385294 
" style="fill: none; stroke: #000000; stroke-width: 1.6; stroke-linecap: round"/>
    <path d="M 143.484675 66.785294 
L 150.684675 70.385294 
L 143.484675 73.985294 
" style="fill: none; stroke: #000000; stroke-width: 1.6; stroke-linecap: round"/>
   </g>
   <g id="text_3">
    <!-- 作業命令 -->
    <g transform="translate(7.2 74.0192) scale(0.13 -0.13)">
     <defs>
      <path id="IPAPGothic-4f5c" d="M 3609 3834 
L 3231 3834 
Q 2869 2822 2297 2038 
L 1963 2381 
Q 2797 3513 3153 5275 
L 3616 5184 
Q 3506 4656 3378 4256 
L 5984 4256 
L 5984 3834 
L 4078 3834 
L 4078 2906 
L 5678 2906 
L 5678 2484 
L 4078 2484 
L 4078 1563 
L 5775 1563 
L 5775 1147 
L 4078 1147 
L 4078 -447 
L 3609 -447 
L 3609 3834 
z
M 1734 3725 
L 1734 -447 
L 1275 -447 
L 1275 2797 
L 1250 2747 
Q 984 2284 647 1850 
L 372 2234 
Q 1309 3484 1747 5203 
L 2219 5084 
Q 2028 4406 1734 3725 
z
" transform="scale(0.015625)"/>
      <path id="IPAPGothic-696d" d="M 3397 2738 
L 3397 2350 
L 5331 2350 
L 5331 1984 
L 3397 1984 
L 3397 1594 
L 6016 1594 
L 6016 1209 
L 3831 1209 
Q 4706 509 6078 134 
L 5759 -288 
Q 4250 225 3397 1125 
L 3397 -447 
L 2956 -447 
L 2956 1106 
Q 2038 34 594 -416 
L 281 -38 
Q 1663 334 2566 1209 
L 384 1209 
L 384 1594 
L 2956 1594 
L 2956 1984 
L 1063 1984 
L 1063 2350 
L 2956 2350 
L 2956 2738 
L 769 2738 
L 769 3109 
L 2225 3109 
Q 2066 3519 1900 3769 
L 441 3769 
L 441 4141 
L 2413 4141 
L 2413 5313 
L 2853 5313 
L 2853 4141 
L 3500 4141 
L 3500 5313 
L 3941 5313 
L 3941 4141 
L 5953 4141 
L 5953 3769 
L 4447 3769 
Q 4294 3409 4106 3109 
L 5625 3109 
L 5625 2738 
L 3397 2738 
z
M 2406 3769 
Q 2578 3450 2694 3109 
L 3653 3109 
Q 3853 3459 3953 3769 
L 2406 3769 
z
M 1528 4166 
Q 1334 4656 1056 4984 
L 1484 5166 
Q 1725 4856 1963 4353 
L 1528 4166 
z
M 4363 4306 
Q 4678 4828 4819 5228 
L 5284 5069 
Q 5063 4606 4772 4166 
L 4363 4306 
z
" transform="scale(0.015625)"/>
      <path id="IPAPGothic-547d" d="M 2834 2669 
L 2834 622 
L 1441 622 
L 1441 116 
L 1013 116 
L 1013 2669 
L 2834 2669 
z
M 1441 2278 
L 1441 1013 
L 2413 1013 
L 2413 2278 
L 1441 2278 
z
M 3406 2694 
L 5459 2694 
L 5459 941 
Q 5459 450 4956 450 
Q 4634 450 4238 488 
L 4147 953 
Q 4559 884 4847 884 
Q 5025 884 5025 1081 
L 5025 2297 
L 3853 2297 
L 3853 -447 
L 3406 -447 
L 3406 2694 
z
M 4469 3622 
L 4469 3250 
L 2003 3250 
L 2003 3563 
Q 1400 3034 525 2603 
L 238 2969 
Q 1928 3766 2906 5294 
L 3450 5294 
Q 4481 3909 6178 3166 
L 5878 2763 
Q 5159 3106 4469 3622 
z
M 4444 3641 
Q 3716 4213 3181 4909 
Q 2722 4194 2094 3641 
L 4444 3641 
z
" transform="scale(0.015625)"/>
      <path id="IPAPGothic-4ee4" d="M 1944 3384 
L 4478 3384 
L 4478 2981 
L 1925 2981 
L 1925 3366 
Q 1316 2878 588 2522 
L 294 2903 
Q 1963 3644 2866 5209 
L 3434 5209 
Q 4331 3838 6134 3122 
L 5834 2700 
Q 4072 3534 3153 4800 
Q 2659 3978 1944 3384 
z
M 5203 2338 
L 5203 525 
Q 5203 31 4575 31 
Q 4184 31 3834 78 
L 3750 563 
Q 4163 488 4519 488 
Q 4734 488 4734 706 
L 4734 1922 
L 3125 1922 
L 3125 -447 
L 2650 -447 
L 2650 1922 
L 1016 1922 
L 1016 2338 
L 5203 2338 
z
" transform="scale(0.015625)"/>
     </defs>
     <use xlink:href="#IPAPGothic-4f5c"/>
     <use xlink:href="#IPAPGothic-696d" transform="translate(100 0)"/>
     <use xlink:href="#IPAPGothic-547d" transform="translate(200 0)"/>
     <use xlink:href="#IPAPGothic-4ee4" transform="translate(300 0)"/>
    </g>
   </g>
   <g id="patch_5">
    <path d="M 248.755882 70.385294 
Q 302.914706 70.385294 355.284675 70.385294 
" style="fill: none; stroke: #000000; stroke-width: 1.6; stroke-linecap: round"/>
    <path d="M 348.084675 66.785294 
L 355.284675 70.385294 
L 348.084675 73.985294 
" style="fill: none; stroke: #000000; stroke-width: 1.6; stroke-linecap: round"/>
   </g>
   <g id="text_4">
    <!-- 制御信号 -->
    <g transform="translate(276.914706 52.871176) scale(0.13 -0.13)">
     <defs>
      <path id="IPAPGothic-4fe1" d="M 1572 3809 
L 1572 -447 
L 1119 -447 
L 1119 2850 
Q 856 2375 550 1972 
L 300 2363 
Q 1172 3553 1566 5256 
L 2013 5147 
Q 1819 4428 1572 3809 
z
M 5534 1619 
L 5534 -447 
L 5081 -447 
L 5081 -116 
L 2763 -116 
L 2763 -447 
L 2316 -447 
L 2316 1619 
L 5534 1619 
z
M 2763 1234 
L 2763 269 
L 5081 269 
L 5081 1234 
L 2763 1234 
z
M 2475 4984 
L 5375 4984 
L 5375 4588 
L 2475 4588 
L 2475 4984 
z
M 2475 3297 
L 5375 3297 
L 5375 2906 
L 2475 2906 
L 2475 3297 
z
M 2475 2456 
L 5375 2456 
L 5375 2066 
L 2475 2066 
L 2475 2456 
z
M 1894 4147 
L 6003 4147 
L 6003 3738 
L 1894 3738 
L 1894 4147 
z
" transform="scale(0.015625)"/>
      <path id="IPAPGothic-53f7" d="M 5144 4947 
L 5144 3303 
L 1247 3303 
L 1247 4947 
L 5144 4947 
z
M 1706 4550 
L 1706 3694 
L 4684 3694 
L 4684 4550 
L 1706 4550 
z
M 2328 2350 
L 2309 2291 
Q 2225 2013 2138 1753 
L 5297 1753 
Q 5231 556 4978 19 
Q 4850 -247 4613 -331 
Q 4431 -403 4044 -403 
Q 3463 -403 3006 -359 
L 2906 147 
Q 3544 44 4025 44 
Q 4425 44 4569 397 
Q 4703 731 4775 1344 
L 1978 1344 
Q 1875 1097 1716 788 
L 1241 928 
Q 1631 1603 1850 2350 
L 416 2350 
L 416 2753 
L 6034 2753 
L 6034 2350 
L 2328 2350 
z
" transform="scale(0.015625)"/>
     </defs>
     <use xlink:href="#IPAPGothic-5236"/>
     <use xlink:href="#IPAPGothic-5fa1" transform="translate(100 0)"/>
     <use xlink:href="#IPAPGothic-4fe1" transform="translate(200 0)"/>
     <use xlink:href="#IPAPGothic-53f7" transform="translate(300 0)"/>
    </g>
   </g>
   <g id="patch_6">
    <path d="M 519.55 70.385294 
Q 558.664706 70.385294 595.990557 70.385294 
" style="fill: none; stroke: #000000; stroke-width: 1.6; stroke-linecap: round"/>
    <path d="M 588.790557 66.785294 
L 595.990557 70.385294 
L 588.790557 73.985294 
" style="fill: none; stroke: #000000; stroke-width: 1.6; stroke-linecap: round"/>
   </g>
   <g id="text_5">
    <!-- 制御量 -->
    <g transform="translate(539.164706 52.871176) scale(0.13 -0.13)">
     <defs>
      <path id="IPAPGothic-91cf" d="M 5081 5159 
L 5081 3497 
L 1275 3497 
L 1275 5159 
L 5081 5159 
z
M 1716 4819 
L 1716 4475 
L 4647 4475 
L 4647 4819 
L 1716 4819 
z
M 1716 4175 
L 1716 3816 
L 4647 3816 
L 4647 4175 
L 1716 4175 
z
M 5238 2625 
L 5238 997 
L 3388 997 
L 3388 694 
L 5428 694 
L 5428 353 
L 3388 353 
L 3388 34 
L 6044 34 
L 6044 -331 
L 353 -331 
L 353 34 
L 2972 34 
L 2972 353 
L 969 353 
L 969 694 
L 2972 694 
L 2972 997 
L 1159 997 
L 1159 2625 
L 5238 2625 
z
M 1588 2325 
L 1588 1972 
L 2972 1972 
L 2972 2325 
L 1588 2325 
z
M 1588 1672 
L 1588 1303 
L 2972 1303 
L 2972 1672 
L 1588 1672 
z
M 4809 1303 
L 4809 1672 
L 3388 1672 
L 3388 1303 
L 4809 1303 
z
M 4809 1972 
L 4809 2325 
L 3388 2325 
L 3388 1972 
L 4809 1972 
z
M 384 3231 
L 6009 3231 
L 6009 2884 
L 384 2884 
L 384 3231 
z
" transform="scale(0.015625)"/>
     </defs>
     <use xlink:href="#IPAPGothic-5236"/>
     <use xlink:href="#IPAPGothic-5fa1" transform="translate(100 0)"/>
     <use xlink:href="#IPAPGothic-91cf" transform="translate(200 0)"/>
    </g>
   </g>
   <g id="patch_7">
    <path d="M 200.614706 184.720588 
Q 200.614706 144.101471 200.614706 105.271207 
" style="fill: none; stroke: #000000; stroke-width: 1.6; stroke-linecap: round"/>
    <path d="M 197.014706 112.471207 
L 200.614706 105.271207 
L 204.214706 112.471207 
" style="fill: none; stroke: #000000; stroke-width: 1.6; stroke-linecap: round"/>
   </g>
   <g id="text_6">
    <!-- 状態計測信号 -->
    <g transform="translate(321.082353 169.011765) scale(0.13 -0.13)">
     <defs>
      <path id="IPAPGothic-72b6" d="M 4281 3066 
Q 4638 1169 6088 122 
L 5722 -331 
Q 4469 769 4066 2456 
Q 3853 650 2450 -494 
L 2125 -109 
Q 3550 941 3731 3066 
L 2241 3066 
L 2241 3481 
L 3753 3481 
L 3753 5147 
L 4206 5147 
L 4206 3481 
L 5988 3481 
L 5988 3066 
L 4281 3066 
z
M 1591 1600 
Q 1144 1241 528 859 
L 309 1344 
Q 875 1594 1591 2056 
L 1591 5172 
L 2044 5172 
L 2044 -447 
L 1591 -447 
L 1591 1600 
z
M 1006 2572 
Q 791 3384 444 4031 
L 834 4244 
Q 1194 3563 1422 2809 
L 1006 2572 
z
M 5178 3731 
Q 4947 4263 4591 4716 
L 4953 4953 
Q 5284 4553 5581 4019 
L 5178 3731 
z
" transform="scale(0.015625)"/>
      <path id="IPAPGothic-614b" d="M 866 4341 
Q 1219 4859 1434 5375 
L 1897 5269 
Q 1597 4741 1319 4347 
Q 1856 4356 2594 4403 
Q 2397 4625 2191 4831 
L 2522 5050 
Q 2984 4625 3375 4116 
L 3022 3853 
Q 2950 3950 2822 4116 
Q 2019 3994 494 3938 
L 359 4331 
Q 828 4331 866 4341 
z
M 2956 3713 
L 2956 1900 
Q 2956 1622 2841 1538 
Q 2741 1466 2491 1466 
Q 2213 1466 1881 1497 
L 1819 1881 
Q 2134 1825 2375 1825 
Q 2541 1825 2541 1997 
L 2541 2247 
L 1159 2247 
L 1159 1388 
L 744 1388 
L 744 3713 
L 2956 3713 
z
M 1159 3419 
L 1159 3128 
L 2541 3128 
L 2541 3419 
L 1159 3419 
z
M 1159 2834 
L 1159 2534 
L 2541 2534 
L 2541 2834 
L 1159 2834 
z
M 3931 2706 
Q 4703 2809 5328 3063 
L 5672 2725 
Q 4816 2459 3931 2347 
L 3931 2084 
Q 3931 1909 4066 1878 
Q 4216 1847 4647 1847 
Q 5403 1847 5469 1988 
Q 5516 2094 5525 2378 
L 5947 2278 
Q 5947 2219 5941 2200 
Q 5922 1766 5819 1634 
Q 5672 1450 4663 1450 
Q 3816 1450 3656 1553 
Q 3509 1663 3509 1931 
L 3509 3263 
L 3931 3263 
L 3931 2706 
z
M 3931 4678 
Q 4731 4822 5288 5056 
L 5641 4709 
Q 4847 4447 3931 4313 
L 3931 4103 
Q 3931 3925 4041 3884 
Q 4156 3853 4559 3853 
Q 5359 3853 5434 3950 
Q 5519 4041 5519 4397 
L 5934 4300 
Q 5906 3675 5744 3578 
Q 5556 3469 4591 3469 
Q 3900 3469 3719 3541 
Q 3509 3625 3509 3925 
L 3509 5313 
L 3931 5313 
L 3931 4678 
z
M 397 -25 
Q 888 447 1141 1131 
L 1563 991 
Q 1288 181 781 -353 
L 397 -25 
z
M 1966 1247 
L 2434 1247 
L 2434 359 
Q 2434 147 2563 106 
Q 2681 63 3241 63 
Q 4159 63 4259 191 
Q 4341 294 4341 728 
L 4791 594 
Q 4781 -44 4591 -206 
Q 4409 -359 3138 -359 
Q 2388 -359 2203 -281 
Q 1966 -178 1966 134 
L 1966 1247 
z
M 5703 -225 
Q 5228 519 4678 1050 
L 5044 1275 
Q 5578 788 6106 56 
L 5703 -225 
z
M 3516 378 
Q 3134 878 2766 1197 
L 3106 1472 
Q 3547 1091 3884 678 
L 3516 378 
z
" transform="scale(0.015625)"/>
      <path id="IPAPGothic-8a08" d="M 2853 1684 
L 2853 -416 
L 2413 -416 
L 2413 -128 
L 1088 -128 
L 1088 -447 
L 647 -447 
L 647 1684 
L 2853 1684 
z
M 1088 1300 
L 1088 256 
L 2413 256 
L 2413 1300 
L 1088 1300 
z
M 4322 3225 
L 4322 5178 
L 4781 5178 
L 4781 3225 
L 6063 3225 
L 6063 2797 
L 4781 2797 
L 4781 -447 
L 4322 -447 
L 4322 2797 
L 3059 2797 
L 3059 3225 
L 4322 3225 
z
M 781 5044 
L 2722 5044 
L 2722 4647 
L 781 4647 
L 781 5044 
z
M 384 4206 
L 3150 4206 
L 3150 3803 
L 384 3803 
L 384 4206 
z
M 781 3359 
L 2722 3359 
L 2722 2963 
L 781 2963 
L 781 3359 
z
M 781 2522 
L 2722 2522 
L 2722 2125 
L 781 2125 
L 781 2522 
z
" transform="scale(0.015625)"/>
      <path id="IPAPGothic-6e2c" d="M 3856 4884 
L 3856 1081 
L 2059 1081 
L 2059 4884 
L 3856 4884 
z
M 2456 4494 
L 2456 3756 
L 3459 3756 
L 3459 4494 
L 2456 4494 
z
M 2456 3384 
L 2456 2656 
L 3459 2656 
L 3459 3384 
L 2456 3384 
z
M 2456 2284 
L 2456 1478 
L 3459 1478 
L 3459 2284 
L 2456 2284 
z
M 1413 3891 
Q 1000 4428 556 4763 
L 856 5100 
Q 1309 4753 1734 4269 
L 1413 3891 
z
M 1222 2394 
Q 816 2878 325 3256 
L 625 3591 
Q 1141 3231 1528 2778 
L 1222 2394 
z
M 375 -78 
Q 916 800 1297 1906 
L 1669 1619 
Q 1284 478 759 -428 
L 375 -78 
z
M 3819 -256 
Q 3478 319 3128 716 
L 3469 966 
Q 3834 581 4172 63 
L 3819 -256 
z
M 4378 4513 
L 4806 4513 
L 4806 959 
L 4378 959 
L 4378 4513 
z
M 1638 -109 
Q 2103 300 2450 984 
L 2828 763 
Q 2425 -6 1944 -488 
L 1638 -109 
z
M 5419 5081 
L 5853 5081 
L 5853 109 
Q 5853 -391 5297 -391 
Q 4919 -391 4541 -359 
L 4441 109 
Q 4928 50 5219 50 
Q 5419 50 5419 244 
L 5419 5081 
z
" transform="scale(0.015625)"/>
     </defs>
     <use xlink:href="#IPAPGothic-72b6"/>
     <use xlink:href="#IPAPGothic-614b" transform="translate(100 0)"/>
     <use xlink:href="#IPAPGothic-8a08" transform="translate(200 0)"/>
     <use xlink:href="#IPAPGothic-6e2c" transform="translate(300 0)"/>
     <use xlink:href="#IPAPGothic-4fe1" transform="translate(400 0)"/>
     <use xlink:href="#IPAPGothic-53f7" transform="translate(500 0)"/>
    </g>
   </g>
  </g>
 </g>
 <defs>
  <clipPath id="pb6636d5b8c">
   <rect x="20.085294" y="7.2" width="613.8" height="210.617647"/>
  </clipPath>
 </defs>
</svg>
