<?xml version="1.0" encoding="utf-8" standalone="no"?>
<!DOCTYPE svg PUBLIC "-//W3C//DTD SVG 1.1//EN"
  "http://www.w3.org/Graphics/SVG/1.1/DTD/svg11.dtd">
<svg xmlns:xlink="http://www.w3.org/1999/xlink" width="532.332955pt" height="168.484091pt" viewBox="0 0 532.332955 168.484091" xmlns="http://www.w3.org/2000/svg" version="1.1">
 <metadata>
  <rdf:RDF xmlns:dc="http://purl.org/dc/elements/1.1/" xmlns:cc="http://creativecommons.org/ns#" xmlns:rdf="http://www.w3.org/1999/02/22-rdf-syntax-ns#">
   <cc:Work>
    <dc:type rdf:resource="http://purl.org/dc/dcmitype/StillImage"/>
    <dc:date>2026-06-24T01:06:01.805326</dc:date>
    <dc:format>image/svg+xml</dc:format>
    <dc:creator>
     <cc:Agent>
      <dc:title>Matplotlib v3.10.0, https://matplotlib.org/</dc:title>
     </cc:Agent>
    </dc:creator>
   </cc:Work>
  </rdf:RDF>
 </metadata>
 <defs>
  <style type="text/css">*{stroke-linejoin: round; stroke-linecap: butt}</style>
 </defs>
 <g id="figure_1">
  <g id="patch_1">
   <path d="M -0 168.484091 
L 532.332955 168.484091 
L 532.332955 0 
L -0 0 
z
" style="fill: #ffffff"/>
  </g>
  <g id="axes_1">
   <g id="patch_2">
    <path d="M 85.707955 147.017045 
L 353.928409 147.017045 
L 353.928409 15.760227 
L 85.707955 15.760227 
L 85.707955 147.017045 
z
" clip-path="url(#pd1b6fd4021)" style="fill: none; stroke-dasharray: 1,1.65; stroke-dashoffset: 0; stroke: #000000; stroke-linejoin: miter"/>
   </g>
   <g id="patch_3">
    <path d="M 111.388636 89.948864 
L 219.818182 89.948864 
L 219.818182 47.147727 
L 111.388636 47.147727 
z
" clip-path="url(#pd1b6fd4021)" style="fill: #ffffff; stroke: #000000; stroke-width: 1.2; stroke-linejoin: miter"/>
   </g>
   <g id="patch_4">
    <path d="M 271.179545 95.655682 
L 322.540909 95.655682 
L 322.540909 38.5875 
L 271.179545 38.5875 
z
" clip-path="url(#pd1b6fd4021)" style="fill: #ffffff; stroke: #000000; stroke-width: 1.2; stroke-linejoin: miter"/>
   </g>
   <g id="patch_5">
    <path d="M 385.315909 95.655682 
L 456.651136 95.655682 
L 456.651136 38.5875 
L 385.315909 38.5875 
z
" clip-path="url(#pd1b6fd4021)" style="fill: #ffffff; stroke: #000000; stroke-width: 1.2; stroke-linejoin: miter"/>
   </g>
   <g id="text_1">
    <!-- 制御装置 -->
    <g transform="translate(195.818182 138.957784) scale(0.12 -0.12)">
     <defs>
      <path id="IPAPGothic-5236" d="M 1881 4331 
L 1881 5313 
L 2309 5313 
L 2309 4331 
L 3616 4331 
L 3616 3959 
L 2309 3959 
L 2309 3206 
L 3813 3206 
L 3813 2822 
L 2309 2822 
L 2309 2188 
L 3544 2188 
L 3544 544 
Q 3544 281 3434 191 
Q 3338 116 3084 116 
Q 2816 116 2578 153 
L 2534 581 
Q 2747 531 2950 531 
Q 3122 531 3122 728 
L 3122 1816 
L 2309 1816 
L 2309 -447 
L 1881 -447 
L 1881 1816 
L 1106 1816 
L 1106 13 
L 691 13 
L 691 2188 
L 1881 2188 
L 1881 2822 
L 319 2822 
L 319 3206 
L 1881 3206 
L 1881 3959 
L 1119 3959 
Q 984 3625 741 3263 
L 375 3525 
Q 822 4203 1003 5081 
L 1447 4991 
Q 1372 4666 1259 4331 
L 1881 4331 
z
M 4159 4575 
L 4606 4575 
L 4606 1013 
L 4159 1013 
L 4159 4575 
z
M 5369 5100 
L 5809 5100 
L 5809 147 
Q 5809 -128 5700 -256 
Q 5575 -391 5156 -391 
Q 4744 -391 4350 -341 
L 4275 134 
Q 4731 69 5138 69 
Q 5369 69 5369 325 
L 5369 5100 
z
" transform="scale(0.015625)"/>
      <path id="IPAPGothic-5fa1" d="M 3297 734 
Q 3569 800 4206 978 
L 4219 606 
Q 3034 209 1806 -31 
L 1634 391 
Q 1963 447 2063 466 
L 2063 2350 
L 2478 2350 
L 2478 550 
L 2625 581 
L 2759 613 
L 2888 641 
L 2888 2791 
L 1825 2791 
L 1825 3181 
L 2888 3181 
L 2888 4103 
L 2478 4103 
Q 2356 3813 2172 3541 
L 1831 3791 
Q 2222 4359 2434 5275 
L 2831 5184 
Q 2744 4800 2638 4494 
L 4128 4494 
L 4128 4103 
L 3297 4103 
L 3297 3181 
L 4250 3181 
L 4250 2791 
L 3297 2791 
L 3297 2053 
L 4156 2053 
L 4156 1656 
L 3297 1656 
L 3297 734 
z
M 1434 2869 
L 1434 -447 
L 1025 -447 
L 1025 2325 
Q 741 1988 450 1703 
L 219 2063 
Q 969 2744 1531 3809 
L 1875 3597 
Q 1675 3225 1434 2869 
z
M 5916 4653 
L 5916 853 
Q 5916 597 5819 500 
Q 5725 403 5475 403 
Q 5253 403 5053 444 
L 5006 866 
Q 5156 831 5334 831 
Q 5513 831 5513 1031 
L 5513 4250 
L 4841 4250 
L 4841 -447 
L 4425 -447 
L 4425 4653 
L 5916 4653 
z
M 263 3822 
Q 1038 4391 1466 5203 
L 1844 5019 
Q 1297 4047 538 3500 
L 263 3822 
z
" transform="scale(0.015625)"/>
      <path id="IPAPGothic-88c5" d="M 3588 1709 
Q 3831 1291 4234 916 
Q 4725 1234 5138 1638 
L 5575 1391 
Q 5044 944 4563 659 
Q 5134 263 6072 -50 
L 5766 -447 
Q 3759 350 3181 1709 
Q 2775 1338 2275 1050 
L 2275 153 
Q 3034 278 3722 447 
L 3744 66 
Q 2363 -281 1175 -466 
L 1003 -31 
Q 1078 -22 1834 78 
L 1834 825 
Q 1247 566 472 334 
L 191 719 
Q 1719 1091 2647 1709 
L 344 1709 
L 344 2094 
L 2944 2094 
L 2944 2591 
L 3397 2591 
L 3397 2094 
L 6041 2094 
L 6041 1709 
L 3588 1709 
z
M 1728 3334 
Q 1716 3322 1638 3269 
Q 1234 2978 666 2694 
L 416 3097 
Q 1053 3359 1728 3794 
L 1728 5313 
L 2169 5313 
L 2169 2463 
L 1728 2463 
L 1728 3334 
z
M 3909 4525 
L 3909 5313 
L 4356 5313 
L 4356 4525 
L 5956 4525 
L 5956 4116 
L 4356 4116 
L 4356 3103 
L 5741 3103 
L 5741 2719 
L 2609 2719 
L 2609 3103 
L 3909 3103 
L 3909 4116 
L 2431 4116 
L 2431 4525 
L 3909 4525 
z
M 1100 3853 
Q 853 4472 581 4800 
L 953 5025 
Q 1259 4631 1491 4103 
L 1100 3853 
z
" transform="scale(0.015625)"/>
      <path id="IPAPGothic-7f6e" d="M 3559 3841 
Q 3531 3675 3481 3488 
L 5991 3488 
L 5991 3147 
L 3394 3147 
Q 3388 3128 3375 3066 
Q 3369 3047 3291 2797 
L 5222 2797 
L 5222 453 
L 1978 453 
L 1978 2797 
L 2856 2797 
Q 2913 2966 2956 3147 
L 397 3147 
L 397 3488 
L 3041 3488 
Q 3047 3519 3063 3591 
Q 3094 3750 3113 3841 
L 966 3841 
L 966 5050 
L 5491 5050 
L 5491 3841 
L 3559 3841 
z
M 1394 4725 
L 1394 4166 
L 2338 4166 
L 2338 4725 
L 1394 4725 
z
M 5063 4166 
L 5063 4725 
L 4109 4725 
L 4109 4166 
L 5063 4166 
z
M 2753 4725 
L 2753 4166 
L 3694 4166 
L 3694 4725 
L 2753 4725 
z
M 2406 2472 
L 2406 2125 
L 4794 2125 
L 4794 2472 
L 2406 2472 
z
M 2406 1813 
L 2406 1459 
L 4794 1459 
L 4794 1813 
L 2406 1813 
z
M 2406 1147 
L 2406 778 
L 4794 778 
L 4794 1147 
L 2406 1147 
z
M 1331 134 
L 6081 134 
L 6081 -225 
L 1331 -225 
L 1331 -447 
L 878 -447 
L 878 2803 
L 1331 2803 
L 1331 134 
z
" transform="scale(0.015625)"/>
     </defs>
     <use xlink:href="#IPAPGothic-5236"/>
     <use xlink:href="#IPAPGothic-5fa1" transform="translate(100 0)"/>
     <use xlink:href="#IPAPGothic-88c5" transform="translate(200 0)"/>
     <use xlink:href="#IPAPGothic-7f6e" transform="translate(300 0)"/>
    </g>
   </g>
   <g id="text_2">
    <!-- 操作部への -->
    <g transform="translate(140.852628 65.899233) scale(0.1 -0.1)">
     <defs>
      <path id="IPAPGothic-64cd" d="M 4381 1306 
Q 5084 588 6113 213 
L 5819 -203 
Q 4803 297 4197 1050 
L 4197 -447 
L 3769 -447 
L 3769 1019 
Q 3200 203 2194 -288 
L 1897 84 
Q 2897 466 3594 1306 
L 2047 1306 
L 2047 1678 
L 3769 1678 
L 3769 2113 
L 4197 2113 
L 4197 1678 
L 5947 1678 
L 5947 1306 
L 4381 1306 
z
M 1119 4013 
L 1119 5313 
L 1534 5313 
L 1534 4013 
L 2150 4013 
L 2150 3609 
L 1534 3609 
L 1534 2375 
Q 1644 2406 2066 2547 
L 2097 2175 
Q 1781 2044 1534 1953 
L 1534 0 
Q 1534 -263 1419 -356 
Q 1309 -447 1034 -447 
Q 763 -447 484 -409 
L 416 44 
Q 681 -6 931 -6 
Q 1119 -6 1119 172 
L 1119 1806 
Q 894 1722 422 1581 
L 269 2016 
Q 734 2128 1119 2247 
L 1119 3609 
L 347 3609 
L 347 4013 
L 1119 4013 
z
M 5106 5081 
L 5106 3800 
L 2809 3800 
L 2809 5081 
L 5106 5081 
z
M 3225 4728 
L 3225 4141 
L 4691 4141 
L 4691 4728 
L 3225 4728 
z
M 3794 3488 
L 3794 2213 
L 2228 2213 
L 2228 3488 
L 3794 3488 
z
M 2631 3147 
L 2631 2553 
L 3391 2553 
L 3391 3147 
L 2631 3147 
z
M 5759 3488 
L 5759 2213 
L 4172 2213 
L 4172 3488 
L 5759 3488 
z
M 4575 3147 
L 4575 2553 
L 5356 2553 
L 5356 3147 
L 4575 3147 
z
" transform="scale(0.015625)"/>
      <path id="IPAPGothic-4f5c" d="M 3609 3834 
L 3231 3834 
Q 2869 2822 2297 2038 
L 1963 2381 
Q 2797 3513 3153 5275 
L 3616 5184 
Q 3506 4656 3378 4256 
L 5984 4256 
L 5984 3834 
L 4078 3834 
L 4078 2906 
L 5678 2906 
L 5678 2484 
L 4078 2484 
L 4078 1563 
L 5775 1563 
L 5775 1147 
L 4078 1147 
L 4078 -447 
L 3609 -447 
L 3609 3834 
z
M 1734 3725 
L 1734 -447 
L 1275 -447 
L 1275 2797 
L 1250 2747 
Q 984 2284 647 1850 
L 372 2234 
Q 1309 3484 1747 5203 
L 2219 5084 
Q 2028 4406 1734 3725 
z
" transform="scale(0.015625)"/>
      <path id="IPAPGothic-90e8" d="M 3034 4031 
L 3028 4000 
Q 2897 3494 2675 2888 
L 3628 2888 
L 3628 2503 
L 319 2503 
L 319 2888 
L 1253 2888 
Q 1147 3453 947 4031 
L 434 4031 
L 434 4416 
L 1753 4416 
L 1753 5313 
L 2194 5313 
L 2194 4416 
L 3456 4416 
L 3456 4031 
L 3034 4031 
z
M 2591 4031 
L 1381 4031 
Q 1563 3538 1691 2888 
L 2238 2888 
Q 2459 3466 2591 4031 
z
M 3191 1863 
L 3191 -422 
L 2763 -422 
L 2763 -103 
L 1247 -103 
L 1247 -447 
L 819 -447 
L 819 1863 
L 3191 1863 
z
M 1247 1478 
L 1247 281 
L 2763 281 
L 2763 1478 
L 1247 1478 
z
M 5166 2881 
Q 5950 2063 5950 1159 
Q 5950 391 5303 391 
Q 5013 391 4581 463 
L 4525 947 
Q 4841 850 5163 850 
Q 5469 850 5469 1216 
Q 5469 2041 4666 2828 
Q 5078 3600 5300 4409 
L 4288 4409 
L 4288 -447 
L 3847 -447 
L 3847 4825 
L 5575 4825 
L 5863 4594 
Q 5559 3659 5166 2881 
z
" transform="scale(0.015625)"/>
      <path id="IPAPGothic-3078" d="M 353 2022 
Q 1266 2681 2131 3653 
Q 2331 3872 2516 3872 
Q 2703 3872 2959 3616 
Q 4425 2147 5928 1422 
L 5569 947 
Q 4044 1850 2809 3069 
Q 2613 3269 2509 3269 
Q 2419 3269 2234 3059 
Q 1441 2166 672 1563 
L 353 2022 
z
" transform="scale(0.015625)"/>
      <path id="IPAPGothic-306e" d="M 2991 469 
Q 5147 766 5147 2425 
Q 5147 3453 4284 3922 
Q 3913 4113 3419 4159 
Q 3266 2525 2722 1400 
Q 2194 306 1594 306 
Q 1256 306 956 666 
Q 481 1244 481 2003 
Q 481 3025 1269 3794 
Q 2056 4563 3303 4563 
Q 4178 4563 4800 4122 
Q 5684 3506 5684 2425 
Q 5684 438 3303 6 
L 2991 469 
z
M 2925 4147 
Q 2250 4044 1763 3641 
Q 969 2981 969 1991 
Q 969 1366 1306 978 
Q 1453 813 1591 813 
Q 1894 813 2288 1625 
Q 2781 2638 2925 4147 
z
" transform="scale(0.015625)"/>
     </defs>
     <use xlink:href="#IPAPGothic-64cd"/>
     <use xlink:href="#IPAPGothic-4f5c" transform="translate(100 0)"/>
     <use xlink:href="#IPAPGothic-90e8" transform="translate(200 0)"/>
     <use xlink:href="#IPAPGothic-3078" transform="translate(300 0)"/>
     <use xlink:href="#IPAPGothic-306e" transform="translate(397.998047 0)"/>
    </g>
    <!-- 入力を計算する -->
    <g transform="translate(132.65419 76.787983) scale(0.1 -0.1)">
     <defs>
      <path id="IPAPGothic-5165" d="M 3278 3078 
Q 2809 619 822 -334 
L 450 91 
Q 2934 1156 3003 4550 
L 1475 4550 
L 1475 4984 
L 3528 4984 
L 3528 4728 
Q 3528 3053 4116 2041 
Q 4738 972 6022 275 
L 5653 -200 
Q 3697 1044 3278 3078 
z
" transform="scale(0.015625)"/>
      <path id="IPAPGothic-529b" d="M 3303 3944 
L 5650 3944 
Q 5622 1247 5428 356 
Q 5303 -231 4647 -231 
Q 4159 -231 3456 -147 
L 3378 416 
Q 4022 263 4453 263 
Q 4881 263 4947 616 
Q 5103 1509 5134 3303 
L 5141 3509 
L 3291 3509 
Q 3231 2200 2738 1281 
Q 2194 297 878 -416 
L 525 -6 
Q 2709 963 2778 3450 
L 641 3450 
L 641 3891 
L 2784 3891 
L 2784 5147 
L 3303 5147 
L 3303 3944 
z
" transform="scale(0.015625)"/>
      <path id="IPAPGothic-3092" d="M 709 4263 
Q 1159 4225 1975 4225 
Q 2197 4734 2316 5166 
L 2791 5031 
L 2744 4903 
Q 2609 4534 2475 4256 
Q 3131 4288 3909 4459 
L 3972 4019 
Q 3219 3869 2272 3822 
Q 2006 3284 1675 2797 
Q 2147 3200 2578 3200 
Q 3253 3200 3475 2381 
Q 4172 2684 4953 2950 
L 5191 2528 
Q 4256 2253 3556 1959 
Q 3597 1681 3609 1031 
L 3128 991 
Q 3128 1456 3109 1753 
Q 2003 1194 2003 772 
Q 2003 241 3563 241 
Q 4153 241 4794 325 
L 4831 -141 
Q 4109 -219 3513 -219 
Q 1528 -219 1528 741 
Q 1528 1463 3044 2181 
Q 2881 2797 2494 2797 
Q 1853 2797 825 1422 
L 453 1697 
Q 1241 2716 1778 3803 
Q 1138 3803 703 3828 
L 709 4263 
z
" transform="scale(0.015625)"/>
      <path id="IPAPGothic-8a08" d="M 2853 1684 
L 2853 -416 
L 2413 -416 
L 2413 -128 
L 1088 -128 
L 1088 -447 
L 647 -447 
L 647 1684 
L 2853 1684 
z
M 1088 1300 
L 1088 256 
L 2413 256 
L 2413 1300 
L 1088 1300 
z
M 4322 3225 
L 4322 5178 
L 4781 5178 
L 4781 3225 
L 6063 3225 
L 6063 2797 
L 4781 2797 
L 4781 -447 
L 4322 -447 
L 4322 2797 
L 3059 2797 
L 3059 3225 
L 4322 3225 
z
M 781 5044 
L 2722 5044 
L 2722 4647 
L 781 4647 
L 781 5044 
z
M 384 4206 
L 3150 4206 
L 3150 3803 
L 384 3803 
L 384 4206 
z
M 781 3359 
L 2722 3359 
L 2722 2963 
L 781 2963 
L 781 3359 
z
M 781 2522 
L 2722 2522 
L 2722 2125 
L 781 2125 
L 781 2522 
z
" transform="scale(0.015625)"/>
      <path id="IPAPGothic-7b97" d="M 2463 672 
Q 2319 -225 1031 -525 
L 753 -166 
Q 1416 -22 1728 213 
Q 1941 369 2009 672 
L 325 672 
L 325 1056 
L 2034 1056 
L 2034 1466 
L 1203 1466 
L 1203 3803 
L 3316 3803 
L 3019 4019 
Q 3441 4525 3694 5319 
L 4122 5222 
Q 4078 5091 3963 4794 
L 5988 4794 
L 5988 4422 
L 4691 4422 
Q 4788 4281 4953 3988 
L 4556 3809 
Q 4394 4153 4225 4422 
L 3791 4422 
Q 3606 4075 3372 3803 
L 5209 3803 
L 5209 1466 
L 4422 1466 
L 4422 1056 
L 6084 1056 
L 6084 672 
L 4441 672 
L 4441 -441 
L 3988 -441 
L 3988 672 
L 2463 672 
z
M 2488 1056 
L 3969 1056 
L 3969 1466 
L 2488 1466 
L 2488 1056 
z
M 4769 1797 
L 4769 2172 
L 1644 2172 
L 1644 1797 
L 4769 1797 
z
M 4769 2497 
L 4769 2819 
L 1644 2819 
L 1644 2497 
L 4769 2497 
z
M 4769 3144 
L 4769 3463 
L 1644 3463 
L 1644 3144 
L 4769 3144 
z
M 1472 4794 
L 3206 4794 
L 3206 4422 
L 2272 4422 
L 2478 3994 
L 2088 3806 
Q 1931 4200 1819 4422 
L 1281 4422 
Q 1025 3969 691 3616 
L 384 3878 
Q 941 4494 1241 5313 
L 1656 5203 
Q 1594 5053 1472 4794 
z
" transform="scale(0.015625)"/>
      <path id="IPAPGothic-3059" d="M 3000 5075 
L 3494 5075 
L 3494 4066 
L 3878 4078 
Q 4619 4103 5069 4109 
L 5434 4116 
L 5434 3669 
L 5006 3669 
L 4678 3669 
L 4153 3659 
L 3834 3653 
L 3494 3653 
L 3494 2463 
Q 3634 2125 3634 1741 
Q 3634 209 1988 -475 
L 1619 -78 
Q 2928 403 3166 1363 
Q 2928 1028 2488 1028 
Q 2119 1028 1828 1309 
Q 1541 1597 1541 2022 
Q 1541 2488 1841 2828 
Q 2122 3128 2500 3128 
Q 2766 3128 3000 2969 
L 3000 3641 
L 2400 3628 
Q 678 3594 288 3575 
L 288 4022 
Q 1219 4038 3000 4053 
L 3000 5075 
z
M 3050 2047 
L 3050 2109 
Q 3050 2388 2872 2566 
Q 2728 2700 2547 2700 
Q 2147 2700 2022 2169 
L 2016 2138 
L 2016 2103 
Q 2016 1975 2041 1875 
Q 2128 1450 2541 1450 
Q 2825 1450 2969 1706 
Q 3050 1847 3050 2047 
z
" transform="scale(0.015625)"/>
      <path id="IPAPGothic-308b" d="M 3813 4397 
L 2034 2584 
Q 2647 2809 3181 2809 
Q 3684 2809 4081 2625 
Q 4813 2269 4813 1484 
Q 4813 756 4128 275 
Q 3494 -166 2475 -166 
Q 1981 -166 1669 19 
Q 1284 250 1284 666 
Q 1284 934 1491 1141 
Q 1753 1403 2163 1403 
Q 2931 1403 3441 428 
Q 4294 781 4294 1491 
Q 4294 1981 3891 2222 
Q 3588 2406 3103 2406 
Q 1847 2406 659 1209 
L 313 1581 
Q 1859 2934 3000 4281 
Q 2016 4125 1009 4063 
L 900 4550 
Q 2016 4578 3531 4763 
L 3813 4397 
z
M 3013 300 
Q 2666 1025 2153 1025 
Q 1825 1025 1756 800 
Q 1738 725 1738 700 
Q 1738 250 2456 250 
Q 2694 250 3013 300 
z
" transform="scale(0.015625)"/>
     </defs>
     <use xlink:href="#IPAPGothic-5165"/>
     <use xlink:href="#IPAPGothic-529b" transform="translate(100 0)"/>
     <use xlink:href="#IPAPGothic-3092" transform="translate(200 0)"/>
     <use xlink:href="#IPAPGothic-8a08" transform="translate(285.986328 0)"/>
     <use xlink:href="#IPAPGothic-7b97" transform="translate(385.986328 0)"/>
     <use xlink:href="#IPAPGothic-3059" transform="translate(485.986328 0)"/>
     <use xlink:href="#IPAPGothic-308b" transform="translate(575.976562 0)"/>
    </g>
   </g>
   <g id="text_3">
    <!-- 操作部 -->
    <g transform="translate(280.360227 70.196435) scale(0.11 -0.11)">
     <use xlink:href="#IPAPGothic-64cd"/>
     <use xlink:href="#IPAPGothic-4f5c" transform="translate(100 0)"/>
     <use xlink:href="#IPAPGothic-90e8" transform="translate(200 0)"/>
    </g>
   </g>
   <g id="text_4">
    <!-- 制御対象 -->
    <g transform="translate(398.983523 70.196435) scale(0.11 -0.11)">
     <defs>
      <path id="IPAPGothic-5bfe" d="M 2697 3597 
Q 2697 3566 2691 3534 
Q 2584 2566 2234 1703 
Q 2566 1294 3028 666 
L 2656 331 
Q 2428 678 2016 1234 
Q 1466 184 725 -416 
L 366 -63 
Q 1156 525 1684 1569 
L 1709 1625 
Q 1191 2278 647 2844 
L 975 3113 
Q 1478 2619 1909 2100 
Q 2153 2825 2241 3597 
L 391 3597 
L 391 4013 
L 1666 4013 
L 1666 5209 
L 2106 5209 
L 2106 4013 
L 3272 4013 
L 3272 3706 
L 4822 3706 
L 4822 5209 
L 5275 5209 
L 5275 3706 
L 6044 3706 
L 6044 3278 
L 5300 3278 
L 5300 109 
Q 5300 -397 4694 -397 
Q 4206 -397 3875 -353 
L 3784 141 
Q 4200 63 4616 63 
Q 4847 63 4847 269 
L 4847 3278 
L 3241 3278 
L 3241 3597 
L 2697 3597 
z
M 4000 1147 
Q 3619 1994 3188 2578 
L 3578 2816 
Q 4044 2188 4409 1428 
L 4000 1147 
z
" transform="scale(0.015625)"/>
      <path id="IPAPGothic-8c61" d="M 3194 2681 
Q 3009 2528 2900 2450 
Q 3834 1584 3834 450 
Q 3834 -84 3675 -281 
Q 3528 -447 3175 -447 
Q 2816 -447 2419 -416 
L 2334 25 
Q 2700 -38 3041 -38 
Q 3303 -38 3363 134 
Q 3400 250 3400 463 
Q 3400 800 3297 1147 
Q 2341 231 863 -288 
L 550 72 
Q 1975 503 3138 1453 
L 3169 1478 
Q 3084 1638 2997 1784 
Q 2119 1053 875 641 
L 594 991 
Q 1922 1350 2803 2041 
Q 2741 2113 2613 2253 
Q 1856 1775 838 1466 
L 575 1816 
Q 1709 2097 2631 2681 
L 1106 2681 
L 1106 3444 
Q 878 3250 659 3109 
L 384 3409 
Q 1491 4166 2169 5375 
L 2613 5256 
Q 2578 5194 2413 4916 
L 4188 4916 
L 4463 4716 
Q 4119 4278 3834 4013 
L 5453 4013 
L 5453 2681 
L 3775 2681 
Q 3956 2159 4200 1772 
Q 4884 2200 5319 2572 
L 5691 2284 
Q 5094 1831 4403 1478 
Q 4969 741 5947 263 
L 5588 -128 
Q 4403 531 3775 1728 
Q 3572 2122 3366 2681 
L 3194 2681 
z
M 3469 3653 
L 3469 3041 
L 5000 3041 
L 5000 3653 
L 3469 3653 
z
M 3041 3041 
L 3041 3653 
L 1547 3653 
L 1547 3041 
L 3041 3041 
z
M 3309 4013 
Q 3616 4328 3769 4544 
L 2156 4544 
Q 2031 4375 1700 4013 
L 3309 4013 
z
" transform="scale(0.015625)"/>
     </defs>
     <use xlink:href="#IPAPGothic-5236"/>
     <use xlink:href="#IPAPGothic-5fa1" transform="translate(100 0)"/>
     <use xlink:href="#IPAPGothic-5bfe" transform="translate(200 0)"/>
     <use xlink:href="#IPAPGothic-8c61" transform="translate(300 0)"/>
    </g>
   </g>
   <g id="patch_6">
    <path d="M 42.906818 67.121591 
Q 77.147727 67.121591 110.046996 67.121591 
" style="fill: none; stroke: #000000; stroke-width: 1.2; stroke-linecap: round"/>
    <path d="M 104.446996 64.321591 
L 110.046996 67.121591 
L 104.446996 69.921591 
" style="fill: none; stroke: #000000; stroke-width: 1.2; stroke-linecap: round"/>
   </g>
   <g id="text_5">
    <!-- 目標値 -->
    <g transform="translate(7.2 69.916903) scale(0.1 -0.1)">
     <defs>
      <path id="IPAPGothic-76ee" d="M 5266 4819 
L 5266 -384 
L 4791 -384 
L 4791 38 
L 1600 38 
L 1600 -384 
L 1125 -384 
L 1125 4819 
L 5266 4819 
z
M 1600 4416 
L 1600 3384 
L 4791 3384 
L 4791 4416 
L 1600 4416 
z
M 1600 2988 
L 1600 1966 
L 4791 1966 
L 4791 2988 
L 1600 2988 
z
M 1600 1563 
L 1600 447 
L 4791 447 
L 4791 1563 
L 1600 1563 
z
" transform="scale(0.015625)"/>
      <path id="IPAPGothic-6a19" d="M 1113 2534 
Q 813 1522 384 794 
L 153 1250 
Q 763 2228 1063 3547 
L 294 3547 
L 294 3956 
L 1113 3956 
L 1113 5306 
L 1522 5306 
L 1522 3956 
L 2144 3956 
L 2144 3547 
L 1522 3547 
L 1522 3009 
Q 1991 2634 2309 2288 
L 2059 1844 
Q 1813 2222 1522 2550 
L 1522 -447 
L 1113 -447 
L 1113 2534 
z
M 3353 4109 
L 3353 4641 
L 2100 4641 
L 2100 5019 
L 5997 5019 
L 5997 4641 
L 4756 4641 
L 4756 4109 
L 5778 4109 
L 5778 2769 
L 2356 2769 
L 2356 4109 
L 3353 4109 
z
M 3756 4109 
L 4350 4109 
L 4350 4641 
L 3756 4641 
L 3756 4109 
z
M 3359 3756 
L 2772 3756 
L 2772 3122 
L 3359 3122 
L 3359 3756 
z
M 3756 3756 
L 3756 3122 
L 4350 3122 
L 4350 3756 
L 3756 3756 
z
M 4741 3756 
L 4741 3122 
L 5363 3122 
L 5363 3756 
L 4741 3756 
z
M 4300 1191 
L 4300 19 
Q 4300 -409 3809 -409 
Q 3469 -409 3175 -372 
L 3097 78 
Q 3416 0 3675 0 
Q 3866 0 3866 184 
L 3866 1191 
L 2100 1191 
L 2100 1563 
L 6072 1563 
L 6072 1191 
L 4300 1191 
z
M 2481 2350 
L 5669 2350 
L 5669 1984 
L 2481 1984 
L 2481 2350 
z
M 1938 13 
Q 2534 406 2938 1069 
L 3322 891 
Q 2903 150 2272 -306 
L 1938 13 
z
M 5722 -191 
Q 5166 459 4666 838 
L 4978 1088 
Q 5572 681 6094 134 
L 5722 -191 
z
" transform="scale(0.015625)"/>
      <path id="IPAPGothic-5024" d="M 4172 3675 
L 5453 3675 
L 5453 684 
L 3019 684 
L 3019 3675 
L 3747 3675 
Q 3788 3884 3825 4153 
L 2144 4153 
L 2144 4544 
L 3881 4544 
Q 3922 4841 3966 5325 
L 4434 5272 
L 4391 4953 
Q 4331 4578 4331 4544 
L 5863 4544 
L 5863 4153 
L 4269 4153 
Q 4200 3781 4172 3675 
z
M 5038 3316 
L 3434 3316 
L 3434 2803 
L 5038 2803 
L 5038 3316 
z
M 3434 2450 
L 3434 1941 
L 5038 1941 
L 5038 2450 
L 3434 2450 
z
M 3434 1588 
L 3434 1044 
L 5038 1044 
L 5038 1588 
L 3434 1588 
z
M 1509 3669 
L 1509 -447 
L 1069 -447 
L 1069 2728 
Q 856 2338 531 1875 
L 288 2266 
Q 1163 3534 1541 5325 
L 1975 5225 
Q 1791 4378 1509 3669 
z
M 2488 244 
L 6034 244 
L 6034 -153 
L 2488 -153 
L 2488 -447 
L 2059 -447 
L 2059 3213 
L 2488 3213 
L 2488 244 
z
" transform="scale(0.015625)"/>
     </defs>
     <use xlink:href="#IPAPGothic-76ee"/>
     <use xlink:href="#IPAPGothic-6a19" transform="translate(100 0)"/>
     <use xlink:href="#IPAPGothic-5024" transform="translate(200 0)"/>
    </g>
   </g>
   <g id="patch_7">
    <path d="M 219.818182 67.121591 
Q 245.498864 67.121591 269.837905 67.121591 
" style="fill: none; stroke: #000000; stroke-width: 1.2; stroke-linecap: round"/>
    <path d="M 264.237905 64.321591 
L 269.837905 67.121591 
L 264.237905 69.921591 
" style="fill: none; stroke: #000000; stroke-width: 1.2; stroke-linecap: round"/>
   </g>
   <g id="text_6">
    <!-- 操作信号 -->
    <g transform="translate(227.498864 52.285909) scale(0.09 -0.09)">
     <defs>
      <path id="IPAPGothic-4fe1" d="M 1572 3809 
L 1572 -447 
L 1119 -447 
L 1119 2850 
Q 856 2375 550 1972 
L 300 2363 
Q 1172 3553 1566 5256 
L 2013 5147 
Q 1819 4428 1572 3809 
z
M 5534 1619 
L 5534 -447 
L 5081 -447 
L 5081 -116 
L 2763 -116 
L 2763 -447 
L 2316 -447 
L 2316 1619 
L 5534 1619 
z
M 2763 1234 
L 2763 269 
L 5081 269 
L 5081 1234 
L 2763 1234 
z
M 2475 4984 
L 5375 4984 
L 5375 4588 
L 2475 4588 
L 2475 4984 
z
M 2475 3297 
L 5375 3297 
L 5375 2906 
L 2475 2906 
L 2475 3297 
z
M 2475 2456 
L 5375 2456 
L 5375 2066 
L 2475 2066 
L 2475 2456 
z
M 1894 4147 
L 6003 4147 
L 6003 3738 
L 1894 3738 
L 1894 4147 
z
" transform="scale(0.015625)"/>
      <path id="IPAPGothic-53f7" d="M 5144 4947 
L 5144 3303 
L 1247 3303 
L 1247 4947 
L 5144 4947 
z
M 1706 4550 
L 1706 3694 
L 4684 3694 
L 4684 4550 
L 1706 4550 
z
M 2328 2350 
L 2309 2291 
Q 2225 2013 2138 1753 
L 5297 1753 
Q 5231 556 4978 19 
Q 4850 -247 4613 -331 
Q 4431 -403 4044 -403 
Q 3463 -403 3006 -359 
L 2906 147 
Q 3544 44 4025 44 
Q 4425 44 4569 397 
Q 4703 731 4775 1344 
L 1978 1344 
Q 1875 1097 1716 788 
L 1241 928 
Q 1631 1603 1850 2350 
L 416 2350 
L 416 2753 
L 6034 2753 
L 6034 2350 
L 2328 2350 
z
" transform="scale(0.015625)"/>
     </defs>
     <use xlink:href="#IPAPGothic-64cd"/>
     <use xlink:href="#IPAPGothic-4f5c" transform="translate(100 0)"/>
     <use xlink:href="#IPAPGothic-4fe1" transform="translate(200 0)"/>
     <use xlink:href="#IPAPGothic-53f7" transform="translate(300 0)"/>
    </g>
   </g>
   <g id="patch_8">
    <path d="M 322.540909 67.121591 
Q 353.928409 67.121591 383.974268 67.121591 
" style="fill: none; stroke: #000000; stroke-width: 1.2; stroke-linecap: round"/>
    <path d="M 378.374268 64.321591 
L 383.974268 67.121591 
L 378.374268 69.921591 
" style="fill: none; stroke: #000000; stroke-width: 1.2; stroke-linecap: round"/>
   </g>
   <g id="text_7">
    <!-- 操作量 -->
    <g transform="translate(340.428409 52.285909) scale(0.09 -0.09)">
     <defs>
      <path id="IPAPGothic-91cf" d="M 5081 5159 
L 5081 3497 
L 1275 3497 
L 1275 5159 
L 5081 5159 
z
M 1716 4819 
L 1716 4475 
L 4647 4475 
L 4647 4819 
L 1716 4819 
z
M 1716 4175 
L 1716 3816 
L 4647 3816 
L 4647 4175 
L 1716 4175 
z
M 5238 2625 
L 5238 997 
L 3388 997 
L 3388 694 
L 5428 694 
L 5428 353 
L 3388 353 
L 3388 34 
L 6044 34 
L 6044 -331 
L 353 -331 
L 353 34 
L 2972 34 
L 2972 353 
L 969 353 
L 969 694 
L 2972 694 
L 2972 997 
L 1159 997 
L 1159 2625 
L 5238 2625 
z
M 1588 2325 
L 1588 1972 
L 2972 1972 
L 2972 2325 
L 1588 2325 
z
M 1588 1672 
L 1588 1303 
L 2972 1303 
L 2972 1672 
L 1588 1672 
z
M 4809 1303 
L 4809 1672 
L 3388 1672 
L 3388 1303 
L 4809 1303 
z
M 4809 1972 
L 4809 2325 
L 3388 2325 
L 3388 1972 
L 4809 1972 
z
M 384 3231 
L 6009 3231 
L 6009 2884 
L 384 2884 
L 384 3231 
z
" transform="scale(0.015625)"/>
     </defs>
     <use xlink:href="#IPAPGothic-64cd"/>
     <use xlink:href="#IPAPGothic-4f5c" transform="translate(100 0)"/>
     <use xlink:href="#IPAPGothic-91cf" transform="translate(200 0)"/>
    </g>
   </g>
   <g id="patch_9">
    <path d="M 456.651136 67.121591 
Q 480.905114 67.121591 503.81745 67.121591 
" style="fill: none; stroke: #000000; stroke-width: 1.2; stroke-linecap: round"/>
    <path d="M 498.21745 64.321591 
L 503.81745 67.121591 
L 498.21745 69.921591 
" style="fill: none; stroke: #000000; stroke-width: 1.2; stroke-linecap: round"/>
   </g>
   <g id="text_8">
    <!-- 制御量 -->
    <g transform="translate(468.831818 52.285909) scale(0.09 -0.09)">
     <use xlink:href="#IPAPGothic-5236"/>
     <use xlink:href="#IPAPGothic-5fa1" transform="translate(100 0)"/>
     <use xlink:href="#IPAPGothic-91cf" transform="translate(200 0)"/>
    </g>
   </g>
  </g>
 </g>
 <defs>
  <clipPath id="pd1b6fd4021">
   <rect x="22.932955" y="7.2" width="502.2" height="154.084091"/>
  </clipPath>
 </defs>
</svg>
