<?xml version="1.0" encoding="utf-8" standalone="no"?>
<!DOCTYPE svg PUBLIC "-//W3C//DTD SVG 1.1//EN"
  "http://www.w3.org/Graphics/SVG/1.1/DTD/svg11.dtd">
<svg xmlns:xlink="http://www.w3.org/1999/xlink" width="599.387586pt" height="348.079515pt" viewBox="0 0 599.387586 348.079515" xmlns="http://www.w3.org/2000/svg" version="1.1">
 <metadata>
  <rdf:RDF xmlns:dc="http://purl.org/dc/elements/1.1/" xmlns:cc="http://creativecommons.org/ns#" xmlns:rdf="http://www.w3.org/1999/02/22-rdf-syntax-ns#">
   <cc:Work>
    <dc:type rdf:resource="http://purl.org/dc/dcmitype/StillImage"/>
    <dc:date>2026-07-02T08:35:37.072117</dc:date>
    <dc:format>image/svg+xml</dc:format>
    <dc:creator>
     <cc:Agent>
      <dc:title>Matplotlib v3.10.0, https://matplotlib.org/</dc:title>
     </cc:Agent>
    </dc:creator>
   </cc:Work>
  </rdf:RDF>
 </metadata>
 <defs>
  <style type="text/css">*{stroke-linejoin: round; stroke-linecap: butt}</style>
 </defs>
 <g id="figure_1">
  <g id="patch_1">
   <path d="M 0 348.079515 
L 599.387586 348.079515 
L 599.387586 -0 
L 0 -0 
z
" style="fill: #ffffff"/>
  </g>
  <g id="axes_1">
   <g id="patch_2">
    <path d="M 41.611034 294.998136 
L 282.488276 294.998136 
L 282.488276 269.18986 
L 41.611034 269.18986 
z
" clip-path="url(#p55021e43fe)" style="fill: #e0e0e0; stroke: #000000; stroke-width: 1.6; stroke-linejoin: miter"/>
   </g>
   <g id="patch_3">
    <path d="M 55.948966 114.340205 
L 273.885517 114.340205 
L 273.885517 88.531929 
L 55.948966 88.531929 
z
" clip-path="url(#p55021e43fe)" style="fill: #e0e0e0; stroke: #000000; stroke-width: 1.6; stroke-linejoin: miter"/>
   </g>
   <g id="patch_4">
    <path d="M 362.78069 125.81055 
L 534.835862 125.81055 
L 534.835862 101.722825 
L 362.78069 101.722825 
z
" clip-path="url(#p55021e43fe)" style="fill: #ffffff; stroke: #000000; stroke-width: 1.5; stroke-linejoin: miter"/>
   </g>
   <g id="line2d_1">
    <path d="M 362.78069 188.897446 
L 384.720611 192.923292 
L 396.267938 194.823605 
L 406.660532 196.311644 
L 415.898394 197.412342 
L 425.136255 198.271351 
L 433.219384 198.805373 
L 441.302513 199.123959 
L 449.385642 199.220183 
L 457.468771 199.091951 
L 465.5519 198.742053 
L 473.635029 198.178095 
L 481.718158 197.412342 
L 490.956019 196.311644 
L 501.348614 194.823605 
L 512.895941 192.923292 
L 527.907466 190.199937 
L 534.835862 188.897446 
L 534.835862 188.897446 
" clip-path="url(#p55021e43fe)" style="fill: none; stroke: #000000; stroke-width: 1.5; stroke-linecap: square"/>
   </g>
   <g id="line2d_2">
    <path d="M 362.78069 212.98517 
L 384.720611 217.011016 
L 396.267938 218.91133 
L 406.660532 220.399368 
L 415.898394 221.500066 
L 425.136255 222.359075 
L 433.219384 222.893097 
L 441.302513 223.211683 
L 449.385642 223.307907 
L 457.468771 223.179675 
L 465.5519 222.829777 
L 473.635029 222.265819 
L 481.718158 221.500066 
L 490.956019 220.399368 
L 501.348614 218.91133 
L 512.895941 217.011016 
L 527.907466 214.287661 
L 534.835862 212.98517 
L 534.835862 212.98517 
" clip-path="url(#p55021e43fe)" style="fill: none; stroke: #000000; stroke-width: 1.5; stroke-linecap: square"/>
   </g>
   <g id="line2d_3">
    <path d="M 362.78069 212.98517 
L 362.78069 188.897446 
" clip-path="url(#p55021e43fe)" style="fill: none; stroke: #000000; stroke-width: 1.5; stroke-linecap: square"/>
   </g>
   <g id="line2d_4">
    <path d="M 534.835862 212.98517 
L 534.835862 188.897446 
" clip-path="url(#p55021e43fe)" style="fill: none; stroke: #000000; stroke-width: 1.5; stroke-linecap: square"/>
   </g>
   <g id="patch_5">
    <path d="M 73.154483 269.18986 
L 98.962759 269.18986 
L 98.962759 114.340205 
L 73.154483 114.340205 
z
" clip-path="url(#p55021e43fe)" style="fill: #d1d1d1; stroke: #000000; stroke-width: 1.6; stroke-linejoin: miter"/>
   </g>
   <g id="patch_6">
    <path d="M 119.035862 211.838136 
L 245.209655 211.838136 
L 245.209655 187.750412 
L 119.035862 187.750412 
z
" clip-path="url(#p55021e43fe)" style="fill: #ffffff; stroke: #000000; stroke-width: 1.5; stroke-linejoin: miter"/>
   </g>
   <g id="patch_7">
    <path d="M 170.652414 120.075377 
L 193.593103 120.075377 
L 182.122759 165.956756 
z
" clip-path="url(#p55021e43fe)" style="fill: #bfbfbf; stroke: #000000; stroke-width: 1.5; stroke-linejoin: miter"/>
   </g>
   <g id="patch_8">
    <path d="M 405.794483 122.942963 
L 488.954483 122.942963 
L 488.954483 104.590412 
L 405.794483 104.590412 
z
" clip-path="url(#p55021e43fe)" style="fill: #fff3b0; stroke: #000000; stroke-width: 1.3; stroke-linejoin: miter"/>
   </g>
   <g id="line2d_5">
    <path d="M 488.954483 116.51957 
L 514.762759 116.51957 
" clip-path="url(#p55021e43fe)" style="fill: none; stroke: #000000; stroke-width: 1.2; stroke-linecap: square"/>
   </g>
   <g id="line2d_6">
    <path d="M 488.954483 111.013805 
L 514.762759 111.013805 
" clip-path="url(#p55021e43fe)" style="fill: none; stroke: #000000; stroke-width: 1.2; stroke-linecap: square"/>
   </g>
   <g id="patch_9">
    <path d="M 405.794483 203.235377 
L 494.689655 203.235377 
L 494.689655 184.882825 
L 405.794483 184.882825 
z
" clip-path="url(#p55021e43fe)" style="fill: #fff3b0; stroke: #000000; stroke-width: 1.3; stroke-linejoin: miter"/>
   </g>
   <g id="line2d_7">
    <path d="M 494.689655 196.811984 
L 520.497931 196.811984 
" clip-path="url(#p55021e43fe)" style="fill: none; stroke: #000000; stroke-width: 1.2; stroke-linecap: square"/>
   </g>
   <g id="line2d_8">
    <path d="M 494.689655 191.306219 
L 520.497931 191.306219 
" clip-path="url(#p55021e43fe)" style="fill: none; stroke: #000000; stroke-width: 1.2; stroke-linecap: square"/>
   </g>
   <g id="line2d_9">
    <path d="M 415.773683 118.905402 
L 428.414003 108.627973 
L 441.054323 118.905402 
L 453.694643 108.627973 
L 466.334963 118.905402 
L 478.975283 108.627973 
" clip-path="url(#p55021e43fe)" style="fill: none; stroke: #000000; stroke-width: 1.4; stroke-linecap: square"/>
   </g>
   <g id="line2d_10">
    <path d="M 416.461903 199.197816 
L 429.97397 188.920387 
L 443.486036 199.197816 
L 456.998102 188.920387 
L 470.510168 199.197816 
L 484.022234 188.920387 
" clip-path="url(#p55021e43fe)" style="fill: none; stroke: #000000; stroke-width: 1.4; stroke-linecap: square"/>
   </g>
   <g id="line2d_11">
    <path d="M 97.815724 154.486412 
L 98.011736 154.942433 
L 98.207749 155.397732 
L 98.403761 155.851591 
L 98.599773 156.303292 
L 98.795785 156.752119 
L 98.991797 157.197364 
L 99.18781 157.638322 
L 99.383822 158.074297 
L 99.579834 158.504598 
L 99.775846 158.928546 
L 99.971859 159.345469 
L 100.167871 159.75471 
L 100.363883 160.15562 
L 100.559895 160.547566 
L 100.755907 160.929929 
L 100.95192 161.302102 
L 101.147932 161.663499 
L 101.343944 162.013547 
L 101.539956 162.351694 
L 101.735969 162.677403 
L 101.931981 162.990161 
L 102.127993 163.289473 
L 102.324005 163.574865 
L 102.520017 163.845887 
L 102.71603 164.10211 
L 102.912042 164.343128 
L 103.108054 164.56856 
L 103.304066 164.778051 
L 103.500079 164.971268 
L 103.696091 165.147907 
L 103.892103 165.307688 
L 104.088115 165.450358 
L 104.284127 165.575691 
L 104.48014 165.683491 
L 104.676152 165.773585 
L 104.872164 165.845832 
L 105.068176 165.900118 
L 105.264189 165.936356 
L 105.460201 165.954489 
L 105.656213 165.954489 
L 105.852225 165.936356 
L 106.048237 165.900118 
L 106.24425 165.845832 
L 106.440262 165.773585 
L 106.636274 165.683491 
L 106.832286 165.575691 
L 107.028299 165.450358 
L 107.224311 165.307688 
L 107.420323 165.147907 
L 107.616335 164.971268 
L 107.812347 164.778051 
L 108.00836 164.56856 
L 108.204372 164.343128 
L 108.400384 164.10211 
L 108.596396 163.845887 
L 108.792409 163.574865 
L 108.988421 163.289473 
L 109.184433 162.990161 
L 109.380445 162.677403 
L 109.576457 162.351694 
L 109.77247 162.013547 
L 109.968482 161.663499 
L 110.164494 161.302102 
L 110.360506 160.929929 
L 110.556519 160.547566 
L 110.752531 160.15562 
L 110.948543 159.75471 
L 111.144555 159.345469 
L 111.340567 158.928546 
L 111.53658 158.504598 
L 111.732592 158.074297 
L 111.928604 157.638322 
L 112.124616 157.197364 
L 112.320629 156.752119 
L 112.516641 156.303292 
L 112.712653 155.851591 
L 112.908665 155.397732 
L 113.104677 154.942433 
L 113.30069 154.486412 
" clip-path="url(#p55021e43fe)" style="fill: none; stroke-dasharray: 4.44,1.92; stroke-dashoffset: 0; stroke: #000000; stroke-width: 1.2"/>
   </g>
   <g id="patch_10">
    <path d="M 96.095172 194.632619 
L 162.049655 194.632619 
L 162.049655 173.985998 
L 96.095172 173.985998 
z
" clip-path="url(#p55021e43fe)" style="fill: #fff3b0; stroke: #000000; stroke-width: 1.3; stroke-linejoin: miter"/>
   </g>
   <g id="line2d_12">
    <path d="M 162.049655 187.406301 
L 187.857931 187.406301 
" clip-path="url(#p55021e43fe)" style="fill: none; stroke: #000000; stroke-width: 1.2; stroke-linecap: square"/>
   </g>
   <g id="line2d_13">
    <path d="M 162.049655 181.212315 
L 187.857931 181.212315 
" clip-path="url(#p55021e43fe)" style="fill: none; stroke: #000000; stroke-width: 1.2; stroke-linecap: square"/>
   </g>
   <g id="line2d_14">
    <path d="M 104.00971 190.090362 
L 114.034792 178.528254 
L 124.059873 190.090362 
L 134.084954 178.528254 
L 144.110036 190.090362 
L 154.135117 178.528254 
" clip-path="url(#p55021e43fe)" style="fill: none; stroke: #000000; stroke-width: 1.4; stroke-linecap: square"/>
   </g>
   <g id="patch_11">
    <path d="M 182.122759 28.312619 
Q 182.122759 68.458825 182.122759 105.921751 
" style="fill: none; stroke: #000000; stroke-width: 2.4; stroke-linecap: round"/>
    <path d="M 186.522759 97.121751 
L 182.122759 105.921751 
L 177.722759 97.121751 
z
" style="stroke: #000000; stroke-width: 2.4; stroke-linecap: round"/>
   </g>
   <g id="patch_12">
    <path d="M 245.209655 154.486412 
Q 199.328276 167.39055 154.953684 179.870904 
" style="fill: none; stroke: #000000; stroke-width: 1.4; stroke-linecap: round"/>
    <path d="M 161.102616 181.050151 
L 154.953684 179.870904 
L 159.586441 175.659306 
z
" style="stroke: #000000; stroke-width: 1.4; stroke-linecap: round"/>
   </g>
   <g id="patch_13">
    <path d="M 405.794483 223.308481 
Q 450.242069 223.308481 493.236211 223.308481 
" style="fill: none; stroke: #000000; stroke-width: 1.3; stroke-linecap: round"/>
    <path d="M 488.436211 220.908481 
L 493.236211 223.308481 
L 488.436211 225.708481 
z
" style="stroke: #000000; stroke-width: 1.3; stroke-linecap: round"/>
   </g>
   <g id="patch_14">
    <path d="M 494.689655 223.308481 
Q 450.242069 223.308481 407.247927 223.308481 
" style="fill: none; stroke: #000000; stroke-width: 1.3; stroke-linecap: round"/>
    <path d="M 412.047927 225.708481 
L 407.247927 223.308481 
L 412.047927 220.908481 
z
" style="stroke: #000000; stroke-width: 1.3; stroke-linecap: round"/>
   </g>
   <g id="patch_15">
    <path d="M 448.808276 134.413308 
Q 448.808276 150.185032 448.808276 164.279705 
" style="fill: none; stroke: #000000; stroke-width: 1.5; stroke-linecap: round"/>
    <path d="M 451.608276 158.679705 
L 448.808276 164.279705 
L 446.008276 158.679705 
z
" style="stroke: #000000; stroke-width: 1.5; stroke-linecap: round"/>
   </g>
   <g id="patch_16">
    <path d="M 448.808276 217.573308 
Q 448.808276 234.778825 448.808276 250.307292 
" style="fill: none; stroke: #000000; stroke-width: 1.5; stroke-linecap: round"/>
    <path d="M 451.608276 244.707292 
L 448.808276 250.307292 
L 446.008276 244.707292 
z
" style="stroke: #000000; stroke-width: 1.5; stroke-linecap: round"/>
   </g>
   <g id="text_1">
    <!-- 下台 -->
    <g transform="translate(154.247624 312.923254) scale(0.13 -0.13)">
     <defs>
      <path id="DejaVuSans-4e0b" d="M 319 -1131 
L 319 4513 
L 3519 4513 
L 3519 -1131 
L 319 -1131 
z
M 678 -775 
L 3163 -775 
L 3163 4153 
L 678 4153 
L 678 -775 
z
" transform="scale(0.015625)"/>
      <path id="DejaVuSans-53f0" d="M 319 -1131 
L 319 4513 
L 3519 4513 
L 3519 -1131 
L 319 -1131 
z
M 678 -775 
L 3163 -775 
L 3163 4153 
L 678 4153 
L 678 -775 
z
" transform="scale(0.015625)"/>
     </defs>
     <use xlink:href="#DejaVuSans-4e0b"/>
     <use xlink:href="#DejaVuSans-53f0" transform="translate(60.009766 0)"/>
    </g>
   </g>
   <g id="text_2">
    <!-- 固定部 -->
    <g transform="translate(74.642332 106.457047) scale(0.13 -0.13)">
     <defs>
      <path id="DejaVuSans-56fa" d="M 319 -1131 
L 319 4513 
L 3519 4513 
L 3519 -1131 
L 319 -1131 
z
M 678 -775 
L 3163 -775 
L 3163 4153 
L 678 4153 
L 678 -775 
z
" transform="scale(0.015625)"/>
      <path id="DejaVuSans-5b9a" d="M 319 -1131 
L 319 4513 
L 3519 4513 
L 3519 -1131 
L 319 -1131 
z
M 678 -775 
L 3163 -775 
L 3163 4153 
L 678 4153 
L 678 -775 
z
" transform="scale(0.015625)"/>
      <path id="DejaVuSans-90e8" d="M 319 -1131 
L 319 4513 
L 3519 4513 
L 3519 -1131 
L 319 -1131 
z
M 678 -775 
L 3163 -775 
L 3163 4153 
L 678 4153 
L 678 -775 
z
" transform="scale(0.015625)"/>
     </defs>
     <use xlink:href="#DejaVuSans-56fa"/>
     <use xlink:href="#DejaVuSans-5b9a" transform="translate(60.009766 0)"/>
     <use xlink:href="#DejaVuSans-90e8" transform="translate(120.019531 0)"/>
    </g>
   </g>
   <g id="text_3">
    <!-- 上台 -->
    <g transform="translate(157.11521 77.781185) scale(0.13 -0.13)">
     <defs>
      <path id="DejaVuSans-4e0a" d="M 319 -1131 
L 319 4513 
L 3519 4513 
L 3519 -1131 
L 319 -1131 
z
M 678 -775 
L 3163 -775 
L 3163 4153 
L 678 4153 
L 678 -775 
z
" transform="scale(0.015625)"/>
     </defs>
     <use xlink:href="#DejaVuSans-4e0a"/>
     <use xlink:href="#DejaVuSans-53f0" transform="translate(60.009766 0)"/>
    </g>
   </g>
   <g id="text_4">
    <!-- 試料 -->
    <g transform="translate(174.920884 203.105524) scale(0.12 -0.12)">
     <defs>
      <path id="DejaVuSans-8a66" d="M 319 -1131 
L 319 4513 
L 3519 4513 
L 3519 -1131 
L 319 -1131 
z
M 678 -775 
L 3163 -775 
L 3163 4153 
L 678 4153 
L 678 -775 
z
" transform="scale(0.015625)"/>
      <path id="DejaVuSans-6599" d="M 319 -1131 
L 319 4513 
L 3519 4513 
L 3519 -1131 
L 319 -1131 
z
M 678 -775 
L 3163 -775 
L 3163 4153 
L 678 4153 
L 678 -775 
z
" transform="scale(0.015625)"/>
     </defs>
     <use xlink:href="#DejaVuSans-8a66"/>
     <use xlink:href="#DejaVuSans-6599" transform="translate(60.009766 0)"/>
    </g>
   </g>
   <g id="text_5">
    <!-- 刃物 -->
    <g transform="translate(210.798621 146.327317) scale(0.12 -0.12)">
     <defs>
      <path id="DejaVuSans-5203" d="M 319 -1131 
L 319 4513 
L 3519 4513 
L 3519 -1131 
L 319 -1131 
z
M 678 -775 
L 3163 -775 
L 3163 4153 
L 678 4153 
L 678 -775 
z
" transform="scale(0.015625)"/>
      <path id="DejaVuSans-7269" d="M 319 -1131 
L 319 4513 
L 3519 4513 
L 3519 -1131 
L 319 -1131 
z
M 678 -775 
L 3163 -775 
L 3163 4153 
L 678 4153 
L 678 -775 
z
" transform="scale(0.015625)"/>
     </defs>
     <use xlink:href="#DejaVuSans-5203"/>
     <use xlink:href="#DejaVuSans-7269" transform="translate(60.009766 0)"/>
    </g>
   </g>
   <g id="text_6">
    <!-- 切断荷重 -->
    <g transform="translate(165.318384 17.837813) scale(0.14 -0.14)">
     <defs>
      <path id="DejaVuSans-5207" d="M 319 -1131 
L 319 4513 
L 3519 4513 
L 3519 -1131 
L 319 -1131 
z
M 678 -775 
L 3163 -775 
L 3163 4153 
L 678 4153 
L 678 -775 
z
" transform="scale(0.015625)"/>
      <path id="DejaVuSans-65ad" d="M 319 -1131 
L 319 4513 
L 3519 4513 
L 3519 -1131 
L 319 -1131 
z
M 678 -775 
L 3163 -775 
L 3163 4153 
L 678 4153 
L 678 -775 
z
" transform="scale(0.015625)"/>
      <path id="DejaVuSans-8377" d="M 319 -1131 
L 319 4513 
L 3519 4513 
L 3519 -1131 
L 319 -1131 
z
M 678 -775 
L 3163 -775 
L 3163 4153 
L 678 4153 
L 678 -775 
z
" transform="scale(0.015625)"/>
      <path id="DejaVuSans-91cd" d="M 319 -1131 
L 319 4513 
L 3519 4513 
L 3519 -1131 
L 319 -1131 
z
M 678 -775 
L 3163 -775 
L 3163 4153 
L 678 4153 
L 678 -775 
z
" transform="scale(0.015625)"/>
     </defs>
     <use xlink:href="#DejaVuSans-5207"/>
     <use xlink:href="#DejaVuSans-65ad" transform="translate(60.009766 0)"/>
     <use xlink:href="#DejaVuSans-8377" transform="translate(120.019531 0)"/>
     <use xlink:href="#DejaVuSans-91cd" transform="translate(180.029297 0)"/>
    </g>
   </g>
   <g id="text_7">
    <!-- 曲げ変形 -->
    <g transform="translate(130.506207 163.532834) scale(0.12 -0.12)">
     <defs>
      <path id="DejaVuSans-66f2" d="M 319 -1131 
L 319 4513 
L 3519 4513 
L 3519 -1131 
L 319 -1131 
z
M 678 -775 
L 3163 -775 
L 3163 4153 
L 678 4153 
L 678 -775 
z
" transform="scale(0.015625)"/>
      <path id="DejaVuSans-3052" d="M 319 -1131 
L 319 4513 
L 3519 4513 
L 3519 -1131 
L 319 -1131 
z
M 678 -775 
L 3163 -775 
L 3163 4153 
L 678 4153 
L 678 -775 
z
" transform="scale(0.015625)"/>
      <path id="DejaVuSans-5909" d="M 319 -1131 
L 319 4513 
L 3519 4513 
L 3519 -1131 
L 319 -1131 
z
M 678 -775 
L 3163 -775 
L 3163 4153 
L 678 4153 
L 678 -775 
z
" transform="scale(0.015625)"/>
      <path id="DejaVuSans-5f62" d="M 319 -1131 
L 319 4513 
L 3519 4513 
L 3519 -1131 
L 319 -1131 
z
M 678 -775 
L 3163 -775 
L 3163 4153 
L 678 4153 
L 678 -775 
z
" transform="scale(0.015625)"/>
     </defs>
     <use xlink:href="#DejaVuSans-66f2"/>
     <use xlink:href="#DejaVuSans-3052" transform="translate(60.009766 0)"/>
     <use xlink:href="#DejaVuSans-5909" transform="translate(120.019531 0)"/>
     <use xlink:href="#DejaVuSans-5f62" transform="translate(180.029297 0)"/>
    </g>
   </g>
   <g id="text_8">
    <!-- ひずみゲージ -->
    <g transform="translate(106.032996 214.002351) scale(0.12 -0.12)">
     <defs>
      <path id="DejaVuSans-3072" d="M 319 -1131 
L 319 4513 
L 3519 4513 
L 3519 -1131 
L 319 -1131 
z
M 678 -775 
L 3163 -775 
L 3163 4153 
L 678 4153 
L 678 -775 
z
" transform="scale(0.015625)"/>
      <path id="DejaVuSans-305a" d="M 319 -1131 
L 319 4513 
L 3519 4513 
L 3519 -1131 
L 319 -1131 
z
M 678 -775 
L 3163 -775 
L 3163 4153 
L 678 4153 
L 678 -775 
z
" transform="scale(0.015625)"/>
      <path id="DejaVuSans-307f" d="M 319 -1131 
L 319 4513 
L 3519 4513 
L 3519 -1131 
L 319 -1131 
z
M 678 -775 
L 3163 -775 
L 3163 4153 
L 678 4153 
L 678 -775 
z
" transform="scale(0.015625)"/>
      <path id="DejaVuSans-30b2" d="M 319 -1131 
L 319 4513 
L 3519 4513 
L 3519 -1131 
L 319 -1131 
z
M 678 -775 
L 3163 -775 
L 3163 4153 
L 678 4153 
L 678 -775 
z
" transform="scale(0.015625)"/>
      <path id="DejaVuSans-30fc" d="M 319 -1131 
L 319 4513 
L 3519 4513 
L 3519 -1131 
L 319 -1131 
z
M 678 -775 
L 3163 -775 
L 3163 4153 
L 678 4153 
L 678 -775 
z
" transform="scale(0.015625)"/>
      <path id="DejaVuSans-30b8" d="M 319 -1131 
L 319 4513 
L 3519 4513 
L 3519 -1131 
L 319 -1131 
z
M 678 -775 
L 3163 -775 
L 3163 4153 
L 678 4153 
L 678 -775 
z
" transform="scale(0.015625)"/>
     </defs>
     <use xlink:href="#DejaVuSans-3072"/>
     <use xlink:href="#DejaVuSans-305a" transform="translate(60.009766 0)"/>
     <use xlink:href="#DejaVuSans-307f" transform="translate(120.019531 0)"/>
     <use xlink:href="#DejaVuSans-30b2" transform="translate(180.029297 0)"/>
     <use xlink:href="#DejaVuSans-30fc" transform="translate(240.039062 0)"/>
     <use xlink:href="#DejaVuSans-30b8" transform="translate(300.048828 0)"/>
    </g>
   </g>
   <g id="text_9">
    <!-- 取付位置 -->
    <g transform="translate(256.68 152.062489) scale(0.12 -0.12)">
     <defs>
      <path id="DejaVuSans-53d6" d="M 319 -1131 
L 319 4513 
L 3519 4513 
L 3519 -1131 
L 319 -1131 
z
M 678 -775 
L 3163 -775 
L 3163 4153 
L 678 4153 
L 678 -775 
z
" transform="scale(0.015625)"/>
      <path id="DejaVuSans-4ed8" d="M 319 -1131 
L 319 4513 
L 3519 4513 
L 3519 -1131 
L 319 -1131 
z
M 678 -775 
L 3163 -775 
L 3163 4153 
L 678 4153 
L 678 -775 
z
" transform="scale(0.015625)"/>
      <path id="DejaVuSans-4f4d" d="M 319 -1131 
L 319 4513 
L 3519 4513 
L 3519 -1131 
L 319 -1131 
z
M 678 -775 
L 3163 -775 
L 3163 4153 
L 678 4153 
L 678 -775 
z
" transform="scale(0.015625)"/>
      <path id="DejaVuSans-7f6e" d="M 319 -1131 
L 319 4513 
L 3519 4513 
L 3519 -1131 
L 319 -1131 
z
M 678 -775 
L 3163 -775 
L 3163 4153 
L 678 4153 
L 678 -775 
z
" transform="scale(0.015625)"/>
     </defs>
     <use xlink:href="#DejaVuSans-53d6"/>
     <use xlink:href="#DejaVuSans-4ed8" transform="translate(60.009766 0)"/>
     <use xlink:href="#DejaVuSans-4f4d" transform="translate(120.019531 0)"/>
     <use xlink:href="#DejaVuSans-7f6e" transform="translate(180.029297 0)"/>
    </g>
   </g>
   <g id="text_10">
    <!-- ひずみゲージの原理 -->
    <g transform="translate(413.866018 66.586778) scale(0.14 -0.14)">
     <defs>
      <path id="DejaVuSans-306e" d="M 319 -1131 
L 319 4513 
L 3519 4513 
L 3519 -1131 
L 319 -1131 
z
M 678 -775 
L 3163 -775 
L 3163 4153 
L 678 4153 
L 678 -775 
z
" transform="scale(0.015625)"/>
      <path id="DejaVuSans-539f" d="M 319 -1131 
L 319 4513 
L 3519 4513 
L 3519 -1131 
L 319 -1131 
z
M 678 -775 
L 3163 -775 
L 3163 4153 
L 678 4153 
L 678 -775 
z
" transform="scale(0.015625)"/>
      <path id="DejaVuSans-7406" d="M 319 -1131 
L 319 4513 
L 3519 4513 
L 3519 -1131 
L 319 -1131 
z
M 678 -775 
L 3163 -775 
L 3163 4153 
L 678 4153 
L 678 -775 
z
" transform="scale(0.015625)"/>
     </defs>
     <use xlink:href="#DejaVuSans-3072"/>
     <use xlink:href="#DejaVuSans-305a" transform="translate(60.009766 0)"/>
     <use xlink:href="#DejaVuSans-307f" transform="translate(120.019531 0)"/>
     <use xlink:href="#DejaVuSans-30b2" transform="translate(180.029297 0)"/>
     <use xlink:href="#DejaVuSans-30fc" transform="translate(240.039062 0)"/>
     <use xlink:href="#DejaVuSans-30b8" transform="translate(300.048828 0)"/>
     <use xlink:href="#DejaVuSans-306e" transform="translate(360.058594 0)"/>
     <use xlink:href="#DejaVuSans-539f" transform="translate(420.068359 0)"/>
     <use xlink:href="#DejaVuSans-7406" transform="translate(480.078125 0)"/>
    </g>
   </g>
   <g id="text_11">
    <!-- 変形前 -->
    <g transform="translate(332.572306 117.651455) scale(0.12 -0.12)">
     <defs>
      <path id="DejaVuSans-524d" d="M 319 -1131 
L 319 4513 
L 3519 4513 
L 3519 -1131 
L 319 -1131 
z
M 678 -775 
L 3163 -775 
L 3163 4153 
L 678 4153 
L 678 -775 
z
" transform="scale(0.015625)"/>
     </defs>
     <use xlink:href="#DejaVuSans-5909"/>
     <use xlink:href="#DejaVuSans-5f62" transform="translate(60.009766 0)"/>
     <use xlink:href="#DejaVuSans-524d" transform="translate(120.019531 0)"/>
    </g>
   </g>
   <g id="text_12">
    <!-- 変形後 -->
    <g transform="translate(332.572306 200.811455) scale(0.12 -0.12)">
     <defs>
      <path id="DejaVuSans-5f8c" d="M 319 -1131 
L 319 4513 
L 3519 4513 
L 3519 -1131 
L 319 -1131 
z
M 678 -775 
L 3163 -775 
L 3163 4153 
L 678 4153 
L 678 -775 
z
" transform="scale(0.015625)"/>
     </defs>
     <use xlink:href="#DejaVuSans-5909"/>
     <use xlink:href="#DejaVuSans-5f62" transform="translate(60.009766 0)"/>
     <use xlink:href="#DejaVuSans-5f8c" transform="translate(120.019531 0)"/>
    </g>
   </g>
   <g id="text_13">
    <!-- 伸び・縮み -->
    <g transform="translate(433.737772 240.681724) scale(0.11 -0.11)">
     <defs>
      <path id="DejaVuSans-4f38" d="M 319 -1131 
L 319 4513 
L 3519 4513 
L 3519 -1131 
L 319 -1131 
z
M 678 -775 
L 3163 -775 
L 3163 4153 
L 678 4153 
L 678 -775 
z
" transform="scale(0.015625)"/>
      <path id="DejaVuSans-3073" d="M 319 -1131 
L 319 4513 
L 3519 4513 
L 3519 -1131 
L 319 -1131 
z
M 678 -775 
L 3163 -775 
L 3163 4153 
L 678 4153 
L 678 -775 
z
" transform="scale(0.015625)"/>
      <path id="DejaVuSans-30fb" d="M 319 -1131 
L 319 4513 
L 3519 4513 
L 3519 -1131 
L 319 -1131 
z
M 678 -775 
L 3163 -775 
L 3163 4153 
L 678 4153 
L 678 -775 
z
" transform="scale(0.015625)"/>
      <path id="DejaVuSans-7e2e" d="M 319 -1131 
L 319 4513 
L 3519 4513 
L 3519 -1131 
L 319 -1131 
z
M 678 -775 
L 3163 -775 
L 3163 4153 
L 678 4153 
L 678 -775 
z
" transform="scale(0.015625)"/>
     </defs>
     <use xlink:href="#DejaVuSans-4f38"/>
     <use xlink:href="#DejaVuSans-3073" transform="translate(60.009766 0)"/>
     <use xlink:href="#DejaVuSans-30fb" transform="translate(120.019531 0)"/>
     <use xlink:href="#DejaVuSans-7e2e" transform="translate(180.029297 0)"/>
     <use xlink:href="#DejaVuSans-307f" transform="translate(240.039062 0)"/>
    </g>
   </g>
   <g id="text_14">
    <!-- ひずみの変化を電気抵抗の変化として検出 -->
    <g transform="translate(380.390463 272.50111) scale(0.12 -0.12)">
     <defs>
      <path id="DejaVuSans-5316" d="M 319 -1131 
L 319 4513 
L 3519 4513 
L 3519 -1131 
L 319 -1131 
z
M 678 -775 
L 3163 -775 
L 3163 4153 
L 678 4153 
L 678 -775 
z
" transform="scale(0.015625)"/>
      <path id="DejaVuSans-3092" d="M 319 -1131 
L 319 4513 
L 3519 4513 
L 3519 -1131 
L 319 -1131 
z
M 678 -775 
L 3163 -775 
L 3163 4153 
L 678 4153 
L 678 -775 
z
" transform="scale(0.015625)"/>
      <path id="DejaVuSans-96fb" d="M 319 -1131 
L 319 4513 
L 3519 4513 
L 3519 -1131 
L 319 -1131 
z
M 678 -775 
L 3163 -775 
L 3163 4153 
L 678 4153 
L 678 -775 
z
" transform="scale(0.015625)"/>
      <path id="DejaVuSans-6c17" d="M 319 -1131 
L 319 4513 
L 3519 4513 
L 3519 -1131 
L 319 -1131 
z
M 678 -775 
L 3163 -775 
L 3163 4153 
L 678 4153 
L 678 -775 
z
" transform="scale(0.015625)"/>
      <path id="DejaVuSans-62b5" d="M 319 -1131 
L 319 4513 
L 3519 4513 
L 3519 -1131 
L 319 -1131 
z
M 678 -775 
L 3163 -775 
L 3163 4153 
L 678 4153 
L 678 -775 
z
" transform="scale(0.015625)"/>
      <path id="DejaVuSans-6297" d="M 319 -1131 
L 319 4513 
L 3519 4513 
L 3519 -1131 
L 319 -1131 
z
M 678 -775 
L 3163 -775 
L 3163 4153 
L 678 4153 
L 678 -775 
z
" transform="scale(0.015625)"/>
      <path id="DejaVuSans-3068" d="M 319 -1131 
L 319 4513 
L 3519 4513 
L 3519 -1131 
L 319 -1131 
z
M 678 -775 
L 3163 -775 
L 3163 4153 
L 678 4153 
L 678 -775 
z
" transform="scale(0.015625)"/>
      <path id="DejaVuSans-3057" d="M 319 -1131 
L 319 4513 
L 3519 4513 
L 3519 -1131 
L 319 -1131 
z
M 678 -775 
L 3163 -775 
L 3163 4153 
L 678 4153 
L 678 -775 
z
" transform="scale(0.015625)"/>
      <path id="DejaVuSans-3066" d="M 319 -1131 
L 319 4513 
L 3519 4513 
L 3519 -1131 
L 319 -1131 
z
M 678 -775 
L 3163 -775 
L 3163 4153 
L 678 4153 
L 678 -775 
z
" transform="scale(0.015625)"/>
      <path id="DejaVuSans-691c" d="M 319 -1131 
L 319 4513 
L 3519 4513 
L 3519 -1131 
L 319 -1131 
z
M 678 -775 
L 3163 -775 
L 3163 4153 
L 678 4153 
L 678 -775 
z
" transform="scale(0.015625)"/>
      <path id="DejaVuSans-51fa" d="M 319 -1131 
L 319 4513 
L 3519 4513 
L 3519 -1131 
L 319 -1131 
z
M 678 -775 
L 3163 -775 
L 3163 4153 
L 678 4153 
L 678 -775 
z
" transform="scale(0.015625)"/>
     </defs>
     <use xlink:href="#DejaVuSans-3072"/>
     <use xlink:href="#DejaVuSans-305a" transform="translate(60.009766 0)"/>
     <use xlink:href="#DejaVuSans-307f" transform="translate(120.019531 0)"/>
     <use xlink:href="#DejaVuSans-306e" transform="translate(180.029297 0)"/>
     <use xlink:href="#DejaVuSans-5909" transform="translate(240.039062 0)"/>
     <use xlink:href="#DejaVuSans-5316" transform="translate(300.048828 0)"/>
     <use xlink:href="#DejaVuSans-3092" transform="translate(360.058594 0)"/>
     <use xlink:href="#DejaVuSans-96fb" transform="translate(420.068359 0)"/>
     <use xlink:href="#DejaVuSans-6c17" transform="translate(480.078125 0)"/>
     <use xlink:href="#DejaVuSans-62b5" transform="translate(540.087891 0)"/>
     <use xlink:href="#DejaVuSans-6297" transform="translate(600.097656 0)"/>
     <use xlink:href="#DejaVuSans-306e" transform="translate(660.107422 0)"/>
     <use xlink:href="#DejaVuSans-5909" transform="translate(720.117188 0)"/>
     <use xlink:href="#DejaVuSans-5316" transform="translate(780.126953 0)"/>
     <use xlink:href="#DejaVuSans-3068" transform="translate(840.136719 0)"/>
     <use xlink:href="#DejaVuSans-3057" transform="translate(900.146484 0)"/>
     <use xlink:href="#DejaVuSans-3066" transform="translate(960.15625 0)"/>
     <use xlink:href="#DejaVuSans-691c" transform="translate(1020.166016 0)"/>
     <use xlink:href="#DejaVuSans-51fa" transform="translate(1080.175781 0)"/>
    </g>
   </g>
  </g>
 </g>
 <defs>
  <clipPath id="p55021e43fe">
   <rect x="7.2" y="8.239515" width="584.987586" height="332.64"/>
  </clipPath>
 </defs>
</svg>
