<?xml version="1.0" encoding="UTF-8" standalone="no"?>
<!DOCTYPE svg PUBLIC "-//W3C//DTD SVG 1.1//EN"
 "http://www.w3.org/Graphics/SVG/1.1/DTD/svg11.dtd">
<!-- Generated by graphviz version 2.43.0 (0)
 -->
<!-- Title: CurriculumFlow Pages: 1 -->
<svg width="1381pt" height="202pt"
 viewBox="0.00 0.00 1381.00 202.00" xmlns="http://www.w3.org/2000/svg" xmlns:xlink="http://www.w3.org/1999/xlink">
<g id="graph0" class="graph" transform="scale(1 1) rotate(0) translate(4 198)">
<title>CurriculumFlow</title>
<polygon fill="white" stroke="transparent" points="-4,4 -4,-198 1377,-198 1377,4 -4,4"/>
<!-- S -->
<g id="node1" class="node">
<title>S</title>
<path fill="white" stroke="black" d="M262.5,-194C262.5,-194 53.5,-194 53.5,-194 47.5,-194 41.5,-188 41.5,-182 41.5,-182 41.5,-138 41.5,-138 41.5,-132 47.5,-126 53.5,-126 53.5,-126 262.5,-126 262.5,-126 268.5,-126 274.5,-132 274.5,-138 274.5,-138 274.5,-182 274.5,-182 274.5,-188 268.5,-194 262.5,-194"/>
<text text-anchor="middle" x="158" y="-175.6" font-family="Noto Sans CJK JP" font-size="18.00">センシング</text>
<text text-anchor="middle" x="158" y="-155.6" font-family="Noto Sans CJK JP" font-size="18.00">入力技術</text>
<text text-anchor="middle" x="158" y="-135.6" font-family="Noto Sans CJK JP" font-size="18.00">センサの種類・原理・特性</text>
</g>
<!-- MCA -->
<g id="node3" class="node">
<title>MCA</title>
<path fill="white" stroke="black" d="M737,-131C737,-131 461,-131 461,-131 455,-131 449,-125 449,-119 449,-119 449,-75 449,-75 449,-69 455,-63 461,-63 461,-63 737,-63 737,-63 743,-63 749,-69 749,-75 749,-75 749,-119 749,-119 749,-125 743,-131 737,-131"/>
<text text-anchor="middle" x="599" y="-112.6" font-family="Noto Sans CJK JP" font-size="18.00">計測制御応用実習</text>
<text text-anchor="middle" x="599" y="-92.6" font-family="Noto Sans CJK JP" font-size="18.00">統合技術</text>
<text text-anchor="middle" x="599" y="-72.6" font-family="Noto Sans CJK JP" font-size="18.00">センサ入力・PLC制御・モータ制御</text>
</g>
<!-- S&#45;&gt;MCA -->
<g id="edge1" class="edge">
<title>S&#45;&gt;MCA</title>
<path fill="none" stroke="black" d="M274.63,-143.41C324.85,-136.2 384.5,-127.64 438.81,-119.85"/>
<polygon fill="black" stroke="black" points="439.48,-123.28 448.89,-118.4 438.49,-116.36 439.48,-123.28"/>
<text text-anchor="middle" x="382.5" y="-135.4" font-family="Noto Sans CJK JP" font-size="12.00">センサ技術</text>
</g>
<!-- MC -->
<g id="node2" class="node">
<title>MC</title>
<path fill="white" stroke="black" d="M304,-68C304,-68 12,-68 12,-68 6,-68 0,-62 0,-56 0,-56 0,-12 0,-12 0,-6 6,0 12,0 12,0 304,0 304,0 310,0 316,-6 316,-12 316,-12 316,-56 316,-56 316,-62 310,-68 304,-68"/>
<text text-anchor="middle" x="158" y="-49.6" font-family="Noto Sans CJK JP" font-size="18.00">計測制御</text>
<text text-anchor="middle" x="158" y="-29.6" font-family="Noto Sans CJK JP" font-size="18.00">処理・制御技術</text>
<text text-anchor="middle" x="158" y="-9.6" font-family="Noto Sans CJK JP" font-size="18.00">信号処理・PID制御・通信・画像処理</text>
</g>
<!-- MC&#45;&gt;MCA -->
<g id="edge2" class="edge">
<title>MC&#45;&gt;MCA</title>
<path fill="none" stroke="black" d="M316.25,-56.57C356.05,-62.28 398.84,-68.42 438.74,-74.14"/>
<polygon fill="black" stroke="black" points="438.42,-77.64 448.82,-75.59 439.42,-70.71 438.42,-77.64"/>
<text text-anchor="middle" x="382.5" y="-72.4" font-family="Noto Sans CJK JP" font-size="12.00">制御技術</text>
</g>
<!-- STD -->
<g id="node4" class="node">
<title>STD</title>
<path fill="white" stroke="black" d="M977,-131C977,-131 858,-131 858,-131 852,-131 846,-125 846,-119 846,-119 846,-75 846,-75 846,-69 852,-63 858,-63 858,-63 977,-63 977,-63 983,-63 989,-69 989,-75 989,-75 989,-119 989,-119 989,-125 983,-131 977,-131"/>
<text text-anchor="middle" x="917.5" y="-112.6" font-family="Noto Sans CJK JP" font-size="18.00">標準課題実習</text>
<text text-anchor="middle" x="917.5" y="-92.6" font-family="Noto Sans CJK JP" font-size="18.00">システム構築</text>
<text text-anchor="middle" x="917.5" y="-72.6" font-family="Noto Sans CJK JP" font-size="18.00">自動化設備製作</text>
</g>
<!-- MCA&#45;&gt;STD -->
<g id="edge3" class="edge">
<title>MCA&#45;&gt;STD</title>
<path fill="none" stroke="black" d="M749.45,-97C779.12,-97 809.2,-97 835.52,-97"/>
<polygon fill="black" stroke="black" points="835.78,-100.5 845.78,-97 835.78,-93.5 835.78,-100.5"/>
<text text-anchor="middle" x="797.5" y="-100.4" font-family="Noto Sans CJK JP" font-size="12.00">応用</text>
</g>
<!-- DEV -->
<g id="node5" class="node">
<title>DEV</title>
<path fill="white" stroke="black" d="M1361,-131C1361,-131 1098,-131 1098,-131 1092,-131 1086,-125 1086,-119 1086,-119 1086,-75 1086,-75 1086,-69 1092,-63 1098,-63 1098,-63 1361,-63 1361,-63 1367,-63 1373,-69 1373,-75 1373,-75 1373,-119 1373,-119 1373,-125 1367,-131 1361,-131"/>
<text text-anchor="middle" x="1229.5" y="-112.6" font-family="Noto Sans CJK JP" font-size="18.00">開発課題実習</text>
<text text-anchor="middle" x="1229.5" y="-92.6" font-family="Noto Sans CJK JP" font-size="18.00">課題解決型学習</text>
<text text-anchor="middle" x="1229.5" y="-72.6" font-family="Noto Sans CJK JP" font-size="18.00">機械・電気・電子情報の連携開発</text>
</g>
<!-- STD&#45;&gt;DEV -->
<g id="edge4" class="edge">
<title>STD&#45;&gt;DEV</title>
<path fill="none" stroke="black" d="M989.23,-97C1015.08,-97 1045.42,-97 1075.65,-97"/>
<polygon fill="black" stroke="black" points="1075.89,-100.5 1085.89,-97 1075.89,-93.5 1075.89,-100.5"/>
<text text-anchor="middle" x="1037.5" y="-100.4" font-family="Noto Sans CJK JP" font-size="12.00">発展</text>
</g>
</g>
</svg>
